<svg xmlns="http://www.w3.org/2000/svg" viewBox="0 0 590.2 602"><defs><style>.cls-1{fill:#fefefe;}.cls-2{fill:#85bf6c;}.cls-3{fill:#dff7ce;}.cls-4{fill:#071821;}.cls-5{fill:#306850;}.cls-6{fill:#15252d;}.cls-7{fill:#25343c;}.cls-8{fill:#5b666c;}.cls-9{fill:#29383f;}.cls-10{fill:#316951;}.cls-11{fill:#414e55;}.cls-12{fill:#fafafb;}.cls-13{fill:#14242c;}.cls-14{fill:#06171f;}.cls-15{fill:#306750;}</style></defs><title>boy</title><g id="Layer_2" data-name="Layer 2"><g id="Layer_1-2" data-name="Layer 1"><path class="cls-1" d="M316.12,0H590.2V602h-4.91q-291,0-582,0A15.67,15.67,0,0,1,0,601.26l5.81-.06H60.5l12.4-.05H84.79l12.4.05h30.37l12.4-.05,11.75,0H279.35l12.42-.06h18.48l11.68.06H437.79l5.85,0,5.77.05h37l5.84-.06H529.1l5.78.06h54.39V577.1l-5.78-.37V552.82l-5.86-.42V540.8h-6.45V522.55l-6.12-.29V510l-5.67-.25c-.09-2.05-.17-3.82-.25-5.63l-5.87-.29V492.09h-6.63v-6.4l-5.89-.27V473.9l-5.67-.26c-.1-2-.18-3.81-.26-5.63l-5.86-.28v-6.57h-6.62V406.88l-5.84-.32V395.1l-6-.36V382.29H498.28c-.13-2.11-.24-3.79-.35-5.61l-5.66-.27v-5.82h-5.83c-.11-1.9-.22-3.81-.35-6H473.68v-6.34l-5.47-.36v-5.52l5.71-.36V333.94l6.61-.34V316.25l5.88-.33V297.83l5.88-.32v-12.2l5.59-.31V212.35l-5.8-.34V176.26l-5.88-.37v-18l-5.88-.39V145.78H473.7V133.56l-5.87-.43V121.79l-5.88-.46v-12l-5.88-.48V97.45l-6.74-.4V84.9l-5.59-.37c-.12-2-.23-3.78-.34-5.53l-5.55-.36c-.12-2-.23-3.76-.34-5.55L432,72.78c-.14-2-.26-3.77-.38-5.6l-6.28-.28c-.11-2.24-.2-4.25-.3-6.34l-5.53-.29c-.15-2-.3-3.74-.45-5.61l-5.5-.3c-.14-2.12-.25-3.79-.37-5.58l-5.52-.34c-.14-2.07-.25-3.74-.38-5.83H401c-.12-2.35-.21-4.27-.31-6.33l-5.59-.38c-.11-2-.2-3.67-.32-5.77H376.69c-.12-2.1-.21-3.78-.33-5.88H364.9c-.12-2.1-.21-3.78-.32-5.88H346.46c-.11-2.43-.2-4.44-.31-6.73H334.69c-.13-2.07-.24-3.84-.37-5.88h-18.2Z"/><path class="cls-1" d="M0,540.84V0H243.17V6h-30l-.43,5.87H200.6c-.13,2.3-.23,4.31-.35,6.61H188.87c-.17,2.05-.32,3.82-.5,6h-18c-.14,2.11-.25,3.79-.39,5.87H157.85L157.49,36l-5.55.33-.31,6.27L146,43c-.1,2-.19,3.65-.29,5.47l-5.61.44c-.1,2-.2,3.79-.29,5.54l-6.32.29-.33,5.57-5.83.38v6.27l-5.6.3c-.14,2-.26,3.77-.39,5.6l-5.47.3c-.16,2-.29,3.74-.44,5.61l-6.24.28-.38,5.6-5.81.33V97.1l-5.88.38v11.39l-5.65.39-.28,6.28-6.34.29-.3,5.53-5.9.49v18l-5.86.39v23.93l-5.87.35v24l-6.47.33v90.27l6.73.4v23.94l5.87.38v23.94l5.87.35v18.08l5.53.31V358l-5.48.28-.32,6.35-5.56.28-.39,5.6-5.52.32-.38,5.85H60.58l-.34,5.59-5.58.38-.29,6.22-5.8.44v11.32l-5.73.48v54.32l-.26,6H36v12.27l-5.88.27v18.14l-5.88.28V504H18.37v12.43l-6.73.31v24.14Z"/><path class="cls-2" d="M60.48,243.07V188.81l6.47-.33v-24l5.87-.35V140.23l5.86-.39v-18l5.9-.49.3-5.53,6.34-.29.28-6.28,5.65-.39V97.48L103,97.1V84.93l5.81-.33.38-5.6,6.24-.28c.15-1.87.28-3.64.44-5.61l5.47-.3c.13-1.83.25-3.59.39-5.6l5.6-.3V60.64l5.83-.38.33-5.57,6.32-.29c.09-1.75.19-3.52.29-5.54l5.61-.44c.1-1.82.19-3.5.29-5.47l5.6-.4.31-6.27,5.55-.33.36-5.61H170c.14-2.08.25-3.76.39-5.87h18c.18-2.17.33-3.94.5-6h11.38c.12-2.3.22-4.31.35-6.61h12.12L213.15,6h30V0h73V5.76h18.2c.13,2,.24,3.81.37,5.88h11.46c.11,2.29.2,4.3.31,6.73h18.12c.11,2.1.2,3.78.32,5.88h11.46c.12,2.1.21,3.78.33,5.88h18.09c.12,2.1.21,3.77.32,5.77l5.59.38c.1,2.06.19,4,.31,6.33h6.27c.13,2.09.24,3.76.38,5.83l5.52.34c.12,1.79.23,3.46.37,5.58l5.5.3c.15,1.87.3,3.64.45,5.61l5.53.29c.1,2.09.19,4.1.3,6.34l6.28.28c.12,1.83.24,3.6.38,5.6l5.53.31c.11,1.79.22,3.56.34,5.55l5.55.36c.11,1.75.22,3.52.34,5.53l5.59.37V97.05l6.74.4V108.8l5.88.48v12l5.88.46v11.34l5.87.43v12.22h6.62v11.68l5.88.39v18l5.88.37V212l5.8.34V285l-5.59.31v12.2l-5.88.32v18.09l-5.88.33V333.6l-6.61.34V352l-5.71.36v5.52l5.47.36v6.34h12.41c.13,2.18.24,4.09.35,6v5.82h5.83l5.66.27c.11,1.82.22,3.5.35,5.61H510.5v12.45l6,.36v11.46l5.84.32v48.54h-5.82V443.59h-5.94l.05.06V419.47l-6-.46V406.9l-6.57-.37V395.19l-6-.52V382.4H480.7c-.2-2.11-.36-3.87-.55-6h-12c-.17-2.11-.31-3.87-.44-5.55H462.2c-.14,1.91-.26,3.58-.39,5.41l-5.8.5v12.28h-6.54l-5.91-.08,0-6.59h5.89V370.62h6.63V358.1H462V346.31h5.9V327.89h6V309.66l6.57-.41V292l5.84-.47v-23.8l5.63-.51V218.85h-5.68V181.91h-5.95l0-5.78V164.49l-6.64-.38V152.05l-5.94-.55V140.22l-5.95-.5v-12l-5.83-.44V115.87l-6.68-.41v-12.1l-5.83-.46V91.61l-5.68-.49c-.13-2.23-.23-4.14-.35-6.18L432,84.5c-.16-2.06-.29-3.72-.44-5.63h-6.46l.05.06V73.16l-5.67-.45c-.15-2-.29-3.74-.42-5.46l-5.49-.44c-.14-2.19-.25-4.11-.38-6.18l-5.5-.43-.43-5.49-6.17-.38c-.16-1.94-.32-3.71-.47-5.5l-5.45-.44c-.16-2-.3-3.74-.44-5.46l-5.48-.44c-.14-2.19-.25-4.11-.4-6.49h-18c-.17-2.16-.3-3.83-.46-5.84H359.1c-.19-2.11-.34-3.86-.53-6H340.65c-.18-2.11-.33-3.87-.5-6h-18c-.14-2.27-.26-4.19-.41-6.57h-18c-.17-2.16-.3-3.83-.44-5.57H249.29l-.51,5.8H219c-.14,2.36-.26,4.36-.39,6.7H206.52c-.16,2-.29,3.7-.45,5.84H194.74c-.18,2.16-.31,3.83-.47,5.83H176.34l-.51,6H164.51c-.14,2.27-.26,4.18-.39,6.31l-6.23.38c-.16,2-.29,3.71-.44,5.51l-5.46.43c-.17,2.06-.3,3.73-.44,5.47l-5.44.4c-.16,2-.29,3.74-.43,5.49l-5.5.42c-.13,2.18-.25,4.09-.38,6.22l-6.22.37c-.17,2.05-.3,3.72-.44,5.51l-5.46.44c-.17,2.07-.31,3.73-.45,5.47l-5.44.4c-.16,2-.29,3.74-.43,5.48l-5.73.45V97.07l-6.37.38-.44,5.51-5.84.48v12l-5.52.44c-.15,2-.29,3.74-.42,5.46l-5.74.46v11.34l-6.7.4v12.11l-5.83.44V170l-5.79.48v18.18c0,2-.09,3.95-.14,5.92H67.08v36.08q0,6.21,0,12.42Z"/><path class="cls-2" d="M0,540.84H11.64V516.7l6.73-.31V504h5.84q.06,9.23.13,18.46H18.29v24.15l-6.67.39v35.69l-5.81.44V601.2L0,601.26Z"/><path class="cls-3" d="M279.35,601.21H151.71V589.69l-5.64-.47c-.13-2.19-.25-4.1-.38-6.17l-5.49-.42c-.16-2-.29-3.71-.43-5.52l-6.57-.39V565.35l-5.44-.41V541l5.73-.44V528.48l6.54-.37V509.87h30.26v6.72H176v11.52h24.48v-5.62h5.73c.08,1.89.17,3.78.26,5.71H213l5.78.18c.08,1.89.17,3.79.26,5.72h5.75l12.41.18v6.45h17.63c.12,2.29.21,4.06.31,6.07H267.4v5.92h5.91v30l-5.63.28v6.58h5.65v5.84h5.83C279.23,597.35,279.29,599.28,279.35,601.21Zm-60.43-36.14-.16-6.61v-5.71l5.74-.25v-5.89H182.13l-.28-5.68H170.17v5.7l-5.65.25v5.82h5.61c0,1.92,0,3.84,0,5.76l-5.57.29v6.47h5.57l.29,5.67h54.14v-5.82Z"/><path class="cls-3" d="M437.79,601.2H321.93v-5.72l6.1-.28V546.64h12.28c.1-2.07.19-3.85.3-5.9H359V534.1h17.65v-5.72h12.32c.11-2.27.19-4,.29-6.07h24.2v-5.69l5.78-.19h6V510l6.56-.13v6.44l6,.47v11.27l5.95.56v17.9l5.57.47v23.87l-5.82.49v17.94l-5.64.43Zm-54.71-36c.09,1.9.18,3.8.28,5.73h41.88v-5.7h6.45v-6.76c.09-1.91.18-3.82.28-6h5.48v-5.55H383.06v5.65h-6.3v12.64Z"/><path class="cls-4" d="M516.52,449.49v5.93h5.82v5.74H529v6.57l5.86.28c.08,1.82.16,3.6.26,5.63l5.67.26v11.52l5.89.27v6.4h6.63v11.74l5.87.29c.08,1.81.16,3.58.25,5.63l5.67.25v12.26l6.12.29V540.8c-.09,1.9-.19,3.8-.28,5.82l-5.61.27v5.79c-.09,1.9-.18,3.8-.27,5.73l-5.85.29v12.23l-5.66.28c-.1,2-.19,3.79-.29,5.84h-6.35c-.1,2.07-.18,3.85-.27,5.88h-5.66q-.09-3-.16-6.06l.27-5.69,5.8-.3V558.33h6.39c.13-2.09.23-3.77.34-5.54l5.53-.35V516.7l-5.85-.39v-6.23h-6.55v18.07l-6,.38v12.1l-6,.46V558.4l-5.83.29v12.55H522.3v11.44l-5.83.37v6.22l-5.7.42c-.1,2-.19,3.76-.29,5.56l-5.77.26v5.65H492.26q0-5.88,0-11.76h6.06v-6.67h6.23V571H498.1v-5.83l6.58-.06,6,.1v5.67h5.8v-5.67h5.66v-6.72H510.9c-.2-2.14-.37-3.9-.53-5.58l-5.4-.53c-.17-2-.32-3.63-.47-5.4l-6.14-.44c-.18-2-.35-3.72-.53-5.7h-5.49V528.36l5.68,0c.1,1.9.21,3.79.32,5.94h6.25c.12,2.26.23,4.27.35,6.55h11.58v5.66h5.81v-5.64c0-2.24,0-4.47.08-6.7H529v-5.92l.06-5.83h5.91v-5.89c6.5-.2,5.9,1.15,5.92-6,0-.24,0-.48,0-.72,0-2,0-4,0-5.94l0-5.88v-5.71l-5.82-.28V479.87l-5.76-.39c-.09-2-.17-3.8-.26-5.8h-6.28c-.15-2-.28-3.78-.42-5.65l-5.64-.25v-6.54h-6v-6H498.07v-5.74l.09-.09c.49,0,1,0,1.46,0,5.12,0,5.12,0,5.14-5v-.73l5.87-.05-.05-.06v5.9Z"/><path class="cls-3" d="M498.07,449.52v5.74h12.56v6l-.07-.07-5.69.27v18.38h-6.63v24.26h6.37c.12,2.11.22,3.87.32,5.69l5.73.3v6.51l-12.47,0h-5.86v5.87c0,2,0,3.92,0,5.88v24.12l5.73.33v5.69l.06,0H486.28v6.69l.06,0h-5.95v17.72h-6.31v6.74h6.37v5.62l6,.38v5.64h-37c0-1.92,0-3.85,0-5.78l.12-6H456V577l.12-6h6V558.65l6-.31V546.62h5.69V528.27h6.68V504.08l5.72-.26v-5.75l0-36.74v-6h-5.7V443.78h11.57l.26,5.74Z"/><path class="cls-3" d="M127.56,601.21H97.18v-5.89H84.74l.05,0,0-5.81h6.75v-6.93h11.49v-30H97.23V534.41H84.76v6.41l-6,.11H67.12l-6.59-.13c0-2.17,0-4.34,0-6.5H78.7c.12-2.32.22-4.09.31-5.81l5.86-.41v-5.52l6.59-.3v-5.67H97V510l-5.84-.32V492.27H67V485.5H78.7l.32-5.69,5.61-.29v-5.77q0-15,0-30.1c0-2.2.09-4.4.14-6.59h6.54V431h12v12.53c0,2,0,3.92,0,5.88v11.9c0,2.21,0,4.41,0,6.61v66.16l5.89.29v24.19h6.5l0-.05v24.41h6v12.32l5.89.28Z"/><path class="cls-3" d="M5.81,601.2V583.09l5.81-.44V547l6.67-.39V522.42h6.05l0,0v6H30.1q.07,6.21.14,12.41c0,6.91-.71,5.88,5.74,6l.24,5.87v6h6.46v12.31l6.09.28v11.51l5.87.29v12.25l5.86.26v5.69Z"/><path class="cls-4" d="M370.6,534.1H359v6.64H340.61c-.11,2-.2,3.83-.3,5.9H328v48.57l-6.1.28v5.72l-11.68-.06c0-1.89,0-3.78,0-5.67l5.81-.27v-5.72h5.87V570.94h-5.78V558.61H285.77v12.22l-6.5.48v18.17l0,0-6,.13h-5.65V583l5.63-.28v-30l.09-6,0,0,12.55,0h0v5.62H310c.17-1.92.32-3.58.51-5.62h11.57v-5.79l5.75-.18h6.77v-6.45l11.65-.18h6v-5.72l12.38-.18,6,.1,0,0C370.62,530.23,370.61,532.16,370.6,534.1Z"/><path class="cls-2" d="M504.71,601.16v-5.65l5.77-.26c.1-1.8.19-3.57.29-5.56l5.7-.42v-6.22l5.83-.37V571.24H529V558.69l5.83-.29V541.09l6-.46v-12.1l6-.38V510.08h6.55v6.23l5.85.39v35.74l-5.53.35c-.11,1.77-.21,3.45-.34,5.54h-6.39v12.55l-5.8.3-.27,5.69-5.72.29v5.75L535,589.5h-6v5.79h-6.51v5.86Z"/><path class="cls-4" d="M30.24,540.77q-.06-6.19-.14-12.41v-6H24.32l0,0q-.06-9.24-.13-18.46V492.37l5.88-.28V474l5.88-.27V461.41h6.61c.09-2.18.18-4.09.26-6l11.71-.08-.14,5.91c-6.32.17-5.75-1.11-5.77,5.88,0,.25,0,.49,0,.73l-.07.08h-6v11.6l-6.69.31V498l-5.48.28v18.15l5.66.26v17.65h6.69v12.24l5.95.39V558.4l5.82.28v12.4h5.87L60.4,571c0,2,.09,4,.13,6v5.88h6.56l-.06,0v12.35l5.87.41v5.58l-12.4.05v-5.69l-5.86-.26V583l-5.87-.29V571.21l-6.09-.28V552.59H36.22L36,546.72v-6Z"/><path class="cls-3" d="M540.94,582.93h5.66c.09-2,.17-3.81.27-5.88h6.35c.1-2,.19-3.82.29-5.84l5.66-.28V558.7l5.85-.29c.09-1.93.18-3.83.27-5.73h5.86v24.08l6.64.41v24H534.88l.15-5.76,5.72-.26v-5.76l.22-6.55Z"/><path class="cls-2" d="M140,509.87v18.24l-6.54.37v12.11l-5.73.44v23.91l5.44.41v11.37l6.57.39c.14,1.81.27,3.48.43,5.52l5.49.42c.13,2.07.25,4,.38,6.17l5.64.47V601.2l-11.75,0v-5.62l-6.66-.34V583l-5.91-.37V571.22l-5.91-.36V558.52h-5.85l0,.05-.15-6,.24.08h5.86v-18.2l6-.5V522.62l5.78-.44V504.09h6.64C140.06,506,140,507.94,140,509.87Z"/><path class="cls-2" d="M449.52,589.45l-.12,6h-5.76v5.72l-5.85,0V589.71l5.64-.43V571.34l5.82-.49V547l-5.57-.47v-17.9l-5.95-.56V516.78l-6-.47V498h5.83v11.64l6.08.46v12.07l5.92.48v18l6.54.36v30l-.12,6h-6.51Z"/><path class="cls-2" d="M577.79,601.2v-24l-6.64-.41V552.68h-5.86v-5.79l5.61-.27c.09-2,.19-3.92.28-5.82h6.45v11.6l5.86.42v23.91l5.78.37v24.1Z"/><path class="cls-5" d="M279.27,589.48V571.31l6.5-.48V558.61h6.1q0,3.32,0,6.61v24.11l5.67.32c.11,2.05.21,3.81.32,5.83h12.38c0,1.89,0,3.78,0,5.67H291.77v-5.53l-5.65-.51c-.17-2-.31-3.65-.49-5.63Z"/><path class="cls-4" d="M115.63,558.52h5.85v12.34l5.91.36v11.41l5.91.37v12.2l6.66.34v5.62l-12.4.05v-5.68l-5.89-.28V582.93h-6Z"/><path class="cls-5" d="M486.42,601.21v-5.64l-6-.38v-5.62h-6.37v-6.74H486.4l-.06-.05v6.68h6l0-.07q0,5.88,0,11.76Z"/><path class="cls-2" d="M72.9,601.16v-5.58L67,595.17V582.82h6.1v6.52l5.55.3.37,5.73h5.74l-.05,0,.05,5.84Z"/><path class="cls-4" d="M279.27,589.48h6.36c.18,2,.32,3.63.49,5.63l5.65.51v5.53l-12.42.06c-.06-1.93-.12-3.86-.19-5.79s.09-4,.13-6Z"/><path class="cls-4" d="M84.79,601.16l-.05-5.84H97.18v5.89Z"/><path class="cls-4" d="M535,595.45l-.15,5.76-5.78-.06c0-2-.08-3.91-.11-5.86V589.5h6l0,0Q535,592.46,535,595.45Z"/><path class="cls-5" d="M529,595.29c0,2,.07,3.9.11,5.86h-6.62v-5.86Z"/><path class="cls-3" d="M492.27,376.41h-5.83v-5.82h5.83Z"/><path class="cls-4" d="M443.64,601.16v-5.72h5.76c0,1.93,0,3.86,0,5.78Z"/><path class="cls-2" d="M54.55,455.34l-11.71.08V401.09l5.73-.48V389.29l5.8-.44.29-6.22,5.58-.38.34-5.59h6.25l.38-5.85,5.52-.32.39-5.6,5.56-.28.32-6.35,5.48-.28v-11.5L79,346.17V328.09l-5.87-.35V303.8l-5.87-.38V279.48l-6.73-.4V249.14h6.63v24.21h6L73,273.3v18.44h5.77q.06,8.86.13,17.71V321.8l5.92.44v18.17h6.59V352l6,.49v12l5.77.47v11.6l0-.06H97.49c-.18-2.25-.32-3.92-.45-5.58H84.93l-.44,5.38-5.44.41-.43,5.48-5.5.43-.37,6.18-5.5.43-.43,5.49-6.47.41v11.35l-5.8.47V443.6q0,5.89,0,11.79Z"/><path class="cls-3" d="M73.06,273.35h-6V249.14H60.48v-6.07h6.64l5.87.13-.08-.08Z"/><path class="cls-3" d="M73,188.65V170.47l5.79-.48V146.13l5.83-.44V133.58l6.7-.4V121.84l5.74-.46c.13-1.72.27-3.49.42-5.46l5.52-.44v-12l5.84-.48.44-5.51,6.37-.38V85l5.73-.45c.14-1.74.27-3.5.43-5.48l5.44-.4c.14-1.74.28-3.4.45-5.47l5.46-.44c.14-1.79.27-3.46.44-5.51l6.22-.37c.13-2.13.25-4,.38-6.22l5.5-.42c.14-1.75.27-3.52.43-5.49l5.44-.4c.14-1.74.27-3.41.44-5.47l5.46-.43c.15-1.8.28-3.47.44-5.51l6.23-.38c.13-2.13.25-4,.39-6.31h11.32l.51-6h17.93c.16-2,.29-3.67.47-5.83h11.33c.16-2.14.29-3.81.45-5.84h12.11c.13-2.34.25-4.34.39-6.7h29.76l.51-5.8h54.06c.14,1.74.27,3.41.44,5.57h18c.15,2.38.27,4.3.41,6.57h18c.17,2.09.32,3.85.5,6h17.92c.19,2.1.34,3.85.53,6h11.29c.16,2,.29,3.68.46,5.84h18c.15,2.38.26,4.3.4,6.49l5.48.44c.14,1.72.28,3.49.44,5.46l5.45.44c.15,1.79.31,3.56.47,5.5l6.17.38.43,5.49,5.5.43c.13,2.07.24,4,.38,6.18l5.49.44c.13,1.72.27,3.49.42,5.46l5.67.45v5.77h-5.65v5.6h5.6V78.87h6.46c.15,1.91.28,3.57.44,5.63l5.52.44c.12,2,.22,4,.35,6.18l5.68.49V102.9l5.83.46v12.1l6.68.41v11.37l5.83.44v12l5.95.5V151.5l5.94.55v12.06l6.64.38v11.64h-6.65V182l.09-.08h-6V164.43l-5.9-.26V157.8l-5.91-.28V145.79h-6.65V133.28h-5.71v-6h-5.85c-.1-2.07-.17-3.84-.25-5.63l-5.65-.25c-.09-2.08-.17-3.84-.26-5.89h-6.6v-6.61h-5.73c-.08-1.86-.16-3.72-.25-5.7h-5.75l-5.88,0c0-2,0-4,0-6h5.68V85h-5.6V97.33l-6.66,0-6-.1V91.45h-5.78l-6.07-.1V84.77H376.5V79h-5.82l-6-.1v-6H346.44c-.1-2.09-.18-3.87-.27-5.78h-8L213,67.14h-6.49v11.5l6.41.43c0,2.14,0,4,0,5.77h-6.59v6.5l-11.87.11h-5.75v5.77H182v5.94h-5.63V109h12.17v-5.73c0-2,.08-4,.13-6h5.8l5.95.1V103l-5.7.34v5.51h11.62V103.2h6.49c.11,2.14.19,3.91.3,5.92h11.53c0,2.2.07,4.39.11,6.59H213.21v5.84h11.56v5.68h5.84v-5.68h6.51l.33,5.68h5.8V115.75h5.95V109.1h5.74v6.48h6.59l5.86.17v5.92h5.92c.09,1.87.18,3.73.27,5.7h5.75l6.56.11v18.15h5.73c.14-1.93.26-3.6.39-5.42l5.82-.46V127.39h5.83l6.52,0,5.92.12v12.27h11.65c.13-2.23.24-4.23.34-6.11h6.28c.13,2.16.25,4.07.39,6.35h11.49v5.88h5.95v5.72l-5.57.42v5.68h24l.11,6.7v5.7l5.9.3v18.08l6.4.31v5.6l-6.25.33v5.56l6.56.39V212l5.8.44v36.39l5.5.43v5.48l-5.56.44v30H383v18.21l-6.57.42v12.08l-5.84.48v11.27l-5.67.51c-.16,2-.29,3.64-.44,5.44L359,334c-.12,2.3-.23,4.21-.34,6.21l-6.23.39c-.15,2-.29,3.74-.42,5.49l-5.73.45v11.29l-5.68.49c-.13,2.24-.24,4.15-.37,6.41H327.86v5.76H303.71c-.1-2.09-.19-3.86-.27-5.59H249.18c-.1,2-.18,3.74-.27,5.59H237.32v-5.88H224.91c-.13-2.4-.24-4.31-.35-6.33l-5.51-.45c-.17-2.08-.31-3.74-.46-5.46l-5.43-.41-.47-5.82H200.63c-.15-2-.27-3.7-.41-5.52l-5.8-.5v-12l-5.58-.45c-.17-2.06-.31-3.73-.45-5.48l-6.49-.4V309.68l-5.83-.46V292l-5.95-.54V273.59l-5.56-.46V212.18h5.68v6.46h5.61v-6.4h-5.66v-5.73l-5.65-.41-.48-5.68h-6.43c0-2,0-3.93,0-5.89H170v-5.66l-5.79-.52v-24c0-2.23.08-4.47.11-6.7h5.86v-5.93h11.56V133.58h-5.46c-.13,2.19-.25,4.2-.36,6.21l-5.69.47v11.55l-6,.08h-6.63v5.79l.05-.06h-5.79v12.65c0,1.93,0,3.85,0,5.78s-.21,3.79-.32,6h-5.71c0-4-.05-7.92-.07-11.88v-5.59h-5.86v5.64l.05-.07h-6.45l-.36,5.86-5.48.25v5.63l5.76.31v6.25h6.64v-6.36l5.82-.09q-.06,6.21-.13,12.43H133.66v5.85l6.33.36v5.69h-6.52v5.84c-.05,2.2-.11,4.4-.16,6.6l-5.86.12V200.69h-6v11.39l-5.89.29v6.41l-6.54,0-.13-6.63v-11.6l-5.88-.34v-5.64c.06-2,.11-3.91.17-5.87l5.92-.29v-6.29l6.63-.3V170.28l5.7-.27v-5.75l.08-6.6,5.91,0v6.46h5.88v-6.42l6.71-.08h5.85v-5.77h5.68l.44-5.73,5.44-.39c.16-2,.31-3.72.46-5.53l6.24-.35c.12-2.28.23-4.28.34-6.24l5.53-.45.39-5.44,5.43-.42v-5.49l-5.42-.39c-.16-1.94-.32-3.71-.47-5.46h-5.78v11.4l-6.31.34-.4,5.49-5.52.46-.37,6.41H140v-6.41H133.4V140h-5.93V146h-6v5.76l-5.7.27v5.75c0,2.2-.05,4.4-.08,6.6h-6.82v6H103.3L103,176l-5.73.36v12.35H91.36v17.61l-6.64.08-.09-6,.18-18.3h6.54V164.29h6v-6.47l5.75-.32V145.87h5.76l.36-6h6.52v-6.46h5.62c.11-2.24.2-4,.29-5.84l5.69-.35v-5.72c0-1.94,0-3.89.05-5.83h5.92V109H140v-5.9h5.71v-5.6H140v5.65H133.4v5.9l-6,0c0-1.94,0-3.89,0-5.83V97.55h-5.7V109h5.8v6.74h-6v5.83l0,0h-5.94v6l0-.08H109.2c-.12,2.3-.22,4.07-.31,5.83l-5.69.34v12.37H97.41c-.12,2.16-.22,3.93-.32,5.72l-5.68.32v12.38H84.72v11.71h-6v12.59Zm224.78,96.42,5.79,0h6.57v-11.5l-6.29-.37c-.18-1.94-.34-3.69-.5-5.51H291.78v5.55l-5.82.26H273.32l-5.82-.26v-5.47H255.14c-.14,1.91-.26,3.58-.39,5.4l-5.59.48V285H255l6.52,0,6,.1h0v6.41l5.71.45.43,5.43H285.7c.16-2,.3-3.73.44-5.47l5.67-.43v-6.39h0Zm48.58-84.65v-5.81h-6l-18.32,0H303.8c-.18,2.15-.32,3.9-.46,5.59l-5.62.47v11.55H292v6.34h5.66v-6.4l6-.07h6.63v-5.79l0,.06,5.8,0c.06,1.91.12,3.83.19,5.74,0,2.24-.05,4.48-.08,6.72h-5.68v5.84h5.68v5.82H340.2v-5.69h-5.6l-18.51-.08v-5.94l6-.06h5.79v-6.6l6.65.1v6.32h6V206.34h0l5.87,0-.07,0v5.85h6v6.69h-5.69v5.62h5.64v-5.68h6.41v-6.57h-6.42l-.07-5.87v-6h-5.78ZM316.09,316.11l0,0v-6.56H303.53l-5.77-.19v-5.56H261.58v5.64H249v6.59l.07.09H237.48v5.95h5.62c.1,1.87.2,3.75.3,5.72h18.27v5.91q0,3.36-.11,6.72h-6.38v5.93h6.42l-.06,0,.15,5.81v5.69h35.9v-5.69c0-1.95.05-3.91.07-5.86h5.7v-5.8H297.7l0-6.65-.06-.09h5.95v-5.83h6.62v-5.88l5.81-.14h5.72v-5.8ZM200.53,206.38l-.08,5.86h-5.68v6.57h5.68v5.69h5.63v-5.63H200.4q0-3.35,0-6.69h5.91v-5.89H213v12.33h5.83v-6.36l5.91-.1v6.6h5.79l6.73.06v5.94l-18.5.08h-5.61v5.69h24.06v-5.82h5.68v-5.84h-5.67q0-6.19,0-12.39l5.87-.1-.07,0V212l6.11.39v6.5h5.69v35.78h6.5c.16-2,.3-3.74.44-5.47l5.55-.43v-42.5H255v-5.69l-5.7-.43c-.16-2-.31-3.71-.46-5.57H230.6l-17.58,0h-6.71v5.81h-5.78Zm-42.89-115,6.75-.09h5.82V84.73h11.56V79.07H170.29V84.8l-5.9,0h-6.7v6.6H152V97h5.61Zm42.82,30.24H188.85v11.66h11.48v-5.86c0-2,0-3.9.07-5.86h5.69v-5.62h-5.63Zm5.86,60.67h24.46v6.18H243v-6.31l-5.56-.33c-.12-2-.22-3.83-.31-5.54H200.56c-.1,1.93-.18,3.71-.29,5.83H188.44v6.66h-6.21v11.39h6.5v-5.5l5.65-.28c.12-2,.23-3.8.36-5.92h11.58Zm140,6.5h6v5.59l6.4.33c.12,2,.22,3.77.32,5.44h5.53V188.81l-5.84-.4v-6.49H352.2v-5.58H310.35L310,182.1H303.8v6.28h12.52v-6.19h30Zm-152,114.6v-11.3h-5.46v11.3Zm170.14.08V292h-5.31v11.43ZM188.9,73.07V78.6h11.27V73.07ZM170.39,230.4h5.42V225h-5.42Zm-49.12-36v-5.52H116v5.52Z"/><path class="cls-4" d="M84.81,182.08l-.18,18.3H78.91v30h5.88V206.3l-.07,0,6.64-.08V212l5.66.49v6.15l-5.34.49v5.77h11.55v11.74q-.08,3.24-.16,6.48H97.46v6h5.61c.05,3.91.09,7.82.14,11.73H91.67v6.49l5.44.32c.13,2,.24,3.77.35,5.59l5.75.27V285l6,.32v12.41h6.44q.08,5.87.13,11.73H103.41v6.37h12.27v-6.42h11.59v-5.74l-5.57-.26v-5.71h11.37v-5.86H121.5l-5.79-.09q-.06-6.28-.13-12.55l.22-11.71h5.58c.16-2.48.29-4.48.42-6.38h5.49c.14,2.18.27,4.08.41,6h5.38v-12l-5.25-.48v-5.58h12.08v18.47h5.89V285l6,.3v12.19l5.81.35v11.68h12.46v12.3l5.84.34.34,5.6,5.76.27v12.52h6.45c.1,2.09.19,3.77.28,5.57l5.62.38c.1,2,.18,3.64.28,5.72h11.76v12.6h6.3l.43,5.68h35.73c.09-1.85.17-3.62.27-5.59h54.26c.08,1.73.17,3.5.27,5.59h42.48c.12-2.1.21-3.87.31-5.67l5.57-.25c.11-2.23.21-4.24.34-6.63h6.33c.09-2.08.17-3.75.25-5.56l5.89-.43V340.54l5.61-.26c.11-2.22.22-4.23.34-6.57h5.69q-.06,6.24-.1,12.48l-5.44.32v5.56l5.44.26c.11,1.8.21,3.6.32,5.59l6.26.41c.14,2.33.26,4.24.38,6.15h5.47c.15-2.14.29-4,.44-6.06h5.49c.14,2.2.26,4.1.41,6.33h18.24v5.76l-5.82.28c-.1,2-.19,3.79-.29,5.8H389v5.72H334.66c-.11-2.12-.19-3.89-.29-6H297.61v-5.44H254.84v5.63H194.5v5.69H164.24v-5.8H140.12l-.28-5.95h-6.35l-.27-5.61-6-.34V358h-5.69v-5.82H109V340.55l-6-.3v-6.41H97.26v-6h-5.8V316H84.62v-6.52H78.87q-.06-8.85-.13-17.71V273.3H73l.09.05-.15-30.23h5.72v-6.37H73v6.45l-5.87-.13q0-6.21,0-12.42h5.76V194.57c0-2,.09-3.94.14-5.92h5.76V176.06h6ZM170.14,352.3l-5.84-.07v-5.88h-6.65v-5.7h-5.77v11.48h5.89l6.58.05V358h11.49V352.3Zm18.42,12.35h11.6v-6.46H182.21v6.46ZM140.09,328h5.54v-5.85H127.72v5.66l5.86.33v12.44H140v5.6h5.71V333.92l-5.63-.28Zm-18.29-43.1h11.31V273.6H121.8ZM91.52,285h5.53v-5.46H91.52Z"/><path class="cls-3" d="M510.63,443.65l-5.87.05-6.6-.21v-6.65h-5.89c-.08-1.86-.16-3.73-.25-5.7H468c-.11-2.28-.2-4.06-.3-6.11H456.23c-.09-2.07-.17-3.85-.27-5.91h-6.62v-6.38l-5.73-.26V395h5.86v-5.88H456V376.8l5.8-.5c.13-1.83.25-3.5.39-5.41h5.49c.13,1.68.27,3.44.44,5.55h12c.19,2.09.35,3.85.55,6h11.4v12.27l6,.52v11.34l6.57.37V419l6,.46Z"/><path class="cls-3" d="M486.32,218.85H492v48.37l-5.63.51v23.8l-5.84.47v17.25l-6.57.41v18.23h-6l0,0q-.07-3-.14-6v-5.77h-5.72l-5.85-.13v-6.47l5.95-.28V291.92l5.9-.33V260.77h5.79v12.44h6.52V260.8h5.73v-5.63h-5.64v5.72l-6.69,0V248.92h6.77V230.75l5.78-.28V218.83Z"/><path class="cls-3" d="M480.37,181.91h5.95v36.94l0,0h-6V200.26h-6.46V182l-.09.08Z"/><path class="cls-3" d="M72.84,194.57v36.08H67.08V194.57Z"/><path class="cls-3" d="M467.91,327.89v18.42H462l0,0q0-9.22,0-18.45l6,0Z"/><path class="cls-3" d="M456.11,358.1v12.52h-6.63l0,0V358.12h6.63Z"/><path class="cls-3" d="M449.48,370.62v11.79h-5.89l0,0V370.64h5.89Z"/><path class="cls-3" d="M462,346.31V358.1h-5.9l0,0V346.33H462Z"/><path class="cls-3" d="M443.59,382.41l0,6.59.06.09-6,0v-6.64h5.95Z"/><path class="cls-4" d="M480.37,181.91l-6.61.13v-5.91h6.65C480.4,178.06,480.38,180,480.37,181.91Z"/><path class="cls-3" d="M516.52,449.49h-5.94v-5.9h5.94Z"/><path class="cls-4" d="M449.47,389.08V395h-5.86l0,0c0-1.95,0-3.9,0-5.85l-.06-.09Z"/><path class="cls-5" d="M370.66,528.33l-6-.1V516.84h-5.62c-.16,2-.3,3.63-.47,5.65H340.67c-.19,2.13-.35,3.89-.53,6H322.23c-.18,2-.32,3.71-.5,5.87H297.87c-.15,2.43-.27,4.34-.39,6.25H292c-.15-2.23-.28-4.23-.43-6.59H279.49c-.17-2-.32-3.71-.49-5.74H261.84c-.19-2.12-.35-3.88-.55-6h-17.9c-.17-2-.31-3.71-.49-5.87H230.81c-.14-2.42-.26-4.33-.37-6.29H213v6.39H194.81v6h5.7v5.62H176V516.59h12.33v-6.77H176.09V504H297.45c.2-2.24.35-3.9.5-5.64H364.5l.52,5.37H383c.18-1.95.32-3.62.48-5.37h5.4l.49,5.36h11.31c.18-2,.33-3.62.49-5.36h23.71v5.85H413.61c-.18,2.07-.33,3.74-.51,5.78H400.87v6.57H383.41c-.2,2.27-.35,3.94-.53,6H370.66Z"/><path class="cls-4" d="M170.13,552.7h-5.61v-5.82l5.65-.25h6v-5.7h5.67l.28,5.68H224.5v5.89l-5.74.25v5.71l-18.38.17-18.31-.19v-5.72h-5.88Z"/><path class="cls-4" d="M176.09,504v5.84h12.27v6.77H170.29v-6.72H140c0-1.93,0-3.85,0-5.78h5.62v-12H140q0-3.27,0-6.54h11.59c.17,2.51.3,4.41.44,6.42l5.85.55V504h18.26Z"/><path class="cls-5" d="M170.13,552.7l6.06,0c0,2,0,3.91,0,5.87v6.48h48.35v5.82H170.41c-.1-1.86-.19-3.76-.29-5.67v-6.76C170.13,556.54,170.13,554.62,170.13,552.7Z"/><path class="cls-4" d="M267.4,546.8H255.13c-.1-2-.19-3.78-.31-6.07H243.21q0-3.27,0-6.54l-.05,0,11.89-.1,6.49.18v6.53h11.86c0,2,0,3.95,0,5.93l0,0Z"/><path class="cls-2" d="M218.92,565.07H200.36c0-2.15,0-4.29,0-6.44l18.38-.17C218.81,560.66,218.87,562.86,218.92,565.07Z"/><path class="cls-4" d="M237.19,534.28l-12.41-.18c0-1.94,0-3.87,0-5.81l-.05.05,12.63-.11,5.75.18c0,1.94,0,3.88,0,5.82l.05,0Z"/><path class="cls-4" d="M200.51,522.49h-5.7v-6H213l0,5.92,0,0-6.74.09Z"/><path class="cls-4" d="M218.77,528.38,213,528.2c0-1.93,0-3.87,0-5.8l0,0,11.82,0h0l0,5.93.05-.05Z"/><path class="cls-5" d="M213,522.4c0,1.93,0,3.87,0,5.8H206.5c-.09-1.93-.18-3.82-.26-5.71Z"/><path class="cls-5" d="M237.19,534.28l6-.09q0,3.27,0,6.54h-6Z"/><path class="cls-2" d="M170.12,558.46v6.76h-5.57v-6.47Z"/><path class="cls-5" d="M218.77,528.38l6-.09c0,1.94,0,3.87,0,5.81H219C218.94,532.17,218.85,530.27,218.77,528.38Z"/><path class="cls-2" d="M176.18,540.93v5.7h-6v-5.7Z"/><path class="cls-5" d="M267.4,546.8l6-.08-.09,6H267.4Z"/><path class="cls-2" d="M279.29,589.45q-.06,3-.13,6h-5.83v-5.84Z"/><path class="cls-4" d="M400.87,516.54V510H413.1c.18-2,.33-3.71.51-5.78h11.22v-5.85H401.12c-.16,1.74-.31,3.4-.49,5.36H389.32l-.49-5.36h-5.4c-.16,1.75-.3,3.42-.48,5.37H365l-.52-5.37H298c-.15,1.74-.3,3.4-.5,5.64H176.09l0,0c0-1.94,0-3.88,0-5.82l24.18-.18h72.78c.2-2.12.35-3.78.51-5.58L279,492v-6.5H243.41c-.19-2.05-.34-3.71-.54-5.87H206.56c-.2-2.19-.35-3.85-.53-5.87h-54c-.21-2.12-.38-3.88-.59-6H140.2c-.15-2.31-.28-4.22-.42-6.23l-6.17-.45-.52-5.7H121.7V443.71l-6.14-.3V431.27h-6.62v12.27h-5.66V431h-12l.08.08v-6H103l.29-5.88h12.3V400.68h-6.45l-.26-5.62-5.68-.27V376.54l0,.06H109c.09,2.15.17,3.92.26,6h6.67v6.67h5.82V395h5.8v11.84h5.94v5.93h6.68v6.43l5.67.26c.09,2.07.17,3.85.27,5.92h18.15c.1,2.09.19,3.86.29,5.93h17.62v5.53h12.24V431h-5.79V419.17h-6.68V412.5H164.44l-.28-5.93H151.9c-.1-2.1-.18-3.87-.28-5.94H139.89v-5.69h-6.55V389h-5.93v-6.45l-5.71-.29c-.1-2-.18-3.8-.27-5.62l-5.7-.27V364.7l-.08.08h5.81l.28,5.74,5.63.25.25,5.63,5.64.29c.1,2.11.2,3.88.3,5.95H146v6.43h11.71V395h31v5.64h11.6c.1-2,.19-3.75.3-5.82h29.91c.1-2.08.18-3.86.26-5.55H321.9c.09,2,.18,3.76.27,5.83h36.56c.11,2.08.2,3.86.28,5.49h11.73V395H395V389h12.57v-6.67h11.62c.1-2.09.19-3.88.29-5.94h12.43v-5.7h5.82V358.09h5.89V352.2h5.93V340.45H456v-6.71l.15-5.89-.08.09H462l0-.07q0,9.22,0,18.45h-5.9v11.79H449.5v12.52h-5.89v11.79h-5.95v6.64l0-.07H425.3c-.11,2.25-.2,4-.3,6.09H413.5c-.1,2.09-.19,3.86-.29,5.93H400.64V407h-17.7v12.43h-6.42v5.81h-5.69v5.67h12.23c.09-2,.17-3.73.26-5.81h17.6v-5.7H413.5v-6.83h5.73l5.91,0q0,3.38.05,6.75h-5.68c-.2,2.28-.34,3.94-.49,5.64l-5.41.49c-.17,1.9-.32,3.57-.52,5.74h-12c-.2,2.2-.35,3.86-.54,5.9H389.3c-.18,2.3-.32,4.21-.5,6.64h-12c-.21,2.19-.36,3.85-.55,5.89H359.1l-.54,5.89H334.78l-.54,5.78h-4.66l-92.38.09L213,461.16v-5.92H182.25c-.21-2.2-.36-3.86-.52-5.55l-5.39-.47c-.18-1.93-.33-3.6-.53-5.78H157.88c-.17-2.44-.3-4.34-.46-6.63H146.14c-.19-2.06-.34-3.72-.53-5.74H133.35v-6h-6v-5.63h-5.59v5.57h5.65v6h6v5.73l6.69.42v12l5.57.53c.21,2.07.37,3.73.54,5.41l5.37.46c.17,1.94.33,3.6.52,5.75h29.72l.42,6.44h18.28l24.17.18.28,5.71h42.38c.12,2.33.21,4,.31,6.08h18.19v5.55H327.9v-5.65h31v-5.9h17.68v-5.9h18.24c.16-2.54.28-4.45.41-6.4l5.44-.49c.17-1.89.32-3.56.48-5.42l6.17-.43.47-5.45,5.41-.49c.17-1.89.31-3.55.47-5.38l5.81-.56v-12l5.72-.53V419.24h6.73v-6.7h5.59v-5.76h-5.71V401l6.05-.28V395l5.77,0,0,0v17.52l5.73.26v6.38H456c.1,2.06.18,3.84.27,5.91h11.51c.1,2.05.19,3.83.3,6.11h18.23c.08,1.88.16,3.76.25,5.7h11.64v12.59l-.09.09h-5.69l-.26-5.74H480.55v17.55h5.7l0,36.74H480.5v30.2h-6.68v18.35h-5.69v11.72l-6,.31V571h-6V546.76h6V522.54l5.57-.26V437.15h-5.79V461.2l-5.7.25V479.8h-6.62c-.1,2.07-.19,3.84-.28,5.66l-5.84.29v6.35l-5.88.26V498h-5.83v11.83l-6.56.13h-6v6.44l-5.78.19-5.87,0-6.73-.11Zm24.3-31h12.28c.21-2.31.36-4,.52-5.66l5.68-.52V468.16l5.55-.54V443.84h-5.37c-.18,1.91-.33,3.57-.53,5.75H432c-.2,2.19-.35,3.86-.54,5.89h-12c-.18,2.06-.33,3.72-.49,5.55l-5.47.51c-.15,2.28-.27,4.18-.42,6.47h-12c-.18,2.06-.33,3.72-.49,5.54l-5.43.51c-.18,2-.34,3.7-.53,5.73H365c-.19,2-.34,3.71-.54,5.88H334.82v6.45h90.35ZM303.63,425.11v11.66h55.3V431h5.92V419.38l5.56-.26v-6.64H359c-.11-2.08-.2-3.86-.28-5.51H310.07V425.2h-6.53V401.06H249.29v5.57l5.85.27v12.46h6.43v11.7h5.95v12.33h24.37v-6.32l5.93-.3V425.11Zm-97.38-12.27H194.68v12.32h5.77v5.94h5.94v5.66h48.37V425.28l-5.82-.3V412.74l-5.66-.25c-.1-2.09-.18-3.86-.26-5.51H206.25Zm237,12.24v-5.56H438v5.56Z"/><path class="cls-4" d="M383.06,552.58v-5.65h54.39v5.55H432c-.1,2.19-.19,4.1-.28,6l-18.39.1H389.15l-5.88-.12Z"/><path class="cls-5" d="M413.3,558.59l18.39-.1v6.76H419.22V571H383.36c-.1-1.93-.19-3.83-.28-5.73.06-2.25.13-4.5.19-6.75l5.88.12V565H413.3Z"/><path class="cls-4" d="M370.66,528.33V522.5h12.22c.18-2,.33-3.69.53-6h17.46l0,0c0,1.94,0,3.87,0,5.81H389.23c-.1,2-.18,3.8-.29,6.07H376.62l-6-.09Z"/><path class="cls-2" d="M383.27,558.47c-.06,2.25-.13,4.5-.19,6.75h-6.32V552.58h6.3Z"/><path class="cls-2" d="M419.21,516.44V510h6v6.44Z"/><path class="cls-5" d="M400.82,522.31c0-1.94,0-3.87,0-5.81l6.73.11c0,1.91-.09,3.81-.13,5.71Z"/><path class="cls-2" d="M407.43,522.32c0-1.9.09-3.8.13-5.71l5.87,0v5.69Z"/><path class="cls-5" d="M370.62,528.29l6,.09v5.72h-6C370.61,532.16,370.62,530.23,370.62,528.29Z"/><path class="cls-2" d="M419.22,571v-5.7h6V571Z"/><path class="cls-2" d="M516.58,467.78l5.64.25c.14,1.87.27,3.63.42,5.65h6.28c.09,2,.17,3.76.26,5.8l5.76.39v12.19l5.82.28v5.71h-5.61l-.26,5.82.07.18h-5.72c-.14-2.32-.26-4.08-.38-6.08h-6.23c-.15-2-.28-3.78-.42-5.82H510.66l0,.05-.08-24.31Z"/><path class="cls-5" d="M510.66,516.58v-6.51l-5.73-.3c-.1-1.82-.2-3.58-.32-5.69h-6.37V492.17l12.47,0,0-.05v11.6l5.66.52c.18,2,.34,3.71.49,5.4l5.44.51c.15,2.2.27,4.1.43,6.38h12.25v5.89H529l-12.45,0v-5.93h-6Z"/><path class="cls-2" d="M498.1,565.13V571h6.44v11.76h-6.23v6.67h-6.06l0,.07v-6.68h-6l.06.05-.06-17.72-.06,0,11.87,0Z"/><path class="cls-2" d="M516.52,540.87H504.94c-.12-2.28-.23-4.29-.35-6.55h-6.25c-.11-2.15-.22-4-.32-5.94s.07-4,.11-6l12.54.09-.05-.05v5.92h6l-.05-.06v6h5.92l-.05,0c0,2.23,0,4.46-.08,6.7Z"/><path class="cls-5" d="M498.07,558.5v-5.69l-5.73-.33V540.8h5.49c.18,2,.35,3.73.53,5.7l6.14.44c.15,1.77.3,3.43.47,5.4l5.4.53c.16,1.68.33,3.44.53,5.58h11.26v6.72H510.7l-6-.1V558.5Z"/><path class="cls-3" d="M516.57,522.47l12.45,0-.06,5.83-6.59.13-5.83-.14.05.06c0-2,0-3.94,0-5.91Z"/><path class="cls-2" d="M498.07,558.5h6.61v6.57l-6.58.06,0,0c0-2.23,0-4.47,0-6.71Z"/><path class="cls-6" d="M498.16,449.43v-5.94l6.6.21v.73c0,5.08,0,5.08-5.14,5C499.13,449.47,498.65,449.45,498.16,449.43Z"/><path class="cls-7" d="M516.58,467.78l-5.94.11v0c0-2.25-.05-4.5-.07-6.75l.07.07h6Z"/><path class="cls-6" d="M540.84,509.87c0,.24,0,.48,0,.72,0,7.11.58,5.76-5.92,6h0l0-6.69Z"/><path class="cls-2" d="M522.37,528.4l6.59-.13v5.92h-6.55l.05,0Z"/><path class="cls-8" d="M534.89,503.87l.26-5.82h5.61c0,2,0,3.92,0,5.88Z"/><path class="cls-9" d="M534.89,503.87l5.91.06c0,2,0,4,0,5.94H535c0-1.94,0-3.88,0-5.82Z"/><path class="cls-5" d="M498.13,522.36c0,2-.07,4-.11,6l-5.68,0c0-2,0-3.92,0-5.88l5.85-.06Z"/><path class="cls-3" d="M516.52,540.87l5.81,0v5.64h-5.81Z"/><path class="cls-3" d="M510.7,565.17h5.8v5.67h-5.8Z"/><path class="cls-5" d="M535.06,582.91v-5.75l5.72-.29.16,6.06,0,0Z"/><path class="cls-4" d="M510.71,492.2l-12.47,0V479.82h6.63V467.94l5.76,0v0Q510.67,480.06,510.71,492.2Z"/><path class="cls-4" d="M486.34,565.11l.06,17.72h-6V565.11Z"/><path class="cls-4" d="M449.52,589.45V577H456v12.44Z"/><path class="cls-4" d="M498.13,558.47c0,2.24,0,4.48,0,6.71l-11.87,0v-6.69Z"/><path class="cls-4" d="M510.67,522.45l-12.54-.09.05.06v-5.81l12.47,0-.05,0Z"/><path class="cls-10" d="M510.63,467.92l-5.76,0v-6.5l5.69-.27C510.58,463.42,510.61,465.67,510.63,467.92Z"/><path class="cls-2" d="M486.25,461.33h-5.7v-6h5.7Z"/><path class="cls-5" d="M480.5,504.08v-6h5.72v5.75Z"/><path class="cls-2" d="M498.19,516.61v5.81l-5.85.06v-5.87Z"/><path class="cls-4" d="M84.79,595.37H79.05l-.37-5.73-5.55-.3v-6.52H67l.06,0Q67,579.93,67,577v-6H60.4l.05.05V552.81l-6.05-.4V528.5l-5.81-.41V467.94l.07-.08,5.74.05.32,5.7H66.9l.35-5.83H78.53a6.81,6.81,0,0,0,.27-1.1q0-11.56,0-23.13l5.83.1q0,15,0,30.1H73.24c-.22,2.2-.39,3.94-.61,6H60.68l-.53,5.59-5.56.48V498h5.79l6.7.13,0-.05v6.09H54.71v18h5.55c.13-2,.25-3.72.37-5.65H78.87l0,0v5.67l-5.65.48-.51,5.7H60.49v5.93c0,2.16,0,4.33,0,6.5v6h6.55l0,0V565l5.79.28.28,5.5h5.64l.25-5.52,5.84-.3v-6.57H97.31v-5.83l-.08.09h5.82v12.44H97.52l-.5,5.72-5.42.46-.48,5.42-6.31.48v12.36Z"/><path class="cls-4" d="M109.17,552.59V534.38l-5.89-.29V467.93h5.66v60.52h6.82v24.18l-.24-.08Z"/><path class="cls-2" d="M91.42,558.42H84.83V565l-5.84.3-.25,5.52H73.1l-.28-5.5L67,565V546.71H78.78v-5.78l6-.11H91.4v11.79Z"/><path class="cls-4" d="M67,492.27H91.18V509.7L97,510v6.57H91.46l-12.63-.07,0,0V510l5.63-.26V498.08H67l0,.05c0-2,0-3.94,0-5.91Z"/><path class="cls-5" d="M54.59,492.29v-6.44l5.56-.48.53-5.59H72.63c.22-2.09.39-3.83.61-6H84.63v5.77l-5.61.29-.32,5.69H67v6.77l.06,0-6.74.08Z"/><path class="cls-5" d="M84.81,589.56V577.2l6.31-.48.48-5.42,5.42-.46.5-5.72h5.53v17.51H91.56v6.93Z"/><path class="cls-5" d="M78.83,516.52l12.63.07v5.67l-6.59.3v5.52l-5.86.41c-.09,1.72-.19,3.49-.31,5.81H60.49v-5.93H72.67l.51-5.7,5.65-.48Z"/><path class="cls-4" d="M91.4,552.61V540.82H84.76v-6.41H97.23v18.27l.08-.09Z"/><path class="cls-4" d="M91.33,431v6.05H84.79l-6-.11v-5.86H91.41Z"/><path class="cls-2" d="M103.26,461.32v-11.9H109v11.9Z"/><path class="cls-4" d="M78.78,540.93v5.78H67l0,0,0-5.83Z"/><path class="cls-2" d="M78.8,437l6,.11c-.05,2.19-.09,4.39-.14,6.59l-5.83-.1.05.05,0-6.7Z"/><path class="cls-5" d="M103.26,461.32H109c0,2.2,0,4.41,0,6.61h-5.66C103.27,465.73,103.27,463.53,103.26,461.32Z"/><path class="cls-2" d="M67.12,540.93l0,5.83H60.53v-6Z"/><path class="cls-5" d="M109.17,552.59l6.35,0,.15,6h-6.5Z"/><path class="cls-5" d="M109,449.42h-5.7c0-2,0-3.92,0-5.88h5.66C109,445.5,109,447.46,109,449.42Z"/><path class="cls-11" d="M36.22,552.59h6.46v6H36.22Z"/><path class="cls-2" d="M24.32,522.4H30.1v6H24.32Z"/><path class="cls-12" d="M30.24,540.77H36v6C29.53,546.65,30.22,547.68,30.24,540.77Z"/><path class="cls-2" d="M243.1,528.41l-5.75-.18-.3-5.82h-12.3v-5.9H213v-6.39h17.48c.11,2,.23,3.87.37,6.29H242.9c.18,2.16.32,3.82.49,5.87h17.9c.2,2.1.36,3.86.55,6H279c.17,2,.32,3.7.49,5.74h12.06c.15,2.36.28,4.36.43,6.59h5.5c.12-1.91.24-3.82.39-6.25h23.86c.18-2.16.32-3.82.5-5.87h17.91c.18-2.1.34-3.86.53-6h17.91c.17-2,.31-3.68.47-5.65h5.62v11.39l-12.38.18h-6v5.72l-11.65.18h-6.77v6.45l-5.75.18H303.81l-.49,5.79H285.91v-5.9H273.39v-6.53H261.52l-6.49-.18c-.1-1.88-.2-3.75-.3-5.72Z"/><path class="cls-3" d="M310.26,595.48H297.88c-.11-2-.21-3.78-.32-5.83l-5.67-.32V565.22l5.86-.16h12.33c.12,2.32.21,4.08.31,5.88h11.55v5.92h-5.69c-.11,2.3-.2,4.06-.3,6.08H303.88v6.43h6.4l5.79.12v5.72Z"/><path class="cls-5" d="M285.91,546.73h17.41l.49-5.79h18.27v5.79H310.51c-.19,2-.34,3.7-.51,5.62H285.91Z"/><path class="cls-5" d="M316.16,570.94h-5.77c-.1-1.8-.19-3.56-.31-5.88H297.75c0-2.15-.09-4.3-.13-6.45h18.54Z"/><path class="cls-5" d="M316.07,589.49l-5.79-.12v-6.43H316c.1-2,.19-3.78.3-6.08h5.69v12.63Z"/><path class="cls-5" d="M273.38,540.83h12.53v5.9l-12.55,0C273.36,544.78,273.37,542.81,273.38,540.83Z"/><path class="cls-5" d="M327.83,540.76v-6.45h6.77v6.45Z"/><path class="cls-2" d="M297.62,558.61c0,2.15.09,4.3.13,6.45l-5.86.16q0-3.3,0-6.61Z"/><path class="cls-5" d="M346.25,534.13v-5.72h6v5.72Z"/><path class="cls-4" d="M535.06,582.91l5.91,0c-.07,2.18-.15,4.37-.22,6.55l-5.8,0,0,0C535,587.3,535,585.1,535.06,582.91Z"/><path class="cls-2" d="M48.59,467.94v60.15l5.81.41v23.91l6.05.4v18.27H54.58v-12.4l-5.82-.28V547l-5.95-.39V534.32H36.12V516.67l-5.66-.26V498.26l5.48-.28V479.85l6.69-.31v-11.6Z"/><path class="cls-2" d="M78.82,443.55q0,11.56,0,23.13a6.81,6.81,0,0,1-.27,1.1H67.25l-.35,5.83H54.72c-.11-1.9-.21-3.8-.32-5.7q0-3.33,0-6.66l.14-5.91,0,.05h5.76c.14-2.23.25-4,.37-6.07H73v-5.79l0,.05,6,0Z"/><path class="cls-13" d="M54.41,461.25q0,3.33,0,6.66l-5.74-.05c0-.24,0-.48,0-.73C48.66,460.14,48.09,461.42,54.41,461.25Z"/><path class="cls-2" d="M60.4,571H67v6H60.53C60.49,575,60.44,573,60.4,571Z"/><path class="cls-3" d="M60.53,577H67q.06,2.94.14,5.88H60.53Z"/><path class="cls-5" d="M535,589.46l5.8,0v5.76l-5.72.26Q535,592.47,535,589.46Z"/><path class="cls-3" d="M109,449.42c0-2,0-3.92,0-5.88V431.27h6.62v12.14l6.14.3v35.86l5.66.26c.09,2,.18,3.79.28,5.82h5.65v6.45h12.4v12H133.43v18.09l-5.78.44v11.31l-6,.5v18.2h-5.86V528.45h-6.82V467.93c0-2.2,0-4.41,0-6.61Z"/><path class="cls-3" d="M437.61,498v-5.68l5.88-.26v-6.35l5.84-.29c.09-1.82.18-3.59.28-5.66h6.62V467.94l5.7-.25V437.15h5.79v85.13l-5.57.26v24.22h-6V541l-6.54-.36v-18l-5.92-.48V510.14l-6.08-.46Z"/><path class="cls-4" d="M486.34,582.78h6v6.68h-6Z"/><path class="cls-3" d="M425.13,376.42h-5.69c-.1,2.06-.19,3.85-.29,5.94H407.53V389H395V395H370.74v5.62H359c-.08-1.63-.17-3.41-.28-5.49H322.17c-.09-2.07-.18-3.84-.27-5.83H230.78c-.08,1.69-.16,3.47-.26,5.55H200.61c-.11,2.07-.2,3.85-.3,5.82h-11.6V395h-31v-5.93H146v-6.43H133.56c-.1-2.07-.2-3.84-.3-5.95l-5.64-.29-.25-5.63-5.63-.25-.28-5.74h-5.81v-6.46h-6.37v6.38h6.45v11.67l5.7.27c.09,1.82.17,3.6.27,5.62l5.71.29V389h5.93v5.94h6.55v5.69h11.73c.1,2.07.18,3.84.28,5.94h12.26l.28,5.93h17.45v6.67h6.68V431h5.79v5.79H182.12v-5.53H164.5c-.1-2.07-.19-3.84-.29-5.93H146.06c-.1-2.07-.18-3.85-.27-5.92l-5.67-.26v-6.43h-6.68v-5.93H127.5V395h-5.8v-5.68h-5.82V382.6h-6.67c-.09-2.08-.17-3.85-.26-6h-5.77V365l-5.77-.47v-12l-6-.49V340.41l0,0h6v-6.64l-.06,0h5.79v6.41l6,.3v11.62h12.57V358h5.69v6.54l6,.34.27,5.61h6.35l.28,5.95h24.12v5.8H194.5v-5.69h60.34v-5.63h42.77v5.44h36.76c.1,2.07.18,3.84.29,6H395v-5.72h12.28c.1-2,.19-3.78.29-5.8l5.82-.28v-5.76l5.79-.11H425c.12-2.38.21-4.39.31-6.4l12.4-.12,0,0v12.63H425.13Z"/><path class="cls-3" d="M91.41,431.09H78.8V437l0-.05H72.9v6.68l0-.05-18.4.07V407l5.8-.47V395.17l6.47-.41.43-5.49,5.5-.43.37-6.18,5.5-.43.43-5.48,5.44-.41.44-5.38H97c.13,1.66.27,3.33.45,5.58h5.74v18.25l5.68.27.26,5.62h6.45v11.87H109v6.65h-5.65l-.29,5.88H91.41Z"/><path class="cls-3" d="M78.87,309.45h5.75V316h6.84v17.89l-.1,6.57,0,0H84.79V322.24l-5.92-.44Z"/><path class="cls-4" d="M54.55,443.6l18.4-.07v5.79H60.63c-.12,2.08-.23,3.84-.37,6.07H54.5Q54.53,449.5,54.55,443.6Z"/><path class="cls-3" d="M73,273.3h5.77v18.44H73Z"/><path class="cls-4" d="M473.85,182v18.3h6.46v18.57h6v11.64l-5.78.28v18.17h-6.77v11.93l.08-.08h-5.79v30.82l-5.9.33v17.39l-5.95.28v12.46l-.15,5.89.08-.09h-6.69v5.91h-5.9v6.66l0,0h-5.77c-.1,2.25-.18,4-.27,5.92h-5.79V333.91l5.72-.27v-5.7H425.19v-5.75l6.63-.41v-5.72h11.67V291.84h6V279.22h6.4v-5.81h-6.4v-6.09h12.25v-6.49h-5.69l0-5.8v-5.76h-6.6v5.56l-5.79.27v18.36H432.15v6h11.4V291.9h-5.81v-6.51H432.1v6.45h5.7l-.22,5.82h-12.5V285.42H413.36v12.29l0,0h-5.67l-.51,5.66H394.88v-5.71l.18-5.72,5.9-.28v-6.35l6.62-.3V273.55l5.72-.38V225l-5.8-.51V218.8h5.69v-6.52h-5.62l-6.8-.09.18-5.81h6.45V188.64h-6.54V170.28h-6l-5.8,0q0-3,0-6h5.64v-6.36h-5.59v6.41h-6V151.72H370.74l-.18-5.75v-5.74l-5.59-.48c-.16-2.15-.31-4.14-.47-6.3h-5.72l-6.55-.07v-5.91h-5.92c0-1.94.06-3.87.08-5.8H352v-5.78H340.41v5.66l-5.81-.07c-.09-1.86-.18-3.72-.29-5.82h-6.49V109h6.5v-5.84h-6.39c0-1.95-.05-3.9-.07-5.85l6.75-.1h24.1c.12,2.32.21,4,.31,6.08h11.56c.09,1.85.18,3.71.28,5.71h5.76l6.49.18v6.45h6l5.68.26c.12,2.08.22,3.83.32,5.61h5.76l6.57.18-.05-.06.13,5.8v6h5.84l-.06,6.74H407.7v5.59h5.58v-5.64h5.9c.09,1.88.17,3.76.27,5.93h5.66c0,3.93,0,7.86,0,11.79l-5.85-.05V152h-5.63v5.63h5.71l0,6.59v6.06h5.93v11.47h6.49V170.21h17.89v11.92h6.54v12.23l5.94.38v11.33h5.5V188.75l-5.69-.28v-12.2l-5.94-.38V164.23h-6.62V151.77h-5.76V146l-6-.29V133.53l-5.74-.35c-.09-2-.17-3.68-.25-5.54l-6.37-.35c-.11-2-.2-3.78-.29-5.59l-5.54-.26c-.14-2-.27-3.74-.42-5.78H413.4c0-2.21,0-4.43,0-6.64l-.05.06,6-.14h5.73v6.61h6.6c.09,2,.17,3.81.26,5.89l5.65.25c.08,1.79.15,3.56.25,5.63h5.85V140h5.71v5.75H456v11.73l5.91.28v6.37l5.9.26V182Zm-30.28,48.69c0-2,0-4,0-6V206.54h-5.76v24.07h5.85v5.63h5.62v-5.59Zm-11.66-36.17v5.68h5.68V188.84h-5.68ZM383,145.76V133.54h-6.29v12.22Zm36.4,97.14h5.53v-12H419.4Zm-18.78-91.22v-5.55H395.2v5.55Zm.07-24h-5.5V133h5.5Zm-29.92-.43h5.6v-5.55h-5.6Zm61.31,127.83v5.47h5.27v-5.47Z"/><path class="cls-2" d="M370.58,103.26H359c-.1-2.08-.19-3.76-.31-6.08h-24.1c-.1-1.87-.2-3.74-.3-5.71H322l-18.34-.08h-5.94l-5.81.07H224.64v5.84l-5.81,0-12.44.07-6-.08-5.95-.1V91.45l11.87-.11H218.6V84.75h-5.71l.05.09V79.07l-6.41-.43V67.14H213v5.92h11.77v5.56h5.8V73.06c.74,0,1.47-.11,2.2-.11H337.64c.83,0,1.65.1,2.6.16.14,2,.28,3.75.43,5.84h11.6v5.78H364.8l-.05,0v6.67h5.92v5.94H383.2l-.05-.05v5.9h5.94c0,1.93.05,3.87.08,5.8l-.22.23-5.84,0-6.49-.18c-.1-1.87-.19-3.73-.29-5.71Zm-30-12.18h5.55V85h-5.55Z"/><path class="cls-2" d="M237.32,370.52H213.18l-.43-5.68h-6.3v-12.6H194.69c-.1-2.08-.18-3.76-.28-5.72l-5.62-.38c-.09-1.8-.18-3.48-.28-5.57h-6.45V328.05l-5.76-.27-.34-5.6-5.84-.34V297.59h-5.86V279.24h-6.6l.05.05c0-2,0-4-.05-5.94v-30l-5.88-.46V230.52H140.33V224.6h11.44v-5.78h5.9V212.2l0-11.83-.06,0h6.43l.48,5.68,5.65.41v5.73l.05-.06h-5.68v60.95l5.56.46V291.5l5.95.54v17.18l5.83.46v12.09l6.49.4c.14,1.75.28,3.42.45,5.48l5.58.45v12l5.8.5c.14,1.82.26,3.49.41,5.52h12.06l.47,5.82,5.43.41c.15,1.72.29,3.38.46,5.46l5.51.45c.11,2,.22,3.93.35,6.33h12.41Z"/><path class="cls-2" d="M334.6,121.48l5.81.07,6,.12c0,1.93-.05,3.86-.08,5.8h-5.64v5.68l5.49.47c.13,2.38.23,4.42.34,6.47l-.25-.1H334.76c-.14-2.28-.26-4.19-.39-6.35h-6.28c-.1,1.88-.21,3.88-.34,6.11H316.1V115.92h-5.89v5.65h-6.55v5.82h-5.83v12.36l-5.82.46c-.13,1.82-.25,3.49-.39,5.42h-5.73v-24h-6.64c0-2,0-3.95,0-5.93h12.31v-6.56H286c0-2-.09-3.93-.13-5.9l17.7-.08h30.75V109h-6.5v6.69l.07,0h-5.64v5.86H334.6Z"/><path class="cls-2" d="M401,206.38l-.18,5.81.07,0h-5.78v24.13h5.58c.16-1.9.29-3.57.46-5.57h12.2v30l-5.85.06c0-3.91,0-7.83,0-11.75V243.4h-6.58v17.47H395v12.48c0,3.94,0,7.89-.05,11.83l.05-.05H389l0,.05v-30l5.56-.44v-5.48l-5.5-.43V212.46l-5.8-.44V200.65l-6.56-.39V194.7l6.25-.33v-5.6l.23-.24,5.82.26v11.6h5.85l5.81-.08.22.23C401,202.49,401,204.43,401,206.38Z"/><path class="cls-5" d="M151.77,218.82v5.78H140.33v5.92h11.45v6l-5.82.09-5.94-.09h-6.41v6.56h6.3v6H127.83v5.58l5.25.48v12H127.7c-.14-1.92-.27-3.82-.41-6H121.8c-.13,1.9-.26,3.9-.42,6.38H115.8V254.79h-6.57V243.3l6.55-.31v-6.61h11.53v-5.77h-11.7V224.8l6-.08h5.88v-5.91l-.06.06,5.86-.12H140v-6.56l5.94,0,0,0v6.68h5.94Z"/><path class="cls-2" d="M395.06,291.89l-.18,5.72-5.82.3v11.55h-5.79V316q-.09,2.94-.17,5.87h-6.62v11.87l0-.07h-5.69c-.12,2.34-.23,4.35-.34,6.57l-5.61.26V352l-5.89.43c-.08,1.81-.16,3.48-.25,5.56h-6.33c-.13,2.39-.23,4.4-.34,6.63l-5.57.25c-.1,1.8-.19,3.57-.31,5.67H327.86v-5.76h12.37c.13-2.26.24-4.17.37-6.41l5.68-.49V346.57l5.73-.45c.13-1.75.27-3.52.42-5.49l6.23-.39c.11-2,.22-3.91.34-6.21l5.51-.44c.15-1.8.28-3.47.44-5.44l5.67-.51V316.37l5.84-.48V303.81l6.57-.42V285.18h6.06l0-.05v6.52h5.79Z"/><path class="cls-4" d="M224.79,73.06H213V67.14l125.14-.09h8c.09,1.91.17,3.69.27,5.78h18.27v6l.05-.07L352.27,79h-11.6c-.15-2.09-.29-3.86-.43-5.84-.95-.06-1.77-.16-2.6-.16H232.79c-.73,0-1.46.07-2.2.11Z"/><path class="cls-4" d="M261.67,333.72v-5.91H255V321.9h-5.9l0-5.76-.07-.09,12.49,0,42.09.08h0c0,3.94,0,7.88,0,11.83h-5.94v5.83l.06.09H285.8v6.48l-6.57.21-5.79-.2v-6.61Z"/><path class="cls-4" d="M206.39,97.36l12.44-.07V103h5.81V91.47h61.2c0,1.94,0,3.88,0,5.81l.05,0h-6.59v6l-.15,5.75h-5.81l.06,0V97.48H261.49v5.61l-6.56.09V97.55h-5.62v5.59H255c0,2,0,4,0,6H249.2v6.65h-5.95l-6-.27V109h5.83V97.44H230.85v5.82h6.36l.08,5.81-12.63.05H213.13c-.11-2-.19-3.78-.3-5.92h-6.49C206.36,101.26,206.37,99.31,206.39,97.36Z"/><path class="cls-5" d="M206.32,182.28v6.18H194.74c-.13,2.12-.24,3.9-.36,5.92l-5.65.28v5.5h-6.5V188.77h6.21v-6.66h11.83c.11-2.12.19-3.9.29-5.83H237.1c.09,1.71.19,3.49.31,5.54l5.56.33v6.31H230.78v-6.18Z"/><path class="cls-5" d="M103.23,236.61V224.87H91.68V219.1l5.34-.49v-6.15L91.36,212V188.66h5.93l0,0v6h5.81v5.64l5.88.34v5.78h-5.45v5.82h5.45q.07,3.32.13,6.63v17.81Z"/><path class="cls-5" d="M346.28,188.78v-6.59h-30v6.19H303.8V182.1H310l.31-5.76H352.2v5.58h6.52v6.49l5.84.4v11.33H359c-.1-1.67-.2-3.44-.32-5.44l-6.4-.33v-5.59Z"/><path class="cls-2" d="M140,140h11.61l.37-6.41,5.52-.46.4-5.49,6.31-.34v-11.4H170c.15,1.75.31,3.52.47,5.46l5.42.39v5.49l-5.43.42-.39,5.44-5.53.45c-.11,2-.22,4-.34,6.24l-6.24.35c-.15,1.81-.3,3.57-.46,5.53l-5.44.39-.44,5.73h-5.68l-5.79.1-.23-.23c.05-3.9.09-7.8.14-11.7Z"/><path class="cls-2" d="M352.23,133.38l6.55.07V146h11.78l.18,5.75-.09,6h-24V152l5.57-.42v-5.72c0-1.93-.05-3.87-.08-5.81Z"/><path class="cls-5" d="M254.89,218.93H249.2v-6.5l-6.11-.39v-5.71H255v6h12.43V243.1h-5.85V218.93Z"/><path class="cls-2" d="M164.22,176.05v12.3l5.79.52v5.66H157.62l.07.05v-5.74h-5.83v5.59l-5.84.22-.23-.24q.08-6.21.13-12.43l0,.05h5.71c.11-2.19.21-4.09.32-6Z"/><path class="cls-5" d="M370.65,157.69l.09-6h12.33v12.62h6l0-.05q0,3,0,6c0,2,0,3.91,0,5.87l0,0-12.43,0v-5.67l-5.9-.3v-5.7l5.54-.27v-6.43h-5.63Z"/><path class="cls-5" d="M97.29,188.66V176.31L103,176l.28-5.64h5.59v-6h6.82l0,0c0,2,.08,4,.11,6v11.56l-6.63.3v6.29l-5.92.29-6-.1Z"/><path class="cls-5" d="M303.6,316.1,261.51,316c0-2.19.05-4.37.08-6.56v0l36.18-.1,5.77.19C303.55,311.75,303.58,313.93,303.6,316.1Z"/><path class="cls-2" d="M254.89,218.93h6.64V243.1h5.85v5.71l-5.55.43c-.14,1.73-.28,3.49-.44,5.47h-6.5Z"/><path class="cls-2" d="M291.81,285.16v6.39l-5.67.43c-.14,1.74-.28,3.5-.44,5.47H273.61l-.43-5.43-5.71-.45v-6.41Z"/><path class="cls-5" d="M297.66,346.29c0,1.95,0,3.91-.07,5.86h-35.9l-.15-5.81,6-.12H286l11.75.13Z"/><path class="cls-5" d="M291.81,285.16H267.48v-5.89c0-1.91,0-3.82,0-5.73l0-.34,5.82.26V279H286v-5.57l5.82-.26,0,.34c0,1.91,0,3.82,0,5.73s0,3.92,0,5.89Z"/><path class="cls-2" d="M261.69,352.15h35.9v5.69h-35.9Z"/><path class="cls-2" d="M297.76,309.38l-36.18.1v-5.66h36.18Z"/><path class="cls-5" d="M224.66,109.12l12.63-.05,0,0v6.45l6,.27v11.48h-5.8l-.33-5.68h-6.51l0,0v-5.92h-5.92l0,0C224.73,113.51,224.7,111.32,224.66,109.12Z"/><path class="cls-2" d="M303.65,212.11l-6,.07.05.06V200.69l5.62-.47c.14-1.69.28-3.44.46-5.59h12.37c-.05,1.89-.11,3.79-.16,5.69l-5.78.33v5.73l0-.06h-6.63Z"/><path class="cls-2" d="M170.24,151.81V140.26l5.69-.47c.11-2,.23-4,.36-6.21h5.46v18.18H170.19Z"/><path class="cls-2" d="M261.49,103.09V97.48h11.95v11.57h-6.05v6.7l-5.86-.17Q261.52,109.34,261.49,103.09Z"/><path class="cls-5" d="M140.1,182.07v6.36h-6.64v-6.25l-5.76-.31v-5.63l5.48-.25.36-5.86H140Q140.05,176.1,140.1,182.07Z"/><path class="cls-5" d="M103.2,145.93V133.56l5.69-.34c.09-1.76.19-3.53.31-5.83h6.47q.06,3,.11,6v6.46h-6.52l-.36,6h-5.76Z"/><path class="cls-2" d="M249.16,279.32v-5.7l5.59-.48c.13-1.82.25-3.49.39-5.4H267.5v5.47l0,.34h-5.9v5.74l.05-.05-6.59.12Z"/><path class="cls-5" d="M115.61,218.78v-6.41l5.89-.29V200.69h6v18.18l.06-.06-5.88.05Z"/><path class="cls-5" d="M218.87,212.26v6.36H213V206.29H206.3l0,0,0-5.92h6.62l6,.08-.06,5.78Z"/><path class="cls-2" d="M145.92,212.23l-5.94,0,.05,0c0-2,0-3.95,0-5.92v-5.69l-6.33-.36v-5.85h12.13l.23.23Q146,203.45,145.92,212.23Z"/><path class="cls-2" d="M291.78,273.21v-5.55h11.55c.16,1.82.32,3.57.5,5.51l6.29.37v5.78l-6.59,0-5.86-.12.05.05v-5.74h-5.9Z"/><path class="cls-5" d="M91.41,164.35V152l5.68-.32c.1-1.79.2-3.56.32-5.72h5.79l-.06-.06V157.5l-5.75.32v6.47h-6Z"/><path class="cls-4" d="M322.05,194.64l18.32,0,.15,5.74q0,3-.07,6h-5.9l0,0v-5.77H328l-5.91,0C322,198.55,322.05,196.6,322.05,194.64Z"/><path class="cls-2" d="M255,206.32H243.09l.07,0V200.6l-5.78-.29c-.06-1.89-.11-3.79-.17-5.68h11.6c.15,1.86.3,3.61.46,5.57l5.7.43Z"/><path class="cls-5" d="M145.92,212.23q0-8.79.1-17.59l5.84-.21,5.83.15-.07-.05c0,2,0,3.92,0,5.89l.06,0h-5.92v11.87l0,0h-5.93Z"/><path class="cls-2" d="M376.64,176.05l12.43,0c0,1.94-.05,3.88-.08,5.81l-5.72.26v6.36l-.23.24-6.4-.31Z"/><path class="cls-5" d="M84.81,182.08l-.09-6V164.35h6.69l-.06-.06v17.79Z"/><path class="cls-2" d="M267.55,346.22l-6,.12.06,0,0-5.93q.06-3.36.11-6.72h11.77v6.61l-5.89.28Z"/><path class="cls-5" d="M164.22,176.05H151.9c0-1.93,0-3.85,0-5.78l5.82-.26v-5.72l0,.05,6.55,0Z"/><path class="cls-5" d="M267.39,115.75v-6.7h6.05l-.06,0v6.69h5.9v0c0,2,0,4,0,5.93l.05,0-6,.12h-5.92Z"/><path class="cls-2" d="M218.79,224.84l18.5-.08,0,0v5.82H218.79Z"/><path class="cls-2" d="M334.6,230.53H316.14v-5.82l-.05,0,18.51.08Z"/><path class="cls-4" d="M218.93,200.49l-6-.08.08-5.8,17.58,0c0,2,0,3.91,0,5.86l-5.91,0Z"/><path class="cls-5" d="M194.47,133.27h-5.62V121.61h11.61l-.06-.06c0,2-.05,3.91-.07,5.86h-5.86Z"/><path class="cls-5" d="M206.39,97.36c0,2,0,3.9,0,5.84v5.65H194.72v-5.51l5.7-.34V97.28Z"/><path class="cls-2" d="M261.59,309.46c0,2.19,0,4.37-.08,6.56l-12.49,0v-6.59Z"/><path class="cls-5" d="M261.49,103.09q0,6.25,0,12.49h-6.59V109.1c0-2,0-4,0-6l0,0Z"/><path class="cls-2" d="M303.6,316.1c0-2.17-.05-4.35-.07-6.53h12.58v6.56l-5.83.07-6.69-.1Z"/><path class="cls-2" d="M237.3,218.82l-6.73-.06c0-2.18,0-4.35,0-6.53,0-1.92-.07-3.85-.11-5.78l.24-.24,6.51-.07,0,.34q0,6.2,0,12.39Z"/><path class="cls-5" d="M303.59,316.1l6.69.1c0,1.95,0,3.9,0,5.85v5.88h-6.63C303.6,324,303.6,320,303.59,316.1Z"/><path class="cls-2" d="M285.8,340.32v-6.48h11.93l0,6.65.05-.07-11.71.14Z"/><path class="cls-2" d="M286,273.47V279H273.32v-5.57Z"/><path class="cls-2" d="M267.38,212.27H255v-6h12.43Z"/><path class="cls-5" d="M334.55,206.33h5.92v12.24h-6v-6.32Z"/><path class="cls-4" d="M115.61,218.78l6,.08v5.86l-6,.08-6.53,0v-6Z"/><path class="cls-4" d="M407.56,97.33V85h5.6V97.25h-5.68Z"/><path class="cls-5" d="M310.21,121.57v-5.65h5.89v11.56l-5.92-.12Z"/><path class="cls-5" d="M224.77,121.55H213.21v-5.84h11.56l0,0v5.92Z"/><path class="cls-4" d="M170.29,84.81V79.07h11.48v5.66H170.21Z"/><path class="cls-2" d="M194.32,303.38h-5.46v-11.3h5.46Z"/><path class="cls-2" d="M364.46,303.46h-5.31V292h5.31Z"/><path class="cls-5" d="M249.09,316.14l0,5.76-6,.19h-5.62v-5.95Z"/><path class="cls-2" d="M243.1,322.09l6-.19H255v5.91H243.4C243.3,325.84,243.2,324,243.1,322.09Z"/><path class="cls-2" d="M140.1,182.07q-.06-6-.11-11.94l-.05.07,5.86,0c0,4,0,7.92.07,11.88l0-.05Z"/><path class="cls-5" d="M127.47,157.62l-5.91,0,0,0c0-2-.07-4-.11-6V146h6l0-.06v11.78Z"/><path class="cls-4" d="M188.9,73.07h11.27V78.6H188.9Z"/><path class="cls-4" d="M376.5,84.77h6.56v6.58l.1,0-6.55,0q0-3.28,0-6.57Z"/><path class="cls-2" d="M133.4,140v-6.41H140V140l.05,0h-6.68Z"/><path class="cls-4" d="M212.93,91.34h-6.59v-6.5h6.59l0-.09C212.9,87,212.92,89.15,212.93,91.34Z"/><path class="cls-2" d="M164.39,91.28l-6.75.09.05,0v-6.6h6.7Z"/><path class="cls-5" d="M352.19,212.24h6.42v6.57H352.2l.05.06v-6.69Z"/><path class="cls-2" d="M140,212.19v6.56h-6.67c.05-2.2.11-4.4.16-6.6l6.56.08Z"/><path class="cls-2" d="M164.22,164.38l-6.55,0c0-2.24,0-4.48,0-6.72l-.05.06h6.7C164.3,159.91,164.26,162.15,164.22,164.38Z"/><path class="cls-4" d="M255,279.36l6.59-.12-.09,5.83L255,285C255,283.15,255,281.26,255,279.36Z"/><path class="cls-5" d="M303.53,279.36l6.59,0V285h-6.57C303.54,283.15,303.53,281.26,303.53,279.36Z"/><path class="cls-4" d="M261.56,340.44l0,5.93h-6.42v-5.93Z"/><path class="cls-4" d="M164.39,91.28V84.82h5.9l-.08-.09v6.56Z"/><path class="cls-2" d="M182,103.16V97.22h6.72l-.05-.06c0,2-.09,4-.13,6Z"/><path class="cls-4" d="M400.9,97.38l6.66,0-.08-.08c0,2,0,4,0,6l.09-.08-6.64-.08C400.89,101.15,400.89,99.27,400.9,97.38Z"/><path class="cls-2" d="M133.4,109.08v-5.9H140l-.05-.05V109h-6.63Z"/><path class="cls-5" d="M182,103.16l6.54.06V109h-6.47l-.06-5.8Z"/><path class="cls-2" d="M127.48,115.74V109l-.06,0,6,0-.05,0v6.66h-5.92Z"/><path class="cls-5" d="M279.25,121.6h6.64v5.88l-6.56-.11,0-5.82Z"/><path class="cls-4" d="M310.21,121.57l0,5.79-6.52,0v-5.82Z"/><path class="cls-5" d="M449.37,140h-5.71v-6.76h5.71Z"/><path class="cls-2" d="M140.06,157.58l-6.71.08.05.05v-6h6.49l.23.23Z"/><path class="cls-5" d="M164.33,157.68h-6.7v-5.79h6.63l.06,5.8Z"/><path class="cls-5" d="M115.71,164.34c0-2.2.05-4.4.08-6.6l5.81,0,0,0q0,3.3-.08,6.6l-5.81,0Z"/><path class="cls-2" d="M133.35,157.66v6.42h-5.88v-6.46l0,.06,6,0Z"/><path class="cls-5" d="M157.68,157.62c0,2.24,0,4.48,0,6.72l0-.05-5.82,0v-6.64Z"/><path class="cls-2" d="M370.63,157.68h5.65v6.43l-5.54.27Q370.69,161,370.63,157.68Z"/><path class="cls-2" d="M213,194.61l-.08,5.8h-6.63v-5.81Z"/><path class="cls-5" d="M230.61,200.51c0-2,0-3.91,0-5.87h6.61c.06,1.89.11,3.79.17,5.68l-.23.23-6.57-.11Z"/><path class="cls-5" d="M140,212.23l-6.56-.08v-5.84H140C140,208.28,140,210.26,140,212.23Z"/><path class="cls-5" d="M303.65,212.11v-5.79h6.63v5.79Z"/><path class="cls-4" d="M334.55,206.33l0,5.93-6.65-.1.08.09c0-2,0-3.95,0-5.92l-.05.09,6.6-.12Z"/><path class="cls-2" d="M170.19,212.24h5.66v6.4h-5.61v-6.46Z"/><path class="cls-5" d="M200.39,212.18v6.69l0-.06h-5.68v-6.57h5.68Z"/><path class="cls-14" d="M230.61,212.23c0,2.18,0,4.35,0,6.53h-5.79v-6.6l-.08.09Z"/><path class="cls-2" d="M297.67,212.18v6.4H292v-6.34h5.71Z"/><path class="cls-2" d="M322.08,218.76l-6,.06.05.05c0-2.24.05-4.48.08-6.72l5.83.08Z"/><path class="cls-14" d="M322.08,218.76l0-6.53-.05,0H328l-.08-.09v6.6Z"/><path class="cls-2" d="M121.6,157.7l-5.81,0V152l5.7-.27C121.53,153.71,121.56,155.71,121.6,157.7Z"/><path class="cls-4" d="M352.12,140.06c0,1.94.05,3.88.08,5.81h-5.95V140l.25.1Z"/><path class="cls-2" d="M127.47,146V140h5.93l-.05,0v5.92h-5.93Z"/><path class="cls-2" d="M194.47,133.27v-5.86h5.86v5.86Z"/><path class="cls-2" d="M115.78,133.43q0-3-.11-6l0,.08,5.83-.12.23.24c-.09,1.8-.18,3.6-.29,5.84Z"/><path class="cls-5" d="M218.79,224.84v5.69h-5.61v-5.69Z"/><path class="cls-2" d="M170.39,230.4V225h5.42v5.43Z"/><path class="cls-2" d="M279.3,121.55l0,5.82h-5.75c-.09-2-.18-3.83-.27-5.7Z"/><path class="cls-5" d="M230.61,121.55v5.68h-5.84v-5.68l0,0h5.92Z"/><path class="cls-2" d="M127.38,121.52v5.72l-5.69.35-.23-.24c0-1.94.08-3.89.11-5.83l0,0Z"/><path class="cls-5" d="M121.57,121.52c0,1.94-.07,3.89-.11,5.83l-5.83.12v-6Z"/><path class="cls-15" d="M352.2,218.81v5.68h-5.64v-5.62h5.69Z"/><path class="cls-5" d="M200.46,121.61v-5.68h5.63v5.62H200.4Z"/><path class="cls-5" d="M127.38,121.52l-5.86,0v-5.83h6l0,0C127.41,117.63,127.39,119.58,127.38,121.52Z"/><path class="cls-2" d="M419.32,108.94l-6,.14c0-2,0-3.89,0-5.84h5.75C419.16,105.22,419.24,107.08,419.32,108.94Z"/><path class="cls-4" d="M413.32,103.24c0,2,0,3.89,0,5.84l.05-.06h-5.88v-5.9l-.09.08Z"/><path class="cls-2" d="M316.09,218.82v5.94l.05,0h-5.68v-5.84h5.68Z"/><path class="cls-2" d="M237.25,218.87h5.67v5.84h-5.68l0,0c0-2,0-4,0-5.94Z"/><path class="cls-15" d="M200.4,218.87h5.68v5.63h-5.63v-5.69Z"/><path class="cls-2" d="M182,103.15l.06,5.8h-5.7v-5.8Z"/><path class="cls-5" d="M127.48,109h-5.8v-5.78h5.7c0,1.94,0,3.89,0,5.83Z"/><path class="cls-5" d="M400.9,97.38c0,1.89,0,3.77,0,5.66l-5.87,0c0-2,0-3.89-.07-5.84l0,.06Z"/><path class="cls-2" d="M140,103.18V97.53h5.66v5.6H140Z"/><path class="cls-2" d="M127.38,103.22h-5.7V97.55h5.7Z"/><path class="cls-4" d="M389.13,91.45h5.78v5.83l0-.06-5.88,0,0,0C389.1,95.32,389.12,93.39,389.13,91.45Z"/><path class="cls-5" d="M352.25,212.18h-6v-5.85l5.87,0c0,2,.05,3.92.07,5.87Z"/><path class="cls-2" d="M389.13,91.45c0,1.94,0,3.87,0,5.81l-5.94,0,.05.05c0-2,0-4,0-6l-.1,0Z"/><path class="cls-4" d="M194.47,91.45v5.73h-5.8l.05.06V91.45Z"/><path class="cls-5" d="M157.64,91.37V97H152v-5.6h5.66Z"/><path class="cls-4" d="M425.09,78.87v5.66h-5.6v-5.6h5.65Z"/><path class="cls-4" d="M370.68,79h5.82v5.81l.07-.06-6,.08.06-.09C370.67,82.78,370.68,80.87,370.68,79Z"/><path class="cls-5" d="M370.68,79c0,1.91,0,3.82,0,5.74l-5.92,0,.05,0c0-2,0-4,0-5.94l-.05.07Z"/><path class="cls-5" d="M322.05,212.23l-5.83-.08c-.07-1.91-.13-3.83-.19-5.74l.24-.25,5.56.13.34.05c-.06,2-.11,3.95-.17,5.92Z"/><path class="cls-4" d="M218.87,212.26v-6l5.86.15,0-.09c0,2,0,3.95,0,5.92l.08-.09Z"/><path class="cls-5" d="M206.3,206.29v5.89h-5.91l.06.06c0-2,.05-3.91.08-5.86l5.81,0Z"/><path class="cls-4" d="M108.94,212.17h-5.45v-5.82h5.45Z"/><path class="cls-2" d="M352.12,206.37l-5.87,0,.07,0c0-2,0-4,0-6h5.79Z"/><path class="cls-4" d="M310.24,322.05c0-1.95,0-3.9,0-5.85l5.83-.07,0,0c0,1.93,0,3.87,0,5.8Z"/><path class="cls-2" d="M316.05,321.91c0-1.93,0-3.87,0-5.8h5.68v5.8Z"/><path class="cls-5" d="M255,279.36c0,1.9,0,3.79,0,5.68h-5.84v-5.72Z"/><path class="cls-5" d="M346.33,200.41c0,2,0,4,0,6l-5.87,0q0-3,.07-6l5.82.07Z"/><path class="cls-5" d="M297.67,333.75v-5.83h5.95v5.83Z"/><path class="cls-5" d="M310.23,206.38v-5.73l5.78-.33.22.22c0,1.87,0,3.74,0,5.62l-.24.25Z"/><path class="cls-5" d="M237.38,200.31l5.78.29v5.78l-5.87.1,0-.34c0-1.87-.07-3.73-.1-5.6Z"/><path class="cls-2" d="M261.52,285.07l.09-5.83-.05.05h5.92v5.89Z"/><path class="cls-2" d="M206.34,206.33l-5.81,0v-6h5.79C206.33,202.38,206.33,204.36,206.34,206.33Z"/><path class="cls-2" d="M291.8,285.17c0-2,0-3.93,0-5.89h5.91l-.05-.05.09,5.83Z"/><path class="cls-5" d="M78.91,206.4v-6h5.72l.09,6,.07,0Z"/><path class="cls-4" d="M297.76,285.07l-.09-5.83,5.86.12c0,1.9,0,3.79,0,5.68Z"/><path class="cls-5" d="M297.7,340.49h5.66v5.8h-5.7l.06.06,0-5.93Z"/><path class="cls-2" d="M346.34,200.42l-5.82-.07-.15-5.74h6Z"/><path class="cls-5" d="M322.05,194.64c0,2,0,3.91,0,5.87l0-.08-5.84.11-.22-.22c.05-1.9.11-3.8.16-5.69Z"/><path class="cls-2" d="M121.27,194.4H116v-5.52h5.27Z"/><path class="cls-2" d="M97.25,188.62l6,.1c-.06,2-.11,3.91-.17,5.87H97.25Z"/><path class="cls-2" d="M151.89,164.26l5.82,0V170l-5.82.26Z"/><path class="cls-5" d="M145.8,170.15l-5.86,0v-5.64h5.86Z"/><path class="cls-2" d="M115.67,164.3l5.81,0V170l-5.7.27C115.75,168.29,115.71,166.29,115.67,164.3Z"/><path class="cls-2" d="M164.32,157.69l-.06-5.8,6-.08-.05-.05v5.93Z"/><path class="cls-5" d="M334.6,230.53v-5.69h5.6v5.69Z"/><path class="cls-5" d="M140.06,157.58l.06-5.67,5.79-.1v5.77Z"/><path class="cls-5" d="M389.06,309.46V297.91l5.82-.3v5.71h12.34l.51-5.66h5.67v5.63H419v-5.58h-5.67V285.42h11.72v12.23h12.5v6h-5.76v18.16l-6.63.41v11.43l-6.05.39v6.24l-5.52.35v11.73h5.7l0,5.79-.06,6.52-5.79.11H395.19c-.15-2.23-.27-4.13-.41-6.33h-5.49c-.15,2-.29,3.92-.44,6.06h-5.47c-.12-1.91-.24-3.82-.38-6.15l-6.26-.41c-.11-2-.21-3.79-.32-5.59l.23-.23,6.59,0h11.4V340.68h-5.59v5.64l-5.81.09h-6.59l-.23-.23q0-6.24.1-12.48l0,.07h6.45l.52-5.88h5.62v5.61h5.66V327.9h-5.66v-6h-6q.07-2.93.17-5.87h5.79Zm18.27,6.9h-6.25v5.32h6.25Z"/><path class="cls-3" d="M109.07,224.78l6.53,0c0,1.82,0,3.63,0,5.81h11.7v5.77H115.78V243l-6.55.31v11.49h6.57v12.72c-.07,3.9-.15,7.8-.22,11.71H109V260.79h-5.81l0,.06q-.08-5.87-.13-11.73c0-2,0-4,0-6q.09-3.24.16-6.48h5.84Z"/><path class="cls-2" d="M109,267.41v11.81h6.61q.06,6.27.13,12.55c0,2-.07,4-.11,6h-6.44V285.34l-6-.32v-11.5l-5.75-.27c-.11-1.82-.22-3.59-.35-5.59l-5.44-.32v-6.49h11.54l0-.06v6.62Z"/><path class="cls-3" d="M140.09,328v5.68l5.63.28v12.22H140v-5.6h-6.43V328.1l-5.86-.33v-5.66H140C140,324.06,140.05,326,140.09,328Z"/><path class="cls-2" d="M157.66,297.86l-5.81-.35V285.32l-6-.3V267.58l.23-.24,5.66.09c0,2,.09,3.94.13,5.92v5.94h5.89l-.05-.05q0,9.13.05,18.28Z"/><path class="cls-2" d="M140,236.53l5.95.09q0,6.23,0,12.45v11.75l.1,6.52-.23.24h-5.89V243.09Q140,239.82,140,236.53Z"/><path class="cls-5" d="M164.26,297.59h5.86v12H157.66V297.86l.05-.34Z"/><path class="cls-3" d="M78.91,206.4l5.88-.1v24.09H78.91Z"/><path class="cls-3" d="M115.6,297.75c0-2,.08-4,.11-6l5.79.09c.06,1.95.13,3.91.2,5.86v5.71l5.57.26v5.74H115.68l0,.05Q115.67,303.62,115.6,297.75Z"/><path class="cls-5" d="M121.8,284.86V273.6h11.31v11.26Z"/><path class="cls-2" d="M115.68,309.43v6.42H103.41v-6.37h12.32Z"/><path class="cls-5" d="M188.56,358.19h11.6v6.46h-11.6Z"/><path class="cls-5" d="M121.7,297.72c-.07-2-.14-3.91-.2-5.86h11.57v5.86Z"/><path class="cls-2" d="M188.56,358.19v6.46h-6.35v-6.46Z"/><path class="cls-2" d="M157.65,346.35h6.65v5.88l0-.05-6.58-.05-.06-5.83Z"/><path class="cls-3" d="M73,243.2v-6.45h5.64v6.37H72.91Z"/><path class="cls-2" d="M91.52,285v-5.46h5.53V285Z"/><path class="cls-2" d="M103.07,243.09c0,2,0,4,0,6H97.46v-6Z"/><path class="cls-2" d="M140.09,328c0-1.95-.09-3.9-.13-5.85h5.67V328Z"/><path class="cls-2" d="M91.46,333.86v-6h5.8v6l.06,0Z"/><path class="cls-2" d="M151.88,346.24v-5.59h5.77v5.7l.06-.05Z"/><path class="cls-5" d="M151.88,346.24l5.83.06.06,5.83h-5.89Z"/><path class="cls-5" d="M376.42,352.33l-5.44-.26v-5.56l5.44-.32.23.23v5.68Z"/><path class="cls-2" d="M170.14,358h-5.79v-5.84l0,.05,5.84.07Z"/><path class="cls-5" d="M170.14,358V352.3h5.7V358Z"/><path class="cls-5" d="M395,376.59v5.72h-6v-5.72Z"/><path class="cls-2" d="M492.27,436.84h-5.75c-.09-1.94-.17-3.82-.25-5.7H492C492.11,433.11,492.19,435,492.27,436.84Z"/><path class="cls-4" d="M480.39,260.8v12.41h-6.52V260.77l-.08.08,6.69,0Z"/><path class="cls-2" d="M456.23,322.05v-6l5.85.13c0,1.93.08,3.86.11,5.78l-.34,0Z"/><path class="cls-4" d="M462.19,322c0-1.92-.07-3.85-.11-5.78h5.72V322Z"/><path class="cls-5" d="M462.19,322h5.61l.14,6-6,0,0,.07-.18-5.93Z"/><path class="cls-4" d="M480.48,260.89v-5.72h5.64v5.63h-5.73Z"/><path class="cls-5" d="M443.58,394.94l-5.77,0-.1-6,0,.07,6,0C443.61,391,443.59,393,443.58,394.94Z"/><path class="cls-3" d="M200.38,558.63c0,2.15,0,4.29,0,6.44H176.2v-6.48l5.87-.15Z"/><path class="cls-2" d="M182.07,558.44l-5.87.15c0-2,0-3.91,0-5.87h5.88Z"/><path class="cls-5" d="M121.7,461.3v-6h11.39l.52,5.7,6.17.45c.14,2,.27,3.92.42,6.23h11.27c.21,2.12.38,3.88.59,6h54c.18,2,.33,3.68.53,5.87h36.31c.2,2.16.35,3.82.54,5.87H279V492l-5.32.49c-.16,1.8-.31,3.46-.51,5.58H200.35v-5.88h-24l-.41-6.24h-5.42V498l5.69.25c0,1.94,0,3.88,0,5.82H157.87V492.53L152,492c-.14-2-.27-3.91-.44-6.42H140l0,0v-5.73l-6.77-.41V468.14l-5.58-.5c-.15-2.19-.28-4.19-.42-6.34Z"/><path class="cls-5" d="M140,492.1h-6.75v-6.45l6.74,0,0,0Q140,488.83,140,492.1Z"/><path class="cls-5" d="M261.52,534.31h11.87v6.53H261.52Z"/><path class="cls-5" d="M243.1,528.41h11.63c.1,2,.2,3.84.3,5.72l-11.89.1C243.13,532.29,243.12,530.35,243.1,528.41Z"/><path class="cls-5" d="M224.75,522.41h12.3l.3,5.82-12.63.11Z"/><path class="cls-5" d="M213,516.52h11.79v5.9l-11.82,0Z"/><path class="cls-5" d="M237.2,461.35l92.38-.09h4.66l.54-5.78h23.78l.54-5.89h17.13c.19-2,.34-3.7.55-5.89h12c.18-2.43.32-4.34.5-6.64h11.25c.19-2,.34-3.7.54-5.9h12c.2-2.17.35-3.84.52-5.74l5.41-.49c.15-1.7.29-3.36.49-5.64h5.68l0-.05v11.52l-5.72.53v12l-5.81.56c-.16,1.83-.3,3.49-.47,5.38l-5.41.49-.47,5.45-6.17.43c-.16,1.86-.31,3.53-.48,5.42l-5.44.49c-.13,1.95-.25,3.86-.41,6.4H376.53V455.65h-5.67c-.17,2-.32,3.61-.49,5.64H352.45c-.17,2.37-.31,4.37-.49,6.73H322.23c-.17,2.05-.31,3.71-.45,5.46H286.1c-.16-2-.3-3.64-.44-5.35h-6.17c-.17,2-.31,3.73-.45,5.38h-5.45l-.49-5.63H237.2Z"/><path class="cls-5" d="M389.14,492.12H334.82v-6.45h29.64c.2-2.17.35-3.83.54-5.88h29.65c.19-2,.35-3.69.53-5.73l5.43-.51c.16-1.82.31-3.48.49-5.54h12c.15-2.29.27-4.19.42-6.47L419,461c.16-1.83.31-3.49.49-5.55h12c.19-2,.34-3.7.54-5.89H443.3c.2-2.18.35-3.84.53-5.75h5.37v23.78l-5.55.54v11.23l-5.68.52c-.16,1.69-.31,3.35-.52,5.66H425.16v-5.72l6.42-.35v-5.42h-12.1c-.16,1.95-.3,3.61-.45,5.4l-5.43.46c-.19,2.07-.34,3.72-.51,5.71H389.14Z"/><path class="cls-3" d="M303.63,425.11h-5.81v11.66l-5.93.3v6.32H267.52V431.06h-5.95v-11.7h-6.43V406.9l-5.85-.27v-5.57h54.25V425.2Z"/><path class="cls-3" d="M303.54,425.2h6.53V407H358.7c.08,1.65.17,3.43.28,5.51h11.43v6.64l-5.56.26V431h-5.92v5.81h-55.3V425.11Z"/><path class="cls-3" d="M206.25,412.84V407H243c.08,1.65.16,3.42.26,5.51l5.66.25V425l5.82.3v11.48H206.39V431.1h-5.94v-5.94h-5.77V412.84Z"/><path class="cls-2" d="M237.2,461.35v6.53h35.9l.49,5.63H279c.14-1.65.28-3.41.45-5.38h6.17c.14,1.71.28,3.38.44,5.35h35.68c.14-1.75.28-3.41.45-5.46H352c.18-2.36.32-4.36.49-6.73h17.92c.17-2,.32-3.69.49-5.64h5.67v12.24H358.85v5.9h-31v5.9h0l-42.06.1H267.65c-.1-2.07-.19-3.75-.31-6.08H230.72c-.1-1.86-.19-3.72-.29-5.71h-5.75l-24.17-.18v-6.65H213Z"/><path class="cls-5" d="M213,461.16H200.51v6.65H182.23l-.42-6.44H152.09c-.19-2.15-.35-3.81-.52-5.75l-5.37-.46c-.17-1.68-.33-3.34-.54-5.41l-5.57-.53v-12l-6.69-.42V431l-.05,0h12.26c.19,2,.34,3.68.53,5.74h11.28c.16,2.29.29,4.19.46,6.63h17.93c.2,2.18.35,3.85.53,5.78l5.39.47c.16,1.69.31,3.35.52,5.55H213Z"/><path class="cls-3" d="M437.71,389l.1,6v5.7l-6.05.28v5.82l.09-.08-6.61.12h-6v5.7H413.5v6.83H394.91v5.7H383.32c-.09,2.08-.17,3.85-.26,5.81H370.83v-5.67h5.69v-5.81h6.42V407h17.7V401h12.57c.1-2.07.19-3.84.29-5.93H425c.1-2.07.19-3.84.3-6.09Z"/><path class="cls-2" d="M389.14,492.12v-6.47h23.95c.17-2,.32-3.64.51-5.71l5.43-.46c.15-1.79.29-3.45.45-5.4h12.1v5.42l-6.42.35v5.72h-6v6.56Z"/><path class="cls-5" d="M285.84,479.78l42.06-.1v5.65H285.84Z"/><path class="cls-2" d="M176.17,498.2l-5.69-.25V485.9h5.42l.41,6.24h24V498Z"/><path class="cls-5" d="M327.9,479.68v-5.9h31v5.9Z"/><path class="cls-5" d="M358.85,473.79v-5.9h17.68v5.9Z"/><path class="cls-2" d="M443.57,340.42v-6.66h5.9l6.54,0v6.71h-6.5Z"/><path class="cls-3" d="M443.57,340.42l5.94,0V352.2h-5.93l0,0c0-3.94,0-7.88,0-11.82Z"/><path class="cls-5" d="M109,419.2v-6.65h6.65v6.65Z"/><path class="cls-5" d="M431.88,412.54v6.7h-6.73l0,.05q0-3.37-.05-6.75l0,.08,6.8,0Z"/><path class="cls-3" d="M456,333.74l-6.54,0v-5.91h6.69Z"/><path class="cls-2" d="M425.13,376.42v-5.7h6.74v5.7Z"/><path class="cls-2" d="M461.93,461.2v6.49l-5.7.25v-6.49Z"/><path class="cls-5" d="M419.2,492.13v-6.56h6v6.56Z"/><path class="cls-2" d="M419.23,412.52v-5.7h6c0,1.94-.09,3.87-.13,5.8l0-.08Z"/><path class="cls-3" d="M431.76,406.78h5.71v5.76h-5.59l0,.06-.06-5.9Z"/><path class="cls-3" d="M127.44,425.05h-5.65v-5.57h5.59v5.63Z"/><path class="cls-2" d="M394.91,425.05v-5.7h6v5.7Z"/><path class="cls-2" d="M443.29,425.08H438v-5.56h5.31Z"/><path class="cls-5" d="M133.4,431h-6v-6l-.06.06h6v6Z"/><path class="cls-5" d="M224.68,468h5.75c.1,2,.19,3.85.29,5.71H225Z"/><path class="cls-3" d="M461.85,322,462,328h-5.95l.15-5.89Z"/><path class="cls-3" d="M443.58,352.2v5.89h-5.89l0,0v-5.9h5.89Z"/><path class="cls-3" d="M413.3,558.59V565H389.15v-6.36Z"/><path class="cls-4" d="M535,504.05c0,1.94,0,3.88,0,5.82l0,6.69H522.68c-.16-2.28-.28-4.18-.43-6.38l-5.44-.51c-.15-1.69-.31-3.44-.49-5.4l-5.66-.52v-11.6h11.55c.14,2,.27,3.8.42,5.82h6.23c.12,2,.24,3.76.38,6.08Z"/><path class="cls-2" d="M510.67,522.45l-.06-5.91h6v5.93l0-.06h-6Z"/><path class="cls-4" d="M510.62,522.4h6c0,2,0,3.94,0,5.91h-6Z"/><path class="cls-4" d="M522.37,528.4l.09,5.84h-5.92v-6Z"/><path class="cls-2" d="M67,498.08H84.5v11.68l-5.63.26v6.53H60.63c-.12,1.93-.24,3.69-.37,5.65H54.71v-18H67Z"/><path class="cls-2" d="M60.36,492.3l6.74-.08c0,2,0,3.94,0,5.91l-6.7-.13C60.37,496.1,60.36,494.2,60.36,492.3Z"/><path class="cls-3" d="M60.36,492.3c0,1.9,0,3.8,0,5.7H54.59v-5.71Z"/><path class="cls-3" d="M91.4,552.61l5.91,0v5.83H91.42C91.41,556.48,91.4,554.55,91.4,552.61Z"/><path class="cls-4" d="M72.9,443.58V436.9h5.95l0,6.7Z"/><path class="cls-2" d="M310.28,582.94v6.43h-6.4v-6.43Z"/><path class="cls-4" d="M140,485.6l-6.74,0h-5.65c-.1-2-.19-3.81-.28-5.82l-5.66-.26V461.3h5.56c.14,2.15.27,4.15.42,6.34l5.58.5v11.32l6.77.41Z"/><path class="cls-2" d="M443.6,352.22h-5.89v5.9l-12.4.12-.24-.24c0-1.94.07-3.89.11-5.84l-.06,0h6.69v-5.95l-.05.06h5.79c.09-1.91.17-3.67.27-5.92h5.77C443.59,344.34,443.6,348.28,443.6,352.22Z"/><path class="cls-4" d="M115.73,364.7h-6.45v-6.38h6.37v6.46Z"/><path class="cls-4" d="M91.46,333.86l5.86-.07v6.64h-6Q91.41,337.15,91.46,333.86Z"/><path class="cls-2" d="M419.22,364.64l.06-6.52,5.79-.12.24.24c-.1,2-.19,4-.31,6.4Z"/><path class="cls-2" d="M449.38,157.64v6.59H456v11.66l5.94.38v12.2l5.69.28v17.32h-5.5V194.74l-5.94-.38V182.13h-6.54V170.21H431.76l.05,0v-6.12h5.69V157.6h-5.62V146H419.45c-.1-2.17-.18-4.05-.27-5.93v-6.7h-5.79l0-5.89v-5.88h-5.94l.05.06v-6h11.58c.15,2,.28,3.81.42,5.78l5.54.26c.09,1.81.18,3.58.29,5.59l6.37.35c.08,1.86.16,3.53.25,5.54l5.74.35v12.21l6,.29v11.61Z"/><path class="cls-3" d="M419.32,352.33h-5.7V340.6l5.52-.35V334l6.05-.39v-5.68h12.29v5.7l-5.72.27v12.41l.05-.06h-6.69v5.95l.06,0Z"/><path class="cls-5" d="M456.07,260.83h5.69v6.49H449.51v24.52h-6l.06.06V279.45h-11.4v-6h11.51v-12.7Z"/><path class="cls-5" d="M413.3,230.71H401.1c-.17,2-.3,3.67-.46,5.57h-5.58v-17.5h5.78v-6.63l-.07,0,6.8.09q0,3.25-.07,6.52v5.66l5.8.51Z"/><path class="cls-3" d="M413.4,115.66h-5.93v6l-6.57-.18V108.94H389.17c0-1.93-.05-3.87-.08-5.8l0,0,6-.12,5.87,0,6.64.08V109h5.88C413.41,111.23,413.41,113.45,413.4,115.66Z"/><path class="cls-3" d="M437.58,303.62v-6q.12-2.91.22-5.82l-.06.06h5.81l-.06-.06v24.22H431.82v-6.54h5.76Z"/><path class="cls-5" d="M389,181.91c0-1.93.05-3.87.08-5.81l0,0h5.84v-5.85h6v18.36c0,2,0,3.93,0,5.89l-5.81.08v-12.7Z"/><path class="cls-2" d="M413.3,267.55v5.62l-5.72.38V285l-6.62.3-.24-.24c0-3.89.07-7.78.11-11.67,0-2,.09-4,.13-5.93l6.52,0Z"/><path class="cls-2" d="M389.17,108.94H400.9v12.53h-5.76c-.1-1.78-.2-3.53-.32-5.61l-5.68-.26c-.06-2.14-.13-4.29-.19-6.43Z"/><path class="cls-5" d="M352.12,140.06l-5.62,0c-.11-2.05-.21-4.09-.34-6.47l-5.49-.47v-5.68h11.56v5.91C352.19,135.61,352.16,137.84,352.12,140.06Z"/><path class="cls-5" d="M370.56,146H358.78V133.45h5.72c.16,2.16.31,4.15.47,6.3l5.59.48Z"/><path class="cls-3" d="M437.77,224.65V206.54h5.76v18.11Z"/><path class="cls-3" d="M383,145.76h-6.29V133.54H383Z"/><path class="cls-2" d="M400.84,194.53c0-2,0-3.92,0-5.89h6.54v11.7l-6.43.2-.22-.23Z"/><path class="cls-3" d="M431.76,170.21v11.55h-6.49V170.29l-.06,0,6.6-.06Z"/><path class="cls-5" d="M425.11,146h6.77V157.6l-6.82.12,0,.06Z"/><path class="cls-3" d="M456.07,260.83l-12.41-.07V255.1l5.79-.27,6.6.2Z"/><path class="cls-5" d="M322,91.47h12.36c.1,2,.2,3.84.3,5.71l-6.75.1-5.78.07Z"/><path class="cls-3" d="M419.4,242.9v-12h5.53v12Z"/><path class="cls-3" d="M346.39,121.67l-6-.12v-5.66H352v5.78Z"/><path class="cls-3" d="M449.51,279.22v-5.81h6.4v5.81Z"/><path class="cls-2" d="M401,285.26v6.35l-5.9.28-.23-.24q.07-3.25.16-6.52l-.05.05,5.78-.16Z"/><path class="cls-5" d="M437.8,291.83h-5.7v-6.45h5.64v6.51Z"/><path class="cls-5" d="M389,109.17c.06,2.14.13,4.29.19,6.43h-6v-6.45Z"/><path class="cls-5" d="M334.6,121.48h-6.76c0-2,0-3.91.05-5.86l-.07,0h6.49C334.42,117.76,334.51,119.62,334.6,121.48Z"/><path class="cls-5" d="M413.39,133.36h5.79v6.7h-5.9l.05.06Z"/><path class="cls-5" d="M389.09,164.34v-6.41h5.59v6.36H389Z"/><path class="cls-3" d="M419.34,164.23l0-6.59-.08.09,5.85.05,0-.06c0,2.17,0,4.34.05,6.51Z"/><path class="cls-5" d="M401,200.54l6.43-.2v6H401C401,204.43,401,202.49,401,200.54Z"/><path class="cls-3" d="M407.5,218.8q0-3.27.07-6.52h5.62v6.52Z"/><path class="cls-5" d="M456.05,255l-6.6-.2v-5.56h6.6Z"/><path class="cls-5" d="M413.3,267.55l-5.82-.09c0-2.22,0-4.44,0-6.66l-.05,0,5.85-.06Z"/><path class="cls-3" d="M400.62,151.68H395.2v-5.55h5.42Z"/><path class="cls-3" d="M413.28,140.05v5.64H407.7V140.1h5.63Z"/><path class="cls-5" d="M413.36,127.47l0,5.89h-5.84v-6Z"/><path class="cls-5" d="M400.69,127.73V133h-5.5v-5.31Z"/><path class="cls-3" d="M413.36,127.47l-5.81-.08c0-1.93-.09-3.86-.13-5.8h5.94Z"/><path class="cls-3" d="M370.77,127.3v-5.55h5.6v5.55Z"/><path class="cls-5" d="M370.58,103.26h5.75c.1,2,.19,3.84.29,5.71h-5.76C370.76,107,370.67,105.11,370.58,103.26Z"/><path class="cls-3" d="M322.08,97.35l5.78-.07c0,2,0,3.9.07,5.85H322Z"/><path class="cls-2" d="M437.59,194.48v5.68h-5.68v-5.68Z"/><path class="cls-3" d="M437.59,194.48h-5.68v-5.64h5.68Z"/><path class="cls-5" d="M443.57,230.65h5.67v5.59h-5.62v-5.63Z"/><path class="cls-5" d="M437.77,224.65h5.76c0,2,0,4,0,6l.05,0h-5.85Z"/><path class="cls-3" d="M394.88,170.28v5.85H389c0-2,0-3.92,0-5.87Z"/><path class="cls-5" d="M419.34,164.23h5.77q0,3,.1,6.09l.06,0h-5.93Z"/><path class="cls-5" d="M432.08,255.13h5.27v5.47h-5.27Z"/><path class="cls-3" d="M449.38,157.64h-5.76v-5.87h5.76Z"/><path class="cls-3" d="M419.32,157.64h-5.71V152h5.63v5.72Z"/><path class="cls-4" d="M322.08,97.35l-.09,5.78H310.24V97.22h-6.69l.08.08c0-2,0-3.94,0-5.9l18.34.07Q322,94.41,322.08,97.35Z"/><path class="cls-4" d="M303.57,103.13l-17.7.08.06-.09V97.24l-.05,0h6V91.47l5.81-.08V97.3h6l-.08-.08Z"/><path class="cls-3" d="M364.76,78.79c0,2,0,4,0,5.94H352.27V79Z"/><path class="cls-3" d="M383.16,91.3c0,2,0,4,0,6H370.67V91.35l-.05,0,6-.11Z"/><path class="cls-3" d="M212.93,91.34c0-2.19,0-4.39,0-6.59h5.71v6.59Z"/><path class="cls-3" d="M340.55,91.08V85h5.55v6Z"/><path class="cls-3" d="M364.75,84.68l5.92,0-.06.09q0,3.3,0,6.6l.05,0h-5.92Z"/><path class="cls-3" d="M383.15,97.24l5.94,0,0,0,0,5.94,0,0h-5.94Z"/><path class="cls-3" d="M224.64,97.31V103h-5.81V97.29Z"/><path class="cls-3" d="M303.63,97.3h-6V91.39h5.94C303.62,93.36,303.62,95.33,303.63,97.3Z"/><path class="cls-5" d="M291.86,91.47v5.81h-6c0-1.93,0-3.87,0-5.81Z"/><path class="cls-3" d="M224.79,73.06h5.8v5.56h-5.8Z"/><path class="cls-4" d="M145.93,260.82V249.07h6V255h5.74v18.38h-5.84c0-2-.09-4-.13-5.92v-6.61Z"/><path class="cls-3" d="M157.66,255h-5.74v-5.9h-6q0-6.23,0-12.45l5.81-.09v6.38l5.88.46Z"/><path class="cls-3" d="M164.26,297.59l-6.55-.07q0-9.13-.05-18.28h6.6Z"/><path class="cls-3" d="M151.77,212.24V200.37h5.92c0,3.94,0,7.89,0,11.83Z"/><path class="cls-5" d="M151.77,212.24l5.9,0v6.62h-5.9l0,.05c0-2.23,0-4.45,0-6.67Z"/><path class="cls-3" d="M151.82,273.35h5.84c0,2,0,4,.05,5.94h-5.89Z"/><path class="cls-3" d="M279.19,109l.15-5.75,6.59-.12-.06.09c0,2,.09,3.93.13,5.9,0,2.19-.07,4.37-.1,6.56h-6.63v0Z"/><path class="cls-3" d="M303.57,103.13l0-5.91h6.69v5.91Z"/><path class="cls-5" d="M285.9,115.67c0-2.19.07-4.37.1-6.56h5.58v6.56Z"/><path class="cls-4" d="M327.89,115.62c0,1.95,0,3.91-.05,5.86h-5.59v-5.86Z"/><path class="cls-4" d="M389,181.91h6v12.7l-.09,5.78h-5.85v-11.6l-5.82-.26v-6.36Z"/><path class="cls-4" d="M407.46,249.07c0,3.92,0,7.84,0,11.75l.05,0h-6.68l.06.06v-11.8Z"/><path class="cls-4" d="M401,267.42c0,2-.09,3.95-.13,5.93H395V260.87h5.89l-.06-.06Z"/><path class="cls-3" d="M395,273.35h5.84c0,3.89-.07,7.78-.11,11.67l-5.78.16C395,281.24,395,277.29,395,273.35Z"/><path class="cls-3" d="M395,285.13q-.09,3.27-.16,6.52H389v-6.52Z"/><path class="cls-4" d="M400.84,212.15v6.63h-5.78v-6.63Z"/><path class="cls-3" d="M407.46,249.07h-6.58V243.4h6.58Z"/><path class="cls-3" d="M394.94,200.39l.09-5.78,5.81-.08-.09,5.78Z"/><path class="cls-4" d="M140,236.53q-.06,3.28-.11,6.56h-6.3v-6.56Z"/><path class="cls-2" d="M151.81,212.2c0,2.22,0,4.44,0,6.67h-5.94v-6.68Z"/><path class="cls-3" d="M121.63,224.72v-5.86l5.88-.05v5.91Z"/><path class="cls-4" d="M389.07,327.9h-5.62l-.52,5.88h-6.45V321.91h12.59v6Z"/><path class="cls-4" d="M389.06,309.46V316h-5.79v-6.58Z"/><path class="cls-3" d="M267.55,346.22v-5.61l5.89-.28,5.79.2c0,1.9,0,3.8,0,5.69Z"/><path class="cls-2" d="M279.21,346.22c0-1.89,0-3.79,0-5.69l6.57-.21.24.24c0,1.89-.05,3.77-.07,5.66Z"/><path class="cls-2" d="M237.21,103.26h-6.36V97.44h12.23v5.64Z"/><path class="cls-5" d="M285.93,103.12l-6.59.12v-6h6.59Z"/><path class="cls-2" d="M279.19,109l.09,6.7h-5.9V109Z"/><path class="cls-5" d="M237.21,103.26l5.87-.18v6h-5.83l0,0C237.26,107.14,237.24,105.2,237.21,103.26Z"/><path class="cls-5" d="M255,103.14h-5.67V97.55h5.62v5.63Z"/><path class="cls-3" d="M127.42,145.9h5.93V140H140c-.05,3.9-.09,7.8-.14,11.7H133.4v6l-6,0Z"/><path class="cls-3" d="M157.69,194.58l-5.83-.15v-5.59h5.83Z"/><path class="cls-3" d="M286,346.22c0-1.89,0-3.77.07-5.66l11.71-.14,0,5.93Z"/><path class="cls-4" d="M267.48,279.28h-5.92v-5.74h5.9C267.47,275.46,267.47,277.37,267.48,279.28Z"/><path class="cls-4" d="M297.72,279.29h-5.91c0-1.91,0-3.82,0-5.73h5.9Z"/><path class="cls-2" d="M230.65,121.59h-5.92v-5.92h5.92Z"/><path class="cls-3" d="M224.73,206.42l-5.86-.15.06-5.78,5.77,0Z"/><path class="cls-3" d="M334.52,206.3l-6.6.12,0-5.89h6.57Z"/><path class="cls-2" d="M328,200.53l0,5.89.05-.09h-5.8l-.34-.05.24-5.86,0,.08Z"/><path class="cls-2" d="M224.73,206.42l0-5.89,5.91,0,0-.07c0,1.93.11,3.86.16,5.78l-.24.24-5.82-.12Z"/><path class="cls-14" d="M230.74,206.21c-.05-1.92-.11-3.85-.16-5.78l6.57.11c0,1.87.07,3.73.1,5.6Z"/><path class="cls-3" d="M224.68,206.33l5.82.12c0,1.93.08,3.86.11,5.78l-5.91,0C224.69,210.28,224.68,208.3,224.68,206.33Z"/><path class="cls-2" d="M370.62,91.39q0-3.3,0-6.6l6-.08q0,3.29,0,6.57Z"/><path class="cls-3" d="M322.17,206.34H328c0,2,0,3.95,0,5.92H322C322.06,210.29,322.11,208.31,322.17,206.34Z"/><path class="cls-2" d="M389,103.18l0-5.94,5.88,0c0,2,.05,3.89.07,5.84Z"/><path class="cls-4" d="M322.07,200.43l-.24,5.86-5.56-.13c0-1.88,0-3.75,0-5.62Z"/><path class="cls-2" d="M389.05,346.32v-5.64h5.59v11.44H389C389,350.19,389,348.26,389.05,346.32Z"/><path class="cls-4" d="M407.33,316.36v5.32h-6.25v-5.32Z"/><path class="cls-2" d="M376.65,352.1v-5.68h6.59v5.71Z"/><path class="cls-4" d="M413.36,297.71H419v5.58H413.4v-5.63Z"/><path class="cls-4" d="M437.58,303.62v5.9h-5.76v-5.9Z"/><path class="cls-2" d="M389.07,327.9h5.66v5.61h-5.66V327.9Z"/><path class="cls-3" d="M383.24,352.12v-5.71l5.81-.09c0,1.94,0,3.87-.05,5.8Z"/><path class="cls-4" d="M419.32,352.33l5.86-.17c0,1.95-.07,3.9-.11,5.84l-5.79.12C419.29,356.19,419.31,354.26,419.32,352.33Z"/><path class="cls-4" d="M109,267.41h-5.81v-6.62H109Z"/><path class="cls-3" d="M145.93,260.82h5.76v6.61l-5.66-.09C146,265.17,146,263,145.93,260.82Z"/><path class="cls-4" d="M431.85,406.7l.06,5.9-6.8,0c0-1.93.09-3.86.13-5.8Z"/><path class="cls-4" d="M425.12,352.21v-5.95h6.69v5.95Z"/><path class="cls-4" d="M425.21,170.32q-.06-3-.1-6.09c0-2.17,0-4.34-.05-6.51l6.82-.12h5.62v6.54h-5.69v6.12Z"/><path class="cls-3" d="M401,267.42l-.14-6.61h6.68c0,2.22,0,4.44,0,6.66Z"/></g></g></svg>