<?xml version="1.0" encoding="utf-8"?>
<!-- Generator: Adobe Illustrator 23.1.0, SVG Export Plug-In . SVG Version: 6.00 Build 0)  -->
<svg version="1.1" id="Layer_1" xmlns="http://www.w3.org/2000/svg" xmlns:xlink="http://www.w3.org/1999/xlink" x="0px" y="0px"
	 viewBox="0 0 590.2 602" style="enable-background:new 0 0 590.2 602;" xml:space="preserve">
<style type="text/css">
	.st0{fill:#FEFEFE;}
	.st1{fill:#85BF6C;}
	.st2{fill:#DFF7CE;}
	.st3{fill:#071821;}
	.st4{fill:#306850;}
	.st5{fill:#15252D;}
	.st6{fill:#25343C;}
	.st7{fill:#5B666C;}
	.st8{fill:#29383F;}
	.st9{fill:#316951;}
	.st10{fill:#414E55;}
	.st11{fill:#FAFAFB;}
	.st12{fill:#14242C;}
	.st13{fill:#06171F;}
	.st14{fill:#306750;}
</style>
<g>
	<g id="Layer_1-2">
		<path class="st0" d="M590.2,602h-4.9c-194,0-388,0-582,0c-1.1-0.1-2.2-0.4-3.3-0.7l5.8-0.1h54.7l12.4,0h11.9l12.4,0h30.4l12.4,0
			h11.8h127.6l12.4-0.1h18.5l11.7,0.1h115.9h5.9l5.8,0h37l5.8-0.1h36.8l5.8,0.1h54.4v-24.1l-5.8-0.4v-23.9l-5.9-0.4v-11.6h-6.5
			v-18.3l-6.1-0.3V510l-5.7-0.3c-0.1-2-0.2-3.8-0.3-5.6l-5.9-0.3v-11.7h-6.6v-6.4l-5.9-0.3v-11.5l-5.7-0.3c-0.1-2-0.2-3.8-0.3-5.6
			l-5.9-0.3v-6.6h-6.6v-54.3l-5.8-0.3v-11.5l-6-0.4v-12.5h-12.2c-0.1-2.1-0.2-3.8-0.4-5.6l-5.7-0.3v-5.8h-5.8
			c-0.1-1.9-0.2-3.8-0.4-6h-12.4v-6.3l-5.5-0.4v-5.5l5.7-0.4v-18.1l6.6-0.3v-17.4l5.9-0.3v-18.1l5.9-0.3v-12.2l5.6-0.3v-72.6
			l-5.8-0.3v-35.8l-5.9-0.4v-18l-5.9-0.4v-11.7h-6.6v-12.2l-5.9-0.4v-11.3l-5.9-0.5v-12l-5.9-0.5V97.4l-6.7-0.4V84.9l-5.6-0.4
			c-0.1-2-0.2-3.8-0.3-5.5l-5.5-0.4c-0.1-2-0.2-3.8-0.3-5.6l-5.5-0.3c-0.1-2-0.3-3.8-0.4-5.6l-6.3-0.3c-0.1-2.2-0.2-4.3-0.3-6.3
			l-5.5-0.3c-0.1-2-0.3-3.7-0.5-5.6l-5.5-0.3c-0.1-2.1-0.3-3.8-0.4-5.6l-5.5-0.3c-0.1-2.1-0.3-3.7-0.4-5.8H401
			c-0.1-2.3-0.2-4.3-0.3-6.3l-5.6-0.4c-0.1-2-0.2-3.7-0.3-5.8h-18.1c-0.1-2.1-0.2-3.8-0.3-5.9h-11.5c-0.1-2.1-0.2-3.8-0.3-5.9h-18.1
			c-0.1-2.4-0.2-4.4-0.3-6.7h-11.5c-0.1-2.1-0.2-3.8-0.4-5.9h-18.2V0"/>
		<path class="st0" d="M243.2,0v6h-30l-0.4,5.9h-12.1c-0.1,2.3-0.2,4.3-0.4,6.6h-11.4c-0.2,2-0.3,3.8-0.5,6h-18
			c-0.1,2.1-0.3,3.8-0.4,5.9h-12.1l-0.4,5.7l-5.6,0.3l-0.3,6.3L146,43c-0.1,2-0.2,3.7-0.3,5.5l-5.6,0.4c-0.1,2-0.2,3.8-0.3,5.5
			l-6.3,0.3l-0.3,5.6l-5.8,0.4V67l-5.6,0.3c-0.1,2-0.3,3.8-0.4,5.6l-5.5,0.3c-0.2,2-0.3,3.7-0.4,5.6l-6.2,0.3l-0.4,5.6L103,85v12.1
			l-5.9,0.4v11.4l-5.7,0.4l-0.3,6.3l-6.3,0.3l-0.3,5.5l-5.9,0.5v18l-5.9,0.4v23.9l-5.9,0.4v24l-6.5,0.3v90.3l6.7,0.4v23.9l5.9,0.4
			v23.9l5.9,0.4v18.1l5.5,0.3V358l-5.5,0.3l-0.3,6.4l-5.6,0.3l-0.4,5.6l-5.5,0.3l-0.4,5.9h-6.2l-0.3,5.6l-5.6,0.4l-0.3,6.2l-5.8,0.4
			v11.3l-5.7,0.5v54.3l-0.3,6H36v12.3l-5.9,0.3v18.1l-5.9,0.3V504h-5.9v12.4l-6.7,0.3v24.1l-11.6,0"/>
		<path class="st1" d="M60.5,243.1v-54.3l6.5-0.3v-24l5.9-0.4v-23.9l5.9-0.4v-18l5.9-0.5l0.3-5.5l6.3-0.3l0.3-6.3l5.7-0.4V97.5
			l5.8-0.4V84.9l5.8-0.3l0.4-5.6l6.2-0.3c0.2-1.9,0.3-3.6,0.4-5.6l5.5-0.3c0.1-1.8,0.3-3.6,0.4-5.6l5.6-0.3v-6.3l5.8-0.4l0.3-5.6
			l6.3-0.3c0.1-1.8,0.2-3.5,0.3-5.5l5.6-0.4c0.1-1.8,0.2-3.5,0.3-5.5l5.6-0.4l0.3-6.3l5.6-0.3l0.4-5.6H170c0.1-2.1,0.3-3.8,0.4-5.9
			h18c0.2-2.2,0.3-3.9,0.5-6h11.4c0.1-2.3,0.2-4.3,0.4-6.6h12.1l0.4-5.9h30V0h73v5.8h18.2c0.1,2,0.2,3.8,0.4,5.9h11.5
			c0.1,2.3,0.2,4.3,0.3,6.7h18.1c0.1,2.1,0.2,3.8,0.3,5.9h11.5c0.1,2.1,0.2,3.8,0.3,5.9h18.1c0.1,2.1,0.2,3.8,0.3,5.8l5.6,0.4
			c0.1,2.1,0.2,4,0.3,6.3h6.3c0.1,2.1,0.2,3.8,0.4,5.8l5.5,0.3c0.1,1.8,0.2,3.5,0.4,5.6l5.5,0.3c0.1,1.9,0.3,3.6,0.5,5.6l5.5,0.3
			c0.1,2.1,0.2,4.1,0.3,6.3l6.3,0.3c0.1,1.8,0.2,3.6,0.4,5.6l5.5,0.3c0.1,1.8,0.2,3.6,0.3,5.6l5.5,0.4c0.1,1.8,0.2,3.5,0.3,5.5
			l5.6,0.4V97l6.7,0.4v11.3l5.9,0.5v12l5.9,0.5v11.3l5.9,0.4v12.2h6.6v11.7l5.9,0.4v18l5.9,0.4V212l5.8,0.3V285l-5.6,0.3v12.2
			l-5.9,0.3v18.1l-5.9,0.3v17.4l-6.6,0.3V352l-5.7,0.4v5.5l5.5,0.4v6.3h12.4c0.1,2.2,0.2,4.1,0.4,6v5.8h5.8l5.7,0.3
			c0.1,1.8,0.2,3.5,0.4,5.6h12.2v12.5l6,0.4v11.5l5.8,0.3v48.5h-5.8v-11.8h-5.9l0,0.1v-24.2l-6-0.5v-12.1l-6.6-0.4v-11.3l-6-0.5
			v-12.3h-11.4c-0.2-2.1-0.4-3.9-0.5-6h-12c-0.2-2.1-0.3-3.9-0.4-5.5h-5.5c-0.1,1.9-0.3,3.6-0.4,5.4l-5.8,0.5V389h-6.5l-5.9-0.1
			v-6.6h5.9v-11.8h6.6v-12.5h5.9v-11.8h5.9v-18.4h6v-18.2l6.6-0.4V292l5.8-0.5v-23.8l5.6-0.5v-48.4h-5.7v-36.9h-6v-5.8v-11.6
			l-6.6-0.4v-12.1l-5.9-0.6v-11.3l-6-0.5v-12l-5.8-0.4v-11.4l-6.7-0.4v-12.1l-5.8-0.5V91.6l-5.7-0.5c-0.1-2.2-0.2-4.1-0.4-6.2
			l-5.4-0.4c-0.2-2.1-0.3-3.7-0.4-5.6h-6.5l0,0.1v-5.8l-5.7-0.4c-0.1-2-0.3-3.7-0.4-5.5l-5.5-0.4c-0.1-2.2-0.3-4.1-0.4-6.2l-5.5-0.4
			l-0.4-5.5l-6.2-0.4c-0.2-1.9-0.3-3.7-0.5-5.5l-5.5-0.4c-0.2-2-0.3-3.7-0.4-5.5l-5.5-0.4c-0.1-2.2-0.3-4.1-0.4-6.5h-18
			c-0.2-2.2-0.3-3.8-0.5-5.8h-11.3c-0.2-2.1-0.3-3.9-0.5-6h-17.9c-0.2-2.1-0.3-3.9-0.5-6h-18c-0.1-2.3-0.3-4.2-0.4-6.6h-18
			c-0.2-2.2-0.3-3.8-0.4-5.6h-54l-0.5,5.8H219c-0.1,2.4-0.3,4.4-0.4,6.7h-12.1c-0.2,2-0.3,3.7-0.4,5.8h-11.3
			c-0.2,2.2-0.3,3.8-0.5,5.8h-17.9l-0.5,6h-11.3c-0.1,2.3-0.3,4.2-0.4,6.3l-6.2,0.4c-0.2,2-0.3,3.7-0.4,5.5l-5.5,0.4
			c-0.2,2.1-0.3,3.7-0.4,5.5l-5.4,0.4c-0.2,2-0.3,3.7-0.4,5.5l-5.5,0.4c-0.1,2.2-0.3,4.1-0.4,6.2l-6.2,0.4c-0.2,2.1-0.3,3.7-0.4,5.5
			l-5.5,0.4c-0.2,2.1-0.3,3.7-0.4,5.5l-5.4,0.4c-0.2,2-0.3,3.7-0.4,5.5l-5.7,0.4v12.1l-6.4,0.4l-0.4,5.5l-5.8,0.5v12l-5.5,0.4
			c-0.2,2-0.3,3.7-0.4,5.5l-5.7,0.5v11.3l-6.7,0.4v12.1l-5.8,0.4V170l-5.8,0.5v18.2c0,2-0.1,3.9-0.1,5.9h-5.8v36.1
			c0,4.1,0,8.3,0,12.4L60.5,243.1z"/>
		<path class="st1" d="M0,540.8h11.6v-24.1l6.7-0.3V504h5.8c0,6.2,0.1,12.3,0.1,18.5h-6v24.2l-6.7,0.4v35.7l-5.8,0.4v18.1L0,601.3
			V540.8z"/>
		<path class="st2" d="M279.4,601.2H151.7v-11.5l-5.6-0.5c-0.1-2.2-0.3-4.1-0.4-6.2l-5.5-0.4c-0.2-2-0.3-3.7-0.4-5.5l-6.6-0.4v-11.4
			l-5.4-0.4V541l5.7-0.4v-12.1l6.5-0.4v-18.2h30.3v6.7h5.7v11.5h24.5v-5.6h5.7c0.1,1.9,0.2,3.8,0.3,5.7h6.5l5.8,0.2
			c0.1,1.9,0.2,3.8,0.3,5.7h5.8l12.4,0.2v6.5h17.6c0.1,2.3,0.2,4.1,0.3,6.1h12.3v5.9h5.9v30l-5.6,0.3v6.6h5.6v5.8h5.8
			C279.2,597.3,279.3,599.3,279.4,601.2z M218.9,565.1l-0.2-6.6v-5.7l5.7-0.3v-5.9h-42.4l-0.3-5.7h-11.7v5.7l-5.6,0.3v5.8h5.6
			c0,1.9,0,3.8,0,5.8l-5.6,0.3v6.5h5.6l0.3,5.7h54.1v-5.8L218.9,565.1z"/>
		<path class="st2" d="M437.8,601.2H321.9v-5.7l6.1-0.3v-48.6h12.3c0.1-2.1,0.2-3.8,0.3-5.9H359v-6.6h17.6v-5.7H389
			c0.1-2.3,0.2-4,0.3-6.1h24.2v-5.7l5.8-0.2h6V510l6.6-0.1v6.4l6,0.5V528l6,0.6v17.9l5.6,0.5v23.9l-5.8,0.5v17.9l-5.6,0.4
			L437.8,601.2z M383.1,565.2c0.1,1.9,0.2,3.8,0.3,5.7h41.9v-5.7h6.5v-6.8c0.1-1.9,0.2-3.8,0.3-6h5.5v-5.5h-54.4v5.7h-6.3v12.6
			L383.1,565.2z"/>
		<path class="st3" d="M516.5,449.5v5.9h5.8v5.7h6.7v6.6l5.9,0.3c0.1,1.8,0.2,3.6,0.3,5.6l5.7,0.3v11.5l5.9,0.3v6.4h6.6v11.7
			l5.9,0.3c0.1,1.8,0.2,3.6,0.3,5.6l5.7,0.3v12.3l6.1,0.3v18.3c-0.1,1.9-0.2,3.8-0.3,5.8l-5.6,0.3v5.8c-0.1,1.9-0.2,3.8-0.3,5.7
			l-5.8,0.3v12.2l-5.7,0.3c-0.1,2-0.2,3.8-0.3,5.8h-6.3c-0.1,2.1-0.2,3.8-0.3,5.9H541c-0.1-2-0.1-4-0.2-6.1l0.3-5.7l5.8-0.3v-12.5
			h6.4c0.1-2.1,0.2-3.8,0.3-5.5l5.5-0.3v-35.7l-5.8-0.4v-6.2h-6.5v18.1l-6,0.4v12.1l-6,0.5v17.3l-5.8,0.3v12.5h-6.6v11.4l-5.8,0.4
			v6.2l-5.7,0.4c-0.1,2-0.2,3.8-0.3,5.6l-5.8,0.3v5.7h-12.4c0-3.9,0-7.8,0-11.8h6.1v-6.7h6.2V571h-6.5v-5.8l6.6-0.1l6,0.1v5.7h5.8
			v-5.7h5.7v-6.7h-11.2c-0.2-2.1-0.4-3.9-0.5-5.6l-5.4-0.5c-0.2-2-0.3-3.6-0.5-5.4l-6.1-0.4c-0.2-2-0.4-3.7-0.5-5.7h-5.5v-12.5h5.7
			c0.1,1.9,0.2,3.8,0.3,5.9h6.3c0.1,2.3,0.2,4.3,0.4,6.5h11.6v5.7h5.8v-5.6c0-2.2,0-4.5,0.1-6.7h6.6v-5.9l0.1-5.8h5.9v-5.9
			c6.5-0.2,5.9,1.2,5.9-6c0-0.2,0-0.5,0-0.7c0-2,0-4,0-5.9V498v-5.7l-5.8-0.3v-12.1l-5.8-0.4c-0.1-2-0.2-3.8-0.3-5.8h-6.3
			c-0.2-2-0.3-3.8-0.4-5.6l-5.6-0.3v-6.5h-6v-6h-12.6v-5.7l0.1-0.1c0.5,0,1,0,1.5,0c5.1,0,5.1,0,5.1-5v-0.7l5.9,0l0-0.1v5.9
			L516.5,449.5z"/>
		<path class="st2" d="M498.1,449.5v5.7h12.6v6l-0.1-0.1l-5.7,0.3v18.4h-6.6v24.3h6.4c0.1,2.1,0.2,3.9,0.3,5.7l5.7,0.3v6.5h-12.5
			h-5.9v5.9c0,2,0,3.9,0,5.9v24.1l5.7,0.3v5.7h0.1h-11.8v6.7h0.1h-6v17.7h-6.3v6.7h6.4v5.6l6,0.4v5.6h-37c0-1.9,0-3.8,0-5.8l0.1-6
			h6.4V577l0.1-6h6v-12.3l6-0.3v-11.7h5.7v-18.3h6.7v-24.2l5.7-0.3v-5.8v-36.7v-6h-5.7v-11.5h11.6l0.3,5.7H498.1z"/>
		<path class="st2" d="M127.6,601.2H97.2v-5.9H84.7h0.1v-5.8h6.8v-6.9H103v-30h-5.8v-18.2H84.8v6.4l-6,0.1H67.1l-6.6-0.1
			c0-2.2,0-4.3,0-6.5h18.2c0.1-2.3,0.2-4.1,0.3-5.8l5.9-0.4v-5.5l6.6-0.3v-5.7H97V510l-5.8-0.3v-17.4H67v-6.8h11.7l0.3-5.7l5.6-0.3
			v-5.8c0-10,0-20,0-30.1c0-2.2,0.1-4.4,0.1-6.6h6.5V431h12v12.5c0,2,0,3.9,0,5.9v11.9c0,2.2,0,4.4,0,6.6v66.2l5.9,0.3v24.2h6.5v0
			v24.4h6v12.3l5.9,0.3L127.6,601.2z"/>
		<path class="st2" d="M5.8,601.2v-18.1l5.8-0.4V547l6.7-0.4v-24.2h6l0,0v6h5.8c0,4.1,0.1,8.3,0.1,12.4c0,6.9-0.7,5.9,5.7,6l0.2,5.9
			v6h6.5V571l6.1,0.3v11.5l5.9,0.3v12.3l5.9,0.3v5.7L5.8,601.2z"/>
		<path class="st3" d="M370.6,534.1H359v6.6h-18.4c-0.1,2-0.2,3.8-0.3,5.9H328v48.6l-6.1,0.3v5.7l-11.7-0.1c0-1.9,0-3.8,0-5.7
			l5.8-0.3v-5.7h5.9v-18.6h-5.8v-12.3h-30.4v12.2l-6.5,0.5v18.2l0,0l-6,0.1h-5.6V583l5.6-0.3v-30l0.1-6l0,0h12.5l0,0v5.6H310
			c0.2-1.9,0.3-3.6,0.5-5.6h11.6v-5.8l5.8-0.2h6.8v-6.5l11.6-0.2h6v-5.7l12.4-0.2l6,0.1l0,0C370.6,530.2,370.6,532.2,370.6,534.1z"
			/>
		<path class="st1" d="M504.7,601.2v-5.7l5.8-0.3c0.1-1.8,0.2-3.6,0.3-5.6l5.7-0.4V583l5.8-0.4v-11.4h6.7v-12.5l5.8-0.3v-17.3l6-0.5
			v-12.1l6-0.4v-18.1h6.5v6.2l5.8,0.4v35.7l-5.5,0.3c-0.1,1.8-0.2,3.5-0.3,5.5H547v12.5l-5.8,0.3l-0.3,5.7l-5.7,0.3v5.8l-0.2,6.6h-6
			v5.8h-6.5v5.9L504.7,601.2z"/>
		<path class="st3" d="M30.2,540.8c0-4.1-0.1-8.3-0.1-12.4v-6h-5.8l0,0c0-6.2-0.1-12.3-0.1-18.5v-11.5l5.9-0.3V474l5.9-0.3v-12.3
			h6.6c0.1-2.2,0.2-4.1,0.3-6l11.7-0.1l-0.1,5.9c-6.3,0.2-5.8-1.1-5.8,5.9c0,0.3,0,0.5,0,0.7l-0.1,0.1h-6v11.6l-6.7,0.3V498
			l-5.5,0.3v18.1l5.7,0.3v17.7h6.7v12.2l6,0.4v11.4l5.8,0.3v12.4h5.9l0-0.1c0,2,0.1,4,0.1,6v5.9h6.6H67v12.3l5.9,0.4v5.6l-12.4,0
			v-5.7l-5.9-0.3V583l-5.9-0.3v-11.5l-6.1-0.3v-18.3h-6.5l-0.2-5.9v-6L30.2,540.8z"/>
		<path class="st2" d="M540.9,582.9h5.7c0.1-2,0.2-3.8,0.3-5.9h6.3c0.1-2,0.2-3.8,0.3-5.8l5.7-0.3v-12.2l5.8-0.3
			c0.1-1.9,0.2-3.8,0.3-5.7h5.9v24.1l6.6,0.4v24h-42.9l0.2-5.8l5.7-0.3v-5.8L540.9,582.9L540.9,582.9z"/>
		<path class="st1" d="M140,509.9v18.2l-6.5,0.4v12.1l-5.7,0.4v23.9l5.4,0.4v11.4l6.6,0.4c0.1,1.8,0.3,3.5,0.4,5.5l5.5,0.4
			c0.1,2.1,0.3,4,0.4,6.2l5.6,0.5v11.5h-11.8v-5.6l-6.7-0.3V583l-5.9-0.4v-11.4l-5.9-0.4v-12.3h-5.8v0l-0.2-6l0.2,0.1h5.9v-18.2
			l6-0.5v-11.3l5.8-0.4v-18.1h6.6C140.1,506,140,507.9,140,509.9z"/>
		<path class="st1" d="M449.5,589.5l-0.1,6h-5.8v5.7h-5.9v-11.5l5.6-0.4v-17.9l5.8-0.5V547l-5.6-0.5v-17.9l-6-0.6v-11.3l-6-0.5V498
			h5.8v11.6l6.1,0.5v12.1l5.9,0.5v18l6.5,0.4v30l-0.1,6h-6.5L449.5,589.5z"/>
		<path class="st1" d="M577.8,601.2v-24l-6.6-0.4v-24.1h-5.9v-5.8l5.6-0.3c0.1-2,0.2-3.9,0.3-5.8h6.5v11.6l5.9,0.4v23.9l5.8,0.4
			v24.1L577.8,601.2z"/>
		<path class="st4" d="M279.3,589.5v-18.2l6.5-0.5v-12.2h6.1c0,2.2,0,4.4,0,6.6v24.1l5.7,0.3c0.1,2,0.2,3.8,0.3,5.8h12.4
			c0,1.9,0,3.8,0,5.7h-18.5v-5.5l-5.6-0.5c-0.2-2-0.3-3.7-0.5-5.6L279.3,589.5z"/>
		<path class="st3" d="M115.6,558.5h5.8v12.3l5.9,0.4v11.4l5.9,0.4v12.2l6.7,0.3v5.6l-12.4,0v-5.7l-5.9-0.3v-12.3h-6L115.6,558.5z"
			/>
		<path class="st4" d="M486.4,601.2v-5.6l-6-0.4v-5.6h-6.4v-6.7h12.3l-0.1,0v6.7h6v-0.1c0,3.9,0,7.8,0,11.8L486.4,601.2z"/>
		<path class="st1" d="M72.9,601.2v-5.6l-5.9-0.4v-12.3h6.1v6.5l5.6,0.3l0.4,5.7h5.7h-0.1l0.1,5.8L72.9,601.2z"/>
		<path class="st3" d="M279.3,589.5h6.4c0.2,2,0.3,3.6,0.5,5.6l5.6,0.5v5.5l-12.4,0.1c-0.1-1.9-0.1-3.9-0.2-5.8
			S279.2,591.4,279.3,589.5L279.3,589.5z"/>
		<path class="st3" d="M84.8,601.2l-0.1-5.8h12.4v5.9L84.8,601.2z"/>
		<path class="st3" d="M535,595.5l-0.2,5.8l-5.8-0.1c0-2-0.1-3.9-0.1-5.9v-5.8h6l0,0C535,591.5,535,593.5,535,595.5z"/>
		<path class="st4" d="M529,595.3c0,2,0.1,3.9,0.1,5.9h-6.6v-5.9H529z"/>
		<path class="st2" d="M492.3,376.4h-5.8v-5.8h5.8V376.4z"/>
		<path class="st3" d="M443.6,601.2v-5.7h5.8c0,1.9,0,3.9,0,5.8L443.6,601.2z"/>
		<path class="st1" d="M54.5,455.3l-11.7,0.1v-54.3l5.7-0.5v-11.3l5.8-0.4l0.3-6.2l5.6-0.4l0.3-5.6h6.3l0.4-5.9l5.5-0.3l0.4-5.6
			l5.6-0.3l0.3-6.4l5.5-0.3v-11.5l-5.5-0.3v-18.1l-5.9-0.4v-23.9l-5.9-0.4v-23.9l-6.7-0.4v-29.9h6.6v24.2h6l-0.2-0.1v18.4h5.8
			c0,5.9,0.1,11.8,0.1,17.7v12.4l5.9,0.4v18.2h6.6V352l6,0.5v12l5.8,0.5v11.6v-0.1h-5.7c-0.2-2.3-0.3-3.9-0.4-5.6H84.9l-0.4,5.4
			l-5.4,0.4l-0.4,5.5l-5.5,0.4l-0.4,6.2l-5.5,0.4l-0.4,5.5l-6.5,0.4v11.4l-5.8,0.5v36.6C54.5,447.5,54.5,451.5,54.5,455.3
			L54.5,455.3z"/>
		<path class="st2" d="M73.1,273.4h-6v-24.2h-6.6v-6.1h6.6l5.9,0.1l-0.1-0.1L73.1,273.4z"/>
		<path class="st2" d="M73,188.6v-18.2l5.8-0.5v-23.9l5.8-0.4v-12.1l6.7-0.4v-11.3l5.7-0.5c0.1-1.7,0.3-3.5,0.4-5.5l5.5-0.4v-12
			l5.8-0.5l0.4-5.5l6.4-0.4V85l5.7-0.4c0.1-1.7,0.3-3.5,0.4-5.5l5.4-0.4c0.1-1.7,0.3-3.4,0.4-5.5l5.5-0.4c0.1-1.8,0.3-3.5,0.4-5.5
			l6.2-0.4c0.1-2.1,0.3-4,0.4-6.2l5.5-0.4c0.1-1.8,0.3-3.5,0.4-5.5l5.4-0.4c0.1-1.7,0.3-3.4,0.4-5.5l5.5-0.4
			c0.1-1.8,0.3-3.5,0.4-5.5l6.2-0.4c0.1-2.1,0.3-4,0.4-6.3h11.3l0.5-6h17.9c0.2-2,0.3-3.7,0.5-5.8h11.3c0.2-2.1,0.3-3.8,0.4-5.8
			h12.1c0.1-2.3,0.3-4.3,0.4-6.7h29.8l0.5-5.8h54.1c0.1,1.7,0.3,3.4,0.4,5.6h18c0.1,2.4,0.3,4.3,0.4,6.6h18c0.2,2.1,0.3,3.9,0.5,6
			h17.9c0.2,2.1,0.3,3.9,0.5,6h11.3c0.2,2,0.3,3.7,0.5,5.8h18c0.1,2.4,0.3,4.3,0.4,6.5l5.5,0.4c0.1,1.7,0.3,3.5,0.4,5.5l5.5,0.4
			c0.1,1.8,0.3,3.6,0.5,5.5l6.2,0.4l0.4,5.5l5.5,0.4c0.1,2.1,0.2,4,0.4,6.2l5.5,0.4c0.1,1.7,0.3,3.5,0.4,5.5l5.7,0.4V79h-5.6v5.6
			h5.6v-5.7h6.5c0.1,1.9,0.3,3.6,0.4,5.6l5.5,0.4c0.1,2,0.2,4,0.4,6.2l5.7,0.5v11.3l5.8,0.5v12.1l6.7,0.4v11.4l5.8,0.4v12l6,0.5
			v11.3l5.9,0.6v12.1l6.6,0.4v11.6h-6.6v5.9l0.1-0.1h-6v-17.5l-5.9-0.3v-6.4l-5.9-0.3v-11.7h-6.6v-12.5h-5.7v-6h-5.9
			c-0.1-2.1-0.2-3.8-0.3-5.6l-5.6-0.3c-0.1-2.1-0.2-3.8-0.3-5.9h-6.6v-6.6h-5.7c-0.1-1.9-0.2-3.7-0.3-5.7h-5.8h-5.9c0-2,0-4,0-6h5.7
			V85h-5.6v12.3H401l-6-0.1v-5.8h-5.8l-6.1-0.1v-6.6h-6.6V79h-5.8l-6-0.1v-6h-18.2c-0.1-2.1-0.2-3.9-0.3-5.8h-8l-125.2,0h-6.5v11.5
			l6.4,0.4c0,2.1,0,4,0,5.8h-6.6v6.5l-11.9,0.1h-5.8v5.8H182v5.9h-5.6v5.8h12.2v-5.7c0-2,0.1-4,0.1-6h5.8l5.9,0.1v5.6l-5.7,0.3v5.5
			h11.6v-5.7h6.5c0.1,2.1,0.2,3.9,0.3,5.9h11.5c0,2.2,0.1,4.4,0.1,6.6h-11.6v5.8h11.6v5.7h5.8v-5.7h6.5l0.3,5.7h5.8v-11.5h5.9v-6.7
			h5.7v6.5h6.6l5.9,0.2v5.9h5.9c0.1,1.9,0.2,3.7,0.3,5.7h5.8l6.6,0.1v18.2h5.7c0.1-1.9,0.3-3.6,0.4-5.4l5.8-0.5v-12.4h5.8h6.5
			l5.9,0.1v12.3h11.6c0.1-2.2,0.2-4.2,0.3-6.1h6.3c0.1,2.2,0.3,4.1,0.4,6.4h11.5v5.9h6v5.7l-5.6,0.4v5.7h24l0.1,6.7v5.7l5.9,0.3
			v18.1l6.4,0.3v5.6l-6.3,0.3v5.6l6.6,0.4V212l5.8,0.4v36.4l5.5,0.4v5.5l-5.6,0.4v30H383v18.2l-6.6,0.4v12.1l-5.8,0.5v11.3l-5.7,0.5
			c-0.2,2-0.3,3.6-0.4,5.4L359,334c-0.1,2.3-0.2,4.2-0.3,6.2l-6.2,0.4c-0.1,2-0.3,3.7-0.4,5.5l-5.7,0.5v11.3l-5.7,0.5
			c-0.1,2.2-0.2,4.1-0.4,6.4h-12.4v5.8h-24.1c-0.1-2.1-0.2-3.9-0.3-5.6h-54.3c-0.1,2-0.2,3.7-0.3,5.6h-11.6v-5.9h-12.4
			c-0.1-2.4-0.2-4.3-0.4-6.3l-5.5-0.5c-0.2-2.1-0.3-3.7-0.5-5.5l-5.4-0.4l-0.5-5.8h-12.1c-0.1-2-0.3-3.7-0.4-5.5l-5.8-0.5v-12
			l-5.6-0.5c-0.2-2.1-0.3-3.7-0.4-5.5l-6.5-0.4v-12.1l-5.8-0.5V292l-5.9-0.5v-17.9l-5.6-0.5v-61h5.7v6.5h5.6v-6.4h-5.7v-5.7
			l-5.6-0.4l-0.5-5.7h-6.4c0-2,0-3.9,0-5.9H170v-5.7l-5.8-0.5v-24c0-2.2,0.1-4.5,0.1-6.7h5.9v-5.9h11.6v-18.1h-5.5
			c-0.1,2.2-0.3,4.2-0.4,6.2l-5.7,0.5v11.6l-6,0.1h-6.6v5.8l0.1-0.1h-5.8v12.6c0,1.9,0,3.9,0,5.8s-0.2,3.8-0.3,6h-5.7
			c0-4-0.1-7.9-0.1-11.9v-5.6h-5.9v5.6l0.1-0.1h-6.4l-0.4,5.9l-5.5,0.3v5.6l5.8,0.3v6.3h6.6v-6.4l5.8-0.1c0,4.1-0.1,8.3-0.1,12.4
			h-12.1v5.9l6.3,0.4v5.7h-6.5v5.8c-0.1,2.2-0.1,4.4-0.2,6.6l-5.9,0.1v-18.2h-6v11.4l-5.9,0.3v6.4H109l-0.1-6.6v-11.6l-5.9-0.3v-5.6
			c0.1-2,0.1-3.9,0.2-5.9l5.9-0.3v-6.3l6.6-0.3v-11.5l5.7-0.3v-5.8l0.1-6.6h5.9v6.5h5.9v-6.4l6.7-0.1h5.9v-5.8h5.7l0.4-5.7l5.4-0.4
			c0.2-2,0.3-3.7,0.5-5.5l6.2-0.4c0.1-2.3,0.2-4.3,0.3-6.2l5.5-0.4l0.4-5.4l5.4-0.4v-5.5l-5.4-0.4c-0.2-1.9-0.3-3.7-0.5-5.5h-5.8
			v11.4l-6.3,0.3l-0.4,5.5l-5.5,0.5l-0.4,6.4H140v-6.4h-6.6v6.4h-5.9v6h-6v5.8l-5.7,0.3v5.8c0,2.2-0.1,4.4-0.1,6.6h-6.8v6h-5.6
			L103,176l-5.7,0.4v12.4h-5.9v17.6l-6.6,0.1l-0.1-6l0.2-18.3h6.5v-17.8h6v-6.5l5.8-0.3v-11.6h5.8l0.4-6h6.5v-6.5h5.6
			c0.1-2.2,0.2-4,0.3-5.8l5.7-0.3v-5.7c0-1.9,0-3.9,0.1-5.8h5.9V109h6.7v-5.9h5.7v-5.6H140v5.7h-6.6v5.9h-6c0-1.9,0-3.9,0-5.8v-5.7
			h-5.7V109h5.8v6.7h-6v5.8l0,0h-5.9v6v-0.1h-6.4c-0.1,2.3-0.2,4.1-0.3,5.8l-5.7,0.3V146h-5.8c-0.1,2.2-0.2,3.9-0.3,5.7l-5.7,0.3
			v12.4h-6.7v11.7h-6v12.6L73,188.6z M297.8,285.1h5.8h6.6v-11.5l-6.3-0.4c-0.2-1.9-0.3-3.7-0.5-5.5h-11.6v5.5l-5.8,0.3h-12.6
			l-5.8-0.3v-5.5h-12.4c-0.1,1.9-0.3,3.6-0.4,5.4l-5.6,0.5V285h5.8h6.5l6,0.1l0,0v6.4l5.7,0.5l0.4,5.4h12c0.2-2,0.3-3.7,0.4-5.5
			l5.7-0.4v-6.4l0,0L297.8,285.1z M346.4,200.4v-5.8h-6H322h-18.2c-0.2,2.1-0.3,3.9-0.5,5.6l-5.6,0.5v11.6H292v6.3h5.7v-6.4l6-0.1
			h6.6v-5.8v0.1h5.8c0.1,1.9,0.1,3.8,0.2,5.7c0,2.2,0,4.5-0.1,6.7h-5.7v5.8h5.7v5.8h24v-5.7h-5.6l-18.5-0.1v-5.9l6-0.1h5.8v-6.6
			l6.6,0.1v6.3h6v-12.2l0,0h5.9h-0.1v5.9h6v6.7h-5.7v5.6h5.6v-5.7h6.4v-6.6h-6.4l-0.1-5.9v-6L346.4,200.4L346.4,200.4z M316.1,316.1
			L316.1,316.1v-6.6h-12.6l-5.8-0.2v-5.6h-36.2v5.6H249v6.6l0.1,0.1h-11.6v6h5.6c0.1,1.9,0.2,3.8,0.3,5.7h18.3v5.9
			c0,2.2,0,4.5-0.1,6.7h-6.4v5.9h6.4h-0.1l0.1,5.8v5.7h35.9v-5.7c0-2,0-3.9,0.1-5.9h5.7v-5.8h-5.7v-6.6l-0.1-0.1h6v-5.8h6.6v-5.9
			l5.8-0.1h5.7v-5.8L316.1,316.1z M200.5,206.4l-0.1,5.9h-5.7v6.6h5.7v5.7h5.6v-5.6h-5.7c0-2.2,0-4.5,0-6.7h5.9v-5.9h6.7v12.3h5.8
			v-6.4l5.9-0.1v6.6h5.8l6.7,0.1v5.9l-18.5,0.1h-5.6v5.7h24.1v-5.8h5.7v-5.8h-5.7c0-4.1,0-8.3,0-12.4l5.9-0.1H243v5.6l6.1,0.4v6.5
			h5.7v35.8h6.5c0.2-2,0.3-3.7,0.4-5.5l5.5-0.4v-42.5H255v-5.7l-5.7-0.4c-0.2-2-0.3-3.7-0.5-5.6h-18.2H213h-6.7v5.8h-5.8V206.4z
			 M157.6,91.4l6.8-0.1h5.8v-6.6h11.6v-5.7h-11.5v5.7h-5.9h-6.7L157.6,91.4l-5.6,0V97h5.6L157.6,91.4z M200.5,121.6h-11.6v11.7h11.5
			v-5.9C200.3,125.4,200.3,123.5,200.5,121.6l5.6-0.1v-5.6h-5.6L200.5,121.6z M206.3,182.3h24.5v6.2H243v-6.3l-5.6-0.3
			c-0.1-2-0.2-3.8-0.3-5.5h-36.6c-0.1,1.9-0.2,3.7-0.3,5.8h-11.8v6.7h-6.2v11.4h6.5v-5.5l5.6-0.3c0.1-2,0.2-3.8,0.4-5.9h11.6V182.3z
			 M346.3,188.8h6v5.6l6.4,0.3c0.1,2,0.2,3.8,0.3,5.4h5.5v-11.3l-5.8-0.4v-6.5h-6.5v-5.6h-41.9l-0.4,5.8h-6.2v6.3h12.5v-6.2h30
			L346.3,188.8z M194.3,303.4v-11.3h-5.5v11.3H194.3z M364.5,303.5V292h-5.3v11.4L364.5,303.5z M188.9,73.1v5.5h11.3v-5.5H188.9z
			 M170.4,230.4h5.4V225h-5.4V230.4z M121.3,194.4v-5.5H116v5.5H121.3z"/>
		<path class="st3" d="M84.8,182.1l-0.2,18.3h-5.7v30h5.9v-24.1h-0.1l6.6-0.1v5.8l5.7,0.5v6.1l-5.3,0.5v5.8h11.6v11.7
			c-0.1,2.2-0.1,4.3-0.2,6.5h-5.6v6h5.6c0.1,3.9,0.1,7.8,0.1,11.7H91.7v6.5l5.4,0.3c0.1,2,0.2,3.8,0.3,5.6l5.8,0.3V285l6,0.3v12.4
			h6.4c0.1,3.9,0.1,7.8,0.1,11.7h-12.4v6.4h12.3v-6.4h11.6v-5.7l-5.6-0.3v-5.7h11.4v-5.9h-11.6l-5.8-0.1c0-4.2-0.1-8.4-0.1-12.5
			l0.2-11.7h5.6c0.2-2.5,0.3-4.5,0.4-6.4h5.5c0.1,2.2,0.3,4.1,0.4,6h5.4v-12l-5.3-0.5v-5.6h12.1v18.5h5.9V285l6,0.3v12.2l5.8,0.4
			v11.7h12.5v12.3l5.8,0.3l0.3,5.6l5.8,0.3v12.5h6.4c0.1,2.1,0.2,3.8,0.3,5.6l5.6,0.4c0.1,2,0.2,3.6,0.3,5.7h11.8v12.6h6.3l0.4,5.7
			h35.7c0.1-1.9,0.2-3.6,0.3-5.6h54.3c0.1,1.7,0.2,3.5,0.3,5.6h42.5c0.1-2.1,0.2-3.9,0.3-5.7l5.6-0.3c0.1-2.2,0.2-4.2,0.3-6.6h6.3
			c0.1-2.1,0.2-3.8,0.3-5.6l5.9-0.4v-11.4l5.6-0.3c0.1-2.2,0.2-4.2,0.3-6.6h5.7c0,4.2-0.1,8.3-0.1,12.5l-5.4,0.3v5.6l5.4,0.3
			c0.1,1.8,0.2,3.6,0.3,5.6l6.3,0.4c0.1,2.3,0.3,4.2,0.4,6.1h5.5c0.1-2.1,0.3-4,0.4-6.1h5.5c0.1,2.2,0.3,4.1,0.4,6.3h18.2v5.8
			l-5.8,0.3c-0.1,2-0.2,3.8-0.3,5.8H389v5.7h-54.3c-0.1-2.1-0.2-3.9-0.3-6h-36.8v-5.4h-42.8v5.6h-60.3v5.7h-30.3v-5.8h-24.1l-0.3-6
			h-6.4l-0.3-5.6l-6-0.3V358h-5.7v-5.8H109v-11.6l-6-0.3v-6.4h-5.7v-6h-5.8V316h-6.8v-6.5h-5.8c0-5.9-0.1-11.8-0.1-17.7v-18.5H73
			l0.1,0l-0.2-30.2h5.7v-6.4H73v6.4l-5.9-0.1c0-4.1,0-8.3,0-12.4h5.8v-36.1c0-2,0.1-3.9,0.1-5.9h5.8v-12.6h6L84.8,182.1z
			 M170.1,352.3l-5.8-0.1v-5.9h-6.6v-5.7h-5.8v11.5h5.9l6.6,0v5.8h11.5v-5.7H170.1z M188.6,364.6h11.6v-6.5h-17.9v6.5H188.6z
			 M140.1,328h5.5v-5.9h-17.9v5.7l5.9,0.3v12.4h6.4v5.6h5.7v-12.3l-5.6-0.3L140.1,328z M121.8,284.9h11.3v-11.3h-11.3L121.8,284.9z
			 M91.5,285H97v-5.5h-5.5V285z"/>
		<path class="st2" d="M510.6,443.6l-5.9,0l-6.6-0.2v-6.6h-5.9c-0.1-1.9-0.2-3.7-0.3-5.7h-24c-0.1-2.3-0.2-4.1-0.3-6.1h-11.5
			c-0.1-2.1-0.2-3.9-0.3-5.9h-6.6v-6.4l-5.7-0.3V395h5.9v-5.9h6.5v-12.3l5.8-0.5c0.1-1.8,0.3-3.5,0.4-5.4h5.5
			c0.1,1.7,0.3,3.4,0.4,5.5h12c0.2,2.1,0.4,3.9,0.5,6h11.4v12.3l6,0.5v11.3l6.6,0.4V419l6,0.5L510.6,443.6z"/>
		<path class="st2" d="M486.3,218.9h5.7v48.4l-5.6,0.5v23.8l-5.8,0.5v17.3l-6.6,0.4v18.2h-6l0,0c0-2-0.1-4-0.1-6v-5.8h-5.7l-5.9-0.1
			v-6.5l6-0.3v-17.3l5.9-0.3v-30.8h5.8v12.4h6.5v-12.4h5.7v-5.6h-5.6v5.7h-6.7v-12h6.8v-18.2l5.8-0.3L486.3,218.9L486.3,218.9z"/>
		<path class="st2" d="M480.4,181.9h6v36.9l0,0h-6v-18.6h-6.5V182l-0.1,0.1L480.4,181.9z"/>
		<path class="st2" d="M72.8,194.6v36.1h-5.8v-36.1H72.8z"/>
		<path class="st2" d="M467.9,327.9v18.4H462l0,0c0-6.1,0-12.3,0-18.5L467.9,327.9L467.9,327.9z"/>
		<path class="st2" d="M456.1,358.1v12.5h-6.6l0,0v-12.5L456.1,358.1L456.1,358.1z"/>
		<path class="st2" d="M449.5,370.6v11.8h-5.9l0,0v-11.8L449.5,370.6L449.5,370.6z"/>
		<path class="st2" d="M462,346.3v11.8h-5.9l0,0v-11.8L462,346.3L462,346.3z"/>
		<path class="st2" d="M443.6,382.4v6.6l0.1,0.1h-6v-6.6L443.6,382.4L443.6,382.4z"/>
		<path class="st3" d="M480.4,181.9l-6.6,0.1v-5.9h6.6C480.4,178.1,480.4,180,480.4,181.9z"/>
		<path class="st2" d="M516.5,449.5h-5.9v-5.9h5.9V449.5z"/>
		<path class="st3" d="M449.5,389.1v5.9h-5.9l0,0c0-2,0-3.9,0-5.9l-0.1-0.1L449.5,389.1z"/>
		<path class="st4" d="M370.7,528.3l-6-0.1v-11.4H359c-0.2,2-0.3,3.6-0.5,5.7h-17.9c-0.2,2.1-0.4,3.9-0.5,6h-17.9
			c-0.2,2-0.3,3.7-0.5,5.9h-23.9c-0.1,2.4-0.3,4.3-0.4,6.3H292c-0.1-2.2-0.3-4.2-0.4-6.6h-12.1c-0.2-2-0.3-3.7-0.5-5.7h-17.2
			c-0.2-2.1-0.4-3.9-0.5-6h-17.9c-0.2-2-0.3-3.7-0.5-5.9h-12.1c-0.1-2.4-0.3-4.3-0.4-6.3H213v6.4h-18.2v6h5.7v5.6H176v-11.5h12.3
			v-6.8h-12.2V504h121.4c0.2-2.2,0.4-3.9,0.5-5.6h66.5l0.5,5.4h18c0.2-2,0.3-3.6,0.5-5.4h5.4l0.5,5.4h11.3c0.2-2,0.3-3.6,0.5-5.4
			h23.7v5.9h-11.3c-0.2,2.1-0.3,3.7-0.5,5.8h-12.2v6.6h-17.5c-0.2,2.3-0.4,3.9-0.5,6h-12.2V528.3z"/>
		<path class="st3" d="M170.1,552.7h-5.6v-5.8l5.6-0.3h6v-5.7h5.7l0.3,5.7h42.4v5.9l-5.7,0.3v5.7l-18.4,0.2l-18.3-0.2v-5.7h-5.9
			L170.1,552.7z"/>
		<path class="st3" d="M176.1,504v5.8h12.3v6.8h-18.1v-6.7H140c0-1.9,0-3.9,0-5.8h5.6v-12H140c0-2.2,0-4.4,0-6.5h11.6
			c0.2,2.5,0.3,4.4,0.4,6.4l5.9,0.5V504H176.1L176.1,504z"/>
		<path class="st4" d="M170.1,552.7h6.1c0,2,0,3.9,0,5.9v6.5h48.4v5.8h-54.1c-0.1-1.9-0.2-3.8-0.3-5.7v-6.8
			C170.1,556.5,170.1,554.6,170.1,552.7z"/>
		<path class="st3" d="M267.4,546.8h-12.3c-0.1-2-0.2-3.8-0.3-6.1h-11.6c0-2.2,0-4.4,0-6.5h-0.1l11.9-0.1l6.5,0.2v6.5h11.9
			c0,2,0,4,0,5.9l0,0L267.4,546.8z"/>
		<path class="st1" d="M218.9,565.1h-18.6c0-2.2,0-4.3,0-6.4l18.4-0.2C218.8,560.7,218.9,562.9,218.9,565.1z"/>
		<path class="st3" d="M237.2,534.3l-12.4-0.2c0-1.9,0-3.9,0-5.8l-0.1,0l12.6-0.1l5.8,0.2c0,1.9,0,3.9,0,5.8h0.1L237.2,534.3z"/>
		<path class="st3" d="M200.5,522.5h-5.7v-6H213v5.9l0,0l-6.7,0.1L200.5,522.5z"/>
		<path class="st3" d="M218.8,528.4l-5.8-0.2c0-1.9,0-3.9,0-5.8l0,0h11.8l0,0v5.9l0.1,0L218.8,528.4z"/>
		<path class="st4" d="M213,522.4c0,1.9,0,3.9,0,5.8h-6.5c-0.1-1.9-0.2-3.8-0.3-5.7L213,522.4z"/>
		<path class="st4" d="M237.2,534.3l6-0.1c0,2.2,0,4.4,0,6.5h-6V534.3z"/>
		<path class="st1" d="M170.1,558.5v6.8h-5.6v-6.5L170.1,558.5z"/>
		<path class="st4" d="M218.8,528.4l6-0.1c0,1.9,0,3.9,0,5.8H219C218.9,532.2,218.9,530.3,218.8,528.4z"/>
		<path class="st1" d="M176.2,540.9v5.7h-6v-5.7H176.2z"/>
		<path class="st4" d="M267.4,546.8l6-0.1l-0.1,6h-5.9V546.8z"/>
		<path class="st1" d="M279.3,589.5c0,2-0.1,4-0.1,6h-5.8v-5.8L279.3,589.5z"/>
		<path class="st3" d="M400.9,516.5V510h12.2c0.2-2,0.3-3.7,0.5-5.8h11.2v-5.9h-23.7c-0.2,1.7-0.3,3.4-0.5,5.4h-11.3l-0.5-5.4h-5.4
			c-0.2,1.8-0.3,3.4-0.5,5.4h-18l-0.5-5.4H298c-0.1,1.7-0.3,3.4-0.5,5.6H176.1l0,0c0-1.9,0-3.9,0-5.8l24.2-0.2H273
			c0.2-2.1,0.4-3.8,0.5-5.6l5.4-0.4v-6.5h-35.6c-0.2-2-0.3-3.7-0.5-5.9h-36.3c-0.2-2.2-0.4-3.9-0.5-5.9h-54c-0.2-2.1-0.4-3.9-0.6-6
			h-11.2c-0.1-2.3-0.3-4.2-0.4-6.2l-6.2-0.5l-0.5-5.7h-11.4v-11.7l-6.1-0.3v-12.1h-6.6v12.3h-5.7V431h-12l0.1,0.1v-6H103l0.3-5.9
			h12.3v-18.5h-6.4l-0.3-5.6l-5.7-0.3v-18.3v0.1h5.8c0.1,2.1,0.2,3.9,0.3,6h6.7v6.7h5.8v5.7h5.8v11.8h5.9v5.9h6.7v6.4l5.7,0.3
			c0.1,2.1,0.2,3.9,0.3,5.9h18.1c0.1,2.1,0.2,3.9,0.3,5.9h17.6v5.5h12.2V431h-5.8v-11.8h-6.7v-6.7h-17.5l-0.3-5.9h-12.3
			c-0.1-2.1-0.2-3.9-0.3-5.9h-11.7v-5.7h-6.6V389h-5.9v-6.5l-5.7-0.3c-0.1-2-0.2-3.8-0.3-5.6l-5.7-0.3v-11.7l-0.1,0.1h5.8l0.3,5.7
			l5.6,0.3l0.3,5.6l5.6,0.3c0.1,2.1,0.2,3.9,0.3,6H146v6.4h11.7v5.9h31v5.6h11.6c0.1-2,0.2-3.8,0.3-5.8h29.9
			c0.1-2.1,0.2-3.9,0.3-5.5h91.1c0.1,2,0.2,3.8,0.3,5.8h36.6c0.1,2.1,0.2,3.9,0.3,5.5h11.7V395H395v-6h12.6v-6.7h11.6
			c0.1-2.1,0.2-3.9,0.3-5.9h12.4v-5.7h5.8v-12.6h5.9v-5.9h5.9v-11.8h6.4v-6.7l0.1-5.9l-0.1,0.1h5.9v-0.1c0,6.1,0,12.3,0,18.5h-5.9
			v11.8h-6.6v12.5h-5.9v11.8h-6v6.6V389h-12.4c-0.1,2.3-0.2,4-0.3,6.1h-11.5c-0.1,2.1-0.2,3.9-0.3,5.9h-12.6v6h-17.7v12.4h-6.4v5.8
			h-5.7v5.7h12.2c0.1-2,0.2-3.7,0.3-5.8h17.6v-5.7h12.6v-6.8h5.7h5.9c0,2.3,0,4.5,0,6.8h-5.7c-0.2,2.3-0.3,3.9-0.5,5.6l-5.4,0.5
			c-0.2,1.9-0.3,3.6-0.5,5.7h-12c-0.2,2.2-0.4,3.9-0.5,5.9h-11.3c-0.2,2.3-0.3,4.2-0.5,6.6h-12c-0.2,2.2-0.4,3.9-0.5,5.9h-17.1
			l-0.5,5.9h-23.8l-0.5,5.8h-4.7l-92.4,0.1l-24.2-0.2v-5.9h-30.8c-0.2-2.2-0.4-3.9-0.5-5.5l-5.4-0.5c-0.2-1.9-0.3-3.6-0.5-5.8h-17.9
			c-0.2-2.4-0.3-4.3-0.5-6.6h-11.3c-0.2-2.1-0.3-3.7-0.5-5.7h-12.3v-6h-6v-5.6h-5.6v5.6h5.7v6h6v5.7l6.7,0.4v12l5.6,0.5
			c0.2,2.1,0.4,3.7,0.5,5.4l5.4,0.5c0.2,1.9,0.3,3.6,0.5,5.8h29.7l0.4,6.4h18.3l24.2,0.2l0.3,5.7h42.4c0.1,2.3,0.2,4,0.3,6.1h18.2
			v5.5h42v-5.6h31v-5.9h17.7v-5.9h18.2c0.2-2.5,0.3-4.5,0.4-6.4l5.4-0.5c0.2-1.9,0.3-3.6,0.5-5.4l6.2-0.4l0.5-5.5l5.4-0.5
			c0.2-1.9,0.3-3.5,0.5-5.4l5.8-0.6v-12l5.7-0.5v-11.4h6.7v-6.7h5.6v-5.8h-5.7V401l6-0.3V395h5.8l0,0v17.5l5.7,0.3v6.4h6.6
			c0.1,2.1,0.2,3.8,0.3,5.9h11.5c0.1,2,0.2,3.8,0.3,6.1h18.2c0.1,1.9,0.2,3.8,0.3,5.7h11.6v12.6l-0.1,0.1h-5.7l-0.3-5.7h-11.6v17.5
			h5.7v36.7h-5.8v30.2h-6.7v18.3h-5.7v11.7l-6,0.3V571h-6v-24.2h6v-24.2l5.6-0.3v-85.1h-5.8v24.1l-5.7,0.3v18.3h-6.6
			c-0.1,2.1-0.2,3.8-0.3,5.7l-5.8,0.3v6.4l-5.9,0.3v5.6h-5.8v11.8l-6.6,0.1h-6v6.4l-5.8,0.2h-5.9L400.9,516.5L400.9,516.5z
			 M425.2,485.5h12.3c0.2-2.3,0.4-4,0.5-5.7l5.7-0.5v-11.2l5.5-0.5v-23.8h-5.4c-0.2,1.9-0.3,3.6-0.5,5.8H432
			c-0.2,2.2-0.4,3.9-0.5,5.9h-12c-0.2,2.1-0.3,3.7-0.5,5.5l-5.5,0.5c-0.1,2.3-0.3,4.2-0.4,6.5h-12c-0.2,2.1-0.3,3.7-0.5,5.5
			l-5.4,0.5c-0.2,2-0.3,3.7-0.5,5.7H365c-0.2,2-0.3,3.7-0.5,5.9h-29.6v6.5h90.4L425.2,485.5z M303.6,425.1v11.7h55.3V431h5.9v-11.6
			l5.6-0.3v-6.6H359c-0.1-2.1-0.2-3.9-0.3-5.5h-48.6v18.2L303.6,425.1l-0.1-24h-54.3v5.6l5.9,0.3v12.5h6.4v11.7h6v12.3h24.4v-6.3
			l5.9-0.3v-11.7H303.6z M206.3,412.8h-11.6v12.3h5.8v5.9h5.9v5.7h48.4v-11.5l-5.8-0.3v-12.2l-5.7-0.3c-0.1-2.1-0.2-3.9-0.3-5.5
			h-36.8V412.8z M443.3,425.1v-5.6H438v5.6H443.3z"/>
		<path class="st3" d="M383.1,552.6v-5.7h54.4v5.5H432c-0.1,2.2-0.2,4.1-0.3,6l-18.4,0.1h-24.2l-5.9-0.1L383.1,552.6z"/>
		<path class="st4" d="M413.3,558.6l18.4-0.1v6.8h-12.5v5.7h-35.9c-0.1-1.9-0.2-3.8-0.3-5.7c0.1-2.3,0.1-4.5,0.2-6.8l5.9,0.1v6.4
			h24.1V558.6z"/>
		<path class="st3" d="M370.7,528.3v-5.8h12.2c0.2-2,0.3-3.7,0.5-6h17.5l0,0c0,1.9,0,3.9,0,5.8h-11.6c-0.1,2-0.2,3.8-0.3,6.1h-12.3
			L370.7,528.3L370.7,528.3z"/>
		<path class="st1" d="M383.3,558.5c-0.1,2.3-0.1,4.5-0.2,6.8h-6.3v-12.6h6.3L383.3,558.5z"/>
		<path class="st1" d="M419.2,516.4V510h6v6.4H419.2z"/>
		<path class="st4" d="M400.8,522.3c0-1.9,0-3.9,0-5.8l6.7,0.1c0,1.9-0.1,3.8-0.1,5.7L400.8,522.3z"/>
		<path class="st1" d="M407.4,522.3c0-1.9,0.1-3.8,0.1-5.7h5.9v5.7L407.4,522.3z"/>
		<path class="st4" d="M370.6,528.3l6,0.1v5.7h-6C370.6,532.2,370.6,530.2,370.6,528.3z"/>
		<path class="st1" d="M419.2,571v-5.7h6v5.7H419.2z"/>
		<path class="st1" d="M516.6,467.8l5.6,0.3c0.1,1.9,0.3,3.6,0.4,5.6h6.3c0.1,2,0.2,3.8,0.3,5.8l5.8,0.4v12.2l5.8,0.3v5.7h-5.6
			l-0.3,5.8l0.1,0.2h-5.7c-0.1-2.3-0.3-4.1-0.4-6.1h-6.2c-0.2-2-0.3-3.8-0.4-5.8h-11.6v0l-0.1-24.3L516.6,467.8z"/>
		<path class="st4" d="M510.7,516.6v-6.5l-5.7-0.3c-0.1-1.8-0.2-3.6-0.3-5.7h-6.4v-11.9h12.5v0v11.6l5.7,0.5c0.2,2,0.3,3.7,0.5,5.4
			l5.4,0.5c0.2,2.2,0.3,4.1,0.4,6.4H535v5.9h-6h-12.5v-5.9h-6L510.7,516.6z"/>
		<path class="st1" d="M498.1,565.1v5.9h6.4v11.8h-6.2v6.7h-6.1v0.1v-6.7h-6l0.1,0l-0.1-17.7h-0.1L498.1,565.1L498.1,565.1z"/>
		<path class="st1" d="M516.5,540.9h-11.6c-0.1-2.3-0.2-4.3-0.4-6.5h-6.3c-0.1-2.2-0.2-4-0.3-5.9s0.1-4,0.1-6l12.5,0.1l0,0v5.9h6
			l0-0.1v6h5.9h0c0,2.2,0,4.5-0.1,6.7L516.5,540.9z"/>
		<path class="st4" d="M498.1,558.5v-5.7l-5.7-0.3v-11.7h5.5c0.2,2,0.4,3.7,0.5,5.7l6.1,0.4c0.1,1.8,0.3,3.4,0.5,5.4l5.4,0.5
			c0.2,1.7,0.3,3.4,0.5,5.6h11.3v6.7h-11.5l-6-0.1v-6.6H498.1z"/>
		<path class="st2" d="M516.6,522.5H529l-0.1,5.8l-6.6,0.1l-5.8-0.1l0,0.1C516.6,526.3,516.6,524.4,516.6,522.5L516.6,522.5z"/>
		<path class="st1" d="M498.1,558.5h6.6v6.6l-6.6,0.1l0,0C498.1,562.9,498.1,560.7,498.1,558.5L498.1,558.5z"/>
		<path class="st5" d="M498.2,449.4v-5.9l6.6,0.2v0.7c0,5.1,0,5.1-5.1,5C499.1,449.5,498.6,449.5,498.2,449.4z"/>
		<path class="st6" d="M516.6,467.8l-5.9,0.1l0,0c0-2.3,0-4.5-0.1-6.8l0.1,0.1h6L516.6,467.8z"/>
		<path class="st5" d="M540.8,509.9c0,0.2,0,0.5,0,0.7c0,7.1,0.6,5.8-5.9,6l0,0v-6.7L540.8,509.9z"/>
		<path class="st1" d="M522.4,528.4l6.6-0.1v5.9h-6.5h0L522.4,528.4z"/>
		<path class="st7" d="M534.9,503.9l0.3-5.8h5.6c0,2,0,3.9,0,5.9L534.9,503.9z"/>
		<path class="st8" d="M534.9,503.9l5.9,0.1c0,2,0,4,0,5.9H535c0-1.9,0-3.9,0-5.8L534.9,503.9z"/>
		<path class="st4" d="M498.1,522.4c0,2-0.1,4-0.1,6h-5.7c0-2,0-3.9,0-5.9L498.1,522.4L498.1,522.4z"/>
		<path class="st2" d="M516.5,540.9h5.8v5.6h-5.8V540.9z"/>
		<path class="st2" d="M510.7,565.2h5.8v5.7h-5.8V565.2z"/>
		<path class="st4" d="M535.1,582.9v-5.8l5.7-0.3l0.2,6.1l0,0L535.1,582.9z"/>
		<path class="st3" d="M510.7,492.2h-12.5v-12.4h6.6v-11.9h5.8l0,0C510.7,476,510.7,484.1,510.7,492.2z"/>
		<path class="st3" d="M486.3,565.1l0.1,17.7h-6v-17.7H486.3z"/>
		<path class="st3" d="M449.5,589.5V577h6.5v12.4L449.5,589.5z"/>
		<path class="st3" d="M498.1,558.5c0,2.2,0,4.5,0,6.7h-11.9v-6.7L498.1,558.5z"/>
		<path class="st3" d="M510.7,522.5l-12.5-0.1l0,0.1v-5.8h12.5h0L510.7,522.5z"/>
		<path class="st9" d="M510.6,467.9h-5.8v-6.5l5.7-0.3C510.6,463.4,510.6,465.7,510.6,467.9z"/>
		<path class="st1" d="M486.3,461.3h-5.7v-6h5.7V461.3z"/>
		<path class="st4" d="M480.5,504.1v-6h5.7v5.8L480.5,504.1z"/>
		<path class="st1" d="M498.2,516.6v5.8l-5.9,0.1v-5.9H498.2z"/>
		<path class="st3" d="M84.8,595.4h-5.7l-0.4-5.7l-5.6-0.3v-6.5H67h0.1c0-1.9-0.1-3.9-0.1-5.8v-6h-6.6l0,0v-18.2l-6-0.4v-23.9
			l-5.8-0.4v-60.2l0.1-0.1l5.7,0l0.3,5.7h12.2l0.3-5.8h11.3c0.1-0.4,0.2-0.7,0.3-1.1c0-7.7,0-15.4,0-23.1l5.8,0.1c0,10,0,20,0,30.1
			H73.2c-0.2,2.2-0.4,3.9-0.6,6H60.7l-0.5,5.6l-5.6,0.5V498h5.8l6.7,0.1v0v6.1H54.7v18h5.5c0.1-2,0.3-3.7,0.4-5.7h18.2l0,0v5.7
			l-5.7,0.5l-0.5,5.7H60.5v5.9c0,2.2,0,4.3,0,6.5v6H67l0,0V565l5.8,0.3l0.3,5.5h5.6l0.3-5.5l5.8-0.3v-6.6h12.5v-5.8l-0.1,0.1h5.8
			v12.4h-5.5l-0.5,5.7l-5.4,0.5l-0.5,5.4l-6.3,0.5v12.4L84.8,595.4z"/>
		<path class="st3" d="M109.2,552.6v-18.2l-5.9-0.3v-66.2h5.7v60.5h6.8v24.2l-0.2-0.1L109.2,552.6z"/>
		<path class="st1" d="M91.4,558.4h-6.6v6.6l-5.8,0.3l-0.3,5.5h-5.6l-0.3-5.5L67,565v-18.3h11.8v-5.8l6-0.1h6.6v11.8L91.4,558.4z"/>
		<path class="st3" d="M67,492.3h24.2v17.4L97,510v6.6h-5.5l-12.6-0.1l0,0V510l5.6-0.3v-11.7H67v0C67,496.1,67,494.2,67,492.3
			L67,492.3z"/>
		<path class="st4" d="M54.6,492.3v-6.4l5.6-0.5l0.5-5.6h11.9c0.2-2.1,0.4-3.8,0.6-6h11.4v5.8l-5.6,0.3l-0.3,5.7H67v6.8h0.1
			l-6.7,0.1L54.6,492.3z"/>
		<path class="st4" d="M84.8,589.6v-12.4l6.3-0.5l0.5-5.4l5.4-0.5l0.5-5.7h5.5v17.5H91.6v6.9L84.8,589.6z"/>
		<path class="st4" d="M78.8,516.5l12.6,0.1v5.7l-6.6,0.3v5.5l-5.9,0.4c-0.1,1.7-0.2,3.5-0.3,5.8H60.5v-5.9h12.2l0.5-5.7l5.7-0.5
			V516.5z"/>
		<path class="st3" d="M91.4,552.6v-11.8h-6.6v-6.4h12.5v18.3l0.1-0.1L91.4,552.6z"/>
		<path class="st3" d="M91.3,431v6h-6.5l-6-0.1v-5.9L91.3,431L91.3,431z"/>
		<path class="st1" d="M103.3,461.3v-11.9h5.7v11.9H103.3z"/>
		<path class="st3" d="M78.8,540.9v5.8H67l0,0v-5.8L78.8,540.9z"/>
		<path class="st1" d="M78.8,437l6,0.1c-0.1,2.2-0.1,4.4-0.1,6.6l-5.8-0.1l0.1,0L78.8,437L78.8,437z"/>
		<path class="st4" d="M103.3,461.3h5.7c0,2.2,0,4.4,0,6.6h-5.7C103.3,465.7,103.3,463.5,103.3,461.3z"/>
		<path class="st1" d="M67.1,540.9v5.8h-6.6v-6L67.1,540.9z"/>
		<path class="st4" d="M109.2,552.6h6.3l0.2,6h-6.5V552.6z"/>
		<path class="st4" d="M109,449.4h-5.7c0-2,0-3.9,0-5.9h5.7C109,445.5,109,447.5,109,449.4z"/>
		<path class="st10" d="M36.2,552.6h6.5v6h-6.5V552.6z"/>
		<path class="st1" d="M24.3,522.4h5.8v6h-5.8V522.4z"/>
		<path class="st11" d="M30.2,540.8H36v6C29.5,546.7,30.2,547.7,30.2,540.8z"/>
		<path class="st1" d="M243.1,528.4l-5.8-0.2l-0.3-5.8h-12.3v-5.9H213v-6.4h17.5c0.1,2,0.2,3.9,0.4,6.3h12.1
			c0.2,2.2,0.3,3.8,0.5,5.9h17.9c0.2,2.1,0.4,3.9,0.5,6H279c0.2,2,0.3,3.7,0.5,5.7h12.1c0.1,2.4,0.3,4.4,0.4,6.6h5.5
			c0.1-1.9,0.2-3.8,0.4-6.3h23.9c0.2-2.2,0.3-3.8,0.5-5.9h17.9c0.2-2.1,0.3-3.9,0.5-6h17.9c0.2-2,0.3-3.7,0.5-5.7h5.6v11.4
			l-12.4,0.2h-6v5.7l-11.6,0.2h-6.8v6.5l-5.8,0.2h-18.3l-0.5,5.8h-17.4v-5.9h-12.5v-6.5h-11.9l-6.5-0.2c-0.1-1.9-0.2-3.8-0.3-5.7
			L243.1,528.4z"/>
		<path class="st2" d="M310.3,595.5h-12.4c-0.1-2-0.2-3.8-0.3-5.8l-5.7-0.3v-24.1l5.9-0.2h12.3c0.1,2.3,0.2,4.1,0.3,5.9h11.5v5.9
			h-5.7c-0.1,2.3-0.2,4.1-0.3,6.1h-12.1v6.4h6.4l5.8,0.1v5.7L310.3,595.5z"/>
		<path class="st4" d="M285.9,546.7h17.4l0.5-5.8h18.3v5.8h-11.6c-0.2,2-0.3,3.7-0.5,5.6h-24.1V546.7z"/>
		<path class="st4" d="M316.2,570.9h-5.8c-0.1-1.8-0.2-3.6-0.3-5.9h-12.3c0-2.2-0.1-4.3-0.1-6.5h18.5V570.9z"/>
		<path class="st4" d="M316.1,589.5l-5.8-0.1v-6.4h5.7c0.1-2,0.2-3.8,0.3-6.1h5.7v12.6H316.1z"/>
		<path class="st4" d="M273.4,540.8h12.5v5.9h-12.5C273.4,544.8,273.4,542.8,273.4,540.8z"/>
		<path class="st4" d="M327.8,540.8v-6.5h6.8v6.5H327.8z"/>
		<path class="st1" d="M297.6,558.6c0,2.2,0.1,4.3,0.1,6.5l-5.9,0.2c0-2.2,0-4.4,0-6.6H297.6z"/>
		<path class="st4" d="M346.3,534.1v-5.7h6v5.7H346.3z"/>
		<path class="st3" d="M535.1,582.9h5.9c-0.1,2.2-0.2,4.4-0.2,6.5H535l0,0C535,587.3,535,585.1,535.1,582.9z"/>
		<path class="st1" d="M48.6,467.9v60.2l5.8,0.4v23.9l6,0.4v18.3h-5.9v-12.4l-5.8-0.3V547l-6-0.4v-12.3h-6.7v-17.7l-5.7-0.3v-18.1
			l5.5-0.3v-18.1l6.7-0.3v-11.6H48.6z"/>
		<path class="st1" d="M78.8,443.5c0,7.7,0,15.4,0,23.1c-0.1,0.4-0.1,0.7-0.3,1.1H67.3l-0.3,5.8H54.7c-0.1-1.9-0.2-3.8-0.3-5.7
			c0-2.2,0-4.4,0-6.7l0.1-5.9v0h5.8c0.1-2.2,0.3-4,0.4-6.1H73v-5.8v0h6L78.8,443.5z"/>
		<path class="st12" d="M54.4,461.3c0,2.2,0,4.4,0,6.7l-5.7,0c0-0.2,0-0.5,0-0.7C48.7,460.1,48.1,461.4,54.4,461.3z"/>
		<path class="st1" d="M60.4,571H67v6h-6.5C60.5,575,60.4,573,60.4,571z"/>
		<path class="st2" d="M60.5,577H67c0,2,0.1,3.9,0.1,5.9h-6.6V577z"/>
		<path class="st4" d="M535,589.5h5.8v5.8l-5.7,0.3C535,593.5,535,591.5,535,589.5z"/>
		<path class="st2" d="M109,449.4c0-2,0-3.9,0-5.9v-12.3h6.6v12.1l6.1,0.3v35.9l5.7,0.3c0.1,2,0.2,3.8,0.3,5.8h5.6v6.5h12.4v12
			h-12.3v18.1l-5.8,0.4v11.3l-6,0.5v18.2h-5.9v-24.2H109v-60.5c0-2.2,0-4.4,0-6.6L109,449.4z"/>
		<path class="st2" d="M437.6,498v-5.7l5.9-0.3v-6.4l5.8-0.3c0.1-1.8,0.2-3.6,0.3-5.7h6.6v-11.8l5.7-0.3v-30.5h5.8v85.1l-5.6,0.3
			v24.2h-6V541l-6.5-0.4v-18l-5.9-0.5v-12l-6.1-0.5V498z"/>
		<path class="st3" d="M486.3,582.8h6v6.7h-6V582.8z"/>
		<path class="st2" d="M425.1,376.4h-5.7c-0.1,2.1-0.2,3.9-0.3,5.9h-11.6v6.6H395v6h-24.3v5.6H359c-0.1-1.6-0.2-3.4-0.3-5.5h-36.5
			c-0.1-2.1-0.2-3.8-0.3-5.8h-91.1c-0.1,1.7-0.2,3.5-0.3,5.5h-29.9c-0.1,2.1-0.2,3.9-0.3,5.8h-11.6V395h-31v-5.9H146v-6.4h-12.4
			c-0.1-2.1-0.2-3.8-0.3-6l-5.6-0.3l-0.3-5.6l-5.6-0.3l-0.3-5.7h-5.8v-6.5h-6.4v6.4h6.4v11.7l5.7,0.3c0.1,1.8,0.2,3.6,0.3,5.6
			l5.7,0.3v6.4h5.9v5.9h6.6v5.7h11.7c0.1,2.1,0.2,3.8,0.3,5.9h12.3l0.3,5.9h17.4v6.7h6.7V431h5.8v5.8h-12.2v-5.5h-17.6
			c-0.1-2.1-0.2-3.8-0.3-5.9h-18.2c-0.1-2.1-0.2-3.9-0.3-5.9l-5.7-0.3v-6.4h-6.7v-5.9h-5.9V395h-5.8v-5.7h-5.8v-6.7h-6.7
			c-0.1-2.1-0.2-3.9-0.3-6h-5.8V365l-5.8-0.5v-12l-6-0.5v-11.6l0,0h6v-6.6h-0.1h5.8v6.4l6,0.3v11.6h12.6v5.9h5.7v6.5l6,0.3l0.3,5.6
			h6.4l0.3,6h24.1v5.8h30.1v-5.7h60.3v-5.6h42.8v5.4h36.8c0.1,2.1,0.2,3.8,0.3,6H395v-5.7h12.3c0.1-2,0.2-3.8,0.3-5.8l5.8-0.3v-5.8
			l5.8-0.1h5.8c0.1-2.4,0.2-4.4,0.3-6.4l12.4-0.1l0,0v12.6h-12.6V376.4z"/>
		<path class="st2" d="M91.4,431.1H78.8v5.9v0h-5.9v6.7v0l-18.4,0.1V407l5.8-0.5v-11.4l6.5-0.4l0.4-5.5l5.5-0.4l0.4-6.2l5.5-0.4
			l0.4-5.5l5.4-0.4l0.4-5.4H97c0.1,1.7,0.3,3.3,0.4,5.6h5.7v18.3l5.7,0.3l0.3,5.6h6.4v11.9H109v6.6h-5.7l-0.3,5.9H91.4V431.1z"/>
		<path class="st2" d="M78.9,309.5h5.8v6.5h6.8v17.9l-0.1,6.6l0,0h-6.6v-18.2l-5.9-0.4V309.5z"/>
		<path class="st3" d="M54.5,443.6l18.4-0.1v5.8H60.6c-0.1,2.1-0.2,3.8-0.4,6.1h-5.8C54.5,451.5,54.5,447.5,54.5,443.6z"/>
		<path class="st2" d="M73,273.3h5.8v18.4H73V273.3z"/>
		<path class="st3" d="M473.9,182v18.3h6.5v18.6h6v11.6l-5.8,0.3V249h-6.8v11.9l0.1-0.1H468v30.8l-5.9,0.3v17.4l-6,0.3v12.5L456,328
			l0.1-0.1h-6.7v5.9h-5.9v6.7l0,0h-5.8c-0.1,2.3-0.2,4-0.3,5.9h-5.8v-12.5l5.7-0.3v-5.7h-12.2v-5.8l6.6-0.4v-5.7h11.7v-24.2h6v-12.6
			h6.4v-5.8h-6.4v-6.1h12.3v-6.5h-5.7V255v-5.8h-6.6v5.6l-5.8,0.3v18.4h-11.5v6h11.4v12.4h-5.8v-6.5h-5.6v6.5h5.7l-0.2,5.8h-12.5
			v-12.2h-11.7v12.3l0,0h-5.7l-0.5,5.7h-12.3v-5.7l0.2-5.7l5.9-0.3v-6.4l6.6-0.3v-11.5l5.7-0.4V225l-5.8-0.5v-5.7h5.7v-6.5h-5.6
			l-6.8-0.1l0.2-5.8h6.5v-17.7h-6.5v-18.4h-6h-5.8c0-2,0-4,0-6h5.6v-6.4h-5.6v6.4h-6v-12.6h-12.4l-0.2-5.8v-5.7l-5.6-0.5
			c-0.2-2.1-0.3-4.1-0.5-6.3h-5.7l-6.5-0.1v-5.9h-5.9c0-1.9,0.1-3.9,0.1-5.8h5.6v-5.8h-11.6v5.7l-5.8-0.1c-0.1-1.9-0.2-3.7-0.3-5.8
			h-6.5V109h6.5v-5.8h-6.4c0-1.9,0-3.9-0.1-5.8l6.8-0.1h24.1c0.1,2.3,0.2,4,0.3,6.1h11.6c0.1,1.8,0.2,3.7,0.3,5.7h5.8l6.5,0.2v6.4h6
			l5.7,0.3c0.1,2.1,0.2,3.8,0.3,5.6h5.8l6.6,0.2l0-0.1l0.1,5.8v6h5.8l-0.1,6.7h-5.6v5.6h5.6v-5.6h5.9c0.1,1.9,0.2,3.8,0.3,5.9h5.7
			c0,3.9,0,7.9,0,11.8l-5.9-0.1V152h-5.6v5.6h5.7v6.6v6.1h5.9v11.5h6.5v-11.5h17.9v11.9h6.5v12.2l5.9,0.4v11.3h5.5v-17.3l-5.7-0.3
			v-12.2l-5.9-0.4v-11.7h-6.6v-12.5h-5.8V146l-6-0.3v-12.2l-5.7-0.4c-0.1-2-0.2-3.7-0.3-5.5l-6.4-0.3c-0.1-2-0.2-3.8-0.3-5.6
			l-5.5-0.3c-0.1-2-0.3-3.7-0.4-5.8h-5.6c0-2.2,0-4.4,0-6.6l0,0.1l6-0.1h5.7v6.6h6.6c0.1,2,0.2,3.8,0.3,5.9l5.6,0.3
			c0.1,1.8,0.1,3.6,0.3,5.6h5.9V140h5.7v5.8h6.6v11.7l5.9,0.3v6.4l5.9,0.3V182H473.9z M443.6,230.7c0-2,0-4,0-6v-18.2h-5.8v24.1
			L443.6,230.7l0.1,5.5h5.6v-5.6L443.6,230.7z M431.9,194.5v5.7h5.7v-11.4h-5.7V194.5z M383,145.8v-12.2h-6.3v12.2H383z
			 M419.4,242.9h5.5v-12h-5.5V242.9z M400.6,151.7v-5.6h-5.4v5.6H400.6z M400.7,127.7h-5.5v5.3h5.5V127.7z M370.8,127.2h5.6v-5.6
			h-5.6V127.2z M432.1,255.1v5.5h5.3v-5.5H432.1z"/>
		<path class="st1" d="M370.6,103.3H359c-0.1-2.1-0.2-3.8-0.3-6.1h-24.1c-0.1-1.9-0.2-3.7-0.3-5.7H322l-18.3-0.1h-5.9l-5.8,0.1
			h-67.3v5.8h-5.8l-12.4,0.1l-6-0.1l-5.9-0.1v-5.7l11.9-0.1h12.3v-6.6h-5.7l0.1,0.1v-5.8l-6.4-0.4V67.1h6.5v5.9h11.8v5.6h5.8v-5.6
			c0.7,0,1.5-0.1,2.2-0.1h104.9c0.8,0,1.6,0.1,2.6,0.2c0.1,2,0.3,3.8,0.4,5.8h11.6v5.8h12.5h0v6.7h5.9v5.9h12.5l0-0.1v5.9h5.9
			c0,1.9,0,3.9,0.1,5.8l-0.2,0.2h-5.8l-6.5-0.2c-0.1-1.9-0.2-3.7-0.3-5.7L370.6,103.3z M340.6,91.1h5.5V85h-5.5V91.1z"/>
		<path class="st1" d="M237.3,370.5h-24.1l-0.4-5.7h-6.3v-12.6h-11.8c-0.1-2.1-0.2-3.8-0.3-5.7l-5.6-0.4c-0.1-1.8-0.2-3.5-0.3-5.6
			h-6.4V328l-5.8-0.3l-0.3-5.6l-5.8-0.3v-24.3h-5.9v-18.4h-6.6l0.1,0c0-2,0-4-0.1-5.9v-30l-5.9-0.5v-12.4h-11.5v-5.9h11.4v-5.8h5.9
			v-6.6v-11.8h-0.1h6.4l0.5,5.7l5.6,0.4v5.7l0.1-0.1h-5.7v60.9l5.6,0.5v18l5.9,0.5v17.2l5.8,0.5v12.1l6.5,0.4
			c0.1,1.8,0.3,3.4,0.4,5.5l5.6,0.5v12l5.8,0.5c0.1,1.8,0.3,3.5,0.4,5.5h12.1l0.5,5.8l5.4,0.4c0.1,1.7,0.3,3.4,0.5,5.5l5.5,0.5
			c0.1,2,0.2,3.9,0.4,6.3h12.4L237.3,370.5z"/>
		<path class="st1" d="M334.6,121.5l5.8,0.1l6,0.1c0,1.9,0,3.9-0.1,5.8h-5.6v5.7l5.5,0.5c0.1,2.4,0.2,4.4,0.3,6.5l-0.3-0.1h-11.5
			c-0.1-2.3-0.3-4.2-0.4-6.4h-6.3c-0.1,1.9-0.2,3.9-0.3,6.1h-11.6v-23.8h-5.9v5.7h-6.5v5.8h-5.8v12.4l-5.8,0.5
			c-0.1,1.8-0.3,3.5-0.4,5.4h-5.7v-24h-6.6c0-2,0-3.9,0-5.9h12.3v-6.6H286c0-2-0.1-3.9-0.1-5.9l17.7-0.1h30.8v5.8h-6.5v6.7h0.1h-5.6
			v5.9L334.6,121.5L334.6,121.5z"/>
		<path class="st1" d="M401,206.4l-0.2,5.8h0.1h-5.8v24.1h5.6c0.2-1.9,0.3-3.6,0.5-5.6h12.2v30l-5.9,0.1c0-3.9,0-7.8,0-11.8v-5.7
			h-6.6v17.5H395v12.5c0,3.9,0,7.9,0,11.8l0,0h-6v0v-30l5.6-0.4v-5.5l-5.5-0.4v-36.4l-5.8-0.4v-11.4l-6.6-0.4v-5.6l6.3-0.3v-5.6
			l0.2-0.2l5.8,0.3v11.6h5.9l5.8-0.1l0.2,0.2C401,202.5,401,204.4,401,206.4z"/>
		<path class="st4" d="M151.8,218.8v5.8h-11.4v5.9h11.4v6l-5.8,0.1l-5.9-0.1h-6.4v6.6h6.3v6h-12.1v5.6l5.3,0.5v12h-5.4
			c-0.1-1.9-0.3-3.8-0.4-6h-5.5c-0.1,1.9-0.3,3.9-0.4,6.4h-5.6v-12.7h-6.6v-11.5l6.6-0.3v-6.6h11.5v-5.8h-11.7v-5.8l6-0.1h5.9v-5.9
			l-0.1,0.1l5.9-0.1h6.7v-6.6h5.9l0,0v6.7h5.9L151.8,218.8z"/>
		<path class="st1" d="M395.1,291.9l-0.2,5.7l-5.8,0.3v11.5h-5.8v6.5c-0.1,2-0.1,3.9-0.2,5.9h-6.6v11.9v-0.1h-5.7
			c-0.1,2.3-0.2,4.4-0.3,6.6l-5.6,0.3V352l-5.9,0.4c-0.1,1.8-0.2,3.5-0.3,5.6h-6.3c-0.1,2.4-0.2,4.4-0.3,6.6l-5.6,0.3
			c-0.1,1.8-0.2,3.6-0.3,5.7h-18.3v-5.8h12.4c0.1-2.3,0.2-4.2,0.4-6.4l5.7-0.5v-11.3l5.7-0.5c0.1-1.8,0.3-3.5,0.4-5.5l6.2-0.4
			c0.1-2,0.2-3.9,0.3-6.2l5.5-0.4c0.1-1.8,0.3-3.5,0.4-5.4l5.7-0.5v-11.3l5.8-0.5v-12.1l6.6-0.4v-18.2h6.1v0v6.5h5.8L395.1,291.9z"
			/>
		<path class="st3" d="M224.8,73.1H213v-5.9L338.1,67h8c0.1,1.9,0.2,3.7,0.3,5.8h18.3v6l0-0.1L352.3,79h-11.6
			c-0.1-2.1-0.3-3.9-0.4-5.8c-1-0.1-1.8-0.2-2.6-0.2H232.8c-0.7,0-1.5,0.1-2.2,0.1L224.8,73.1z"/>
		<path class="st3" d="M261.7,333.7v-5.9H255v-5.9h-5.9v-5.8L249,316h12.5l42.1,0.1l0,0c0,3.9,0,7.9,0,11.8h-5.9v5.8l0.1,0.1h-11.9
			v6.5l-6.6,0.2l-5.8-0.2v-6.6L261.7,333.7z"/>
		<path class="st3" d="M206.4,97.4l12.4-0.1v5.7h5.8V91.5h61.2c0,1.9,0,3.9,0,5.8h0h-6.6v6l-0.1,5.8h-5.8h0.1V97.5h-11.9v5.6
			l-6.6,0.1v-5.6h-5.6v5.6h5.7c0,2,0,4,0,6h-5.8v6.7h-5.9l-6-0.3V109h5.8V97.4h-12.2v5.8h6.4l0.1,5.8l-12.6,0.1h-11.5
			c-0.1-2-0.2-3.8-0.3-5.9h-6.5C206.4,101.3,206.4,99.3,206.4,97.4z"/>
		<path class="st4" d="M206.3,182.3v6.2h-11.6c-0.1,2.1-0.2,3.9-0.4,5.9l-5.6,0.3v5.5h-6.5v-11.4h6.2v-6.7h11.8
			c0.1-2.1,0.2-3.9,0.3-5.8h36.5c0.1,1.7,0.2,3.5,0.3,5.5l5.6,0.3v6.3h-12.2v-6.2H206.3z"/>
		<path class="st4" d="M103.2,236.6v-11.7H91.7v-5.8l5.3-0.5v-6.1l-5.7-0.5v-23.3h5.9l0,0v6h5.8v5.6l5.9,0.3v5.8h-5.4v5.8h5.4
			c0,2.2,0.1,4.4,0.1,6.6v17.8L103.2,236.6z"/>
		<path class="st4" d="M346.3,188.8v-6.6h-30v6.2h-12.5v-6.3h6.2l0.3-5.8h41.9v5.6h6.5v6.5l5.8,0.4v11.3H359
			c-0.1-1.7-0.2-3.4-0.3-5.4l-6.4-0.3v-5.6L346.3,188.8z"/>
		<path class="st1" d="M140,140h11.6l0.4-6.4l5.5-0.5l0.4-5.5l6.3-0.3v-11.4h5.8c0.1,1.8,0.3,3.5,0.5,5.5l5.4,0.4v5.5l-5.4,0.4
			l-0.4,5.4l-5.5,0.4c-0.1,2-0.2,4-0.3,6.2l-6.2,0.4c-0.1,1.8-0.3,3.6-0.5,5.5l-5.4,0.4l-0.4,5.7h-5.7l-5.8,0.1l-0.2-0.2
			C140,147.8,140,143.9,140,140L140,140z"/>
		<path class="st1" d="M352.2,133.4l6.5,0.1V146h11.8l0.2,5.8l-0.1,6h-24V152l5.6-0.4v-5.7c0-1.9,0-3.9-0.1-5.8L352.2,133.4z"/>
		<path class="st4" d="M254.9,218.9h-5.7v-6.5l-6.1-0.4v-5.7H255v6h12.4v30.8h-5.9v-24.2H254.9z"/>
		<path class="st1" d="M164.2,176.1v12.3l5.8,0.5v5.7h-12.4l0.1,0.1v-5.7h-5.8v5.6l-5.8,0.2l-0.2-0.2c0.1-4.1,0.1-8.3,0.1-12.4v0.1
			h5.7c0.1-2.2,0.2-4.1,0.3-6L164.2,176.1z"/>
		<path class="st4" d="M370.6,157.7l0.1-6h12.3v12.6h6v-0.1c0,2,0,4,0,6s0,3.9,0,5.9l0,0h-12.4v-5.7l-5.9-0.3v-5.7l5.5-0.3v-6.4
			L370.6,157.7L370.6,157.7z"/>
		<path class="st4" d="M97.3,188.7v-12.4l5.7-0.3l0.3-5.6h5.6v-6h6.8l0,0c0,2,0.1,4,0.1,6v11.6l-6.6,0.3v6.3l-5.9,0.3L97.3,188.7
			L97.3,188.7z"/>
		<path class="st4" d="M303.6,316.1l-42.1-0.1c0-2.2,0-4.4,0.1-6.6l0,0l36.2-0.1l5.8,0.2C303.5,311.8,303.6,313.9,303.6,316.1z"/>
		<path class="st1" d="M254.9,218.9h6.6v24.2h5.9v5.7l-5.5,0.4c-0.1,1.7-0.3,3.5-0.4,5.5h-6.5L254.9,218.9z"/>
		<path class="st1" d="M291.8,285.2v6.4l-5.7,0.4c-0.1,1.7-0.3,3.5-0.4,5.5h-12.1l-0.4-5.4l-5.7-0.5v-6.4H291.8z"/>
		<path class="st4" d="M297.7,346.3c0,2,0,3.9-0.1,5.9h-35.9l-0.1-5.8l6-0.1H286L297.7,346.3L297.7,346.3z"/>
		<path class="st4" d="M291.8,285.2h-24.3v-5.9c0-1.9,0-3.8,0-5.7v-0.3l5.8,0.3v5.5H286v-5.6l5.8-0.3v0.3c0,1.9,0,3.8,0,5.7
			S291.8,283.2,291.8,285.2L291.8,285.2z"/>
		<path class="st1" d="M261.7,352.1h35.9v5.7h-35.9V352.1z"/>
		<path class="st1" d="M297.8,309.4l-36.2,0.1v-5.7h36.2V309.4z"/>
		<path class="st4" d="M224.7,109.1l12.6-0.1l0,0v6.4l6,0.3v11.5h-5.8l-0.3-5.7h-6.5l0,0v-5.9h-5.9l0,0
			C224.7,113.5,224.7,111.3,224.7,109.1z"/>
		<path class="st1" d="M303.6,212.1l-6,0.1l0,0.1v-11.6l5.6-0.5c0.1-1.7,0.3-3.4,0.5-5.6h12.4c0,1.9-0.1,3.8-0.2,5.7l-5.8,0.3v5.7
			v-0.1h-6.6L303.6,212.1z"/>
		<path class="st1" d="M170.2,151.8v-11.6l5.7-0.5c0.1-2,0.2-4,0.4-6.2h5.5v18.2L170.2,151.8L170.2,151.8z"/>
		<path class="st1" d="M261.5,103.1v-5.6h12V109h-6v6.7l-5.9-0.2C261.5,111.4,261.5,107.3,261.5,103.1z"/>
		<path class="st4" d="M140.1,182.1v6.4h-6.6v-6.3l-5.8-0.3v-5.6l5.5-0.3l0.4-5.9h6.5C140,174.1,140.1,178.1,140.1,182.1z"/>
		<path class="st4" d="M103.2,145.9v-12.4l5.7-0.3c0.1-1.8,0.2-3.5,0.3-5.8h6.5c0,2,0.1,4,0.1,6v6.5h-6.5l-0.4,6L103.2,145.9
			L103.2,145.9z"/>
		<path class="st1" d="M249.2,279.3v-5.7l5.6-0.5c0.1-1.8,0.3-3.5,0.4-5.4h12.4v5.5v0.3h-5.9v5.7l0,0l-6.6,0.1L249.2,279.3z"/>
		<path class="st4" d="M115.6,218.8v-6.4l5.9-0.3v-11.4h6v18.2l0.1-0.1l-5.9,0.1L115.6,218.8z"/>
		<path class="st4" d="M218.9,212.3v6.4H213v-12.3h-6.7l0,0v-5.9h6.6l6,0.1l-0.1,5.8L218.9,212.3z"/>
		<path class="st1" d="M145.9,212.2H140h0.1c0-2,0-3.9,0-5.9v-5.7l-6.3-0.4v-5.9h12.1l0.2,0.2C146,200.5,146,206.4,145.9,212.2z"/>
		<path class="st1" d="M291.8,273.2v-5.5h11.5c0.2,1.8,0.3,3.6,0.5,5.5l6.3,0.4v5.8h-6.6l-5.9-0.1l0,0v-5.7h-5.9L291.8,273.2z"/>
		<path class="st4" d="M91.4,164.4V152l5.7-0.3c0.1-1.8,0.2-3.6,0.3-5.7h5.8l-0.1-0.1v11.6l-5.8,0.3v6.5L91.4,164.4L91.4,164.4z"/>
		<path class="st3" d="M322,194.6h18.3l0.1,5.7c0,2,0,4-0.1,6h-5.9l0,0v-5.8H328h-5.9C322,198.6,322,196.6,322,194.6z"/>
		<path class="st1" d="M255,206.3h-11.9h0.1v-5.7l-5.8-0.3c-0.1-1.9-0.1-3.8-0.2-5.7h11.6c0.1,1.9,0.3,3.6,0.5,5.6l5.7,0.4
			L255,206.3z"/>
		<path class="st4" d="M145.9,212.2c0-5.9,0-11.7,0.1-17.6l5.8-0.2l5.8,0.1l-0.1-0.1c0,2,0,3.9,0,5.9h0.1h-5.9v11.9l0,0L145.9,212.2
			L145.9,212.2z"/>
		<path class="st1" d="M376.6,176.1h12.4c0,1.9,0,3.9-0.1,5.8l-5.7,0.3v6.4l-0.2,0.2l-6.4-0.3V176.1z"/>
		<path class="st4" d="M84.8,182.1l-0.1-6v-11.7h6.7l-0.1-0.1v17.8L84.8,182.1z"/>
		<path class="st1" d="M267.5,346.2l-6,0.1h0.1v-5.9c0-2.2,0.1-4.5,0.1-6.7h11.8v6.6l-5.9,0.3L267.5,346.2z"/>
		<path class="st4" d="M164.2,176.1h-12.3c0-1.9,0-3.9,0-5.8l5.8-0.3v-5.7v0.1h6.6L164.2,176.1z"/>
		<path class="st4" d="M267.4,115.7V109h6h-0.1v6.7h5.9l0,0c0,2,0,4,0,5.9h0l-6,0.1h-5.9L267.4,115.7z"/>
		<path class="st1" d="M218.8,224.8l18.5-0.1l0,0v5.8h-18.5V224.8z"/>
		<path class="st1" d="M334.6,230.5h-18.5v-5.8h0l18.5,0.1L334.6,230.5z"/>
		<path class="st3" d="M218.9,200.5l-6-0.1l0.1-5.8h17.6c0,2,0,3.9,0,5.9h-5.9L218.9,200.5z"/>
		<path class="st4" d="M194.5,133.3h-5.6v-11.7h11.6l-0.1-0.1c0,2-0.1,3.9-0.1,5.9h-5.9V133.3z"/>
		<path class="st4" d="M206.4,97.4c0,2,0,3.9,0,5.8v5.7h-11.7v-5.5l5.7-0.3v-5.7L206.4,97.4z"/>
		<path class="st1" d="M261.6,309.5c0,2.2,0,4.4-0.1,6.6H249v-6.6L261.6,309.5z"/>
		<path class="st4" d="M261.5,103.1c0,4.2,0,8.3,0,12.5h-6.6v-6.5c0-2,0-4,0-6l0,0L261.5,103.1z"/>
		<path class="st1" d="M303.6,316.1c0-2.2,0-4.4-0.1-6.5h12.6v6.6l-5.8,0.1L303.6,316.1L303.6,316.1z"/>
		<path class="st1" d="M237.3,218.8l-6.7-0.1c0-2.2,0-4.4,0-6.5c0-1.9-0.1-3.9-0.1-5.8l0.2-0.2l6.5-0.1v0.3
			C237.2,210.6,237.2,214.7,237.3,218.8L237.3,218.8z"/>
		<path class="st4" d="M303.6,316.1l6.7,0.1c0,2,0,3.9,0,5.9v5.9h-6.6C303.6,324,303.6,320,303.6,316.1z"/>
		<path class="st1" d="M285.8,340.3v-6.5h11.9v6.6l0-0.1l-11.7,0.1L285.8,340.3z"/>
		<path class="st1" d="M286,273.5v5.5h-12.7v-5.6L286,273.5z"/>
		<path class="st1" d="M267.4,212.3H255v-6h12.4L267.4,212.3z"/>
		<path class="st4" d="M334.5,206.3h5.9v12.2h-6v-6.3L334.5,206.3z"/>
		<path class="st3" d="M115.6,218.8l6,0.1v5.9l-6,0.1h-6.5v-6L115.6,218.8z"/>
		<path class="st3" d="M407.6,97.3V85h5.6v12.3L407.6,97.3L407.6,97.3z"/>
		<path class="st4" d="M310.2,121.6v-5.7h5.9v11.6l-5.9-0.1L310.2,121.6z"/>
		<path class="st4" d="M224.8,121.5h-11.6v-5.8h11.6l0,0V121.5L224.8,121.5z"/>
		<path class="st3" d="M170.3,84.8v-5.7h11.5v5.7L170.3,84.8L170.3,84.8z"/>
		<path class="st1" d="M194.3,303.4h-5.5v-11.3h5.5V303.4z"/>
		<path class="st1" d="M364.5,303.5h-5.3V292h5.3V303.5z"/>
		<path class="st4" d="M249.1,316.1v5.8l-6,0.2h-5.6v-6H249.1z"/>
		<path class="st1" d="M243.1,322.1l6-0.2h5.9v5.9h-11.6C243.3,325.8,243.2,324,243.1,322.1z"/>
		<path class="st1" d="M140.1,182.1c0-4-0.1-8-0.1-11.9l-0.1,0.1h5.9c0,4,0,7.9,0.1,11.9V182L140.1,182.1z"/>
		<path class="st4" d="M127.5,157.6h-5.9l0,0c0-2-0.1-4-0.1-6V146h6v-0.1v11.8L127.5,157.6z"/>
		<path class="st3" d="M188.9,73.1h11.3v5.5h-11.3V73.1z"/>
		<path class="st3" d="M376.5,84.8h6.6v6.6h0.1h-6.5c0-2.2,0-4.4,0-6.6L376.5,84.8z"/>
		<path class="st1" d="M133.4,140v-6.4h6.6v6.4h0.1H133.4L133.4,140z"/>
		<path class="st3" d="M212.9,91.3h-6.6v-6.5h6.6v-0.1C212.9,87,212.9,89.1,212.9,91.3z"/>
		<path class="st1" d="M164.4,91.3l-6.8,0.1h0.1v-6.6h6.7V91.3z"/>
		<path class="st4" d="M352.2,212.2h6.4v6.6h-6.4l0,0.1L352.2,212.2L352.2,212.2z"/>
		<path class="st1" d="M140,212.2v6.6h-6.7c0.1-2.2,0.1-4.4,0.2-6.6L140,212.2L140,212.2z"/>
		<path class="st1" d="M164.2,164.4h-6.6c0-2.2,0-4.5,0-6.7l-0.1,0.1h6.7C164.3,159.9,164.3,162.1,164.2,164.4z"/>
		<path class="st3" d="M255,279.4l6.6-0.1l-0.1,5.8L255,285C255,283.1,255,281.3,255,279.4z"/>
		<path class="st4" d="M303.5,279.4h6.6v5.6h-6.6C303.5,283.1,303.5,281.3,303.5,279.4z"/>
		<path class="st3" d="M261.6,340.4v5.9h-6.4v-5.9H261.6z"/>
		<path class="st3" d="M164.4,91.3v-6.5h5.9l-0.1-0.1v6.6L164.4,91.3z"/>
		<path class="st1" d="M182,103.2v-5.9h6.7l-0.1-0.1c0,2-0.1,4-0.1,6H182z"/>
		<path class="st3" d="M400.9,97.4h6.7l-0.1-0.1c0,2,0,4,0,6l0.1-0.1l-6.6-0.1C400.9,101.1,400.9,99.3,400.9,97.4z"/>
		<path class="st1" d="M133.4,109.1v-5.9h6.6l-0.1-0.1v5.9L133.4,109.1L133.4,109.1z"/>
		<path class="st4" d="M182,103.2l6.5,0.1v5.8h-6.5L182,103.2L182,103.2z"/>
		<path class="st1" d="M127.5,115.7V109h-0.1h6h-0.1v6.7L127.5,115.7L127.5,115.7z"/>
		<path class="st4" d="M279.3,121.6h6.6v5.9l-6.6-0.1L279.3,121.6L279.3,121.6z"/>
		<path class="st3" d="M310.2,121.6v5.8h-6.5v-5.8L310.2,121.6z"/>
		<path class="st4" d="M449.4,140h-5.7v-6.8h5.7V140z"/>
		<path class="st1" d="M140.1,157.6l-6.7,0.1l0.1,0.1v-6h6.5l0.2,0.2L140.1,157.6z"/>
		<path class="st4" d="M164.3,157.7h-6.7v-5.8h6.6L164.3,157.7L164.3,157.7z"/>
		<path class="st4" d="M115.7,164.3c0-2.2,0.1-4.4,0.1-6.6h5.8l0,0c0,2.2,0,4.4-0.1,6.6H115.7z"/>
		<path class="st1" d="M133.4,157.7v6.4h-5.9v-6.5v0.1h6L133.4,157.7z"/>
		<path class="st4" d="M157.7,157.6c0,2.2,0,4.5,0,6.7v-0.1h-5.8v-6.6L157.7,157.6z"/>
		<path class="st1" d="M370.6,157.7h5.6v6.4l-5.5,0.3C370.7,162.1,370.7,159.9,370.6,157.7z"/>
		<path class="st1" d="M213,194.6l-0.1,5.8h-6.6v-5.8L213,194.6z"/>
		<path class="st4" d="M230.6,200.5c0-2,0-3.9,0-5.9h6.6c0.1,1.9,0.1,3.8,0.2,5.7l-0.2,0.2L230.6,200.5L230.6,200.5z"/>
		<path class="st4" d="M140,212.2l-6.6-0.1v-5.8h6.6C140,208.3,140,210.3,140,212.2z"/>
		<path class="st4" d="M303.6,212.1v-5.8h6.6v5.8H303.6z"/>
		<path class="st3" d="M334.5,206.3v5.9l-6.6-0.1l0.1,0.1c0-2,0-3.9,0-5.9l0,0.1L334.5,206.3L334.5,206.3z"/>
		<path class="st1" d="M170.2,212.2h5.7v6.4h-5.6L170.2,212.2L170.2,212.2z"/>
		<path class="st4" d="M200.4,212.2v6.7v-0.1h-5.7v-6.6L200.4,212.2L200.4,212.2z"/>
		<path class="st13" d="M230.6,212.2c0,2.2,0,4.4,0,6.5h-5.8v-6.6l-0.1,0.1L230.6,212.2z"/>
		<path class="st1" d="M297.7,212.2v6.4H292v-6.3L297.7,212.2L297.7,212.2z"/>
		<path class="st1" d="M322.1,218.8l-6,0.1l0,0.1c0-2.2,0-4.5,0.1-6.7l5.8,0.1L322.1,218.8z"/>
		<path class="st13" d="M322.1,218.8v-6.5h0h6l-0.1-0.1v6.6L322.1,218.8z"/>
		<path class="st1" d="M121.6,157.7h-5.8V152l5.7-0.3C121.5,153.7,121.6,155.7,121.6,157.7z"/>
		<path class="st3" d="M352.1,140.1c0,1.9,0,3.9,0.1,5.8h-6V140l0.3,0.1L352.1,140.1z"/>
		<path class="st1" d="M127.5,146v-6h5.9h-0.1v5.9L127.5,146L127.5,146z"/>
		<path class="st1" d="M194.5,133.3v-5.9h5.9v5.9H194.5z"/>
		<path class="st1" d="M115.8,133.4c0-2,0-4-0.1-6v0.1l5.8-0.1l0.2,0.2c-0.1,1.8-0.2,3.6-0.3,5.8L115.8,133.4z"/>
		<path class="st4" d="M218.8,224.8v5.7h-5.6v-5.7H218.8z"/>
		<path class="st1" d="M170.4,230.4V225h5.4v5.4L170.4,230.4z"/>
		<path class="st1" d="M279.3,121.5v5.8h-5.8c-0.1-2-0.2-3.8-0.3-5.7L279.3,121.5z"/>
		<path class="st4" d="M230.6,121.5v5.7h-5.8v-5.7l0,0H230.6L230.6,121.5z"/>
		<path class="st1" d="M127.4,121.5v5.7l-5.7,0.3l-0.2-0.2c0-1.9,0.1-3.9,0.1-5.8l0,0H127.4z"/>
		<path class="st4" d="M121.6,121.5c0,1.9-0.1,3.9-0.1,5.8l-5.8,0.1v-6L121.6,121.5z"/>
		<path class="st14" d="M352.2,218.8v5.7h-5.6v-5.6L352.2,218.8L352.2,218.8z"/>
		<path class="st4" d="M200.5,121.6v-5.7h5.6v5.6L200.5,121.6L200.5,121.6z"/>
		<path class="st4" d="M127.4,121.5h-5.9v-5.8h6l0,0C127.4,117.6,127.4,119.6,127.4,121.5z"/>
		<path class="st1" d="M419.3,108.9l-6,0.1c0-2,0-3.9,0-5.8h5.8C419.2,105.2,419.2,107.1,419.3,108.9z"/>
		<path class="st3" d="M413.3,103.2c0,2,0,3.9,0,5.8l0-0.1h-5.9v-5.9l-0.1,0.1L413.3,103.2z"/>
		<path class="st1" d="M316.1,218.8v5.9h0h-5.7v-5.8h5.7L316.1,218.8z"/>
		<path class="st1" d="M237.3,218.9h5.7v5.8h-5.7l0,0c0-2,0-4,0-5.9L237.3,218.9z"/>
		<path class="st14" d="M200.4,218.9h5.7v5.6h-5.6L200.4,218.9L200.4,218.9z"/>
		<path class="st1" d="M182,103.1l0.1,5.8h-5.7v-5.8H182z"/>
		<path class="st4" d="M127.5,109h-5.8v-5.8h5.7c0,1.9,0,3.9,0,5.8L127.5,109z"/>
		<path class="st4" d="M400.9,97.4c0,1.9,0,3.8,0,5.7H395c0-2,0-3.9-0.1-5.8v0.1L400.9,97.4z"/>
		<path class="st1" d="M140,103.2v-5.7h5.7v5.6L140,103.2L140,103.2z"/>
		<path class="st1" d="M127.4,103.2h-5.7v-5.7h5.7V103.2z"/>
		<path class="st3" d="M389.1,91.4h5.8v5.8v-0.1H389l0,0C389.1,95.3,389.1,93.4,389.1,91.4z"/>
		<path class="st4" d="M352.3,212.2h-6v-5.9h5.9C352.1,208.3,352.2,210.2,352.3,212.2L352.3,212.2z"/>
		<path class="st1" d="M389.1,91.4c0,1.9,0,3.9,0,5.8h-5.9l0,0.1c0-2,0-4,0-6h-0.1L389.1,91.4z"/>
		<path class="st3" d="M194.5,91.4v5.7h-5.8l0.1,0.1v-5.8H194.5z"/>
		<path class="st4" d="M157.6,91.4V97H152v-5.6L157.6,91.4L157.6,91.4z"/>
		<path class="st3" d="M425.1,78.9v5.7h-5.6v-5.6L425.1,78.9L425.1,78.9z"/>
		<path class="st3" d="M370.7,79h5.8v5.8l0.1-0.1l-6,0.1l0.1-0.1C370.7,82.8,370.7,80.9,370.7,79z"/>
		<path class="st4" d="M370.7,79c0,1.9,0,3.8,0,5.7h-5.9h0c0-2,0-4,0-5.9l0,0.1L370.7,79z"/>
		<path class="st4" d="M322,212.2l-5.8-0.1c-0.1-1.9-0.1-3.8-0.2-5.7l0.2-0.3l5.6,0.1l0.3,0.1C322.1,208.3,322.1,210.3,322,212.2
			L322,212.2z"/>
		<path class="st3" d="M218.9,212.3v-6l5.9,0.1v-0.1c0,2,0,3.9,0,5.9l0.1-0.1L218.9,212.3z"/>
		<path class="st4" d="M206.3,206.3v5.9h-5.9l0.1,0.1c0-2,0.1-3.9,0.1-5.9L206.3,206.3L206.3,206.3z"/>
		<path class="st3" d="M108.9,212.2h-5.4v-5.8h5.4V212.2z"/>
		<path class="st1" d="M352.1,206.4h-5.9h0.1c0-2,0-4,0-6h5.8L352.1,206.4z"/>
		<path class="st3" d="M310.2,322c0-2,0-3.9,0-5.9l5.8-0.1l0,0c0,1.9,0,3.9,0,5.8L310.2,322z"/>
		<path class="st1" d="M316,321.9c0-1.9,0-3.9,0-5.8h5.7v5.8H316z"/>
		<path class="st4" d="M255,279.4c0,1.9,0,3.8,0,5.7h-5.8v-5.7L255,279.4z"/>
		<path class="st4" d="M346.3,200.4c0,2,0,4,0,6h-5.9c0-2,0-4,0.1-6H346.3L346.3,200.4z"/>
		<path class="st4" d="M297.7,333.8v-5.8h6v5.8H297.7z"/>
		<path class="st4" d="M310.2,206.4v-5.7l5.8-0.3l0.2,0.2c0,1.9,0,3.7,0,5.6l-0.2,0.3L310.2,206.4z"/>
		<path class="st4" d="M237.4,200.3l5.8,0.3v5.8l-5.9,0.1v-0.3c0-1.9-0.1-3.7-0.1-5.6L237.4,200.3z"/>
		<path class="st1" d="M261.5,285.1l0.1-5.8l0,0h5.9v5.9L261.5,285.1z"/>
		<path class="st1" d="M206.3,206.3h-5.8v-6h5.8C206.3,202.4,206.3,204.4,206.3,206.3z"/>
		<path class="st1" d="M291.8,285.2c0-2,0-3.9,0-5.9h5.9l0,0l0.1,5.8L291.8,285.2z"/>
		<path class="st4" d="M78.9,206.4v-6h5.7l0.1,6h0.1H78.9z"/>
		<path class="st3" d="M297.8,285.1l-0.1-5.8l5.9,0.1c0,1.9,0,3.8,0,5.7L297.8,285.1z"/>
		<path class="st4" d="M297.7,340.5h5.7v5.8h-5.7l0.1,0.1L297.7,340.5L297.7,340.5z"/>
		<path class="st1" d="M346.3,200.4l-5.8-0.1l-0.1-5.7h6L346.3,200.4z"/>
		<path class="st4" d="M322,194.6c0,2,0,3.9,0,5.9v-0.1l-5.8,0.1l-0.2-0.2c0-1.9,0.1-3.8,0.2-5.7L322,194.6z"/>
		<path class="st1" d="M121.3,194.4H116v-5.5h5.3V194.4z"/>
		<path class="st1" d="M97.3,188.6l6,0.1c-0.1,2-0.1,3.9-0.2,5.9h-5.8V188.6z"/>
		<path class="st1" d="M151.9,164.3h5.8v5.7l-5.8,0.3V164.3z"/>
		<path class="st4" d="M145.8,170.1h-5.9v-5.6h5.9V170.1z"/>
		<path class="st1" d="M115.7,164.3h5.8v5.7l-5.7,0.3C115.8,168.3,115.7,166.3,115.7,164.3z"/>
		<path class="st1" d="M164.3,157.7l-0.1-5.8l6-0.1l-0.1-0.1v5.9L164.3,157.7z"/>
		<path class="st4" d="M334.6,230.5v-5.7h5.6v5.7H334.6z"/>
		<path class="st4" d="M140.1,157.6l0.1-5.7l5.8-0.1v5.8H140.1z"/>
		<path class="st4" d="M389.1,309.5v-11.5l5.8-0.3v5.7h12.3l0.5-5.7h5.7v5.6h5.6v-5.6h-5.7v-12.3H425v12.2h12.5v6h-5.8v18.2
			l-6.6,0.4v11.4l-6,0.4v6.2l-5.5,0.4v11.7h5.7v5.8l-0.1,6.5l-5.8,0.1h-18.3c-0.1-2.2-0.3-4.1-0.4-6.3h-5.5c-0.1,2-0.3,3.9-0.4,6.1
			h-5.5c-0.1-1.9-0.2-3.8-0.4-6.1l-6.3-0.4c-0.1-2-0.2-3.8-0.3-5.6l0.2-0.2h6.6h11.4v-11.5H389v5.6l-5.8,0.1h-6.6l-0.2-0.2
			c0-4.2,0-8.3,0.1-12.5v0.1h6.5l0.5-5.9h5.6v5.6h5.7v-5.6h-5.7v-6h-6c0-2,0.1-3.9,0.2-5.9h5.8L389.1,309.5z M407.3,316.4h-6.3v5.3
			h6.3V316.4z"/>
		<path class="st2" d="M109.1,224.8h6.5c0,1.8,0,3.6,0,5.8h11.7v5.8h-11.5v6.6l-6.6,0.3v11.5h6.6v12.7c-0.1,3.9-0.2,7.8-0.2,11.7
			H109v-18.4h-5.8v0.1c-0.1-3.9-0.1-7.8-0.1-11.7c0-2,0-4,0-6c0.1-2.2,0.1-4.3,0.2-6.5h5.8L109.1,224.8z"/>
		<path class="st1" d="M109,267.4v11.8h6.6c0,4.2,0.1,8.4,0.1,12.5c0,2-0.1,4-0.1,6h-6.4v-12.4l-6-0.3v-11.5l-5.8-0.3
			c-0.1-1.8-0.2-3.6-0.3-5.6l-5.4-0.3v-6.5h11.5v-0.1v6.6H109z"/>
		<path class="st2" d="M140.1,328v5.7l5.6,0.3v12.2H140v-5.6h-6.4v-12.5l-5.9-0.3v-5.7H140C140,324.1,140.1,326,140.1,328z"/>
		<path class="st1" d="M157.7,297.9l-5.8-0.4v-12.2l-6-0.3v-17.4l0.2-0.2l5.7,0.1c0,2,0.1,3.9,0.1,5.9v5.9h5.9l-0.1,0
			c0,6.1,0,12.2,0.1,18.3L157.7,297.9z"/>
		<path class="st1" d="M140,236.5l5.9,0.1c0,4.2,0,8.3,0,12.4v11.8l0.1,6.5l-0.2,0.2h-5.9v-24.5C140,240.9,140,238.7,140,236.5z"/>
		<path class="st4" d="M164.3,297.6h5.9v12h-12.5v-11.7l0.1-0.3L164.3,297.6z"/>
		<path class="st2" d="M78.9,206.4l5.9-0.1v24.1h-5.9V206.4z"/>
		<path class="st2" d="M115.6,297.8c0-2,0.1-4,0.1-6l5.8,0.1c0.1,2,0.1,3.9,0.2,5.9v5.7l5.6,0.3v5.7h-11.6v0
			C115.7,305.6,115.6,301.7,115.6,297.8z"/>
		<path class="st4" d="M121.8,284.9v-11.3h11.3v11.3L121.8,284.9z"/>
		<path class="st1" d="M115.7,309.4v6.4h-12.3v-6.4L115.7,309.4L115.7,309.4z"/>
		<path class="st4" d="M188.6,358.2h11.6v6.5h-11.6V358.2z"/>
		<path class="st4" d="M121.7,297.7c-0.1-2-0.1-3.9-0.2-5.9h11.6v5.9H121.7z"/>
		<path class="st1" d="M188.6,358.2v6.5h-6.4v-6.5H188.6z"/>
		<path class="st1" d="M157.6,346.4h6.6v5.9v0l-6.6,0L157.6,346.4L157.6,346.4z"/>
		<path class="st2" d="M73,243.2v-6.4h5.6v6.4L73,243.2L73,243.2z"/>
		<path class="st1" d="M91.5,285v-5.5H97v5.5H91.5z"/>
		<path class="st1" d="M103.1,243.1c0,2,0,4,0,6h-5.6v-6H103.1z"/>
		<path class="st1" d="M140.1,328c0-2-0.1-3.9-0.1-5.9h5.7v5.9H140.1z"/>
		<path class="st1" d="M91.5,333.9v-6h5.8v6h0.1H91.5z"/>
		<path class="st1" d="M151.9,346.2v-5.6h5.8v5.7l0.1,0L151.9,346.2z"/>
		<path class="st4" d="M151.9,346.2l5.8,0.1l0.1,5.8h-5.9V346.2z"/>
		<path class="st4" d="M376.4,352.3l-5.4-0.3v-5.6l5.4-0.3l0.2,0.2v5.7L376.4,352.3z"/>
		<path class="st1" d="M170.1,358h-5.8v-5.8v0l5.8,0.1L170.1,358z"/>
		<path class="st4" d="M170.1,358v-5.7h5.7v5.7H170.1z"/>
		<path class="st4" d="M395,376.6v5.7h-6v-5.7H395z"/>
		<path class="st1" d="M492.3,436.8h-5.8c-0.1-1.9-0.2-3.8-0.3-5.7h5.7C492.1,433.1,492.2,435,492.3,436.8z"/>
		<path class="st3" d="M480.4,260.8v12.4h-6.5v-12.4l-0.1,0.1L480.4,260.8L480.4,260.8z"/>
		<path class="st1" d="M456.2,322v-6l5.9,0.1c0,1.9,0.1,3.9,0.1,5.8h-0.3L456.2,322z"/>
		<path class="st3" d="M462.2,322c0-1.9-0.1-3.9-0.1-5.8h5.7v5.8H462.2z"/>
		<path class="st4" d="M462.2,322h5.6l0.1,6h-6v0.1l-0.2-5.9L462.2,322z"/>
		<path class="st3" d="M480.5,260.9v-5.7h5.6v5.6L480.5,260.9L480.5,260.9z"/>
		<path class="st4" d="M443.6,394.9h-5.8l-0.1-6v0.1h6C443.6,391,443.6,393,443.6,394.9z"/>
		<path class="st2" d="M200.4,558.6c0,2.2,0,4.3,0,6.4h-24.2v-6.5l5.9-0.2L200.4,558.6z"/>
		<path class="st1" d="M182.1,558.4l-5.9,0.2c0-2,0-3.9,0-5.9h5.9L182.1,558.4z"/>
		<path class="st4" d="M121.7,461.3v-6h11.4l0.5,5.7l6.2,0.5c0.1,2,0.3,3.9,0.4,6.2h11.3c0.2,2.1,0.4,3.9,0.6,6h54
			c0.2,2,0.3,3.7,0.5,5.9h36.3c0.2,2.2,0.4,3.8,0.5,5.9H279v6.6l-5.3,0.5c-0.2,1.8-0.3,3.5-0.5,5.6h-72.8v-5.9h-24l-0.4-6.2h-5.4
			V498l5.7,0.3c0,1.9,0,3.9,0,5.8h-18.3v-11.5L152,492c-0.1-2-0.3-3.9-0.4-6.4H140l0,0v-5.7l-6.8-0.4v-11.3l-5.6-0.5
			c-0.2-2.2-0.3-4.2-0.4-6.3L121.7,461.3z"/>
		<path class="st4" d="M140,492.1h-6.8v-6.5h6.7l0,0C140,487.8,140,489.9,140,492.1z"/>
		<path class="st4" d="M261.5,534.3h11.9v6.5h-11.9V534.3z"/>
		<path class="st4" d="M243.1,528.4h11.6c0.1,2,0.2,3.8,0.3,5.7l-11.9,0.1C243.1,532.3,243.1,530.3,243.1,528.4z"/>
		<path class="st4" d="M224.8,522.4h12.3l0.3,5.8l-12.6,0.1L224.8,522.4z"/>
		<path class="st4" d="M213,516.5h11.8v5.9H213L213,516.5z"/>
		<path class="st4" d="M237.2,461.4l92.4-0.1h4.7l0.5-5.8h23.8l0.5-5.9h17.1c0.2-2,0.3-3.7,0.5-5.9h12c0.2-2.4,0.3-4.3,0.5-6.6h11.3
			c0.2-2,0.3-3.7,0.5-5.9h12c0.2-2.2,0.4-3.8,0.5-5.7l5.4-0.5c0.1-1.7,0.3-3.4,0.5-5.6h5.7v0v11.5l-5.7,0.5v12l-5.8,0.6
			c-0.2,1.8-0.3,3.5-0.5,5.4l-5.4,0.5l-0.5,5.5l-6.2,0.4c-0.2,1.9-0.3,3.5-0.5,5.4l-5.4,0.5c-0.1,2-0.3,3.9-0.4,6.4h-18.3v-12.3
			h-5.7c-0.2,2-0.3,3.6-0.5,5.6h-17.9c-0.2,2.4-0.3,4.4-0.5,6.7h-29.7c-0.2,2-0.3,3.7-0.5,5.5h-35.7c-0.2-2-0.3-3.6-0.4-5.4h-6.2
			c-0.2,2-0.3,3.7-0.5,5.4h-5.5l-0.5-5.6h-35.9V461.4z"/>
		<path class="st4" d="M389.1,492.1h-54.3v-6.5h29.6c0.2-2.2,0.4-3.8,0.5-5.9h29.6c0.2-2,0.4-3.7,0.5-5.7l5.4-0.5
			c0.2-1.8,0.3-3.5,0.5-5.5h12c0.1-2.3,0.3-4.2,0.4-6.5l5.5-0.5c0.2-1.8,0.3-3.5,0.5-5.5h12c0.2-2,0.3-3.7,0.5-5.9h11.3
			c0.2-2.2,0.4-3.8,0.5-5.8h5.4v23.8l-5.5,0.5v11.2l-5.7,0.5c-0.2,1.7-0.3,3.4-0.5,5.7h-12.3v-5.7l6.4-0.4V474h-12.1
			c-0.2,2-0.3,3.6-0.5,5.4l-5.4,0.5c-0.2,2.1-0.3,3.7-0.5,5.7h-23.9V492.1z"/>
		<path class="st2" d="M303.6,425.1h-5.8v11.7l-5.9,0.3v6.3h-24.4v-12.3h-6v-11.7h-6.4v-12.5l-5.9-0.3v-5.6h54.3L303.6,425.1
			L303.6,425.1z"/>
		<path class="st2" d="M303.5,425.2h6.5V407h48.6c0.1,1.6,0.2,3.4,0.3,5.5h11.4v6.6l-5.6,0.3V431h-5.9v5.8h-55.3L303.5,425.2
			L303.5,425.2z"/>
		<path class="st2" d="M206.3,412.8V407H243c0.1,1.6,0.2,3.4,0.3,5.5l5.7,0.3V425l5.8,0.3v11.5h-48.4v-5.7h-5.9v-5.9h-5.8v-12.3
			H206.3z"/>
		<path class="st1" d="M237.2,461.4v6.5h35.9l0.5,5.6h5.4c0.1-1.6,0.3-3.4,0.5-5.4h6.2c0.1,1.7,0.3,3.4,0.4,5.4h35.7
			c0.1-1.8,0.3-3.4,0.5-5.5H352c0.2-2.4,0.3-4.4,0.5-6.7h17.9c0.2-2,0.3-3.7,0.5-5.6h5.7v12.2h-17.7v5.9h-31v5.9l0,0l-42.1,0.1
			h-18.1c-0.1-2.1-0.2-3.8-0.3-6.1h-36.6c-0.1-1.9-0.2-3.7-0.3-5.7h-5.8l-24.2-0.2v-6.6H213L237.2,461.4z"/>
		<path class="st4" d="M213,461.2h-12.5v6.6h-18.3l-0.4-6.4h-29.7c-0.2-2.1-0.4-3.8-0.5-5.8l-5.4-0.5c-0.2-1.7-0.3-3.3-0.5-5.4
			l-5.6-0.5v-12l-6.7-0.4V431h-0.1h12.3c0.2,2,0.3,3.7,0.5,5.7h11.3c0.2,2.3,0.3,4.2,0.5,6.6h17.9c0.2,2.2,0.4,3.9,0.5,5.8l5.4,0.5
			c0.2,1.7,0.3,3.4,0.5,5.5H213V461.2z"/>
		<path class="st2" d="M437.7,389l0.1,6v5.7l-6,0.3v5.8l0.1-0.1l-6.6,0.1h-6v5.7h-5.7v6.8h-18.6v5.7h-11.6c-0.1,2.1-0.2,3.9-0.3,5.8
			h-12.2v-5.7h5.7v-5.8h6.4V407h17.7v-6h12.6c0.1-2.1,0.2-3.8,0.3-5.9H425c0.1-2.1,0.2-3.8,0.3-6.1L437.7,389z"/>
		<path class="st1" d="M389.1,492.1v-6.5h24c0.2-2,0.3-3.6,0.5-5.7l5.4-0.5c0.1-1.8,0.3-3.5,0.5-5.4h12.1v5.4l-6.4,0.4v5.7h-6v6.6
			L389.1,492.1z"/>
		<path class="st4" d="M285.8,479.8l42.1-0.1v5.6h-42.1V479.8z"/>
		<path class="st1" d="M176.2,498.2l-5.7-0.3v-12.1h5.4l0.4,6.2h24v5.9L176.2,498.2z"/>
		<path class="st4" d="M327.9,479.7v-5.9h31v5.9H327.9z"/>
		<path class="st4" d="M358.9,473.8v-5.9h17.7v5.9H358.9z"/>
		<path class="st1" d="M443.6,340.4v-6.7h5.9h6.5v6.7h-6.5L443.6,340.4z"/>
		<path class="st2" d="M443.6,340.4h5.9v11.8h-5.9l0,0C443.6,348.3,443.6,344.3,443.6,340.4L443.6,340.4z"/>
		<path class="st4" d="M109,419.2v-6.6h6.7v6.6H109z"/>
		<path class="st4" d="M431.9,412.5v6.7h-6.7v0c0-2.2,0-4.5,0-6.8v0.1L431.9,412.5L431.9,412.5z"/>
		<path class="st2" d="M456,333.7h-6.5v-5.9h6.7L456,333.7z"/>
		<path class="st1" d="M425.1,376.4v-5.7h6.7v5.7H425.1z"/>
		<path class="st1" d="M461.9,461.2v6.5l-5.7,0.3v-6.5L461.9,461.2z"/>
		<path class="st4" d="M419.2,492.1v-6.6h6v6.6H419.2z"/>
		<path class="st1" d="M419.2,412.5v-5.7h6c0,1.9-0.1,3.9-0.1,5.8v-0.1L419.2,412.5z"/>
		<path class="st2" d="M431.8,406.8h5.7v5.8h-5.6v0.1L431.8,406.8L431.8,406.8z"/>
		<path class="st2" d="M127.4,425h-5.7v-5.6h5.6L127.4,425L127.4,425z"/>
		<path class="st1" d="M394.9,425v-5.7h6v5.7H394.9z"/>
		<path class="st1" d="M443.3,425.1H438v-5.6h5.3L443.3,425.1z"/>
		<path class="st4" d="M133.4,431h-6v-6l-0.1,0.1h6L133.4,431L133.4,431z"/>
		<path class="st4" d="M224.7,468h5.8c0.1,2,0.2,3.9,0.3,5.7H225L224.7,468z"/>
		<path class="st2" d="M461.9,322l0.1,6h-6l0.1-5.9L461.9,322z"/>
		<path class="st2" d="M443.6,352.2v5.9h-5.9l0,0v-5.9L443.6,352.2L443.6,352.2z"/>
		<path class="st2" d="M413.3,558.6v6.4h-24.1v-6.4L413.3,558.6z"/>
		<path class="st3" d="M535,504c0,1.9,0,3.9,0,5.8v6.7h-12.3c-0.2-2.3-0.3-4.2-0.4-6.4l-5.4-0.5c-0.2-1.7-0.3-3.4-0.5-5.4l-5.7-0.5
			v-11.6h11.6c0.1,2,0.3,3.8,0.4,5.8h6.2c0.1,2,0.2,3.8,0.4,6.1H535z"/>
		<path class="st1" d="M510.7,522.5l-0.1-5.9h6v5.9v-0.1L510.7,522.5L510.7,522.5z"/>
		<path class="st3" d="M510.6,522.4h6c0,2,0,3.9,0,5.9h-6V522.4z"/>
		<path class="st3" d="M522.4,528.4l0.1,5.8h-5.9v-6L522.4,528.4z"/>
		<path class="st1" d="M67,498.1h17.5v11.7l-5.6,0.3v6.5H60.6c-0.1,1.9-0.2,3.7-0.4,5.7h-5.6v-18H67V498.1z"/>
		<path class="st1" d="M60.4,492.3l6.7-0.1c0,2,0,3.9,0,5.9l-6.7-0.1C60.4,496.1,60.4,494.2,60.4,492.3z"/>
		<path class="st2" d="M60.4,492.3c0,1.9,0,3.8,0,5.7h-5.8v-5.7L60.4,492.3z"/>
		<path class="st2" d="M91.4,552.6h5.9v5.8h-5.9C91.4,556.5,91.4,554.5,91.4,552.6z"/>
		<path class="st3" d="M72.9,443.6v-6.7h5.9v6.7L72.9,443.6z"/>
		<path class="st1" d="M310.3,582.9v6.4h-6.4v-6.4H310.3z"/>
		<path class="st3" d="M140,485.6h-6.7h-5.7c-0.1-2-0.2-3.8-0.3-5.8l-5.7-0.3v-18.2h5.6c0.1,2.1,0.3,4.1,0.4,6.3l5.6,0.5v11.3
			l6.8,0.4V485.6z"/>
		<path class="st1" d="M443.6,352.2h-5.9v5.9l-12.4,0.1l-0.2-0.2c0-1.9,0.1-3.9,0.1-5.8h-0.1h6.7v-6l0,0.1h5.8
			c0.1-1.9,0.2-3.7,0.3-5.9h5.8C443.6,344.3,443.6,348.3,443.6,352.2z"/>
		<path class="st3" d="M115.7,364.7h-6.4v-6.4h6.4L115.7,364.7L115.7,364.7z"/>
		<path class="st3" d="M91.5,333.9l5.9-0.1v6.6h-6C91.4,338.2,91.4,336.1,91.5,333.9z"/>
		<path class="st1" d="M419.2,364.6l0.1-6.5l5.8-0.1l0.2,0.2c-0.1,2-0.2,4-0.3,6.4H419.2z"/>
		<path class="st1" d="M449.4,157.6v6.6h6.6v11.7l5.9,0.4v12.2l5.7,0.3v17.3h-5.5v-11.3l-5.9-0.4v-12.2h-6.5v-11.9h-17.9h0v-6.1h5.7
			v-6.5h-5.6V146h-12.4c-0.1-2.2-0.2-4.1-0.3-5.9v-6.7h-5.8v-5.9v-5.9h-5.9l0,0.1v-6h11.6c0.1,2,0.3,3.8,0.4,5.8l5.5,0.3
			c0.1,1.8,0.2,3.6,0.3,5.6l6.4,0.3c0.1,1.9,0.2,3.5,0.3,5.5l5.7,0.4v12.2l6,0.3v11.6L449.4,157.6z"/>
		<path class="st2" d="M419.3,352.3h-5.7v-11.7l5.5-0.4V334l6-0.4v-5.7h12.3v5.7l-5.7,0.3v12.4l0-0.1h-6.7v6h0.1L419.3,352.3z"/>
		<path class="st4" d="M456.1,260.8h5.7v6.5h-12.3v24.5h-6l0.1,0.1v-12.4h-11.4v-6h11.5v-12.7L456.1,260.8z"/>
		<path class="st4" d="M413.3,230.7h-12.2c-0.2,2-0.3,3.7-0.5,5.6h-5.6v-17.5h5.8v-6.6h-0.1l6.8,0.1c0,2.2,0,4.3-0.1,6.5v5.7
			l5.8,0.5V230.7z"/>
		<path class="st2" d="M413.4,115.7h-5.9v6l-6.6-0.2v-12.5h-11.7c0-1.9,0-3.9-0.1-5.8l0,0l6-0.1h5.9l6.6,0.1v5.9h5.9
			C413.4,111.2,413.4,113.4,413.4,115.7z"/>
		<path class="st2" d="M437.6,303.6v-6c0.1-1.9,0.2-3.9,0.2-5.8l-0.1,0.1h5.8l-0.1-0.1V316h-11.7v-6.5h5.8L437.6,303.6z"/>
		<path class="st4" d="M389,181.9c0-1.9,0-3.9,0.1-5.8l0,0h5.8v-5.9h6v18.4c0,2,0,3.9,0,5.9l-5.8,0.1v-12.7L389,181.9z"/>
		<path class="st1" d="M413.3,267.5v5.6l-5.7,0.4V285l-6.6,0.3l-0.2-0.2c0-3.9,0.1-7.8,0.1-11.7c0-2,0.1-4,0.1-5.9h6.5L413.3,267.5z
			"/>
		<path class="st1" d="M389.2,108.9h11.7v12.5h-5.8c-0.1-1.8-0.2-3.5-0.3-5.6l-5.7-0.3c-0.1-2.1-0.1-4.3-0.2-6.4L389.2,108.9z"/>
		<path class="st4" d="M352.1,140.1h-5.6c-0.1-2.1-0.2-4.1-0.3-6.5l-5.5-0.5v-5.7h11.6v5.9C352.2,135.6,352.2,137.8,352.1,140.1z"/>
		<path class="st4" d="M370.6,146h-11.8v-12.6h5.7c0.2,2.2,0.3,4.1,0.5,6.3l5.6,0.5V146z"/>
		<path class="st2" d="M437.8,224.6v-18.1h5.8v18.1H437.8z"/>
		<path class="st2" d="M383,145.8h-6.3v-12.2h6.3V145.8z"/>
		<path class="st1" d="M400.8,194.5c0-2,0-3.9,0-5.9h6.5v11.7l-6.4,0.2l-0.2-0.2L400.8,194.5z"/>
		<path class="st2" d="M431.8,170.2v11.6h-6.5v-11.5h-0.1L431.8,170.2L431.8,170.2z"/>
		<path class="st4" d="M425.1,146h6.8v11.6l-6.8,0.1v0.1L425.1,146z"/>
		<path class="st2" d="M456.1,260.8l-12.4-0.1v-5.7l5.8-0.3l6.6,0.2L456.1,260.8z"/>
		<path class="st4" d="M322,91.5h12.4c0.1,2,0.2,3.8,0.3,5.7l-6.8,0.1l-5.8,0.1L322,91.5z"/>
		<path class="st2" d="M419.4,242.9v-12h5.5v12H419.4z"/>
		<path class="st2" d="M346.4,121.7l-6-0.1v-5.7H352v5.8H346.4z"/>
		<path class="st2" d="M449.5,279.2v-5.8h6.4v5.8H449.5z"/>
		<path class="st1" d="M401,285.3v6.4l-5.9,0.3l-0.2-0.2c0-2.2,0.1-4.3,0.2-6.5l0,0l5.8-0.2L401,285.3z"/>
		<path class="st4" d="M437.8,291.8h-5.7v-6.5h5.6L437.8,291.8L437.8,291.8z"/>
		<path class="st4" d="M389,109.2c0.1,2.1,0.1,4.3,0.2,6.4h-6v-6.4L389,109.2z"/>
		<path class="st4" d="M334.6,121.5h-6.8c0-2,0-3.9,0-5.9h-0.1h6.5C334.4,117.8,334.5,119.6,334.6,121.5z"/>
		<path class="st4" d="M413.4,133.4h5.8v6.7h-5.9l0,0.1L413.4,133.4z"/>
		<path class="st4" d="M389.1,164.3v-6.4h5.6v6.4L389.1,164.3L389.1,164.3z"/>
		<path class="st2" d="M419.3,164.2v-6.6l-0.1,0.1l5.9,0.1v-0.1c0,2.2,0,4.3,0,6.5H419.3z"/>
		<path class="st4" d="M401,200.5l6.4-0.2v6H401C401,204.4,401,202.5,401,200.5z"/>
		<path class="st2" d="M407.5,218.8c0-2.2,0-4.4,0.1-6.5h5.6v6.5H407.5z"/>
		<path class="st4" d="M456,255l-6.6-0.2v-5.6h6.6V255z"/>
		<path class="st4" d="M413.3,267.5l-5.8-0.1c0-2.2,0-4.4,0-6.7h0l5.9-0.1L413.3,267.5z"/>
		<path class="st2" d="M400.6,151.7h-5.4v-5.6h5.4L400.6,151.7z"/>
		<path class="st2" d="M413.3,140.1v5.6h-5.6v-5.6L413.3,140.1L413.3,140.1z"/>
		<path class="st4" d="M413.4,127.5v5.9h-5.8v-6L413.4,127.5z"/>
		<path class="st4" d="M400.7,127.7v5.3h-5.5v-5.3L400.7,127.7z"/>
		<path class="st2" d="M413.4,127.5l-5.8-0.1c0-1.9-0.1-3.9-0.1-5.8h5.9V127.5z"/>
		<path class="st2" d="M370.8,127.3v-5.6h5.6v5.6H370.8z"/>
		<path class="st4" d="M370.6,103.3h5.8c0.1,2,0.2,3.8,0.3,5.7h-5.8C370.8,107,370.7,105.1,370.6,103.3z"/>
		<path class="st2" d="M322.1,97.3l5.8-0.1c0,2,0,3.9,0.1,5.8H322L322.1,97.3z"/>
		<path class="st1" d="M437.6,194.5v5.7h-5.7v-5.7H437.6z"/>
		<path class="st2" d="M437.6,194.5h-5.7v-5.6h5.7V194.5z"/>
		<path class="st4" d="M443.6,230.6h5.7v5.6h-5.6L443.6,230.6L443.6,230.6z"/>
		<path class="st4" d="M437.8,224.6h5.8c0,2,0,4,0,6h0h-5.9L437.8,224.6z"/>
		<path class="st2" d="M394.9,170.3v5.9H389c0-2,0-3.9,0-5.9L394.9,170.3z"/>
		<path class="st4" d="M419.3,164.2h5.8c0,2,0,4,0.1,6.1h0.1h-5.9V164.2z"/>
		<path class="st4" d="M432.1,255.1h5.3v5.5h-5.3V255.1z"/>
		<path class="st2" d="M449.4,157.6h-5.8v-5.9h5.8V157.6z"/>
		<path class="st2" d="M419.3,157.6h-5.7V152h5.6L419.3,157.6L419.3,157.6z"/>
		<path class="st3" d="M322.1,97.3l-0.1,5.8h-11.8v-5.9h-6.7l0.1,0.1c0-2,0-3.9,0-5.9l18.3,0.1C322,93.4,322,95.4,322.1,97.3z"/>
		<path class="st3" d="M303.6,103.1l-17.7,0.1l0.1-0.1v-5.9h0h6v-5.8l5.8-0.1v5.9h6l-0.1-0.1L303.6,103.1z"/>
		<path class="st2" d="M364.8,78.8c0,2,0,4,0,5.9h-12.5V79L364.8,78.8z"/>
		<path class="st2" d="M383.2,91.3c0,2,0,4,0,6h-12.5v-6h0l6-0.1L383.2,91.3z"/>
		<path class="st2" d="M212.9,91.3c0-2.2,0-4.4,0-6.6h5.7v6.6H212.9z"/>
		<path class="st2" d="M340.5,91.1V85h5.5v6L340.5,91.1z"/>
		<path class="st2" d="M364.8,84.7h5.9l-0.1,0.1c0,2.2,0,4.4,0,6.6h0h-5.9L364.8,84.7z"/>
		<path class="st2" d="M383.1,97.2h5.9l0,0v5.9l0,0h-5.9V97.2z"/>
		<path class="st2" d="M224.6,97.3v5.7h-5.8v-5.7L224.6,97.3z"/>
		<path class="st2" d="M303.6,97.3h-6v-5.9h5.9C303.6,93.4,303.6,95.3,303.6,97.3z"/>
		<path class="st4" d="M291.9,91.5v5.8h-6c0-1.9,0-3.9,0-5.8H291.9z"/>
		<path class="st2" d="M224.8,73.1h5.8v5.6h-5.8V73.1z"/>
		<path class="st3" d="M145.9,260.8v-11.8h6v5.9h5.7v18.4h-5.8c0-2-0.1-4-0.1-5.9v-6.6L145.9,260.8z"/>
		<path class="st2" d="M157.7,255h-5.7v-5.9h-6c0-4.2,0-8.3,0-12.4l5.8-0.1v6.4l5.9,0.5L157.7,255z"/>
		<path class="st2" d="M164.3,297.6l-6.6-0.1c0-6.1,0-12.2-0.1-18.3h6.6V297.6z"/>
		<path class="st2" d="M151.8,212.2v-11.9h5.9c0,3.9,0,7.9,0,11.8L151.8,212.2z"/>
		<path class="st4" d="M151.8,212.2h5.9v6.6h-5.9v0.1C151.8,216.7,151.8,214.5,151.8,212.2z"/>
		<path class="st2" d="M151.8,273.4h5.8c0,2,0,4,0.1,5.9h-5.9V273.4z"/>
		<path class="st2" d="M279.2,109l0.1-5.8l6.6-0.1l-0.1,0.1c0,2,0.1,3.9,0.1,5.9c0,2.2-0.1,4.4-0.1,6.6h-6.6l0,0L279.2,109z"/>
		<path class="st2" d="M303.6,103.1v-5.9h6.7v5.9L303.6,103.1z"/>
		<path class="st4" d="M285.9,115.7c0-2.2,0.1-4.4,0.1-6.6h5.6v6.6H285.9z"/>
		<path class="st3" d="M327.9,115.6c0,1.9,0,3.9,0,5.9h-5.6v-5.9H327.9z"/>
		<path class="st3" d="M389,181.9h6v12.7l-0.1,5.8h-5.9v-11.6l-5.8-0.3v-6.4L389,181.9z"/>
		<path class="st3" d="M407.5,249.1c0,3.9,0,7.8,0,11.8h0h-6.7l0.1,0.1v-11.8L407.5,249.1z"/>
		<path class="st3" d="M401,267.4c0,2-0.1,4-0.1,5.9H395v-12.5h5.9l-0.1-0.1L401,267.4z"/>
		<path class="st2" d="M395,273.4h5.8c0,3.9-0.1,7.8-0.1,11.7l-5.8,0.2C395,281.2,395,277.3,395,273.4z"/>
		<path class="st2" d="M395,285.1c-0.1,2.2-0.1,4.4-0.2,6.5H389v-6.5H395z"/>
		<path class="st3" d="M400.8,212.1v6.6h-5.8v-6.6H400.8z"/>
		<path class="st2" d="M407.5,249.1h-6.6v-5.7h6.6V249.1z"/>
		<path class="st2" d="M394.9,200.4l0.1-5.8l5.8-0.1l-0.1,5.8L394.9,200.4z"/>
		<path class="st3" d="M140,236.5c0,2.2-0.1,4.4-0.1,6.6h-6.3v-6.6H140z"/>
		<path class="st1" d="M151.8,212.2c0,2.2,0,4.4,0,6.7h-5.9v-6.7L151.8,212.2z"/>
		<path class="st2" d="M121.6,224.7v-5.9l5.9-0.1v5.9H121.6z"/>
		<path class="st3" d="M389.1,327.9h-5.6l-0.5,5.9h-6.5v-11.9h12.6V327.9L389.1,327.9z"/>
		<path class="st3" d="M389.1,309.5v6.5h-5.8v-6.6L389.1,309.5z"/>
		<path class="st2" d="M267.5,346.2v-5.6l5.9-0.3l5.8,0.2c0,1.9,0,3.8,0,5.7L267.5,346.2z"/>
		<path class="st1" d="M279.2,346.2c0-1.9,0-3.8,0-5.7l6.6-0.2l0.2,0.2c0,1.9,0,3.8-0.1,5.7H279.2z"/>
		<path class="st1" d="M237.2,103.3h-6.4v-5.8h12.2v5.6L237.2,103.3z"/>
		<path class="st4" d="M285.9,103.1l-6.6,0.1v-6h6.6V103.1z"/>
		<path class="st1" d="M279.2,109l0.1,6.7h-5.9V109H279.2z"/>
		<path class="st4" d="M237.2,103.3l5.9-0.2v6h-5.8l0,0C237.3,107.1,237.2,105.2,237.2,103.3z"/>
		<path class="st4" d="M255,103.1h-5.7v-5.6h5.6L255,103.1L255,103.1z"/>
		<path class="st2" d="M127.4,145.9h5.9V140h6.7c-0.1,3.9-0.1,7.8-0.1,11.7h-6.5v6h-6L127.4,145.9z"/>
		<path class="st2" d="M157.7,194.6l-5.8-0.1v-5.6h5.8V194.6z"/>
		<path class="st2" d="M286,346.2c0-1.9,0-3.8,0.1-5.7l11.7-0.1v5.9L286,346.2z"/>
		<path class="st3" d="M267.5,279.3h-5.9v-5.7h5.9C267.5,275.5,267.5,277.4,267.5,279.3z"/>
		<path class="st3" d="M297.7,279.3h-5.9c0-1.9,0-3.8,0-5.7h5.9L297.7,279.3z"/>
		<path class="st1" d="M230.6,121.6h-5.9v-5.9h5.9V121.6z"/>
		<path class="st2" d="M224.7,206.4l-5.9-0.1l0.1-5.8h5.8L224.7,206.4z"/>
		<path class="st2" d="M334.5,206.3l-6.6,0.1v-5.9h6.6L334.5,206.3z"/>
		<path class="st1" d="M328,200.5v5.9l0-0.1h-5.8l-0.3-0.1l0.2-5.9v0.1L328,200.5z"/>
		<path class="st1" d="M224.7,206.4v-5.9h5.9v-0.1c0,1.9,0.1,3.9,0.2,5.8l-0.2,0.2L224.7,206.4L224.7,206.4z"/>
		<path class="st13" d="M230.7,206.2c-0.1-1.9-0.1-3.9-0.2-5.8l6.6,0.1c0,1.9,0.1,3.7,0.1,5.6L230.7,206.2z"/>
		<path class="st2" d="M224.7,206.3l5.8,0.1c0,1.9,0.1,3.9,0.1,5.8h-5.9C224.7,210.3,224.7,208.3,224.7,206.3z"/>
		<path class="st1" d="M370.6,91.4c0-2.2,0-4.4,0-6.6l6-0.1c0,2.2,0,4.4,0,6.6L370.6,91.4z"/>
		<path class="st2" d="M322.2,206.3h5.8c0,2,0,3.9,0,5.9h-6C322.1,210.3,322.1,208.3,322.2,206.3z"/>
		<path class="st1" d="M389,103.2v-5.9h5.9c0,2,0,3.9,0.1,5.8L389,103.2z"/>
		<path class="st3" d="M322.1,200.4l-0.2,5.9l-5.6-0.1c0-1.9,0-3.8,0-5.6L322.1,200.4z"/>
		<path class="st1" d="M389,346.3v-5.6h5.6v11.4H389C389,350.2,389,348.3,389,346.3z"/>
		<path class="st3" d="M407.3,316.4v5.3h-6.3v-5.3H407.3z"/>
		<path class="st1" d="M376.6,352.1v-5.7h6.6v5.7L376.6,352.1z"/>
		<path class="st3" d="M413.4,297.7h5.6v5.6h-5.6L413.4,297.7L413.4,297.7z"/>
		<path class="st3" d="M437.6,303.6v5.9h-5.8v-5.9H437.6z"/>
		<path class="st1" d="M389.1,327.9h5.7v5.6h-5.7V327.9z"/>
		<path class="st2" d="M383.2,352.1v-5.7l5.8-0.1c0,1.9,0,3.9,0,5.8H383.2z"/>
		<path class="st3" d="M419.3,352.3l5.9-0.2c0,2-0.1,3.9-0.1,5.8l-5.8,0.1C419.3,356.2,419.3,354.3,419.3,352.3z"/>
		<path class="st3" d="M109,267.4h-5.8v-6.6h5.8V267.4z"/>
		<path class="st2" d="M145.9,260.8h5.8v6.6l-5.7-0.1C146,265.2,146,263,145.9,260.8z"/>
		<path class="st3" d="M431.9,406.7l0.1,5.9h-6.8c0-1.9,0.1-3.9,0.1-5.8L431.9,406.7z"/>
		<path class="st3" d="M425.1,352.2v-6h6.7v6H425.1z"/>
		<path class="st3" d="M425.2,170.3c0-2-0.1-4-0.1-6.1c0-2.2,0-4.3,0-6.5l6.8-0.1h5.6v6.5h-5.7v6.1L425.2,170.3z"/>
		<path class="st2" d="M401,267.4l-0.1-6.6h6.7c0,2.2,0,4.4,0,6.7L401,267.4z"/>
	</g>
</g>
</svg>
