<?xml version="1.0" encoding="utf-8"?>
<!-- Generator: Adobe Illustrator 23.1.0, SVG Export Plug-In . SVG Version: 6.00 Build 0)  -->
<svg version="1.1" id="Layer_1" xmlns="http://www.w3.org/2000/svg" xmlns:xlink="http://www.w3.org/1999/xlink" x="0px" y="0px"
	 viewBox="0 0 583 275.5" style="enable-background:new 0 0 583 275.5;" xml:space="preserve">
<style type="text/css">
	.st0{fill:#FEFEFE;}
	.st1{fill:#DFF7CE;}
	.st2{fill:#85BF6C;}
	.st3{fill:#071821;}
	.st4{fill:#306850;}
</style>
<title>mup</title>
<g>
	<g id="Layer_1-2">
		<path class="st0" d="M264.2,0c0,1.2,0,2.4,0,3.6l-8.1,0.1h-7.6c-0.3,1.7-0.4,2.8-0.7,4.3h-11.5l-0.9,3.7h-11.1V16l-4.5,0.1h-3.5
			v3.5l-4.1,0.2c-0.3,1.6-0.5,2.7-0.7,4l-3.4,0.2h-4.2v3.6l-3.4,0.3l-0.7,4l-4.1,0.2h-3.6v3.6l0.1-0.1l-3.7,0.2V40l0.1-0.1h-4.4v3.7
			l0.1-0.1h-3.7V48l0.1-0.1h-4.4v3.6l-0.1,4.5h-3.7v3.6l0,0l-4.3,0.1h-15.9c-0.1,1.6-0.2,2.7-0.4,4.3h-11.1l-0.7,3.7h-11.7l-0.6,4.3
			h-15.4l-0.6,3.6h-11.1l-0.5,4.1H76.6l-0.4-4.2h-11l-0.9-3.8H52.6l-0.4-4.1H36.8l-0.8-3.8H20.6l-0.6-4H1v55.5h11.5V72.1h12l0.5,3.5
			h15.5L41,80h15.4l0.9,3.8h10.9l0.4,4.1h11.7l0.8,3.4h15.3l0.7-3.5h11c0.2-1.6,0.4-2.8,0.6-4.3h11c0.2-1.3,0.4-2.3,0.6-3.6h15.5
			c0.2-1.5,0.3-2.8,0.5-4.3h15.6l0.4-3.6h7.8v7.8l-3.5,0.3v3.4l-0.1,4.5h-4.3v7.1l-0.1,4.5h-3.5v7.8c-0.1,2.7-0.1,5.3-0.1,8h-4.2
			V135l4.2,0.2c0,1.4,0,2.9,0.1,4.3c0,1.2,0,2.4,0.1,3.6V159l3.7,0.3V175l4.3,0.3v11.3l3.8,0.4v7.7l4.3,0.4v7.6l3.4,0.4
			c0.1,1.5,0.2,2.8,0.3,4l4.2,0.4v7.6l3.4,0.4c0.1,1.3,0.3,2.3,0.4,3.3l4.2,0.3v4l3.4,0.4l0.4,3.3l4.2,0.3v3.9l3.4,0.4
			c0.2,1.3,0.3,2.3,0.4,3.2l3.3,0.4l0.3,4.2h4c0.2,1.3,0.3,2.4,0.4,3.4l3.3,0.4c0.1,1.5,0.2,2.8,0.4,4.2h7.6l0.5,3.8h7.8v4.1h7.7
			c0.2,1.4,0.3,2.5,0.5,3.9h7.8v4.1h12c0.2,1.4,0.4,2.5,0.6,3.9h15.8v3.9h47.3v-4.1h15.6c0.2-1.4,0.4-2.5,0.6-3.8H340v-4.3h7.7
			c0.2-1.4,0.4-2.5,0.6-3.8h7.7v-4.3h7.7c0.2-1.4,0.4-2.5,0.6-3.7h7.7v-4.3h3.3l0.6-3.7h4.1v-4.3h3.3l0.6-3.7h4.1v-4.1l3.6-0.2v-3.3
			l3.7-0.6v-4.1h4.3v-3.4l3.7-0.6v-7.7h4.3V203l3.7-0.6v-7.7h4.3v-8h3.6v-11.6h4.4v-15.8l3.6-0.2v-15.8l4.4-0.2v-7.8l3.4-0.2v-7.7
			l-3.4-0.3v-3.4l3.5-0.4c-0.1-1.4-0.1-2.6-0.2-3.9l-3.4-0.3v-7.7h-4.5v4.1h-3.7l0.1-20.3h147.4c0.2-1.4,0.3-2.3,0.4-3.5l3.2-0.3
			c0.2-1.2,0.4-2.3,0.5-3.3l3.9-0.3c0.2-1.4,0.3-2.7,0.5-4.2l3.4,0.1 M0,275.5 M431.5,103.4h-4v4h4V103.4z"/>
		<path class="st0" d="M583,72l-3.7-0.2v-7.5l-4.1-0.6c-0.1-1.4-0.2-2.5-0.3-3.9H411.2V64h-3.6l0.1,0.1c-0.1-1.4-0.1-2.8-0.2-4.4
			h-4.2h0c-0.1-1.1-0.1-2.3-0.2-3.6h-3.4l-0.1-4.5v-3.6h-4.3l0.1,0.1v-4.4h-3.7l0.1,0.1v-3.7h-3.7L388,40v-4.3h-4.4V32H380l-4.1-0.2
			l-0.7-4l-3.4-0.2V24h-4.2l-3.4-0.3c-0.2-1.5-0.4-2.6-0.7-4.1h-4V16H356l-4.5,0v-4.3h-11l-1.3-3.8h-11.3L327,3.5h-15.3L311.5,0"/>
		<path class="st1" d="M311.5,0l0.2,3.5H327l0.9,4.3h11.3l1.3,3.8h7.6V16h3.5l4.5,0.1v3.6h7.5c0.2,1.5,0.4,2.6,0.7,4.1l3.4,0.3v3.5
			h4.2l3.4,0.2l0.7,4L380,32c0,1.2,0,2.4,0,3.6h-4.4V40h-3.6v-4.4h-4.4v-3.5h-7.9c0.1,1.4,0.2,2.3,0.3,3.4h4.2h3.6V40h4.4
			c0,1.2,0,2.4,0,3.6V48l3.5-0.3v-4.2c0-1.2,0-2.4,0-3.6l4.5,0v3.7l3.6-0.3v-3.5L388,40l-0.1-0.1v3.7h3.7l-0.1-0.1V48h3.7l-0.1-0.1
			c0.1,1.2,0.1,2.3,0.2,3.6h4.1l0.1,4.5c0,1.2,0,2.4,0,3.6h-4.4l0,0c-0.1-1.1-0.1-2.3-0.2-3.6h-3.4v-4.4h-3.7
			c-0.1-1.2-0.1-2.3-0.2-3.4H380v3.4h-7.8v4.1h7.8v-4.1h8l0,4.4c0,3.9,0,7.7,0,11.6h-4.4V72h-3.6c0.1,1.4,0.1,2.4,0.2,3.6l3.4-0.2
			V72h4.4v-4.5l3.6,0.2c0.1,1.4,0.2,2.7,0.3,4.2h7.7v-4.2c0-2.7,0-5.4,0.1-8.1h3.7h0V64h4.4l-0.1-0.1l0.1,3.6l-0.1,4.5h-4.3v3.6
			l-3.6,0.1h-4.4V80h-3.7v-4.2H388V80c-1.7,0-3.4,0.1-5.1,0c-2.8-0.2-3.4,0.9-2.5,3.6h7.6V88h3.6v7.3h3.6v4.3l-3.6,0.2v3.5
			c0,1.4,0,2.9,0,4.3H388v-8l-4,0.2l0.5,0.9l-4.5,4v2.9l-4.3-0.1v-7.9l4.3-0.2l-0.2-4l-4.1-0.2V67.6l4.2-0.2v-3.5l3.4-0.2
			c0.4-4.4,0.4-4.4-3.3-3.6V64l-4.3-0.1c-0.1-1.4-0.2-2.8-0.3-4.1H356c-0.1,1.5-0.2,2.7-0.3,4.3h-12c-0.1,1.3-0.3,2.3-0.4,3.6h-15.8
			c-0.1-1.2-0.1-2.3-0.2-3.3c-3.6-1.4-3.3,1.3-3.8,3.1l-3.9,0.4c-0.1,1.5-0.1,2.8-0.2,4h-3.5l-0.2-4h-4.1V72
			c-0.1,1.2-0.2,2.3-0.3,3.5H308l-0.2-3.5v-4.1h-4.2V72l-0.2,3.5h-3.5l-0.2-3.6l-4,0.2c-0.1,1.3-0.2,2.3-0.2,3.3l-3.5,0.3
			c-0.1,1.5-0.2,2.8-0.3,4.1h-7.8c-0.1-1.3-0.1-2.6-0.2-4h-3.3c-0.1,1.5-0.1,2.7-0.2,4l-7.9,0.2H268c-0.1,1.4-0.2,2.4-0.2,3.4h-3.5
			c0-2.7,0-5.3-0.1-7.9h3.5l0.3-3.5l4.2-0.3v-4.2l3.7-0.2c-0.1-1.3-0.1-2.2-0.2-3.4h-3.4v-4.4h3.2l1-3.6h3.8
			c0.1,1.2,0.1,2.3,0.2,3.5h3.5v4.4h4.4c0,1.1,0.1,2.3,0.1,3.4c3.3,0.8,4-0.4,3-3.3h-3.2v-4.4h7.2c0.1-1.5,0.1-2.6,0.2-3.6v0l4.4,0
			v3.7l3.6-0.2v-3.4h4.4c-0.1-1.7-0.2-2.9-0.2-4.3h-4.2V48h4.4v-4.4h3.6V40h4.4v8h3.7v3.4h4.3v-3.5h3.6c0.1,1.1,0.1,2.3,0.2,3.6
			l3.9-0.2v-7.7h-4.2h-3.6c-0.1-1.2-0.1-2.3-0.2-3.7h-7.8v-4.4h3.6V32h8c0,1.1,0.1,2.3,0.2,3.4h4.2V32l3.4-0.1
			c0.4-4.4,0.4-4.4-3.3-3.6V32h-4.4v-4.4h-8V24h4.2v-4.1h-4.1V24h-3.7c0.1,1.5,0.2,2.4,0.3,3.6h3.4V32h-3.6v3.6h-4.4V32l-3.6,0.2
			v3.4h-4.4V40h-8.1v-4.4h4.4l-0.3-3.6h-4.1v-7.8h-7.2v3.4h-4.4V32l-3.5-0.1c-0.1-1.3-0.2-2.6-0.3-4h-7.8c0.1,1.5,0.1,2.6,0.2,3.9
			l3.5,0.2c0,1.2,0,2.4,0,3.6v-0.1l-3.6,0.3V40h-8v3.7h-4.4V48l-3.6,0.2V56c0,1.2,0,2.4,0,3.6l-4.3-0.1v-7.6h-3.9v7.6l-4.3,0.1
			c-0.1-1.2-0.1-2.3-0.1-3.4c-3.3-0.8-4,0.4-3,3.3h3.2c0,1.4-0.1,2.8-0.1,4.3l-3.3,0.3c-0.1,1.2-0.2,2.3-0.3,3.3h-3.9
			c-0.3-1.3-0.5-2.3-0.6-3.1c-3.7-1.7-3.1,1.5-3.7,3l-3.9,0.5V72c-1.7,0-3.4,0.1-5.1,0c-2.8-0.2-3.4,0.9-2.5,3.6h7.6V80h4.4
			l-0.2,3.4l-3.8,0.4c-0.7,4.2-0.7,4.2-3.8,3.7c-0.2-1.2-0.4-2.5-0.7-3.9l-4,0.2v4.2l-3.6-0.1V59.7h-15.9v4.1l3.3,0.2v15.9l-3.6,0.1
			v-8h-4.4v-4.1c-4.5-0.9-3.7,1.5-3.3,4.1h3.3v8h-7.3v-4.3h-4.4v-3.7h4.1v-4.3h-4.1c0-1.2,0-2.5,0-3.7h4.4c-0.1-1.8-0.2-2.9-0.3-4.3
			h-7.8V64h-4.4c0.1,1.4,0.1,2.4,0.2,3.5h4.1l3.8,0.1c0,1.4,0,2.9,0,4.3l-3.7,0.2l0.2,3.4h3.4v4.4h4.4c0,1.2,0,2.4,0,3.7h-4.2v8h4.1
			v3.7h-4.4v4.4h-3.7v-4.4h-4.4v-3.7h4.1c0.8-4.5-1.6-3.7-4.1-3.3v3.3l-3.6-0.1c0-10.7,0-21.3-0.1-32l0,0l3.7-0.2V56l0.1-4.5h4.4
			v-3.6l-0.1,0.1h3.7v-4.4l-0.1,0.1h4.4v-3.7l-0.1,0.1h3.7v-4.4l-0.1,0.1h3.6V32l4.1-0.2l0.7-4l3.4-0.3h4.2V24l3.4-0.2
			c0.2-1.3,0.4-2.4,0.7-4l4.1-0.2h3.5V16l4.5-0.1l3.5-0.2v-4.1h7.6l0.9-3.7h11.6c0.2-1.5,0.4-2.7,0.7-4.3h3.4V8l4.2-0.2V3.7l8.1-0.1
			h8V0h31.3c0.1,1.1,0.1,2.3,0.2,3.7l4-0.2c0.1-1.3,0.1-2.4,0.2-3.4H311.5z M335.5,59.6h4.1c0.8-4.4-1.5-3.7-4.1-3.3L335.5,59.6
			l-3.3,0.2c-0.4,4.4-0.4,4.4,3.3,3.6V59.6z M219.8,48l0.2,3.4c4.4,0.4,4.4,0.4,3.6-3.3L219.8,48l0-4.1c-4.5-0.9-3.7,1.5-3.3,4
			L219.8,48z M363.9,43.6v4.1c4.5,0.8,3.7-1.5,3.3-4.1L363.9,43.6c-0.1-1.1-0.2-2.2-0.2-3.3c-4.4-0.4-4.4-0.4-3.6,3.3H363.9z
			 M251.8,35.6h4.3V32l3.7-0.2v-4.2h4.1c0.8-4.4-1.5-3.7-4.1-3.3v3.3l-3.7,0.2V32h-4.4v-8.1h-7.7c-0.2-1.6-0.4-2.8-0.6-4.3L240,20
			v7.7h-4.2V24l-3.6,0.3v3.4h-4.4v8l-3.4,0.2v7.8h3.4v4.2h8v-4.2h12.4V40l3.7-0.2L251.8,35.6z M331.9,19.6v4.1
			c4.5,0.9,3.7-1.5,3.3-4L331.9,19.6c-0.1-1.1-0.2-2.2-0.2-3.3c-4.4-0.4-4.4-0.4-3.6,3.3L331.9,19.6z M280.2,19.6v4.1
			c4.5,0.9,3.7-1.5,3.3-4L280.2,19.6c-0.1-1.1-0.1-2.2-0.2-3.3h-4.2v3.4l-3.4,0.2c-0.4,4.4-0.4,4.4,3.3,3.6v-3.8H280.2z M188.4,51.7
			h-4.1v4.2h7.5v-4.2H188.4z M351.5,27.6V24l-3.6,0.2c0.1,1.3,0.1,2.3,0.2,3.4L351.5,27.6l0,4.2h4.1v-4.2H351.5z M319.5,59.6h8.1
			l-0.4-3.4h-7.7L319.5,59.6l-3.4,0V64l3.4-0.2L319.5,59.6z M220,63.7h3.9v-7.6H220V63.7z M288.2,15.8l-0.2-3.9h-4.2
			c0.1,1.4,0.1,2.6,0.2,3.9H288.2z M315.7,11.6l-4.2,0.3c0.1,1.5,0.1,2.8,0.2,4.2l4-0.3L315.7,11.6z M212.1,35.7V40l3.8-0.2v-4.1
			H212.1z M339.9,47.7c-0.1-1.5-0.1-2.7-0.2-3.9h-4.2c0.1,1.4,0.1,2.6,0.2,3.9H339.9z M315.6,55.8v-4.2l-3.8,0.2v4.1H315.6z
			 M288.4,7.8h3.2v-4h-3.2V7.8z M303.3,11.9c-4.2-0.9-3.6,1.4-3.2,3.9h3.2V11.9z M311.6,23.8c-0.1-1.6-0.2-2.7-0.3-4.2l-3.5,0.3
			l0.2,3.9H311.6z M351.4,35.6l-3.5,0.3c0.1,1.5,0.1,2.6,0.2,4.1l3.3-0.2V35.6z M207.9,43.4v-3.2h-3.8v3.2H207.9z M200.4,51.8v4.1
			l3.1-0.2v-4.1L200.4,51.8z M208.1,51.8l0.2,4.1l3.5-0.2l-0.2-3.9H208.1z M364,55.9l3.5-0.3c-0.1-1.5-0.1-2.6-0.2-4.1l-3.3,0.2
			L364,55.9z M192.2,63.9l3.6-0.3c-0.1-1.5-0.1-2.6-0.2-4l-3.3,0.2V63.9z M387.7,91.6l-4.1,0.2c0.1,1.3,0.1,2.2,0.2,3.4l3.9-0.2
			V91.6z M176.4,80.1c-0.9,4.2,1.4,3.6,3.9,3.2v-3.2H176.4z M283.9,71.8l-0.3-4.2l-3.5,0.3l0.3,3.8H283.9z M256.5,16.3
			c-0.9,2.9,0.2,3.8,3,3C260.4,16.4,259.3,15.5,256.5,16.3z M267.5,19.4c0.9-3.1-0.2-4-3.2-3.2v3.2H267.5z M294.3,20.1l1.5-1.3
			l-1.9-2.8l-2,1.7L294.3,20.1z M340.2,27.3c3,0.9,3.8-0.2,3-3C340.3,23.4,339.4,24.5,340.2,27.3L340.2,27.3z M343.2,32.2
			c-3.3-0.7-3.8,0.7-2.9,3.2C343.2,36.1,344,35,343.2,32.2L343.2,32.2z"/>
		<path class="st2" d="M407.6,72l0.1-4.5h3.5v-7.7h163.6c0.1,1.3,0.2,2.5,0.3,3.9l4.1,0.6v7.5L583,72v11.6h-3.4
			c-0.2,1.5-0.3,2.8-0.5,4.2l-3.9,0.3c-0.2,1.1-0.3,2.1-0.5,3.3l-3.2,0.3c-0.1,1.2-0.3,2.1-0.4,3.5H423.7v-7.4h143.1
			c0.2-1.5,0.3-2.8,0.4-4.1l4-0.6V67.8l-3.8-0.3l-0.7-3.3H423.5V80l-4.1-0.2c-0.1-1.6-0.2-2.7-0.3-4l-3.3-0.3
			c-0.2-1.2-0.3-2.3-0.5-3.4h-4.1L407.6,72L407.6,72z"/>
		<path class="st2" d="M272.2,0v3.6h-8c0-1.2,0-2.4,0-3.6H272.2z"/>
		<path class="st2" d="M307.9,0c0,1.1-0.1,2.1-0.2,3.4l-4,0.2c-0.1-1.3-0.1-2.5-0.2-3.7H307.9z"/>
		<path class="st3" d="M431.7,135.2v7.8l-4.4,0.2v15.8l-3.6,0.2v15.8h-4.4v11.6h-3.6v8h-4.3v7.7l-3.7,0.6v4.1h-4.3v7.7l-3.7,0.6v3.3
			h-4.3v4.1l-3.7,0.6v3.3l-3.6,0.2v4.2h-4.1l-0.6,3.7H380v4.3h-4.1l-0.6,3.7H372v4.3h-7.7c-0.2,1.2-0.4,2.4-0.6,3.7H356v4.3h-7.7
			c-0.2,1.3-0.4,2.4-0.6,3.8H340v4.2h-12.1c-0.2,1.3-0.4,2.4-0.6,3.8h-15.6v4.1h-47.3V267h-15.8c-0.2-1.4-0.4-2.5-0.6-3.9h-12V259
			h-7.8c-0.2-1.4-0.3-2.5-0.5-3.9h-7.7V251h-7.8l-0.5-3.8H204c-0.1-1.4-0.2-2.7-0.4-4.2l-3.3-0.4c-0.1-1-0.3-2.2-0.4-3.4h-4
			l-0.3-4.2l-3.3-0.4c-0.1-0.9-0.2-2-0.4-3.2l-3.4-0.4v-4l-4.2-0.3l-0.4-3.3l-3.4-0.4v-4l-4.2-0.3c-0.1-1-0.2-2-0.4-3.3l-3.4-0.4
			v-7.6l-4.2-0.4c-0.1-1.2-0.2-2.5-0.3-4l-3.5-0.4V195l-4.3-0.4V187l-3.8-0.4v-11.3l-4.3-0.3v-15.7l-3.7-0.3v-11.5l3.4-0.3v-4.2
			v-3.6l0.1,0.1h4.3l0.1,3.6v10.8l5.1,5.1h2.5l0.6-3.3l3.4-0.2v7.7l4,0.6l-0.5,0.7l2.9,2.6c0.6-1.2,1.2-2.4,1.5-3.7
			c0.1-1.4,0.1-2.9,0-4.3l4.5,0.2v7.8h3.6v4.4l4.3-0.2v-4.1h3.7v4c4.8,1.1,3.3-2.1,3.6-4h4.1l0.6,4.2l3.4,0.2l0,0v8l4.1-0.2
			c0.2-1.4,0.3-2.6,0.5-3.8l3.5-0.8v-7.5h4.3l0,0v7.5l3.8,1.2v7h4.1c0.1-2.6,0.2-5,0.4-7.5l3.5-0.2v8h8v8l4.3-0.3v-7.8l3.3,0.2
			c0.2,1.1,0.4,2.1,0.7,3.4h4c-0.1,0.9-0.1,1.9,0.1,2.8c0.4,0.7,1,1.3,1.8,1.4c0.5,0.1,1.4-0.7,1.6-1.3c0.1-1,0-2-0.2-2.9h-3.4
			c-0.1-1.8,0-3.6,0.1-5.4c0.2-0.8,0.8-1.5,1.6-1.7c0.6-0.1,1.4,0.7,1.9,1.4c0.3,0.7,0.5,1.4,0.6,2.1l3.6-0.3v-7.4l-3.8-0.7
			c-0.7-2.4-0.1-3.4,2.3-3.3c1.8,0.1,3.6,0,5.4,0v7.7l4,0.7l0.7,3.3h3.3c0,1.2,0,2.4,0,3.7l-3.3,0.2c-0.1,0.7-0.4,1.1-0.3,1.4
			c0.5,1,1.1,1.9,1.7,2.8c0.7-0.8,1.3-1.7,1.9-2.6c0.2-0.5,0-1.2,0-1.8h4.4v4.1c4.8,1.1,3.3-2.1,3.6-4.1h4.4v4.1h11.6v-4.1h8v4.1
			c4.8,1.1,3.3-2.1,3.6-4.1h4.4v-3.6l3.6-0.2v-3.4h4.1c0.2-1.7,0.3-2.8,0.5-4l3.4-0.7v-3.3h4.4l0,0c0,2.7,0,5.4,0,8h-4.4v3.6
			l-3.4,0.2c-0.7,3.3,0.5,4,3.3,3v-3.2h4.4v-3.6l3.4-0.2c0.2-1.5,0.4-2.7,0.6-4.1l4.2,0.2v7.7h3.5c0.1,1.1,0.1,2.3,0.2,3.7l4.1-0.2
			v-3.4h7.9c0.1,1.6,0.1,2.6,0.2,3.7h-4.1v8l4.1-0.2v-7.8l3.6-0.2v-11.5h4.4v-3.6l3.7,0.3c0,2.8,0,5.3,0,7.8l-3.4,0.2
			c-0.7,7-0.6,7.1,3.3,6.5v-6.8h7.8c0.1-1.7,0.2-2.9,0.3-4.2h15.8v-3.8l0.1-4.3h4.3h2.3l5.2-5.2c0-0.1-0.1-1.3-0.2-2.7h-7v-8h3.7
			v4.1c4.8,1.1,3.3-2.1,3.6-4.1l4.1,0.2l0.6,4.2h7.7v3.7l-4.3,0.1h-3.7c0.1,1.6,0.1,2.8,0.2,4.1l3.5,0.2l0,0c0,1.2,0,2.4,0,3.7
			l-3.3,0.2c-0.1,0.7-0.4,1.1-0.3,1.4c0.5,1,1.1,1.9,1.7,2.8c0.7-0.8,1.3-1.7,1.9-2.6c0.2-0.5,0-1.2,0-1.8h4.4v-3.6l0,0l3.4-0.2
			c0.2-1.5,0.4-2.7,0.6-3.9l3.7-0.4c0.8-2.3,0.4-3.6-2.3-3.4c-1.8,0.1-3.6,0-5.4,0v-4.4h8v-3.6l3.4-0.2c0.3-1.6,0.5-2.7,0.6-3.9
			l4-0.5v-3.4l3.7-0.2c-0.1-1.5-0.1-2.7-0.2-4.1h-3.5c0.1-1.1,0.2-2.3,0.3-3.6h7.7C431.6,132.8,431.6,134,431.7,135.2z M248,194.8
			l-4.1,0.3l0.2,4.2l3.9-0.3V194.8z M396.2,177.3c-1.4-1-2.2-2-2.9-2c-0.6,0-1.7,1.3-1.6,1.9c0.3,0.9,0.9,1.7,1.8,2.1
			C393.9,179.5,394.9,178.4,396.2,177.3z"/>
		<path class="st2" d="M160.1,72h-7.8l-0.4,3.6h-15.6c-0.2,1.5-0.3,2.8-0.5,4.3h-15.5c-0.2,1.3-0.4,2.3-0.6,3.6h-11
			c-0.2,1.5-0.4,2.8-0.6,4.3h-11l-0.7,3.5H81.2l-0.8-3.4H68.7l-0.4-4.1H57.3L56.4,80H41l-0.4-4.3H25l-0.5-3.5h-12v43.2H1V59.8h19
			l0.6,4h15.3l0.8,3.8h15.4l0.4,4.1h11.7l0.9,3.8h11l0.4,4.2h23.6l0.5-4.1h11.1l0.6-3.6h15.4l0.6-4.3H140l0.7-3.7h11.1
			c0.1-1.6,0.2-2.7,0.4-4.3h15.9v3.9l-3.9,0.8V72H160.1z"/>
		<path class="st3" d="M160.1,72h4.2v-7.6l3.9-0.8v-3.9l4.3-0.1c0,10.7,0,21.3,0.1,32c0,1.2,0,2.5,0,3.7c0,1.4,0,2.8,0,4.3v11.7
			l-0.1,4.3h-4.3h-3.8h-4.3L160,88v-4.3l-3.4-0.2v-3.4l3.5-0.3L160.1,72z"/>
		<path class="st3" d="M423.7,87.9v7.4c0,6.8-0.1,13.5-0.2,20.3l0.1-0.1l-4.3,0.1h-3.8l-4.2-0.2l-0.2-4.3V99.6V79.9l0.1-7.9h4.1
			c0.2,1.2,0.3,2.2,0.5,3.4l3.3,0.3c0.1,1.3,0.2,2.5,0.3,4l4.1,0.2L423.7,87.9z"/>
		<path class="st4" d="M156.5,139.6h-4.3c-0.1-1.4-0.1-2.8-0.2-4.3h-3.5l-4.2-0.2v-3.6h4.1c0.1-1.9,0.1-3.1,0.2-4.4h3.6v-3.6l0,0
			l4.3-0.2v-4.2l3.8-0.1l4.3,0.1l0,0v4.4h-4.2c-0.1,1.5-0.1,2.6-0.2,3.6h-3.5v7.8l3.6,0.3l-0.1,4.3L156.5,139.6z"/>
		<path class="st3" d="M148.6,127.1c-0.1,1.3-0.1,2.6-0.2,4.4h-4.1v-16h4.2c0,2.7,0.1,5.3,0.1,8L148.6,127.1z"/>
		<path class="st2" d="M148.6,123.6c-0.1-2.7-0.1-5.3-0.1-8c0-2.7,0-5.3,0.1-8h3.4c0,2.7,0.1,5.3,0.1,8c0,1.2,0,2.4,0,3.7v4.4l0,0
			L148.6,123.6z"/>
		<path class="st2" d="M431.7,123.7v3.4l-0.2,0.2h-7.9v-8.1h3.7h0v4.3h4.3L431.7,123.7z"/>
		<path class="st2" d="M427.2,115.5v-4.1h4.5v7.7l-0.2,0.2l-4.3-0.1h0L427.2,115.5z"/>
		<path class="st2" d="M431.7,135.2c-0.1-1.2-0.1-2.4-0.2-3.6v-4.3l0.2-0.2l3.4,0.3v7.6L431.7,135.2z"/>
		<path class="st3" d="M152,107.5h-3.4v-7.8h3.5l-0.1-0.1L152,107.5z"/>
		<path class="st2" d="M256.1,3.7v4.1L251.9,8V3.7H256.1z"/>
		<path class="st2" d="M152.1,99.7c0-1.5,0.1-3,0.1-4.5h4.2v4.4L152.1,99.7L152.1,99.7z"/>
		<path class="st2" d="M431.5,103.4v4h-4v-4H431.5z"/>
		<path class="st2" d="M227.7,11.7v4.1l-3.5,0.2v-4.3H227.7z"/>
		<path class="st4" d="M208.1,24v3.6h-4.2V24H208.1z"/>
		<path class="st1" d="M148.5,135.3h3.5c0.1,1.4,0.1,2.9,0.2,4.3l-0.1-0.1l-3.5,0.1C148.5,138.2,148.5,136.8,148.5,135.3z"/>
		<path class="st3" d="M192.2,35.6V40h-3.7v-4.3L192.2,35.6z"/>
		<path class="st4" d="M188.5,39.9v3.7h-4.4v-3.7H188.5z"/>
		<path class="st3" d="M184.2,43.6V48h-3.7v-4.4H184.2z"/>
		<path class="st3" d="M180.5,47.9v3.6h-4.4v-3.6H180.5z"/>
		<path class="st4" d="M152,143.1v4.2l-3.4,0.3v-4.4L152,143.1z"/>
		<path class="st4" d="M156.4,95.2h-4.2v-3.6h4.1C156.4,92.7,156.4,94,156.4,95.2z"/>
		<path class="st3" d="M156.4,91.5h-4.1V88h4.3v-0.1L156.4,91.5z"/>
		<path class="st2" d="M156.6,83.5l3.4,0.2V88h-3.6v0.1C156.5,86.5,156.6,85,156.6,83.5z"/>
		<path class="st2" d="M431.7,119.1l3.4,0.3c0.1,1.3,0.1,2.4,0.2,3.9l-3.5,0.4l-0.2-0.2v-4.1L431.7,119.1z"/>
		<path class="st4" d="M427.2,115.5v3.7h-3.6l0,0c0-1.2,0-2.5,0-3.7l-0.1,0.1L427.2,115.5z"/>
		<path class="st2" d="M152,143.1l-3.4,0.1c0-1.2,0-2.4-0.1-3.6l3.5-0.1L152,143.1z"/>
		<path class="st4" d="M219.7,16v3.6h-3.5V16H219.7z"/>
		<path class="st3" d="M195.7,32v3.6h-3.6V32H195.7z"/>
		<path class="st2" d="M176.1,56v3.4l-3.7,0.2V56H176.1z"/>
		<path class="st4" d="M407.6,64h-4.4v-4.4h4.2C407.5,61.2,407.6,62.6,407.6,64z"/>
		<path class="st4" d="M388,40l-4.4-0.1V40c0-1.5,0-2.9,0-4.4l-0.1,0.1h4.5V40z"/>
		<path class="st4" d="M351.5,16H348v-4.3h3.5L351.5,16z"/>
		<path class="st4" d="M371.9,27.6h-4.2V24h4.2V27.6z"/>
		<path class="st4" d="M395.3,48h-3.7v-4.4h3.7V48z"/>
		<path class="st4" d="M399.5,51.5h-4.1c-0.1-1.3-0.1-2.4-0.2-3.6h4.3L399.5,51.5z"/>
		<path class="st2" d="M359.5,19.6H356V16h3.5V19.6z"/>
		<path class="st4" d="M380,35.6c0-1.2,0-2.4,0-3.6h3.5v3.6l0.1-0.1L380,35.6L380,35.6z"/>
		<path class="st4" d="M391.6,43.6h-3.7v-3.7h3.7V43.6z"/>
		<path class="st2" d="M403.3,59.6h-3.7h0c0-1.2,0-2.4,0-3.6h3.4C403.1,57.3,403.2,58.5,403.3,59.6z"/>
		<path class="st3" d="M411.2,64v3.6h-3.5l-0.1-3.6L411.2,64z"/>
		<path class="st3" d="M264.3,83.5h7.8c0.1-1.3,0.1-2.4,0.2-3.4l7.9-0.2h11.5c0.1-1.3,0.2-2.6,0.3-4.1l3.5-0.3h4.5h3.5h7.9
			c0.1-1.2,0.2-2.4,0.3-3.5l4.3-0.2h11.6v-4.2h15.8c0.1-1.2,0.3-2.2,0.4-3.6h12c0.1-1.5,0.2-2.8,0.3-4.3h19.4
			c0.1,1.3,0.2,2.7,0.3,4.1v47.3l-0.1,4.3h-7.9l-3.6-0.1c-0.1-1.4-0.1-2.8-0.2-4.3V72.1H348c-0.1,1.3-0.1,2.4-0.2,3.4l-4.3,0.2h-7.9
			l-0.3,4.4H316l-0.3,3.4l-8,0.2h-8v4.2L288.1,88h-4.2h-3.5l-0.2,3.4l-7.9,0.3h-4.5h-3.5h-4.4v3.6l-3.7,0.1h-4.3h-3.6h-7.9
			c-0.1,1.6-0.2,2.9-0.3,4.2l-4.4,0.2H228c-0.2,1.3-0.4,2.3-0.5,3.3l-3.3,0.6v7.6l-0.3,4.3h-20.1l-0.1-8v-4.2v-3.6c0-1.5,0-3,0-4.5
			c0-2.4,0-4.8,0-7.1V64c0.1-1.4,0.1-2.9,0.2-4.3h12.4v31.8h19.3c0.2-1.4,0.4-2.4,0.6-3.4l4.1-0.2h3.5h4.5h3.6v-4.3h4.3L264.3,83.5z
			"/>
		<path class="st2" d="M280.2,56h-3.8l-1,3.6h-3.2h0c-0.1-1.2-0.2-2.3-0.2-3.4l-4.2-0.5v-4.1c1.8,0,3.6-0.1,5.3,0
			c2.9,0.2,3.1-1.2,2.3-3.5l-3.3-0.3v-4.2h-4.3h-3.7h0V40h8l3.5-0.1l0.2,0.2v3.5h4.3h0V48h3.7c0.1,1.2,0.1,2.3,0.2,3.7l4.1-0.2V48
			l3.6-0.2V40c0-1.5,0-2.9,0-4.4h3.7v0V40h8.1l0,0v3.7l0,0l-3.4,0.2V48h3.4l0,0v3.7v0l-3.7,0.2V56v0l-4.4,0v-4.1
			c-4.5-0.9-3.7,1.5-3.3,4h3.3c0,1.1-0.1,2.1-0.2,3.6h-7.2h0c-0.1-1.1-0.1-2.3-0.2-3.6L280.2,56L280.2,56z"/>
		<path class="st2" d="M264.3,83.5h-8.1V80h-8v-8h-4.4v-4.4v0.1h4.4l3.6-0.2V64l-0.1-4.3l0.2-0.2l4.3,0.1h-0.1V64h3.7v8
			c0,1.1,0.1,2.3,0.2,3.7h4.2h0C264.2,78.2,264.2,80.8,264.3,83.5z"/>
		<path class="st2" d="M235.8,27.6h4.2V20l3.5-0.4c0.2,1.5,0.4,2.8,0.6,4.3h7.7v8.1V32h-3.7v-4.2H244V32h4.1v3.7l0,0h-4.4L244,40
			h4.2h-0.1v3.6h-12.3l0,0V40l0,0h4.2v-8h-4.2l0,0V27.6L235.8,27.6z"/>
		<path class="st2" d="M240.2,87.8l-4.1,0.2c-0.2,1.1-0.4,2.1-0.6,3.4h-15.7l-0.1-3.6v-4.2l4-0.2c0.2,1.4,0.4,2.7,0.7,3.9
			c3.1,0.5,3.1,0.5,3.8-3.7l3.8-0.4l0.2-3.5l0,0h8v3.6C240.2,85,240.2,86.4,240.2,87.8z"/>
		<path class="st4" d="M259.9,72v-4.4h4.3V64c0-1.5,0.1-3,0.1-4.4l3.6,0.1l0.1,4.3v3.6h4.3l-0.1-0.1v4.2l-4.2,0.3h-3.8L259.9,72z"/>
		<path class="st2" d="M280.3,31.9l3.5,0.1h0c0.1,1.1,0.1,2.3,0.2,3.6h4.2v4.4l0,0h-4.4v3.6h-3.7h0c-0.1-1.1-0.1-2.3-0.2-3.5h-4
			l-0.2-0.2c0-1.4,0.1-2.9,0.1-4.3v0.1h4.3v-3.6L280.3,31.9z"/>
		<path class="st4" d="M391.5,67.7l-3.6-0.2h0c0-3.8,0-7.7,0-11.6l3.5,0l0,0c0.1,1.1,0.1,2.3,0.2,3.6h3.4c0,2.7,0,5.4,0,8v-0.1
			L391.5,67.7z"/>
		<path class="st2" d="M227.8,72v-4.1l3.9-0.5c0.7-1.5,0-4.7,3.7-3c0.2,0.8,0.4,1.8,0.6,3.1h3.9l0.2,0.2l-0.1,4.3h-4.4H227.8
			L227.8,72z"/>
		<path class="st2" d="M227.8,35.6v-8h4.4v0v4.2l3.7,0.2l0,0v8l0,0l-3.4-0.2c-0.2-1.5-0.3-2.7-0.5-4.2H227.8L227.8,35.6z"/>
		<path class="st2" d="M188.5,83.6c0-1.2,0-2.5,0-3.7l0,0h7.3h-0.1c0,3.9,0,7.8,0,11.7h-3.7l0,0v-7.9L188.5,83.6L188.5,83.6z"/>
		<path class="st2" d="M380,107.6v-2.9l4.5-4.1l-0.5-0.9l4-0.2v8l0,0L380,107.6L380,107.6z"/>
		<path class="st2" d="M327.5,67.6v4.2h-8.1c0.1-1.3,0.1-2.6,0.2-4l3.9-0.4c0.5-1.8,0.2-4.5,3.8-3.1
			C327.4,65.3,327.5,66.5,327.5,67.6z"/>
		<path class="st2" d="M315.9,40h7.8c0.1,1.4,0.2,2.5,0.2,3.7v-0.1h-4.4V48l0.1,0h-3.7L315.9,40L315.9,40z"/>
		<path class="st2" d="M288.3,27.6v-3.4h7.2V32l0,0h-3.7v-4.2l-3.6-0.2L288.3,27.6z"/>
		<path class="st2" d="M220,63.7v-7.6h3.9v7.6H220z"/>
		<path class="st2" d="M395.2,67.6c0-2.7,0-5.3,0-8h4.4h0c0,2.7,0,5.4-0.1,8.1L395.2,67.6z"/>
		<path class="st2" d="M275.8,32l-3.5-0.2c-0.1-1.3-0.1-2.5-0.2-3.9h7.8c0.1,1.4,0.2,2.7,0.3,4l-0.2,0.2L275.8,32z"/>
		<path class="st2" d="M327.5,32h-8h0v-4.4h0h8L327.5,32L327.5,32z"/>
		<path class="st2" d="M195.8,72h4.4v8l0,0h-4.4h0.1L195.8,72L195.8,72z"/>
		<path class="st2" d="M235.8,43.6v4.2h-8v-4.2h-0.1H235.8z"/>
		<path class="st2" d="M327.5,43.7h4.2v7.7l-3.9,0.2c-0.1-1.3-0.2-2.5-0.2-3.6C327.5,46.5,327.5,45.1,327.5,43.7z"/>
		<path class="st2" d="M188.5,91.6h-4.1v-8h4.2l0,0L188.5,91.6L188.5,91.6z"/>
		<path class="st2" d="M379.9,51.6v4.1h-7.8v-4.1L379.9,51.6L379.9,51.6z"/>
		<path class="st2" d="M256.3,56v-7.8l3.6-0.2h0c0,2.7,0,5.3,0,8L256.3,56z"/>
		<path class="st2" d="M380,51.6v-3.4h7.8c0,1.1,0.1,2.3,0.2,3.4v0L380,51.6L380,51.6z"/>
		<path class="st2" d="M248.1,59.5v-7.6h3.9v7.6l-0.2,0.2h-3.4L248.1,59.5z"/>
		<path class="st2" d="M319.5,59.6v-3.4h7.7l0.4,3.4L319.5,59.6L319.5,59.6z"/>
		<path class="st2" d="M227.8,75.6h-7.6c-0.9-2.7-0.2-3.9,2.5-3.6c1.7,0.2,3.4,0,5.1,0h-0.1L227.8,75.6L227.8,75.6z"/>
		<path class="st2" d="M388,83.5h-7.6c-0.9-2.7-0.2-3.9,2.5-3.6c1.7,0.1,3.4,0,5.1,0h0L388,83.5L388,83.5z"/>
		<path class="st2" d="M227.8,43.6h-3.4v-7.8l3.4-0.2h-0.1L227.8,43.6L227.8,43.6z"/>
		<path class="st2" d="M203.7,79.9V88l-3.5-0.3v-7.8l0,0L203.7,79.9z"/>
		<path class="st2" d="M395.2,95.2h-3.6v-7.3h0l3.6,0.2L395.2,95.2L395.2,95.2z"/>
		<path class="st2" d="M288.2,15.8h-4.2c-0.1-1.3-0.1-2.5-0.2-3.9h4.1L288.2,15.8z"/>
		<path class="st2" d="M315.7,11.6v4.2l-4,0.3c-0.1-1.4-0.1-2.7-0.2-4.2L315.7,11.6z"/>
		<path class="st4" d="M184.2,72c0-1.4,0-2.9,0-4.3l-0.1,0.1h4.1v4.2L184.2,72L184.2,72z"/>
		<path class="st2" d="M303.6,72v-4.1h4.2V72H303.6z"/>
		<path class="st2" d="M315.9,71.8l-4.3,0.2v-4.1h4.1L315.9,71.8z"/>
		<path class="st2" d="M387.9,67.5V72h-4.4l0,0.1v-4.5L387.9,67.5L387.9,67.5z"/>
		<path class="st2" d="M319.5,24v-4.1h4.1V24H319.5L319.5,24z"/>
		<path class="st4" d="M395.2,67.6h4.3c0,1.3,0,2.6,0,4.2h-4.2C395.3,70.4,395.3,69,395.2,67.6L395.2,67.6z"/>
		<path class="st2" d="M188.5,79.9h-4.4v-4.4v0.1h4.4V79.9L188.5,79.9z"/>
		<path class="st2" d="M232.2,79.9h-4.4v-4.4h-0.1h4.4L232.2,79.9L232.2,79.9z"/>
		<path class="st2" d="M395.2,80v-4.3h4.4v4.2L395.2,80L395.2,80z"/>
		<path class="st2" d="M176.1,95.2h4.4v4.4l0,0h-4.4l0,0L176.1,95.2L176.1,95.2z"/>
		<path class="st2" d="M184.1,99.6v-4.4h4.4l0,0c0,1.5,0,2.9,0,4.4L184.1,99.6L184.1,99.6z"/>
		<path class="st2" d="M283.9,32v-4.4h4.4h0c0,1.5,0,2.9,0,4.4L283.9,32L283.9,32z"/>
		<path class="st2" d="M351.5,27.6h4.2v4.2h-4.1L351.5,27.6L351.5,27.6z"/>
		<path class="st2" d="M375.7,99.6v-4.5l4.1,0.2l0.2,4L375.7,99.6z"/>
		<path class="st2" d="M395.2,99.6v-4.4h0h4.4h0c0,1.5,0,2.9,0,4.4L395.2,99.6L395.2,99.6z"/>
		<path class="st2" d="M212.1,35.7h3.8v4.1l-3.8,0.2V35.7z"/>
		<path class="st2" d="M303.5,40v-4.4h4.4l0,0V40l0,0H303.5L303.5,40z"/>
		<path class="st2" d="M311.5,35.6h4.4h0V40h0h-4.4h0L311.5,35.6L311.5,35.6z"/>
		<path class="st2" d="M372,40h-4.4v-4.4h0h4.4L372,40L372,40z"/>
		<path class="st2" d="M375.6,40v-4.4h4.4h-0.1V40l0,0L375.6,40L375.6,40z"/>
		<path class="st2" d="M259.9,48v-4.4h4.4h0c0,1.5,0,2.9,0,4.4L259.9,48L259.9,48z"/>
		<path class="st2" d="M307.9,43.6V48h-4.4l0,0v-4.4l0,0H307.9L307.9,43.6z"/>
		<path class="st2" d="M339.9,47.8h-4.2c-0.1-1.3-0.1-2.5-0.2-3.9h4.2C339.8,45.1,339.8,46.2,339.9,47.8z"/>
		<path class="st4" d="M188.4,55.9h-4.1v-4.2h4.1V55.9z"/>
		<path class="st2" d="M303.5,51.6h4.2c0.1,1.4,0.1,2.6,0.2,4.3h-4.4v0L303.5,51.6L303.5,51.6z"/>
		<path class="st2" d="M315.6,55.8h-3.8v-4.1l3.8-0.2V55.8z"/>
		<path class="st2" d="M184.1,59.7h4.2c0.1,1.3,0.2,2.5,0.3,4.3h-4.4C184.1,62.5,184.1,61.1,184.1,59.7z"/>
		<path class="st2" d="M243.8,59.6l4.3-0.1l0.2,0.2c0,1.4-0.1,2.8-0.1,4.2l-4.3,0.1l-0.2-0.2L243.8,59.6L243.8,59.6z"/>
		<path class="st2" d="M267.9,64l-0.1-4.3l4.5-0.1h0V64h0H267.9z"/>
		<path class="st2" d="M288.3,63.9h-4.4v-4.4l0,0.1h4.5h0L288.3,63.9L288.3,63.9z"/>
		<path class="st2" d="M288.4,7.8v-4h3.2v4L288.4,7.8z"/>
		<path class="st2" d="M303.3,11.9v3.8h-3.2C299.8,13.3,299.2,11,303.3,11.9z"/>
		<path class="st2" d="M275.9,19.6v-3.4h4.1c0,1.1,0.1,2.3,0.1,3.4h0H275.9L275.9,19.6z"/>
		<path class="st2" d="M331.9,19.6h-3.8c-0.8-3.7-0.8-3.7,3.6-3.3C331.8,17.4,331.8,18.5,331.9,19.6L331.9,19.6z"/>
		<path class="st2" d="M275.8,19.6v3.8c-3.8,0.8-3.8,0.8-3.3-3.6L275.8,19.6L275.8,19.6z"/>
		<path class="st2" d="M280.2,19.6h3.3c0.4,2.5,1.3,4.9-3.3,4.1L280.2,19.6L280.2,19.6z"/>
		<path class="st2" d="M311.5,23.8h-3.5l-0.2-3.9l3.5-0.3C311.4,21.1,311.5,22.2,311.5,23.8z"/>
		<path class="st2" d="M331.9,19.6h3.3c0.4,2.5,1.3,4.9-3.3,4.1L331.9,19.6L331.9,19.6z"/>
		<path class="st2" d="M259.9,27.6v-3.3c2.5-0.5,4.9-1.2,4.1,3.3L259.9,27.6L259.9,27.6z"/>
		<path class="st2" d="M259.8,27.6v4.2l-3.7,0.2l0,0.1v-4.2L259.8,27.6L259.8,27.6z"/>
		<path class="st2" d="M331.9,32v-3.8c3.7-0.7,3.7-0.7,3.3,3.6L331.9,32L331.9,32z"/>
		<path class="st4" d="M251.8,32h4.4l0,0v3.6h-4.3v0.1L251.8,32L251.8,32z"/>
		<path class="st4" d="M275.8,32l4.3,0.1v3.5h-4.3L275.8,32z"/>
		<path class="st2" d="M295.5,32h4.1l0.3,3.6h-4.4v0V32z"/>
		<path class="st2" d="M331.9,32v3.4h-4.2c-0.1-1.1-0.1-2.3-0.2-3.4l0,0L331.9,32L331.9,32z"/>
		<path class="st2" d="M364,35.5h-4.2c-0.1-1.1-0.1-2.1-0.3-3.4h4.4V35.5z"/>
		<path class="st2" d="M251.8,35.5v4.2l-3.7,0.2h0.1v-4.4l0,0L251.8,35.5L251.8,35.5z"/>
		<path class="st4" d="M275.8,35.5c0,1.4-0.1,2.9-0.1,4.3l-3.5,0.1v-4.1L275.8,35.5z"/>
		<path class="st2" d="M351.4,35.6v4.1l-3.3,0.2c-0.1-1.4-0.1-2.6-0.2-4.1L351.4,35.6z"/>
		<path class="st2" d="M207.9,43.4h-3.8v-3.2h3.8V43.4z"/>
		<path class="st4" d="M391.6,107.6c0-1.4,0-2.9,0-4.3l3.5-0.1l0,0l-0.1,4.3L391.6,107.6L391.6,107.6z"/>
		<path class="st2" d="M363.9,43.6h-3.8c-0.8-3.7-0.8-3.7,3.6-3.3C363.8,41.3,363.8,42.5,363.9,43.6L363.9,43.6z"/>
		<path class="st2" d="M219.8,48h-3.3c-0.4-2.5-1.3-5,3.3-4L219.8,48L219.8,48z"/>
		<path class="st4" d="M327.5,43.7c0,1.4,0,2.8,0,4.3h-3.6l0.1,0.1c0-1.5,0-2.9,0-4.4v0.1L327.5,43.7z"/>
		<path class="st2" d="M363.9,43.6h3.3c0.5,2.5,1.2,4.9-3.3,4.1L363.9,43.6L363.9,43.6z"/>
		<path class="st2" d="M375.5,43.5v4.2L372,48v-4.5H375.5z"/>
		<path class="st2" d="M219.8,48h3.8c0.8,3.7,0.8,3.7-3.6,3.3C219.9,50.2,219.9,49.1,219.8,48L219.8,48z"/>
		<path class="st4" d="M323.9,47.9v3.4h-4.3V48l-0.1,0h4.4L323.9,47.9z"/>
		<path class="st2" d="M188.4,55.9v-4.2h3.4v4.2L188.4,55.9z"/>
		<path class="st2" d="M200.4,51.8l3.1-0.1v4.1l-3.1,0.2V51.8z"/>
		<path class="st2" d="M208.1,51.8h3.5l0.2,3.9l-3.5,0.2L208.1,51.8z"/>
		<path class="st2" d="M364,55.9v-4.1l3.3-0.2c0.1,1.4,0.1,2.6,0.2,4.1L364,55.9z"/>
		<path class="st2" d="M391.6,56H388c0-1.5,0-3-0.1-4.4v0h3.7L391.6,56z"/>
		<path class="st2" d="M335.6,59.6v-3.3c2.5-0.5,4.9-1.2,4.1,3.3L335.6,59.6L335.6,59.6z"/>
		<path class="st4" d="M184.1,59.7c0,1.4,0,2.8,0,4.3h-3.6l0,0v-4.3H184.1z"/>
		<path class="st2" d="M192.3,63.9v-4.1l3.3-0.2c0.1,1.4,0.1,2.6,0.2,4L192.3,63.9z"/>
		<path class="st2" d="M203.9,59.7c-0.1,1.4-0.1,2.9-0.2,4.3l-3.3-0.3v-4.1H203.9z"/>
		<path class="st4" d="M319.5,59.6v4.1l-3.4,0.2v-4.3L319.5,59.6L319.5,59.6z"/>
		<path class="st2" d="M335.5,59.6v3.8c-3.7,0.7-3.7,0.7-3.3-3.6L335.5,59.6L335.5,59.6z"/>
		<path class="st2" d="M380,64v-3.8c3.7-0.8,3.7-0.8,3.3,3.6L380,64L380,64z"/>
		<path class="st4" d="M180.4,67.5h-4.1c0-1.1-0.1-2.1-0.2-3.5h4.4l0,0L180.4,67.5z"/>
		<path class="st2" d="M375.7,111.2v-3.7l4.3,0.1l0,0c0,1.2,0,2.4,0,3.7L375.7,111.2z"/>
		<path class="st2" d="M387.8,91.6V95l-3.9,0.2c-0.1-1.2-0.1-2.2-0.2-3.4L387.8,91.6z"/>
		<path class="st2" d="M176.2,91.6v-3.3c2.5-0.5,4.9-1.2,4.1,3.3L176.2,91.6L176.2,91.6z"/>
		<path class="st2" d="M391.6,87.9H388v-4.4h0h3.7l0,0L391.6,87.9L391.6,87.9z"/>
		<path class="st2" d="M272.3,80c-0.1,1-0.1,2.1-0.2,3.4h-4.3c0.1-1,0.1-2.1,0.2-3.4H272.3z"/>
		<path class="st2" d="M176.4,80.1h3.9v3.2C177.8,83.7,175.5,84.3,176.4,80.1z"/>
		<path class="st4" d="M399.6,79.8v-4.2l3.6-0.1l-0.1-0.1v4.3L399.6,79.8z"/>
		<path class="st2" d="M388,80v-4.2h3.6V80l0,0H388L388,80z"/>
		<path class="st2" d="M283.9,79.8h-3.7c0.1-1.3,0.1-2.6,0.2-4h3.3C283.8,77.3,283.8,78.6,283.9,79.8z"/>
		<path class="st4" d="M403.3,75.6V72h4.3v-0.1v3.6L403.3,75.6L403.3,75.6z"/>
		<path class="st4" d="M303.6,72h4.2l0.2,3.5h-4.5C303.5,74.4,303.5,73.2,303.6,72z"/>
		<path class="st2" d="M299.9,75.5h-4.5c0.1-1,0.1-2.1,0.2-3.3l4-0.2L299.9,75.5z"/>
		<path class="st2" d="M395.2,67.6c0,1.4,0,2.9,0,4.3h-3.5c-0.1-1.4-0.2-2.8-0.3-4.2L395.2,67.6z"/>
		<path class="st2" d="M283.9,71.8h-3.5l-0.3-3.8l3.5-0.3L283.9,71.8z"/>
		<path class="st2" d="M195.8,71.9h-3.3c-0.4-2.5-1.3-4.9,3.3-4.1L195.8,71.9L195.8,71.9z"/>
		<path class="st2" d="M375.7,67.6v-3.7L380,64v0v3.5L375.7,67.6z"/>
		<path class="st4" d="M219.8,87.9l0.1,3.6h-3.6v-3.6L219.8,87.9z"/>
		<path class="st2" d="M387.9,107.6h3.7h0c0,1.2,0,2.5,0,3.7c-1.2,0-2.4,0-3.7,0V107.6L387.9,107.6z"/>
		<path class="st2" d="M391.6,80h3.7l0,0v3.6h-3.6l0,0L391.6,80L391.6,80z"/>
		<path class="st2" d="M395.2,103.2l-3.5,0.1v-3.5l3.6-0.2h0C395.2,100.8,395.2,102,395.2,103.2z"/>
		<path class="st2" d="M180.5,99.6h3.7l0,0v3.7h-3.7C180.5,102,180.5,100.8,180.5,99.6z"/>
		<path class="st2" d="M311.5,40v3.6h-3.6l0,0V40l0,0H311.5L311.5,40z"/>
		<path class="st2" d="M256.5,16.3c2.8-0.8,3.9,0.1,3,3C256.7,20.1,255.7,19.2,256.5,16.3z"/>
		<path class="st4" d="M267.5,19.4h-3.2v-3.2C267.3,15.5,268.5,16.3,267.5,19.4z"/>
		<path class="st4" d="M383.5,72v3.4l-3.4,0.2c-0.1-1.2-0.1-2.2-0.2-3.6L383.5,72L383.5,72z"/>
		<path class="st2" d="M294.3,20.1l-2.4-2.3l2-1.8l2,2.8L294.3,20.1z"/>
		<path class="st2" d="M232.2,27.6v-3.4l3.6-0.3v3.6v0L232.2,27.6L232.2,27.6z"/>
		<path class="st2" d="M319.5,24v3.7h0h-3.4c-0.1-1.2-0.1-2.1-0.3-3.6h3.7L319.5,24z"/>
		<path class="st2" d="M340.2,27.3c-0.8-2.8,0.1-3.9,3-3C344,27.1,343.2,28.1,340.2,27.3z"/>
		<path class="st4" d="M351.5,27.6h-3.4c-0.1-1.1-0.1-2.1-0.2-3.4l3.6-0.2L351.5,27.6L351.5,27.6z"/>
		<path class="st2" d="M264.1,72h3.8c-0.1,1-0.1,2.1-0.3,3.5h-3.5h0L264.1,72z"/>
		<path class="st2" d="M307.9,35.6v-3.4l3.6-0.2v3.6h0H307.9L307.9,35.6z"/>
		<path class="st2" d="M315.9,35.6V32h3.6h0v3.6L315.9,35.6L315.9,35.6z"/>
		<path class="st2" d="M343.2,32.2c0.8,2.8,0,3.9-2.9,3.2C339.4,32.9,339.9,31.5,343.2,32.2z"/>
		<path class="st4" d="M364,35.5v-3.4h3.5v3.5h0L364,35.5z"/>
		<path class="st2" d="M188.5,95.2v-3.7l0,0h3.7l0,0c0,1.2,0,2.4,0,3.7L188.5,95.2L188.5,95.2z"/>
		<path class="st4" d="M375.5,43.5H372c0-1.2,0-2.4,0-3.6h0h3.6l0,0C375.5,41.2,375.5,42.4,375.5,43.5z"/>
		<path class="st2" d="M383.6,39.9v3.4l-3.6,0.3V40l0,0L383.6,39.9L383.6,39.9z"/>
		<path class="st2" d="M172.6,95.3c0-1.2,0-2.5,0-3.7l3.6,0.1l0,0v3.7l0,0L172.6,95.3z"/>
		<path class="st2" d="M184.1,71.9v3.7v-0.1h-3.4l-0.2-3.4L184.1,71.9L184.1,71.9z"/>
		<path class="st2" d="M243.9,59.6h-3.2c-1-2.9-0.3-4.1,3-3.3C243.7,57.3,243.8,58.5,243.9,59.6L243.9,59.6z"/>
		<path class="st4" d="M256.3,56l3.5-0.1l0,0c0,1.2,0,2.4,0,3.7l-3.6-0.1h0.1C256.3,58.4,256.3,57.2,256.3,56z"/>
		<path class="st4" d="M280.2,56h3.7c0,1.2,0,2.4-0.1,3.6l0-0.1h-3.5C280.3,58.3,280.3,57.1,280.2,56z"/>
		<path class="st2" d="M303.5,55.9v3.4l-3.6,0.2v-3.7v0L303.5,55.9L303.5,55.9z"/>
		<path class="st2" d="M395.2,59.6h-3.5c-0.1-1.4-0.1-2.5-0.2-3.6h3.4C395.1,57.3,395.2,58.5,395.2,59.6z"/>
		<path class="st2" d="M180.4,67.5l0.1-3.5h3.7c0,1.2,0,2.5,0,3.7l0.1-0.1L180.4,67.5z"/>
		<path class="st2" d="M240.1,67.5c0.1-1.1,0.2-2.1,0.3-3.3l3.3-0.3l0.2,0.2c0,1.2-0.1,2.4-0.1,3.5v-0.1l-3.6,0.1L240.1,67.5z"/>
		<path class="st2" d="M272.2,64h3.4c0.1,1.2,0.1,2.2,0.2,3.4l-3.7,0.2l0.1,0.1L272.2,64L272.2,64z"/>
		<path class="st2" d="M288.2,64h3.2c1,2.9,0.3,4.1-3,3.3C288.4,66.2,288.3,65.1,288.2,64L288.2,64z"/>
		<path class="st1" d="M391.5,83.6h3.6v-3.6l4.5-0.1h3.5v-4.3h4.4V72h3.7l-0.1,7.9l-3.4,0.3l-0.5,3.3l-4.1,0.2h-3.4v4.2h3.4l4.1,0.3
			c0.2,1.3,0.3,2.3,0.5,3.3l3.3,0.2v3.5l-3.4,0.3v4.1l3.4,0.2c0,3.8,0,7.7,0,11.5l-3.6,0.1h-4.3l0.1-3.6l4.1-0.3v-4.1l-4.1-0.2
			c-0.1-1.1-0.2-2.2-0.3-3.6h-3.4h0l0-4.4L403,95c0.7-3.3-0.5-4-3.4-3v3.2h-4.4v-7l-3.7-0.2V83.6z"/>
		<path class="st4" d="M248.2,186.8h-4c-0.3-1.3-0.4-2.3-0.7-3.4l-3.3-0.2l0,0c0-1.2,0-2.4,0-3.7l3.7-0.2c-0.1-1.5-0.1-2.7-0.2-4.1
			h-3.4c-0.1-1.1-0.1-2.3-0.2-3.6h-4.2v-8h-7.9c0.1,1.5,0.1,2.4,0.2,3.6h4.1c0,1.5,0.1,3,0.1,4.5H228c-0.1,1.5-0.1,2.6-0.2,3.6l0,0
			l-3.5,0.2c-0.1,2.5-0.2,4.9-0.4,7.5h-4.1v-7l-3.8-1.2v-7.5h3.7v4.4l4.1-0.3v-4.1h-4.1c-0.1-1.1-0.1-2.3-0.2-3.3
			c-3.9-1.1-3.5,1.2-3.4,3.3h-4.3v7.5l-3.5,0.8c-0.1,1.2-0.3,2.3-0.5,3.8l-4.1,0.2v-8h4.4c-0.1-1.8-0.2-2.9-0.3-4.1h-4.1v4.1
			l-3.4-0.2l-0.6-4.2h-4.1l0,0c-0.1-1.1-0.1-2.3-0.2-3.5l-3.4-0.2v0.1c0-1.5,0-2.9,0-4.4l3.6-0.2v-3.5h4.4v-4.4l0.2-3.5l3.5-0.3h4.3
			v-4.3l3.7,0.2v7.8h-8c0.1,1.7,0.2,2.9,0.3,4.3h7.8c0,1.2,0,2.4,0,3.7l-3.4,0.2c-0.4,4.4-0.4,4.4,3.3,3.6v-3.8h4.4v-3.7h3.6
			c0.1,1.1,0.2,2.3,0.3,3.5h7.8v-3.4h3.8c1,3.9,1,3.9,4.3,2.9v-10.9h4.3v8h3.6l0.2,3.4l4.2,0.5v4.1l-4.1,0.2v7.8l4.1-0.2v-7.8
			l3.7,0.1l0.2,3.6l4.1-0.3v-3.4c0-1.4,0-2.9,0-4.4l3.4-0.1c0.7-3.3-0.5-4-3.3-3v3.2h-3.9c-0.4-1.4-0.7-2.5-1.1-3.6h-7.5
			c0-1.5,0-2.9,0-4.4l4.3-0.1h3.6l0.2-3.6l4.3-0.1c0.1,1.1,0.1,2.3,0.2,3.7l3.4-0.2v-3.4l4.3,0.1v7.9h8.2c0,1.2,0,2.4,0,3.6
			c0,2.7,0,5.4-0.1,8.1h-4.4h0v-8.1l-3.5,0.4c0,1.1-0.1,1.8-0.1,2.5c0,1.7,0.1,3.4,0.1,5l-0.2,0.2h-4.3v4.3l0,0
			c-1.8,0-3.6,0.1-5.4,0c-2.4-0.1-3,0.9-2.3,3.3l3.8,0.7v7.4l-3.6,0.3c-0.1-0.7-0.3-1.5-0.6-2.1c-0.5-0.6-1.3-1.4-1.9-1.4
			c-0.8,0.3-1.4,0.9-1.6,1.7c-0.1,1.8-0.2,3.6-0.1,5.4L248.2,186.8z M204.8,161.2c-1.4-1-2.4-2.1-2.8-1.9c-0.9,0.5-1.5,1.3-1.7,2.2
			c-0.1,0.6,1.1,1.9,1.7,1.8C202.8,163.3,203.5,162.3,204.8,161.2z"/>
		<path class="st4" d="M367.7,175.3c-0.1,1.3-0.2,2.5-0.3,4.2h-7.8l0,0.1v-7.8l-3.7-0.3l0,0V167h7.7v-7.4c-0.5-0.2-0.7-0.4-0.9-0.4
			l-11.3-0.1l-3.4,0.2v7.7h3.4l0.1,4.4l0,0l-3.6,0.2v3.4h-4.4c0.1,1.8,0.2,2.9,0.3,4.1h4.1v-4.1l3.7,0.1l0,0v11.4l-3.6,0.2l0,0
			c0-1.1-0.1-2.1-0.2-3.7h-7.9l0,0c-0.1-1.1-0.2-2.3-0.3-3.7l-4,0.2c-0.1,1.3-0.1,2.4-0.2,3.4l0,0H332v-7.7l-4.2-0.2
			c-0.2,1.4-0.4,2.6-0.6,4.1l-3.4,0.2v0.1c0-2.7,0-5.4,0-8l3.3-0.2c0.1-0.7,0.4-1.1,0.3-1.4c-0.5-1-1.1-1.9-1.7-2.8
			c-0.7,0.8-1.3,1.7-1.9,2.6c-0.2,0.5,0,1.2,0,1.8h-4.4l0,0c0-1.5,0-2.9,0-4.4c0-1.2-0.1-2.5-0.1-3.7c0-1.4,0-2.9,0-4.3h4.4
			c0,4.7,0,4.7,3.6,3.8v-3.8l4.5-0.1h3.5v-3.6h4.4c0,1.8,0.1,3.6,0,5.4c-0.1,3,1.3,3.1,3.4,2.2v-7.5h-3.5v-4.4h3.6v-3.6l4.3,0.1
			c0.1,1.1,0.2,2.3,0.3,3.6h7.9v4.3h7.9v-4.3l3.6-0.2l-0.3-3.5h-3.4c0-1.5,0-2.9,0-4.4h3.7v-3.6h4.4c0-1.8,0-3.1,0-4.4l3.6,0.1
			c0.1,1.3,0.1,2.6,0.3,4.3h7.8h0v3.7l0-0.1l-3.5,0.2v4h3.3l0.2,0.2v3.5h4.3l0,0v8l0,0h-4.4c-0.1-1.1-0.1-2.3-0.2-3.4
			c-3.3-0.7-4,0.4-3,3.4h3.2c0,1.5,0,3,0,4.4h0h-8v3.5l-0.2,0.2l-3.6-0.1l0,0.1v-3.7l-0.1-4.3l3.7-0.4v-3.4c0-4.4,0-4.4-3.6-3.9v3.8
			l-4.4,0.4v11.4c0,1.4,0.1,2.8,0.1,4.3l-0.2,0.2h-3.2c-1.1,3.8,1,3.7,3.2,3.4L367.7,175.3z M339.8,171.6l3.7-0.4
			c-0.1-1.4-0.1-2.6-0.2-4.1h-7.8c0-1.1-0.1-2.3-0.1-3.4c-3.3-0.7-4,0.4-3,3.3h3.2c0,1.4,0,2.9,0,4.4c0.1,1.1,0.1,2.3,0.2,3.4h4.1
			L339.8,171.6z"/>
		<path class="st4" d="M431.5,127.3v4.3h-7.7c-0.1,1.3-0.2,2.5-0.3,3.6l0,0l-8.1-0.1v-3.6l-4.3,0.3v3.4c0.1,1.4,0.1,2.7,0.2,4.4
			h12.2l0,0v3.4l-4,0.5c-0.2,1.2-0.4,2.3-0.6,3.9l-3.4,0.2l0,0c-0.1-1.4-0.1-2.8-0.2-4.1h-7.9v4.1l0,0h-4.4c0.1-0.9,0.1-1.9-0.1-2.8
			c-0.4-0.7-1-1.3-1.8-1.4c-0.5-0.1-1.4,0.7-1.6,1.3c-0.1,1,0,2,0.2,2.9h3.4c0,1.1,0.1,2.3,0.2,3.7h4.2l0,0v4.4l0,0h-7.7l-0.6-4.2
			l-4.1-0.2l0,0c0-2.3,0.2-4.6-3.5-3.2l-0.2,3.2l0,0h-3.7l0,0c-0.1-1.1-0.1-2.2-0.2-3.5h-4l-0.2-0.2c0-1.4,0.1-2.9,0.1-4.3l0,0.1
			l4.5-0.1h3.6c-0.1-1.4-0.1-2.4-0.2-3.4H388l-4.5-0.1h0l-0.1-4.4l4.5-0.1h3.6c-0.1-1.4-0.2-2.4-0.2-3.5H388c0-1.5,0-2.9,0-4.4
			l3.6-0.1l3.6,0.2l0.2,4.3v3.3h4.2v-3.4l0.2-4.3h3.4c0.1,1.8,0.2,3,0.2,4.3v3.4h4.2v-11l3.6-0.9l0.3-3.8l4.2-0.3v-3.3h3.8v3.6h4.3
			l0,0v8.1L431.5,127.3z M420.3,125.4c-1.5-0.9-2.3-1.7-3-1.7c-0.6,0-1.7,1.2-1.6,1.6c0.3,0.8,1,1.5,1.8,1.8
			C418.1,127.2,418.9,126.3,420.3,125.4L420.3,125.4z"/>
		<path class="st4" d="M280.2,186.8h-4.4l0,0c-0.1-1.1-0.1-2.3-0.2-3.5l-3.5-0.2l0,0c-0.1-1.1-0.2-2.3-0.3-3.7l-4,0.2
			c-0.1,1.3-0.1,2.4-0.2,3.4l0,0h-3.3l-0.7-3.3l-4-0.7v-7.7l0,0h4.3v-4.3l0.2-0.2l3.6,0.1h0v4.4c0.1,1.1,0.1,2.3,0.2,3.6h7.8v4.4
			l4.4-0.2v-4.1l3.5-0.2c0.1-1.4,0.2-2.4,0.3-3.5l4.3,0.1l3.7,0.1v3.6l-3.6,0.2v4.2h-4c-0.3,1.2-0.5,2.2-0.7,3.3l-3.2,0.7
			c-0.1,1.2-0.1,2.3-0.2,3.3L280.2,186.8z"/>
		<path class="st4" d="M184.2,167.1h-3.6v-7.8l-4.5-0.2l0,0c-0.1-1.1-0.1-2.3-0.2-3.5l-3.4-0.2l0,0v-4.4H168l0,0c0-1.2,0-2.4,0-3.7
			h4.4v-4.4h3.6v4.4l4.3-0.3V143h3.7c0,2.7,0,5.3,0,8l-3.7,0.2c0.1,1.5,0.1,2.7,0.2,4.1h3.4c0.1,1.1,0.1,2.3,0.2,3.6h4.2
			c0,1.5,0,2.9,0,4.4v-0.1h-4.2c-0.1,1.6-0.1,2.6-0.2,3.7L184.2,167.1z"/>
		<path class="st4" d="M319.5,171.5v3.3l-3.4,0.7c-0.1,1.2-0.3,2.4-0.5,4h-4.1l0,0c0-2.7,0-5.4,0-8v-4.3l-0.2-3.6h-3.4l0.1-4.2
			l3.6-0.2l4.3,0.1l0.1,4.3c0,1.2-0.1,2.5-0.1,3.7v4.2L319.5,171.5L319.5,171.5z"/>
		<path class="st4" d="M168.1,155.5l-3.4,0.2l-0.6,3.3h-2.5l-5.1-5.1v-10.8h3.6c0,1.5,0,2.9,0,4.4c0.1,1.1,0.1,2.3,0.2,3.7h7.8l0,0
			L168.1,155.5L168.1,155.5z"/>
		<path class="st4" d="M383.5,171.5v3.8h-15.8l-0.2-0.2v-3.4l0.2-0.2l4.3,0.1l3.5-0.2v-4.1l0.2-0.2l4.3,0.2v4.2L383.5,171.5z"/>
		<path class="st4" d="M176.1,159.2c0.1,1.4,0.1,2.9,0,4.3c-0.4,1.3-0.9,2.5-1.5,3.7l-2.9-2.6l0.5-0.7l-4-0.6v-7.7l0,0h4.4l0,0
			c0.1,1.1,0.1,2.3,0.2,3.5l3.4,0.2L176.1,159.2z"/>
		<path class="st4" d="M291.9,186.8v4.1h-11.6v-4.1l0,0H291.9L291.9,186.8z"/>
		<path class="st4" d="M235.8,183.1h-8v-8l0,0l4.4-0.1v4.4h3.6C235.9,180.7,235.9,181.9,235.8,183.1L235.8,183.1z"/>
		<path class="st4" d="M299.9,186.8h-8l0,0c0-1.2,0-2.4,0-3.7l3.6-0.2v-3.4h4.4L299.9,186.8L299.9,186.8z"/>
		<path class="st4" d="M387.9,159.2h7.1c0.1,1.4,0.2,2.6,0.2,2.7l-5.2,5.2h-2.1c0-1.2,0-2.4,0.1-3.5L387.9,159.2L387.9,159.2z"/>
		<path class="st4" d="M407.6,155.6c1.8,0,3.6,0.1,5.4,0c2.7-0.1,3,1.1,2.3,3.4l-3.7,0.4c-0.2,1.2-0.3,2.4-0.6,3.9l-3.4,0.2v-4.3
			L407.6,155.6L407.6,155.6z"/>
		<path class="st4" d="M347.9,186.8v7.8l-4.1,0.2v-8H347.9L347.9,186.8z"/>
		<path class="st4" d="M240.2,183.1v7.8l-4.3,0.3v-8l0,0L240.2,183.1L240.2,183.1z"/>
		<path class="st4" d="M415.6,147.5v3.6h-8l0,0v-3.7l0,0L415.6,147.5L415.6,147.5z"/>
		<path class="st4" d="M359.5,179.5v6.8c-4,0.6-4.1,0.4-3.3-6.5L359.5,179.5L359.5,179.5z"/>
		<path class="st4" d="M248,194.8v4.2l-3.9,0.3l-0.2-4.2L248,194.8z"/>
		<path class="st2" d="M407.6,159.2v4.3h-4.4c0-1.4,0-2.9,0.1-4.3L407.6,159.2z"/>
		<path class="st4" d="M188.5,167.2v4.1l-4.3,0.2v-4.4l0,0L188.5,167.2L188.5,167.2z"/>
		<path class="st4" d="M423.6,135.2h3.4c0.1,1.4,0.1,2.6,0.2,4.1l-3.7,0.2l0,0L423.6,135.2L423.6,135.2z"/>
		<path class="st4" d="M395.2,151.2c-0.3,1.9,1.2,5.1-3.6,4.1v-4.1l0,0H395.2L395.2,151.2z"/>
		<path class="st4" d="M403.3,159.3c0,1.4,0,2.9-0.1,4.3l-3.5-0.2c-0.1-1.3-0.1-2.5-0.2-4.1H403.3z"/>
		<path class="st2" d="M387.9,163.6c0,1.2,0,2.4-0.1,3.5h-4.3l0,0.1v-3.6h0L387.9,163.6z"/>
		<path class="st4" d="M403.2,163.5h4.4v3.6h-4.4h0L403.2,163.5z"/>
		<path class="st4" d="M195.8,167.1c-0.3,1.9,1.2,5.1-3.6,4v-4l0,0H195.8L195.8,167.1z"/>
		<path class="st2" d="M383.5,171.5H380v-4.2l3.6-0.1l0-0.1L383.5,171.5z"/>
		<path class="st4" d="M403.2,167.1c0,0.6,0.2,1.3,0,1.8c-0.6,0.9-1.2,1.8-1.9,2.6c-0.6-0.9-1.2-1.8-1.7-2.8
			c-0.1-0.2,0.1-0.7,0.3-1.4L403.2,167.1L403.2,167.1z"/>
		<path class="st4" d="M355.9,171.5v3.6h-4.4l0,0v-3.7l0,0L355.9,171.5L355.9,171.5z"/>
		<path class="st4" d="M396.2,177.3c-1.4,1.1-2.3,2.2-2.7,2.1c-0.9-0.4-1.6-1.2-1.8-2.1c-0.1-0.6,1-1.9,1.6-1.9
			C394.1,175.3,394.8,176.3,396.2,177.3z"/>
		<path class="st4" d="M319.5,183.2v-3.6h4.4v-0.1v3.6L319.5,183.2L319.5,183.2z"/>
		<path class="st4" d="M272.2,186.8h-4.4h0c0-1.2,0-2.4,0-3.7l0,0h4.4l0,0L272.2,186.8L272.2,186.8z"/>
		<path class="st4" d="M307.9,183.1v3.6h-4.4l0,0c0.1-1.1,0.1-2.3,0.2-3.6H307.9z"/>
		<path class="st4" d="M339.9,183.1v3.4l-4.1,0.2c-0.1-1.4-0.1-2.5-0.2-3.7l0,0H339.9L339.9,183.1z"/>
		<path class="st4" d="M248.2,186.8h3.4c0.2,1,0.3,2,0.2,2.9c-0.2,0.6-1.1,1.4-1.6,1.3c-0.8-0.2-1.5-0.7-1.8-1.4
			C248.1,188.7,248.1,187.7,248.2,186.8L248.2,186.8z"/>
		<path class="st4" d="M267.8,186.8c0,0.6,0.2,1.3,0,1.8c-0.6,0.9-1.2,1.8-1.9,2.6c-0.6-0.9-1.2-1.8-1.7-2.8
			c-0.1-0.2,0.1-0.7,0.3-1.4L267.8,186.8L267.8,186.8z"/>
		<path class="st4" d="M275.8,186.8c-0.3,1.9,1.2,5.1-3.6,4.1v-4.1l0,0H275.8L275.8,186.8z"/>
		<path class="st4" d="M303.5,186.8c-0.3,1.9,1.2,5.1-3.6,4.1v-4.1l0,0H303.5L303.5,186.8z"/>
		<path class="st2" d="M160.1,143.2h-3.6l-0.1-3.6h3.6C160.1,140.8,160.1,142,160.1,143.2L160.1,143.2z"/>
		<path class="st4" d="M192.2,167.2h-3.7l0,0v-3.7v0.1h3.7v-0.1L192.2,167.2L192.2,167.2z"/>
		<path class="st4" d="M311.5,179.5v3.5l-3.6,0.2l0,0c0-1.2,0-2.4,0-3.7H311.5L311.5,179.5z"/>
		<path class="st4" d="M319.5,183.1v3.2c-2.9,1-4,0.3-3.3-3L319.5,183.1L319.5,183.1z"/>
		<path class="st1" d="M156.4,88h3.6l0.1,27.6l0,0l-3.7,0.1l-4.3-0.1c0-2.7-0.1-5.4-0.1-8v-7.9h4.3v-4.5c0-1.2,0-2.4,0-3.6L156.4,88
			z"/>
		<path class="st1" d="M172.6,107.5v-4.3h3.6l0,0c0,1.5,0,2.9,0,4.4L172.6,107.5z"/>
		<path class="st1" d="M172.5,115.6l0.1-4.3l3.6-0.1c0,1.5,0,2.9,0,4.4H172.5L172.5,115.6z"/>
		<path class="st1" d="M168.2,115.6h4.3l0,0c0,1.2,0,2.4,0,3.7h-4.4L168.2,115.6z"/>
		<path class="st1" d="M172.6,95.3l3.6-0.1v4.4l-3.6-0.1C172.6,98.1,172.6,96.7,172.6,95.3z"/>
		<path class="st1" d="M164.5,119.2l-4.3-0.1c0-1.2,0-2.4-0.1-3.6l0,0h4.3C164.4,116.8,164.5,118,164.5,119.2z"/>
		<path class="st2" d="M176.2,111.2l-3.6,0.1v-3.7l3.6,0.1l0,0V111.2L176.2,111.2z"/>
		<path class="st2" d="M172.6,99.5l3.6,0.1l0,0c0,1.2,0,2.4,0,3.7h-3.6V99.5z"/>
		<path class="st4" d="M164.5,119.2c0-1.2-0.1-2.4-0.1-3.6h3.8c0,1.2-0.1,2.4-0.1,3.6L164.5,119.2L164.5,119.2z"/>
		<path class="st4" d="M411.2,91.7l-3.3-0.2c-0.1-1.1-0.3-2.1-0.5-3.3l-4.1-0.3v-4.2l4.1-0.2l0.5-3.3l3.4-0.3V91.7z"/>
		<path class="st1" d="M423.6,119.2h-4.3v-3.6l4.3-0.1C423.6,116.7,423.6,118,423.6,119.2z"/>
		<path class="st4" d="M411.2,99.7l-3.4-0.2v-4.1l3.4-0.3V99.7z"/>
		<path class="st2" d="M415.5,115.6v3.3l-4.2,0.3l-0.2-0.2v-3.4l0.2-0.2L415.5,115.6z"/>
		<path class="st2" d="M407.5,111.3l3.6-0.1l0.2,4.3l-0.2,0.2l-3.4-0.1L407.5,111.3z"/>
		<path class="st2" d="M160.1,127.2c0-1,0.1-2.1,0.2-3.6h4.2l0,0l0.2,3.5h3.3l0.2,0.2l-0.1,4.3l-3.6,0.2v3.4l-4.3,0.1l-3.6-0.3v-3.5
			h3.5L160.1,127.2z"/>
		<path class="st2" d="M164.5,119.2h3.7h4.4l0,0v4.4v3.7l-4.3,0.1l-0.2-0.2v-3.5h-3.5l0,0L164.5,119.2z"/>
		<path class="st1" d="M152.1,123.6c0-1.5,0-2.9,0-4.4l4.4,0.1h-0.1v4.2L152.1,123.6z"/>
		<path class="st3" d="M160.2,135.3l4.3-0.1c0,1.5,0,2.9,0,4.4h-4.4C160.1,138.1,160.2,136.7,160.2,135.3z"/>
		<path class="st1" d="M160.1,127.2v4.3h-3.5v-4.3H160.1z"/>
		<path class="st2" d="M160.1,115.6c0,1.2,0,2.4,0.1,3.6l-3.8,0.1h0.1c0-1.2,0-2.4,0-3.6L160.1,115.6z"/>
		<path class="st1" d="M148.6,123.6h3.6v3.6h-3.6C148.6,125.9,148.6,124.8,148.6,123.6z"/>
		<path class="st4" d="M156.4,115.7c0,1.2,0,2.4,0,3.6l-4.4-0.1v-3.7L156.4,115.7z"/>
		<path class="st3" d="M431.5,119.3v4.1h-4.3v-4.3L431.5,119.3z"/>
		<path class="st1" d="M383.6,40h-3.7v-4.4h3.7C383.6,37,383.6,38.5,383.6,40z"/>
		<path class="st1" d="M299.8,87.9v-4.2h8c0,1.4,0,2.8,0.1,4.3h-4.1c-0.9,4.5,1.5,3.7,4,3.3v-3.3h8v3.7l3.6-0.2v-3.4h4.4v-4.4l0,0
			h3.7h0v8h4.4h0c0.1,1.1,0.1,2.3,0.2,3.5l3.5,0.2h0v4.4h4.4h0v3.7h0h-4.4c0.1,1.8,0.2,2.9,0.3,4.4h4.2h0c0.1,1.1,0.1,2.3,0.2,3.5
			l3.5,0.2h0v4.4h4.4v3.6h3.6v4l-3.6,0.8v3.3h-4.5v-8h-3.5c0-1.1-0.1-2.3-0.2-3.4h-4.2v3.4h-3.6v-11.8h-4.4v-4.4l-3.6,0.3v4.1h-8v8
			h-4.4v-4.4l-3.6,0.3v4.1h-4.1c-0.2,1.2-0.4,2.2-0.6,3.3l-3.4,0.6v4h-8v3.6l-3.4,0.2v7.8h3.4c0,1.5,0,2.9,0,4.4l-7.9,0.1l-3.6-0.2
			l-0.1-4.3h3.6l-0.2-3.6h-3.5c0-1.5,0-2.9,0-4.4h3.6v-3.6h4.4v-4.4l3.4-0.2c0.8-3.3-0.4-4-3.3-3v3.2h-4.4v-3.6h-3.6v-4.2h-4.1v4.1
			h4.1v3.6h3.6v4.4h-3.6v3.6h-8v-3.7l3.4-0.2c0.4-4.4,0.4-4.4-3.3-3.6v3.8h-4.4v-4.4h-3.6c0-1.1-0.1-2.3-0.2-3.6h-4.2
			c0-2.7,0-5.3,0-8h4.3c0.1,1.1,0.1,2.3,0.2,3.6h3.5v4.2h4.1v-4.1h-4.1c0.1-1.1,0.2-2.3,0.2-3.5l3.9-0.4v-4.2h-4.1v-3.6h4.4v-4.4
			l0,0h8v3.9l0.8-0.5l4.5,4.5l2.8-0.2v-7.4l0.8,0.5l4.6-4.7h6.1L299.8,87.9z M299.9,111.2h-4.2v4.1h4.1L299.9,111.2l3.3-0.2
			c0.8-3.3-0.5-4-3.3-3L299.9,111.2z M319.5,99.5h4.2v-4.1h-4.1L319.5,99.5l-3.3,0.2c-0.8,3.3,0.5,4,3.3,3L319.5,99.5z M311.3,107.5
			v-4.1h-3.3v3.9L311.3,107.5z M290.8,111.6c1.5-4.2,0.2-4.6-3.6-3.1L290.8,111.6z M295.2,99.9c-3-0.9-3.8,0.2-3,3
			C295.1,103.7,296,102.7,295.2,99.9L295.2,99.9z"/>
		<path class="st1" d="M327.6,80.1h7.8l0.3-4.4h4.2c0,2.6,0,5.1,0,7.9h3.7h0c0,1.5,0,2.9,0,4.4h-3.6c0.1,1.4,0.2,2.4,0.2,3.6h3.4
			c0.1,1.1,0.1,2.3,0.2,3.7h7.8h0c0,1.5,0,2.9,0,4.4h-3.6l0.2,3.6h3.4v4.4h-3.6v3.6h-4.4h0c-0.1-1.1-0.1-2.3-0.2-3.5l-3.5-0.2h0
			v-4.4h0l3.6-0.2c-0.1-1.3-0.1-2.2-0.2-3.4h-3.4h0v-4.4h-4.4h0c-0.1-1.1-0.1-2.3-0.2-3.5l-3.5-0.2h0v-8h-4.4h0L327.6,80.1z"/>
		<path class="st2" d="M203.9,115.5H224l0.3-4.3h3.3v-3.5h-3.3v-4.1l3.3-0.6c0.1-0.9,0.3-2,0.5-3.3h4.2v3.4h3.5l0.2,0.2l-0.1,4.3
			l-3.7,0.2v7.5l-4.3,0.6v3.3l-3.6,0.2v4.2c0,1.2,0,2.4,0,3.6h-3.9l0.4-0.8l-4.5-4.5c0-0.2-0.2-1.3-0.4-2.7l-3.8,0.2
			c-0.2,1.6-0.4,2.8-0.6,4l-3.4,0.2l0.1,0.1v-4.5h-7.8c-0.1-1.4-0.1-2.5-0.2-3.6L203.9,115.5z"/>
		<path class="st2" d="M299.8,87.9v3.6h-6.1l-4.6,4.7l-0.8-0.5v7.4l-2.8,0.2l-4.5-4.5l-0.8,0.5v-3.9h0l3.7-0.2v-3.4h-0.1h4.4V88
			L299.8,87.9z"/>
		<path class="st1" d="M363.8,111.2l0.2,4.3v3.7h3.6l0,0c0,1.5,0,2.9,0,4.4h-3.6v3.6h-4c-0.2-1.3-0.4-2.3-0.6-3.4l-3.4-0.6v-4h3.6
			l-0.2-3.6h-3.4v-4.4L363.8,111.2z"/>
		<path class="st1" d="M363.8,95.3v12.3l-7.9,0.1v-4.4h3.6l-0.2-3.6h-3.4v-4.4h-4.4h0c0-1.2,0-2.5,0-3.7h8.1h0
			c0.1,1.1,0.1,2.3,0.2,3.5L363.8,95.3z"/>
		<path class="st1" d="M351.6,72.1h7.9c0,1.2,0,2.4,0,3.6h0l-3.7,0.2V80h0h-4.3c-0.1,1.6-0.1,2.6-0.2,3.7h0h-8l0,0v-7.9l4.3-0.2h3.5
			L351.6,72.1z"/>
		<path class="st2" d="M259.9,107.6c0,2.7,0,5.3,0,8l0,0h-3.7c0-1.5,0-2.9,0-4.4v-7.9h-4.3c-0.1-1.2-0.1-2.4-0.2-3.6l0.2-0.2h4.2
			v-4.1l3.7-0.1h0v4.4h4.4l0,0v3.7l0,0h-4.4L259.9,107.6z"/>
		<path class="st1" d="M363.8,83.6v7.9h-4.3h0c-0.1-1.1-0.2-2.3-0.3-3.6h-7.8l0-4.4h0h4.3c0.1-1.6,0.1-2.6,0.2-3.7h0h3.7h0
			c0.1,1.1,0.1,2.3,0.2,3.5L363.8,83.6z"/>
		<path class="st1" d="M200.2,79.9v7.8l3.5,0.3c0,2.4,0,4.8,0,7.1l-3.6,0.1c-0.1-1.1-0.1-2.3-0.2-3.7h-4.2l0,0c0-3.9,0-7.8,0-11.7
			L200.2,79.9z"/>
		<path class="st2" d="M235.8,99.7l4.4-0.2l8.1,0.1l0,0c-0.1,1.1-0.1,2.3-0.2,3.8h-12l-0.2-0.2V99.7z"/>
		<path class="st4" d="M203.9,115.5l-3.7,0.1l0,0v-4.4h-4.4c0-1.2,0.1-2.4,0.1-3.6l4.3-0.2h3.5L203.9,115.5z"/>
		<path class="st4" d="M248.2,99.6l-8.1-0.1c0.1-1.3,0.2-2.6,0.3-4.2h7.9L248.2,99.6z"/>
		<path class="st2" d="M307.9,88c0-1.4,0-2.8-0.1-4.3l8-0.2l0.2,0.2c-0.1,1.4-0.1,2.8-0.2,4.3h0L307.9,88L307.9,88z"/>
		<path class="st1" d="M367.6,115.6h7.9l0,0v3.7H372l-4.5-0.1l0,0C367.6,118,367.6,116.8,367.6,115.6z"/>
		<path class="st2" d="M280.2,95.2h-8c0-1.2,0-2.4,0.1-3.6l7.9-0.3l0,0.3L280.2,95.2L280.2,95.2z"/>
		<path class="st2" d="M343.6,75.7v7.9h-3.7c0-2.8,0-5.4,0-7.9H343.6z"/>
		<path class="st2" d="M355.9,107.6l7.9-0.1v3.7l-7.9-0.1h0L355.9,107.6L355.9,107.6z"/>
		<path class="st1" d="M363.8,75.6v4.3h-4.3h0v-4.3h0L363.8,75.6z"/>
		<path class="st4" d="M248.3,87.9h-4.5c0-1.4,0.1-2.9,0.1-4.3l0,0h4.4l0,0C248.2,85,248.2,86.4,248.3,87.9z"/>
		<path class="st1" d="M256.1,95.3v4.2h-4.2l-0.1-4.2H256.1z"/>
		<path class="st1" d="M375.7,111.2h4.3l0,0c0,1.5,0,2.9,0,4.4h-4.4l0,0L375.7,111.2z"/>
		<path class="st4" d="M200.2,95.2l3.6-0.1c0,1.5,0,3,0,4.5l-3.4-0.2C200.2,98,200.2,96.6,200.2,95.2z"/>
		<path class="st1" d="M203.7,107.5h-3.5l-0.1-4.3l3.6,0.1L203.7,107.5z"/>
		<path class="st2" d="M251.9,95.3l0.1,4.2l-0.2,0.2l-3.6-0.1l0,0l0.1-4.3L251.9,95.3z"/>
		<path class="st2" d="M359.5,91.6h4.3v3.7l-4.1-0.2C359.7,93.8,359.6,92.7,359.5,91.6z"/>
		<path class="st4" d="M272.3,91.7c0,1.2,0,2.4-0.1,3.6h-4.4c0-1.2,0-2.4-0.1-3.6H272.3z"/>
		<path class="st2" d="M259.9,95.2v-3.6h4.4c0,1.1,0,2.3,0,3.4l-0.2,0.2L259.9,95.2L259.9,95.2z"/>
		<path class="st1" d="M288.2,88v3.5h-4.4l0.1-3.6L288.2,88z"/>
		<path class="st2" d="M248.3,87.9c0-1.4-0.1-2.8-0.1-4.3h3.7h-0.1v4.3L248.3,87.9z"/>
		<path class="st1" d="M243.9,83.6c0,1.4-0.1,2.9-0.1,4.3h-3.5c0-1.4,0-2.8,0-4.3L243.9,83.6z"/>
		<path class="st2" d="M359.5,79.9h4.3v3.7l-4.1-0.2C359.7,82.2,359.6,81,359.5,79.9z"/>
		<path class="st1" d="M319.6,80.1h4.3v3.6l0,0h-4.4L319.6,80.1z"/>
		<path class="st1" d="M251.8,80h4.3v3.5h-4.3h0.1C251.9,82.4,251.9,81.2,251.8,80z"/>
		<path class="st2" d="M363.8,75.6h-4.3c0-1.2,0-2.4,0-3.6h4.3L363.8,75.6z"/>
		<path class="st4" d="M367.6,115.6c0,1.2,0,2.4,0,3.6H364v-3.7L367.6,115.6z"/>
		<path class="st1" d="M224.3,107.6h3.3v3.5h-3.3V107.6z"/>
		<path class="st2" d="M323.9,83.6v-3.6h3.7v3.6H323.9z"/>
		<path class="st2" d="M319.6,80.1l-0.1,3.6h0l-3.5,0.2l-0.2-0.2l0.3-3.4L319.6,80.1z"/>
		<path class="st1" d="M235.8,99.7l-0.1,3.4h-3.5v-3.4H235.8z"/>
		<path class="st2" d="M203.7,103.3l-3.6-0.1h0.1c0-1.2-0.1-2.4-0.1-3.6l0.2-0.2l3.4,0.2L203.7,103.3z"/>
		<path class="st2" d="M351.6,72.1l-0.2,3.4h-3.5c0.1-1,0.1-2.1,0.2-3.4H351.6z"/>
		<path class="st1" d="M264.3,95.1c0-1.1,0-2.3,0-3.4h3.5c0,1.2,0,2.4,0.1,3.6L264.3,95.1z"/>
		<path class="st4" d="M283.9,88l-0.1,3.6h0.1l-3.6,0.2l0-0.3c0.1-1,0.1-2,0.2-3.4L283.9,88z"/>
		<path class="st1" d="M272.2,59.6l-4.5,0.1l-3.6-0.1c-0.1-1.1-0.1-2.3-0.2-3.6h-4.1c0-2.7,0-5.3,0-8h4.4h0c0.1,1.1,0.1,2.3,0.2,3.5
			l3.5,0.2l0,0v4.1l4.2,0.5C272.1,57.3,272.2,58.5,272.2,59.6z"/>
		<path class="st1" d="M272.2,47.9l3.3,0.3c0.8,2.3,0.6,3.7-2.3,3.5c-1.8-0.1-3.6,0-5.3,0l0,0c0-1.2,0-2.5,0-3.7h0L272.2,47.9z"/>
		<path class="st4" d="M272.2,47.9l-4.4,0.1v-4.4h4.3L272.2,47.9z"/>
		<path class="st1" d="M288.2,40c0-1.5,0-3,0-4.4l0,0h3.7l0,0c0,1.5,0,2.9,0,4.4L288.2,40z"/>
		<path class="st1" d="M276,40.1h4c0.1,1.3,0.2,2.4,0.2,3.5H276V40.1z"/>
		<path class="st1" d="M307.9,40v3.7h-4.4V40H307.9z"/>
		<path class="st1" d="M267.8,43.6V48h0h-3.7h0c0-1.5,0-2.9,0-4.4L267.8,43.6z"/>
		<path class="st1" d="M280.2,43.6h3.7l0,0V48l0,0h-3.7V43.6z"/>
		<path class="st1" d="M291.9,43.6v4.2l-3.6,0.2l0,0v-4.4l0,0.1L291.9,43.6z"/>
		<path class="st1" d="M303.5,43.6V48h-3.4v-4.2L303.5,43.6z"/>
		<path class="st1" d="M288.2,48v3.4l-4.1,0.2c-0.1-1.4-0.1-2.5-0.2-3.7l0,0H288.2L288.2,48z"/>
		<path class="st1" d="M295.5,55.9h-3.3c-0.4-2.5-1.2-4.9,3.3-4L295.5,55.9L295.5,55.9z"/>
		<path class="st1" d="M303.5,56h-3.7v-4.2l3.7-0.2V56z"/>
		<path class="st1" d="M283.8,59.6c0-1.2,0-2.4,0.1-3.6h4.1c0.1,1.4,0.2,2.5,0.2,3.6L283.8,59.6z"/>
		<path class="st1" d="M295.5,32v3.7h-3.7l0,0V32h0H295.5z"/>
		<path class="st4" d="M291.9,43.6h-3.7c0-1.2,0-2.4,0.1-3.7l0,0l3.6,0L291.9,43.6z"/>
		<path class="st4" d="M243.8,72h4.4v8l0,0h-4.4l0,0l-0.1-4.4L243.8,72L243.8,72z"/>
		<path class="st4" d="M248.2,64c0-1.4,0.1-2.8,0.1-4.2h3.4l0.1,4.3L248.2,64L248.2,64z"/>
		<path class="st1" d="M256.2,59.5l3.6,0.1c0,1.5,0,2.9,0,4.4l0,0h-3.7V59.5z"/>
		<path class="st4" d="M243.8,67.6c0-1.2,0.1-2.4,0.1-3.5l4.3-0.1l0,0v3.6L243.8,67.6z"/>
		<path class="st1" d="M264.1,64v3.6h-4.3v-3.6l0,0L264.1,64z"/>
		<path class="st1" d="M264.1,72l0.1,3.6H260c-0.1-1.4-0.1-2.5-0.2-3.7L264.1,72z"/>
		<path class="st4" d="M240.3,67.7l3.6-0.1V72l0,0h-3.7l0,0L240.3,67.7z"/>
		<path class="st4" d="M251.8,80c0,1.2,0,2.4,0,3.6h-3.7l0,0v-3.7l0,0L251.8,80z"/>
		<path class="st1" d="M248.2,67.6v-3.6h3.6v3.4L248.2,67.6z"/>
		<path class="st1" d="M227.8,43.6v-8h4.1c0.2,1.5,0.3,2.7,0.5,4.2l3.4,0.2v3.7L227.8,43.6z"/>
		<path class="st1" d="M235.8,40v-8h4.2v8H235.8z"/>
		<path class="st1" d="M248.2,32h-4.1v-4.2h4.1L248.2,32L248.2,32z"/>
		<path class="st1" d="M248.2,35.6V40H244l-0.3-4.4H248.2z"/>
		<path class="st1" d="M232.2,27.6h3.7V32l-3.7-0.2V27.6z"/>
		<path class="st1" d="M251.9,35.6h-3.7v-3.7l0,0h3.7V35.6z"/>
		<path class="st1" d="M232.2,80v-4.4h-4.4v-3.7h8l0.2,3.6h4.2V80l0,0H232.2z"/>
		<path class="st4" d="M243.9,83.6h-3.7V80h3.6l0,0v3.7L243.9,83.6z"/>
		<path class="st2" d="M264.1,64h-4.3c0-1.5,0-2.9,0-4.4c0-1.2,0-2.4,0-3.7h4.2c0.1,1.4,0.2,2.5,0.2,3.6
			C264.2,61.1,264.1,62.5,264.1,64z"/>
		<path class="st1" d="M272.2,63.9v3.7H268V64L272.2,63.9z"/>
		<path class="st1" d="M283.8,32h4.4l0,0v3.7l0,0h-4.2C284,34.2,283.9,33.1,283.8,32z"/>
		<path class="st1" d="M288.3,40c0,1.2-0.1,2.4-0.1,3.7l0-0.1h-4.4l0,0V40H288.3z"/>
		<path class="st4" d="M240.2,75.5H236l-0.2-3.5h4.4l0,0c0,1.2,0,2.4,0,3.7L240.2,75.5z"/>
		<path class="st1" d="M192.2,91.6h-3.7v-8l3.7,0.2V91.6z"/>
		<path class="st1" d="M192.2,95.2c0-1.2,0-2.4,0-3.7h3.7l0,0v3.6L192.2,95.2L192.2,95.2z"/>
		<path class="st1" d="M388,107.5v3.7l0,0h-8l0,0c0-1.2,0-2.4,0-3.7H388z"/>
		<path class="st1" d="M323.9,48h-4.4v-4.4h4.4C323.9,45.1,323.9,46.5,323.9,48z"/>
		<path class="st1" d="M288.3,32c0-1.5,0-2.9,0-4.4l3.6,0.2V32h0H288.3L288.3,32z"/>
		<path class="st1" d="M391.6,79.9v3.7h-3.7v-3.7H391.6z"/>
		<path class="st1" d="M176.2,103.2c0-1.2,0-2.4,0-3.7h4.4c0,1.2,0,2.4,0,3.7l0,0L176.2,103.2L176.2,103.2z"/>
		<path class="st1" d="M184.1,103.2v-3.7h4.4l0,0c-0.1,1.1-0.1,2.3-0.2,3.6L184.1,103.2L184.1,103.2z"/>
		<path class="st1" d="M188.5,95.2h3.7l0,0v4.4h-3.6l0,0C188.5,98.1,188.5,96.7,188.5,95.2z"/>
		<path class="st1" d="M395.2,103.2c0-1.2,0-2.4,0-3.7h4.4h0c0,1.2,0,2.4,0,3.7H395.2L395.2,103.2z"/>
		<path class="st1" d="M307.9,35.6h3.7V40h-3.7V35.6z"/>
		<path class="st1" d="M391.6,111.2c0-1.2,0-2.5,0-3.7h3.6l4.4,0.1l0,0v3.7L391.6,111.2L391.6,111.2z"/>
		<path class="st2" d="M399.6,107.6l-4.4-0.1l0.1-4.3h4.4V107.6z"/>
		<path class="st1" d="M387.9,111.2c1.2,0,2.4,0,3.7,0l0,0c0,1.5,0,2.9,0,4.4H388L387.9,111.2L387.9,111.2z"/>
		<path class="st1" d="M180.5,103.2h3.7l0,0c0,1.5,0,2.9,0,4.4l0,0h-3.7l0,0L180.5,103.2L180.5,103.2z"/>
		<path class="st4" d="M399.6,107.6v-4.4l0,0l3.7-0.1l4.1,0.2v4.1l-4.1,0.3L399.6,107.6L399.6,107.6z"/>
		<path class="st4" d="M407.5,111.3l0.1,4.3c0,1.2,0,2.4-0.1,3.6l-4.3-0.1l-0.2-3.6l0.1-4.3v0.1L407.5,111.3z"/>
		<path class="st2" d="M403.3,83.7v4.2h-3.4v-4.2H403.3z"/>
		<path class="st2" d="M399.6,107.6l3.7,0.1l-0.1,3.6v-0.1h-3.7h0L399.6,107.6z"/>
		<path class="st2" d="M403.3,103.1l-3.7,0.1c0-1.2,0-2.4,0-3.7h3.4C403.1,100.9,403.2,102,403.3,103.1z"/>
		<path class="st2" d="M399.6,95.2V92c2.9-1,4-0.3,3.4,3L399.6,95.2L399.6,95.2z"/>
		<path class="st2" d="M211.8,151.2v-7.8l-3.7-0.2h-4.4c-0.1-1.1-0.1-2.3-0.2-3.4c-3.3-0.7-4,0.4-3,3.4h3.2c0,1.4,0,2.9,0.1,4.3
			l-3.5,0.3c-0.1,1.2-0.1,2.3-0.2,3.5l-4.3,0.1l-3.6-0.4v-3.4h3.5v-4.3c0-3.9,0-7.8,0-11.6h4.4l3.4,0.2c0.2,1.1,0.4,2.2,0.6,3.4h4.1
			v4.4h3.6h4.3c0,1.2,0.1,2.5,0.1,3.7v8.1v-0.1h-4.4L211.8,151.2z"/>
		<path class="st2" d="M240.2,147.5H236v10.9c-3.3,0.9-3.3,0.9-4.3-2.9h-3.8h0.1c0-1.5,0-2.9-0.1-4.4h4.1v-7.9h-7.8l0.1-3.7h3.5
			v-7.9l4.3-0.1l0.1,3.7v4.4h3.6c0.1,1.1,0.1,2.3,0.2,3.4l4.1,0.6L240.2,147.5L240.2,147.5z"/>
		<path class="st2" d="M264.1,147.7l-4.3-0.1l0,0c0-1.5,0-2.9,0-4.4v-11.6l4.4,0.3v11.4c0,1.4,0.1,2.8,0.1,4.3L264.1,147.7z"/>
		<path class="st2" d="M251.9,147.5l-0.2,3.6h-3.6v-3.4h-4.2l-0.2-0.2v-7.9h4.5c0,1.1,0.1,2.3,0.2,3.6h3.5
			C251.9,144.6,251.9,146.1,251.9,147.5z"/>
		<path class="st2" d="M248.2,163.5v-4.1l-4.2-0.5l-0.2-3.4l0,0h7.5c0.3,1.1,0.6,2.2,1.1,3.6h3.9l0,0c0,1.5,0,2.9,0,4.4l-4.3,0.1
			L248.2,163.5L248.2,163.5z"/>
		<path class="st2" d="M272.3,155.6h-8.2v-7.9l0.2-0.2l3.5,0.1c0.1,1.1,0.1,2.3,0.2,3.6h4.2C272.2,152.6,272.2,154.2,272.3,155.6
			L272.3,155.6z"/>
		<path class="st2" d="M272.2,167.2c0-2.7,0-5.4,0.1-8.1h3.5h4.4c0,1.5,0,2.9,0,4.4h0h-4.4v3.6L272.2,167.2L272.2,167.2z"/>
		<path class="st2" d="M211.8,155.5H204c-0.1-1.4-0.2-2.6-0.3-4.3h8l0,0L211.8,155.5L211.8,155.5z"/>
		<path class="st3" d="M248.2,163.5v7.8l-4.1,0.2v-7.8L248.2,163.5z"/>
		<path class="st2" d="M227.8,155.5v3.5H220c-0.1-1.2-0.2-2.3-0.3-3.5l0,0L227.8,155.5L227.8,155.5z"/>
		<path class="st3" d="M232.2,171.6c0-1.5-0.1-3-0.1-4.5c0-1.2,0-2.4,0.1-3.6h3.6v8l0,0L232.2,171.6L232.2,171.6z"/>
		<path class="st2" d="M243.9,155.5h-3.6v-8h-0.1l3.6-0.1l0.2,0.2c0,1.2-0.1,2.4-0.1,3.5C243.9,152.6,243.9,154.1,243.9,155.5z"/>
		<path class="st2" d="M267.9,167.2l-3.6-0.1c0-1.7-0.1-3.4-0.1-5c0-0.7,0.1-1.4,0.1-2.5l3.5-0.4V167.2z"/>
		<path class="st3" d="M203.8,171.6v-4.1h4.1c0.1,1.2,0.2,2.3,0.3,4.1L203.8,171.6L203.8,171.6z"/>
		<path class="st3" d="M219.8,167.2h4.1v4.1l-4.1,0.3L219.8,167.2L219.8,167.2z"/>
		<path class="st3" d="M264.1,167.3v4.3h-4.3v-4.3H264.1z"/>
		<path class="st2" d="M267.9,171.5v-4.4h4.4l0,0c0,1.5,0,2.9,0,4.4l0,0L267.9,171.5z"/>
		<path class="st1" d="M203.8,143.2h4.4v4.3h-4.3C203.9,146,203.9,144.6,203.8,143.2L203.8,143.2z"/>
		<path class="st1" d="M251.9,147.5c0-1.4,0-2.9,0-4.4l0,0h4.4h0v4.4l0-0.1L251.9,147.5z"/>
		<path class="st3" d="M195.9,151.3l4.3-0.1v4.4h-4.4l0,0C195.8,154.1,195.8,152.7,195.9,151.3z"/>
		<path class="st1" d="M243.9,151.2c0-1.2,0.1-2.3,0.1-3.5h4.2v3.4L243.9,151.2z"/>
		<path class="st1" d="M219.8,155.5h-3.6v0.1v-4.3v0.1h3.6L219.8,155.5L219.8,155.5z"/>
		<path class="st2" d="M211.8,159.2c0-1.2,0-2.4,0-3.7l0,0h4.4v-0.1v3.7L211.8,159.2L211.8,159.2z"/>
		<path class="st3" d="M192.2,163.6h-3.7c0-1.5,0-2.9,0-4.4l0,0h3.7l0,0C192.1,160.6,192.2,162.1,192.2,163.6z"/>
		<path class="st3" d="M204.8,161.2c-1.4,1.1-2.1,2.1-2.9,2.2c-0.5,0.1-1.7-1.3-1.7-1.8c0.2-1,0.9-1.8,1.7-2.2
			C202.4,159.1,203.4,160.2,204.8,161.2z"/>
		<path class="st2" d="M232.2,163.5c0,1.2,0,2.4-0.1,3.6H228c-0.1-1.2-0.1-2.1-0.2-3.6H232.2z"/>
		<path class="st3" d="M251.9,163.6l4.3-0.1v3.4l-4.1,0.3L251.9,163.6z"/>
		<path class="st3" d="M232.2,175.1l-4.4,0.1c0.1-1.1,0.1-2.1,0.2-3.6h4.2l0,0V175.1L232.2,175.1z"/>
		<path class="st3" d="M235.8,171.6h4.2c0.1,1.4,0.1,2.5,0.2,3.6l0,0h-4.4l0,0L235.8,171.6L235.8,171.6z"/>
		<path class="st3" d="M240.2,175.2h3.4c0.1,1.4,0.1,2.6,0.2,4.1l-3.7,0.2l0,0V175.2L240.2,175.2z"/>
		<path class="st3" d="M240.2,183.2h-4.4c0-1.2,0-2.4,0-3.7l0,0h4.4l0,0C240.2,180.7,240.2,182,240.2,183.2z"/>
		<path class="st2" d="M211.8,159.1v3.9c-3.8,0.8-3.8,0.8-3.3-3.6L211.8,159.1L211.8,159.1z"/>
		<path class="st3" d="M195.8,155.5v3.5l-3.6,0.2l0,0c0.1-1.1,0.1-2.3,0.2-3.6L195.8,155.5L195.8,155.5z"/>
		<path class="st2" d="M256.2,159.2V156c2.9-1,4.1-0.3,3.3,3L256.2,159.2L256.2,159.2z"/>
		<path class="st1" d="M275.8,159.2h-3.5c0-1.2,0-2.4,0-3.6h-0.1h3.6L275.8,159.2z"/>
		<path class="st3" d="M192.1,167.2v-3.7l3.4,0.2c0.1,1.2,0.2,2.4,0.2,3.5H192.1z"/>
		<path class="st3" d="M219.8,167.1h-3.7l0,0c-0.1-2.1-0.4-4.4,3.4-3.3C219.6,164.8,219.7,166,219.8,167.1L219.8,167.1z"/>
		<path class="st2" d="M259.8,147.5v3.4l-3.4,0.2c-0.1-1.4-0.1-2.5-0.2-3.7l0,0.1L259.8,147.5L259.8,147.5z"/>
		<path class="st2" d="M372,135.2v4.4h-8v-4.4l0,0l3.7-0.3v-7.8h0h4.3v-3.6l0.2-0.2l3.5,0.1h4.4l0,0c0,2.7,0,5.4,0,8h-8L372,135.2z"
			/>
		<path class="st3" d="M355.9,171.6h-4.4c0-1.5,0-3-0.1-4.4c0-2.7,0-5.3,0.1-7.9l11.3,0.1c0.2,0,0.4,0.2,0.9,0.4v7.3h-7.7V171.6z"/>
		<path class="st2" d="M332,159.1l-4.5,0.1l0,0c-0.1-1.1-0.1-2.3-0.2-3.6h-11.5l0,0c0-2.7,0-5.4,0-8.1h3.6c0.1,1.1,0.1,2.3,0.2,3.6
			h4.2l8,0.1c0,1.4,0,2.9,0,4.3C331.9,156.7,331.9,157.9,332,159.1z"/>
		<path class="st2" d="M335.5,171.5c0-1.5,0-2.9,0-4.4h0h7.8c0.1,1.5,0.1,2.6,0.2,4.1l-3.7,0.4L335.5,171.5z"/>
		<path class="st2" d="M383.5,135.2l0.1,4.4h-7.8c-0.1-1.7-0.2-3-0.3-4.3l4.4-0.1L383.5,135.2L383.5,135.2z"/>
		<path class="st1" d="M347.9,147.6l-4.3-0.1l0,0.1l0-4.4l8,0.1c0,1.4,0,2.9,0.1,4.3L347.9,147.6z"/>
		<path class="st1" d="M379.9,135.2l-4.4,0.1l-3.6-0.1c0-1.1,0-2.1,0-3.6h8l0,0C379.9,132.8,379.9,134,379.9,135.2z"/>
		<path class="st2" d="M367.6,159.2v-3.4l4.4-0.4l3.6,0.1v3.4l-3.7,0.4L367.6,159.2z"/>
		<path class="st2" d="M339.8,155.5h3.5v7.5c-2.1,0.9-3.5,0.8-3.4-2.2C340,159.1,339.9,157.3,339.8,155.5L339.8,155.5z"/>
		<path class="st3" d="M383.6,167.2l-3.6,0.1l-4.3-0.2v-3.5h8L383.6,167.2z"/>
		<path class="st2" d="M347.9,147.6l3.7-0.1h4.4c0,1.2,0,2.5,0,3.7l0.1-0.1h-7.8C348.1,149.9,348,148.8,347.9,147.6z"/>
		<path class="st2" d="M351.5,159.2c0,2.7,0,5.3-0.1,7.9h-3.4v-7.7L351.5,159.2z"/>
		<path class="st3" d="M371.9,171.5l-4.3-0.1c0-1.4-0.1-2.8-0.1-4.3l4.4,0.1l0-0.1L371.9,171.5z"/>
		<path class="st3" d="M347.9,175.1v4.1h-4.1c-0.1-1.2-0.2-2.3-0.3-4.1L347.9,175.1L347.9,175.1z"/>
		<path class="st1" d="M363.9,143.2c0,1.4,0,2.9,0,4.4h0.1h-4.3l-0.1-4.3l4.4,0.1L363.9,143.2z"/>
		<path class="st1" d="M339.9,155.5h-4.4l0,0.1v-4.4l0,0h4.4h0L339.9,155.5L339.9,155.5z"/>
		<path class="st2" d="M363.9,151.2v4.3h-4.4v-4.2L363.9,151.2L363.9,151.2z"/>
		<path class="st3" d="M367.6,159.2l4.3,0.1l0.1,4.3h-4.4V159.2z"/>
		<path class="st3" d="M387.9,163.6h-4.4c0-1.5,0-3,0-4.4l0,0h4.4L387.9,163.6z"/>
		<path class="st3" d="M319.5,171.6l-3.6-0.2v-4.2h3.6C319.5,168.6,319.5,170.1,319.5,171.6z"/>
		<path class="st2" d="M388,143.1l-4.5,0.1v-3.7l4.5,0.1V143.1z"/>
		<path class="st2" d="M383.6,143.2c0,1.4-0.1,2.9-0.1,4.3h-3.3v-4L383.6,143.2z"/>
		<path class="st3" d="M383.7,147.7h4c0.1,1.3,0.2,2.4,0.2,3.5h-4.3L383.7,147.7z"/>
		<path class="st1" d="M359.5,151.3v4.2H356v-4.3l-0.1,0.1L359.5,151.3z"/>
		<path class="st3" d="M375.6,155.6l-3.6-0.1v-3.8C375.5,151.1,375.5,151.1,375.6,155.6z"/>
		<path class="st1" d="M319.5,155.6h4.4c0,1.2,0,2.4,0,3.6l0-0.1h-4.4l0.1,0.1C319.5,158,319.5,156.8,319.5,155.6z"/>
		<path class="st1" d="M316,163.5l-0.1-4.3h-0.1h3.7l-0.1-0.1c0,1.4,0,2.9,0,4.3L316,163.5z"/>
		<path class="st2" d="M327.5,159.1v3.8c-3.6,0.8-3.6,0.8-3.6-3.8l0,0.1L327.5,159.1L327.5,159.1z"/>
		<path class="st2" d="M367.6,163.6h4.4v3.7l-4.4-0.1V163.6z"/>
		<path class="st3" d="M323.9,171.6c0-0.6-0.2-1.3,0-1.8c0.6-0.9,1.2-1.8,1.9-2.6c0.6,0.9,1.2,1.8,1.7,2.8c0.1,0.2-0.1,0.7-0.3,1.4
			L323.9,171.6L323.9,171.6z"/>
		<path class="st2" d="M371.9,171.5l-0.1-4.4l3.6,0.1v4.1L371.9,171.5z"/>
		<path class="st3" d="M335.5,171.5l4.3,0.1v3.4h-4.1C335.7,173.8,335.6,172.6,335.5,171.5z"/>
		<path class="st3" d="M339.9,183.2h-4.4c0.1-1.1,0.1-2.1,0.2-3.4l4-0.2C339.8,180.9,339.8,182,339.9,183.2z"/>
		<path class="st1" d="M343.5,147.5v3.6h-3.6h0c0-1.2,0-2.4,0-3.7L343.5,147.5L343.5,147.5z"/>
		<path class="st2" d="M363.8,147.5h3.4l0.3,3.5l-3.6,0.2l0,0L363.8,147.5L363.8,147.5z"/>
		<path class="st1" d="M332,159.1c0-1.2,0-2.4,0-3.5h3.6l0-0.1v3.6L332,159.1z"/>
		<path class="st2" d="M383.6,159.2h-3.2c-1-2.9-0.3-4.1,3-3.4C383.5,156.9,383.5,158,383.6,159.2L383.6,159.2z"/>
		<path class="st2" d="M316,163.5h3.5c0,1.2,0,2.5,0.1,3.7h-3.6C315.9,165.9,315.9,164.7,316,163.5z"/>
		<path class="st2" d="M335.6,167.1h-3.2c-1-2.9-0.3-4.1,3-3.3C335.4,164.9,335.5,166.1,335.6,167.1L335.6,167.1z"/>
		<path class="st1" d="M363.9,139.6h3.6v3.6h-3.7l0.1,0.1L363.9,139.6L363.9,139.6z"/>
		<path class="st3" d="M351.6,171.5v3.7l-3.7-0.1v0.1v-3.4L351.6,171.5z"/>
		<path class="st2" d="M367.5,171.6v3.4c-2.2,0.3-4.3,0.4-3.2-3.4H367.5z"/>
		<path class="st2" d="M388,135.1l-4.5,0.1l0,0c0-1.2,0-2.4,0-3.6v-7.8l-3.7-0.2l0,0v-4.4l0,0h8.1l0,0v8c0,1.5,0,2.9,0,4.4
			C388,132.7,388,133.9,388,135.1z"/>
		<path class="st2" d="M403.3,119.1l4.3,0.1l3.5-0.1l0.2,0.2c-0.1,1.2-0.2,2.4-0.3,3.8l-3.6,0.9v7.6h-4.2c-0.1-1.3-0.1-2.6-0.2-4.3
			h-3.4l-0.2-0.2c0-1.2,0.1-2.4,0.1-3.6h0l3.6-0.2v-4L403.3,119.1z"/>
		<path class="st3" d="M423.6,135.2v4.4h-12.2c-0.1-1.6-0.1-3-0.2-4.4l4.3-0.1L423.6,135.2z"/>
		<path class="st2" d="M395.1,127.3l-3.6-0.2c0-2.7,0-5.3,0-7.9l0,0h8.1h0v4.4h0h-4.3v3.6L395.1,127.3z"/>
		<path class="st3" d="M415.6,147.6h-8v-4.1h7.9C415.5,144.8,415.5,146.2,415.6,147.6z"/>
		<path class="st1" d="M391.6,119.1c0,2.7,0,5.3,0,7.9l-3.6,0.1v-8L391.6,119.1z"/>
		<path class="st2" d="M399.7,127.3l-0.2,4.3h-4.2l-0.2-4.3l0.2-0.2h4.1L399.7,127.3z"/>
		<path class="st1" d="M395.3,131.6h4.2v3.4h-4.2V131.6z"/>
		<path class="st1" d="M403.3,131.6h4.2v3.4h-4.2V131.6z"/>
		<path class="st2" d="M415.5,135.1l-4.3,0.1v-3.4l4.3-0.3V135.1z"/>
		<path class="st3" d="M403.3,147.5h-3.4c-0.2-1-0.3-2-0.2-2.9c0.2-0.6,1.1-1.4,1.6-1.3c0.8,0.2,1.5,0.7,1.8,1.4
			C403.3,145.7,403.3,146.6,403.3,147.5L403.3,147.5z"/>
		<path class="st3" d="M407.6,147.5v3.7h-4.2c-0.1-1.4-0.1-2.6-0.2-3.7h0H407.6z"/>
		<path class="st3" d="M420.3,125.4c-1.5,0.9-2.2,1.8-2.7,1.6c-0.8-0.3-1.5-1-1.8-1.8c-0.1-0.3,1-1.6,1.6-1.6
			C418,123.7,418.8,124.5,420.3,125.4z"/>
		<path class="st3" d="M395.2,151.2h-3.7l0.2-3.2C395.4,146.6,395.3,148.9,395.2,151.2z"/>
		<path class="st1" d="M388,135.1c0-1.2,0-2.4,0-3.5h3.4c0.1,1.1,0.1,2.1,0.2,3.5H388z"/>
		<path class="st1" d="M388,143.1v-3.4h3.4c0.1,1.1,0.1,2.1,0.2,3.4H388z"/>
		<path class="st2" d="M284,171.5c-0.1,1.1-0.2,2.1-0.3,3.5l-3.5,0.2l0,0c0-1.2-0.1-2.4-0.1-3.6v-4.5c0-1.2,0.1-2.4,0.1-3.6h0
			l3.6-0.2v-4.2h4.4v4.4h3.6c0.1,1.1,0.1,2.3,0.2,3.7h7.8l0,0v4.2l-4.4,0.3H292l-3.7-0.1v-4.1H284V171.5z"/>
		<path class="st3" d="M291.9,183.1c0,1.2,0,2.4,0,3.7h-11.6c0-1,0.1-2.1,0.2-3.3l3.2-0.7c0.2-1.1,0.4-2.1,0.7-3.3h4l0,0
			c0.1,1.1,0.1,2.3,0.2,3.5L291.9,183.1L291.9,183.1z"/>
		<path class="st3" d="M284,171.5v-4.1h4.3v4.1L284,171.5z"/>
		<path class="st2" d="M280.2,175.2v4.1l-4.4,0.2v-4.4l0,0H280.2L280.2,175.2z"/>
		<path class="st3" d="M267.9,171.5h4.4c0,1.2,0,2.4,0,3.6h-4.2C268,173.8,267.9,172.6,267.9,171.5z"/>
		<path class="st3" d="M288.2,179.5v-4.2l3.6-0.2l0,0v4.4l0-0.1H288.2L288.2,179.5z"/>
		<path class="st3" d="M272.2,183.2h-4.4c0.1-1.1,0.1-2.1,0.2-3.4l4-0.2C272.1,180.9,272.1,182,272.2,183.2z"/>
		<path class="st2" d="M272.2,175.2c0-1.2,0-2.4,0-3.6l0,0h3.6v3.6l0,0L272.2,175.2z"/>
		<path class="st3" d="M291.9,171.6h3.5c0,1.2,0,2.4,0,3.6v-0.1h-3.7l0,0C291.9,174,291.9,172.8,291.9,171.6z"/>
		<path class="st3" d="M275.9,186.8h-3.7v-3.7l3.5,0.2C275.7,184.6,275.8,185.7,275.9,186.8z"/>
		<path class="st2" d="M184.2,143.2h-3.7l0.1,0.1c0-2.7,0-5.4,0-8v-3.6h3.6c0,1.2,0,2.4,0,3.6C184.2,137.9,184.2,140.6,184.2,143.2
			L184.2,143.2z"/>
		<path class="st2" d="M184.1,151.2c0-2.7,0-5.3,0-8l0,0l4.4-0.1v8L184.1,151.2L184.1,151.2z"/>
		<path class="st3" d="M168.1,151.2h-7.8c-0.1-1.4-0.2-2.5-0.2-3.7h8l0,0C168.1,148.8,168.1,150,168.1,151.2z"/>
		<path class="st3" d="M172.5,143.2v4.4h-4.4l0,0c0-1.4,0-2.9,0.1-4.3L172.5,143.2L172.5,143.2z"/>
		<path class="st2" d="M180.5,143.2v4.2l-4.3,0.3v-4.4l0,0L180.5,143.2L180.5,143.2z"/>
		<path class="st3" d="M172.5,155.6h-4.4v-4.4h4.4V155.6z"/>
		<path class="st3" d="M184.2,155.5h-3.4c-0.1-1.4-0.1-2.6-0.2-4.1l3.7-0.2l0,0L184.2,155.5L184.2,155.5z"/>
		<path class="st3" d="M188.5,159.2h-4.2c-0.1-1.4-0.1-2.5-0.2-3.6l0,0h4.4V159.2z"/>
		<path class="st3" d="M188.5,163.5v3.7h-4.4c0-1,0.1-2.1,0.2-3.7H188.5z"/>
		<path class="st3" d="M176.2,159.2l-3.4-0.2c-0.1-1.2-0.2-2.4-0.2-3.5l3.4,0.2C176,156.9,176.1,158.1,176.2,159.2z"/>
		<path class="st2" d="M176.1,143.2h-3.6l0.1-3.5l3.6-0.1L176.1,143.2L176.1,143.2z"/>
		<path class="st2" d="M308,159.3l-0.1,4.2h-4.1c-0.2,1.3-0.4,2.3-0.6,3.6h-3.3l0,0c0-1.2,0-2.4,0-3.7v-4.4v-3.6h3.6
			c0,1.1,0.1,2.2,0.2,3.5h4.1L308,159.3z"/>
		<path class="st3" d="M311.5,179.5h-3.7l0,0v-4.1l-4-0.5c-1.3-4.6,2.2-3,4.1-3.5l3.6,0.1C311.5,174.2,311.5,176.9,311.5,179.5z"/>
		<path class="st1" d="M315.9,159.1l-4.3-0.1v-3.5h4.3l0,0c0,1.2,0,2.4,0,3.6L315.9,159.1z"/>
		<path class="st2" d="M311.5,171.5l-3.6-0.1c0-1.4,0-2.9-0.1-4.3h3.6V171.5z"/>
		<path class="st2" d="M311.6,155.6v3.5l-3.6,0.2l-0.2-0.2c0-1.2,0.1-2.4,0.1-3.5L311.6,155.6z"/>
		<path class="st3" d="M311.5,167.2h-3.6c0-1.2,0-2.4,0-3.6h3.4L311.5,167.2z"/>
		<path class="st2" d="M168.2,143.3c0,1.4,0,2.9-0.1,4.3h-8c0-1.4,0-2.9,0-4.4v0.1h4.4v-3.6l0,0l3.5,0.1L168.2,143.3z"/>
		<path class="st3" d="M235.8,179.5h-3.6v-4.4l0,0h3.7l0,0L235.8,179.5L235.8,179.5z"/>
		<path class="st3" d="M307.9,179.5c0,1.2,0,2.4,0,3.7h-4.2c-0.1,1.4-0.1,2.5-0.2,3.6h-3.7c0-2.4,0-4.9,0-7.3l0,0H307.9L307.9,179.5
			z"/>
		<path class="st3" d="M299.9,179.5h-4.4l0,0v-4.4v0.1h4.4L299.9,179.5L299.9,179.5z"/>
		<path class="st3" d="M295.5,179.5v3.5l-3.6,0.2l0,0v-3.7l0,0.1L295.5,179.5L295.5,179.5z"/>
		<path class="st4" d="M164.5,139.6v3.6h-4.4c0-1.2,0-2.4,0-3.6H164.5z"/>
		<path class="st2" d="M180.5,103.2v4.4h-4.4l0,0c0-1.5,0-2.9,0-4.4L180.5,103.2z"/>
		<path class="st2" d="M176.1,115.6c0-1.5,0-2.9,0-4.4l0,0h4.4l0,0v4.4L176.1,115.6L176.1,115.6z"/>
		<path class="st2" d="M172.5,119.2c0-1.2,0-2.4,0-3.7h3.7l0,0c0,1.2,0,2.5,0,3.7L172.5,119.2L172.5,119.2z"/>
		<path class="st1" d="M180.5,111.2h-4.4v-3.7h4.4l0,0L180.5,111.2z"/>
		<path class="st1" d="M411.1,119.1l-3.5,0.1c0-1.2,0-2.4,0.1-3.6l3.4,0.1L411.1,119.1z"/>
		<path class="st4" d="M168,139.6l-3.5-0.1c0-1.5,0-2.9,0-4.4v-3.4l3.6-0.2l0,0c0,1.2,0,2.4,0,3.6c0,1.4,0.1,2.8,0.1,4.3L168,139.6z
			"/>
		<path class="st1" d="M168.2,127.3l4.3-0.1l0,0c0,1.4-0.1,2.8-0.1,4.3l-4.3,0.1l0,0C168.2,130.1,168.2,128.7,168.2,127.3z"/>
		<path class="st4" d="M164.5,123.5h3.5v3.5h-3.3L164.5,123.5z"/>
		<path class="st1" d="M172.5,119.2h3.7l0,0c0,1.5,0,3,0,4.4l-3.6-0.1L172.5,119.2z"/>
		<path class="st4" d="M172.5,123.5l3.6,0.1v-0.1l0.1,3.6h-3.7V123.5z"/>
		<path class="st2" d="M355.9,119.2v4l3.4,0.6c0.2,1.1,0.4,2.1,0.6,3.4h4l0,0v8l0,0h-4.4v-3.6h-3.6v-4.4h-8h0V124l3.6-0.8v-4h0
			L355.9,119.2L355.9,119.2z"/>
		<path class="st2" d="M339.9,119.2h3.5v8h4.5h0v8h0h-4.4v-3.6h-3.6v-4.3h-8l0.1-3.7h3.5h4.4L339.9,119.2L339.9,119.2z"/>
		<path class="st2" d="M291.9,139.5c0-1.5,0-2.9,0-4.4h0h3.7l0,0v4.4h4.4c-0.1,1.1-0.1,2.3-0.2,3.4l-4.1,0.6v4.1h-11.7
			c0-1.5,0-2.9,0-4.4l0,0h8L291.9,139.5z"/>
		<path class="st2" d="M291.9,127.2v-3.6h8l0,0c0,3.9,0,7.8,0,11.7h-4.4l0,0v-7.9l-3.7-0.2L291.9,127.2z"/>
		<path class="st2" d="M327.5,107.6h4.4v11.7v-0.1h-4.3c-0.1-1.5-0.1-2.6-0.2-3.6c0-1.5,0-2.9,0-4.4
			C327.5,110,327.5,108.8,327.5,107.6L327.5,107.6z"/>
		<path class="st2" d="M299.9,123.6v-4l3.4-0.6c0.2-1.1,0.4-2.1,0.6-3.3h4.1l0,0c0,2.7,0,5.4,0,8L299.9,123.6L299.9,123.6z"/>
		<path class="st2" d="M267.9,103.2h4.1v4.2l-3.9,0.4c-0.1,1.2-0.2,2.3-0.2,3.5h0h-3.5c-0.1-1.3-0.1-2.5-0.2-3.6c0-1.5,0-2.9,0-4.4
			l0,0L267.9,103.2z"/>
		<path class="st2" d="M315.9,115.6v-8h8h0c0,1.2,0,2.5,0,3.7h0h-4.4v4.4L315.9,115.6L315.9,115.6z"/>
		<path class="st2" d="M264.3,95.1l3.5,0.1h4.4v4.4h-4.4h-3.7l0,0c0-1.4-0.1-2.8-0.1-4.3L264.3,95.1z"/>
		<path class="st2" d="M327.5,83.6h4.4v8h-4.4V83.6z"/>
		<path class="st2" d="M280.2,127.2c0,1.5,0,2.9,0,4.4v-0.1h-8l0,0.1v-4.4h0H280.2z"/>
		<path class="st2" d="M291.9,135.2h-3.4v-7.8l3.4-0.2h0L291.9,135.2L291.9,135.2z"/>
		<path class="st4" d="M291.9,139.5v3.7h-8c0-1.2,0-2.4,0.1-3.6L291.9,139.5z"/>
		<path class="st2" d="M319.5,83.6h4.4V88h-4.4h0L319.5,83.6L319.5,83.6z"/>
		<path class="st2" d="M319.5,99.6v-4.1h4.1v4.1L319.5,99.6L319.5,99.6z"/>
		<path class="st2" d="M335.5,95.2h4.4v4.4h-4.4V95.2z"/>
		<path class="st4" d="M264.2,103.2c0,1.5,0,2.9,0,4.4h-4.3v-4.4H264.2z"/>
		<path class="st2" d="M339.9,103.2v4.4h-4.2c-0.1-1.5-0.1-2.6-0.3-4.4H339.9z"/>
		<path class="st2" d="M267.8,111.2h4.2v4.1h-4.1v-4.2L267.8,111.2z"/>
		<path class="st2" d="M280.2,115.5h-4.1v-4.1h4.1L280.2,115.5L280.2,115.5z"/>
		<path class="st2" d="M299.8,111.2v4.1h-4.1v-4.1L299.8,111.2L299.8,111.2z"/>
		<path class="st2" d="M343.5,111.2h4.4h0v4.4h0h-4.4V111.2z"/>
		<path class="st2" d="M283.8,119.2h4.4h0v4.4h-4.4h0L283.8,119.2L283.8,119.2z"/>
		<path class="st2" d="M280.2,135.2l0.1,4.3l-0.2,0.2l-4.3-0.1v-4.3L280.2,135.2L280.2,135.2z"/>
		<path class="st2" d="M323.9,107.6v-4.1l3.6-0.3v4.4l0,0H323.9L323.9,107.6z"/>
		<path class="st2" d="M311.3,107.5l-3.3-0.2v-3.9h3.3V107.5z"/>
		<path class="st2" d="M267.8,123.6h4.4h0v3.7h0h-4.4L267.8,123.6L267.8,123.6z"/>
		<path class="st2" d="M259.8,115.6h4.2c0.1,1.3,0.1,2.5,0.2,3.6h0h-4.4L259.8,115.6L259.8,115.6z"/>
		<path class="st2" d="M311.5,115.6h4.4l0,0c0,1.2,0,2.4,0,3.7h-4.4L311.5,115.6L311.5,115.6z"/>
		<path class="st2" d="M307.9,87.9v3.3c-2.5,0.4-5,1.3-4-3.3L307.9,87.9L307.9,87.9z"/>
		<path class="st2" d="M264.2,119.2h3.6v4.4h0l-3.6-0.2L264.2,119.2L264.2,119.2z"/>
		<path class="st2" d="M272.2,123.6v-3.8c3.7-0.7,3.7-0.7,3.3,3.6L272.2,123.6L272.2,123.6z"/>
		<path class="st4" d="M335.5,123.5H332c0-1.4,0-2.9,0-4.3v0.1h3.6v-0.1L335.5,123.5z"/>
		<path class="st2" d="M335.5,119.3v-3.4h4.2c0,1.1,0.1,2.3,0.2,3.4h0L335.5,119.3L335.5,119.3z"/>
		<path class="st2" d="M307.9,115.6v-4.1l3.6-0.3v4.4h0L307.9,115.6L307.9,115.6z"/>
		<path class="st2" d="M280.2,127.2v-3.6h3.6h0v3.6H280.2L280.2,127.2z"/>
		<path class="st2" d="M339.9,107.5l3.5,0.2c0.1,1.2,0.1,2.4,0.2,3.5l-3.5-0.2C340,109.8,340,108.7,339.9,107.5z"/>
		<path class="st2" d="M299.9,111.2V108c2.9-1,4.1-0.3,3.3,3L299.9,111.2L299.9,111.2z"/>
		<path class="st2" d="M290.8,111.6l-3.6-3.1C290.9,107,292.3,107.5,290.8,111.6z"/>
		<path class="st2" d="M283.9,119.2h-3.6v-3.6h0h3.6L283.9,119.2L283.9,119.2z"/>
		<path class="st2" d="M339.9,99.5h3.4c0.1,1.2,0.1,2.2,0.2,3.4l-3.6,0.2L339.9,99.5z"/>
		<path class="st2" d="M319.5,99.5v3.2c-2.9,1-4.1,0.3-3.3-3L319.5,99.5L319.5,99.5z"/>
		<path class="st2" d="M280.2,131.6h3.4l0.2,3.6h-3.6l0,0V131.6L280.2,131.6z"/>
		<path class="st2" d="M295.2,99.9c0.8,2.8-0.1,3.8-3,3C291.4,100.1,292.2,99,295.2,99.9z"/>
		<path class="st4" d="M264.2,99.6h3.7v3.6h-3.7V99.6z"/>
		<path class="st2" d="M288.3,119.2V116c2.9-1,4.1-0.3,3.3,3L288.3,119.2L288.3,119.2z"/>
		<path class="st2" d="M283.9,139.6c0,1.2,0,2.4-0.1,3.6l0,0l-3.7,0.1c0-1.2-0.1-2.4-0.1-3.5l0.2-0.2L283.9,139.6z"/>
		<path class="st2" d="M331.9,91.6l3.5,0.2c0.1,1.2,0.1,2.4,0.2,3.5l-3.5-0.2C332,93.8,331.9,92.7,331.9,91.6z"/>
		<path class="st2" d="M351.6,119.2h-3.6v-3.6h0h3.7h0L351.6,119.2L351.6,119.2z"/>
		<path class="st2" d="M319.5,87.9v3.4l-3.6,0.2v-3.7l0,0H319.5L319.5,87.9z"/>
		<path class="st2" d="M351.6,83.6l-0.1,4.4h0h-8l0,0c0-1.5,0-2.9,0-4.4L351.6,83.6z"/>
		<path class="st2" d="M351.5,91.6c0,1.2,0,2.4,0,3.7h-7.8c-0.1-1.4-0.1-2.5-0.2-3.7l0,0H351.5L351.5,91.6z"/>
		<path class="st2" d="M351.5,95.2h4.4v4.4h0h-4.4h0C351.5,98.1,351.5,96.7,351.5,95.2z"/>
		<path class="st2" d="M355.9,103.2v4.4h0h-4.4h0v-4.4h0H355.9L355.9,103.2z"/>
		<path class="st2" d="M347.9,111.2v-3.6h3.6h0v3.7h0L347.9,111.2L347.9,111.2z"/>
		<path class="st2" d="M351.6,103.2h-3.4l-0.2-3.6h3.6h0L351.6,103.2L351.6,103.2z"/>
		<path class="st2" d="M343.6,91.6h-3.4c-0.1-1.2-0.1-2.1-0.2-3.6h3.6l0,0V91.6L343.6,91.6z"/>
		<path class="st4" d="M224.3,139.5l-0.1,3.7v-0.1l-4.5,0.1l-3.6-0.1c0-1.2-0.1-2.5-0.1-3.7v-7.7h-7.8c-0.1,1.3-0.1,2.4-0.2,3.4l0,0
			H204c-0.2-1.3-0.4-2.3-0.6-3.4l-3.4-0.2l-0.1-4.3v-3.7h-4.3v-4.4h-3.6c0-1.2,0-2.4,0-3.7l0,0h8l0,0c0.1,1.1,0.1,2.1,0.2,3.6h7.8
			v4.5h-4.4l0.3,3.3h4.1v-3.4l3.4-0.2c0.2-1.3,0.4-2.4,0.6-4l3.8-0.2c0.2,1.4,0.4,2.6,0.4,2.7l4.5,4.5l-0.4,0.8h3.9
			c0,1.5,0,2.9,0,4.4v-0.1c-4.5,0.1-4.5,0.1-3.9,3.7h3.9l0,0L224.3,139.5z"/>
		<path class="st4" d="M248.2,99.5l3.6,0.1c0.1,1.2,0.1,2.4,0.2,3.6v4.3h4.3v3.7l-4.3,0.1l-3.6-0.2l-0.4-3.5h-12.1l0.1-4.3h12
			C248.1,101.8,248.1,100.7,248.2,99.5z"/>
		<path class="st1" d="M227.8,119.2v-3.3l4.3-0.6v-7.5l3.7-0.2l0,0c0.1,1.1,0.1,2.3,0.2,3.7h4.1c0,1.4,0,2.9,0.1,4.3h-4.4v3.7h-3.6
			L227.8,119.2L227.8,119.2z"/>
		<path class="st1" d="M224.2,127.2c0-1.2,0-2.4,0-3.6l3.6-0.1l4.4,0.1l0,0c0,1.2,0,2.4,0,3.7h0.1l-4.3,0.1L224.2,127.2L224.2,127.2
			z"/>
		<path class="st4" d="M227.8,123.5l-3.6,0.1v-4.2l3.6-0.2l0,0C227.8,120.6,227.8,122,227.8,123.5z"/>
		<path class="st1" d="M280.2,91.7l3.6-0.2V95l-3.7,0.2C280.2,94.1,280.2,92.9,280.2,91.7z"/>
		<path class="st2" d="M355.9,111.2v4.4h0h-4.4h0v-4.4h0L355.9,111.2L355.9,111.2z"/>
		<path class="st2" d="M367.5,119.2l4.5,0.1c0,1.4,0,2.8,0,4.2l-0.2,0.2l-4.3-0.1h0C367.6,122.1,367.6,120.6,367.5,119.2z"/>
		<path class="st2" d="M363.9,127.2v-3.6h3.6h0v3.7h0L363.9,127.2L363.9,127.2z"/>
		<path class="st2" d="M355.9,115.6h3.4l0.2,3.6h-3.6h0L355.9,115.6L355.9,115.6z"/>
		<path class="st2" d="M351.5,88h7.8c0.1,1.3,0.2,2.5,0.3,3.6h-8.1h0L351.5,88L351.5,88z"/>
		<path class="st2" d="M355.9,99.6h3.4l0.2,3.6h-3.6h0L355.9,99.6L355.9,99.6z"/>
		<path class="st2" d="M355.9,79.9c0,1-0.1,2.1-0.2,3.7h-4.3c0-1,0.1-2.1,0.2-3.7H355.9z"/>
		<path class="st2" d="M359.6,75.6V80h-3.7v-4.2L359.6,75.6z"/>
		<path class="st4" d="M264.1,95.3c0,1.4,0.1,2.8,0.1,4.3h-4.4v-4.4L264.1,95.3z"/>
		<path class="st1" d="M256.2,107.6h-4.3v-4.3h4.3V107.6z"/>
		<path class="st1" d="M251.9,111.3l4.3-0.1c0,1.5,0,2.9,0,4.4l0,0h-4.4L251.9,111.3z"/>
		<path class="st1" d="M259.9,115.5v3.7l0,0h-3.7c0-1.2,0-2.4,0-3.7l0,0L259.9,115.5z"/>
		<path class="st2" d="M184.1,107.6c0-1.5,0-2.9,0-4.4h4.2c0.1-1.4,0.1-2.5,0.2-3.6h3.6v-4.4h3.6v-3.6h4.2c0.1,1.4,0.2,2.5,0.2,3.7
			c0,1.4,0.1,2.8,0.1,4.3l-0.2,0.2h-4.3v3.6h0.1l-3.4,0.2c-0.2,1.5-0.3,2.7-0.5,4.2L184.1,107.6z"/>
		<path class="st1" d="M184.1,107.6h7.7c0.2-1.5,0.3-2.7,0.5-4.2l3.4-0.2c0,1.5,0.1,3,0.1,4.4c0,1.2-0.1,2.4-0.1,3.6l-3.6,0.2v4.2
			h-3.6l0,0v-4.4h-4.4l0,0c0-1.2,0-2.4,0-3.7L184.1,107.6z"/>
		<path class="st2" d="M192.1,115.6v-4.2l3.6-0.2h4.4v4.4L192.1,115.6z"/>
		<path class="st2" d="M195.9,107.6c0-1.5,0-3-0.1-4.4h-0.1h4.4h-0.1l0.1,4.3L195.9,107.6z"/>
		<path class="st1" d="M319.5,88h-3.7c0-1.4,0.1-2.8,0.2-4.3l3.5-0.2V88z"/>
		<path class="st2" d="M375.6,115.6h4.4l0,0v3.7l0,0h-4.5l0,0.1L375.6,115.6z"/>
		<path class="st4" d="M372,123.4c0-1.4,0-2.8,0-4.2h3.6l0-0.1l0.1,4.3L372,123.4z"/>
		<path class="st1" d="M355.9,111.2h-4.4v-3.7h4.4V111.2z"/>
		<path class="st1" d="M243.8,83.6v-3.7h4.4v3.7H243.8z"/>
		<path class="st2" d="M388,111.2v4.4l0,0h-8.1l0,0c0-1.5,0-2.9,0-4.4L388,111.2z"/>
		<path class="st1" d="M200.2,103.2h-4.4v-3.6h4.3C200.1,100.9,200.1,102,200.2,103.2z"/>
		<path class="st2" d="M264.2,48h3.7c0,1.2,0,2.5,0,3.7l-3.5-0.2C264.3,50.2,264.3,49.1,264.2,48z"/>
		<path class="st2" d="M288.2,32h3.7v3.7h-3.7V32z"/>
		<path class="st4" d="M283.8,43.6h4.4V48h-4.4V43.6z"/>
		<path class="st2" d="M243.8,80h-3.7v-4.5l-0.1,0.1l3.6-0.1L243.8,80z"/>
		<path class="st1" d="M243.7,75.5l-3.6,0.1c0-1.2,0-2.4,0-3.7h3.7C243.8,73.1,243.8,74.3,243.7,75.5z"/>
		<path class="st2" d="M391.6,115.6c0-1.5,0-3,0-4.4h8.1h0v4.4h0L391.6,115.6L391.6,115.6z"/>
		<path class="st4" d="M391.6,119.1H388l0,0v-3.6l0,0h3.6l0,0L391.6,119.1L391.6,119.1z"/>
		<path class="st2" d="M184.2,107.5c0,1.2,0,2.4,0,3.7h-3.7l0,0c0-1.2,0-2.4,0-3.7L184.2,107.5z"/>
		<path class="st1" d="M399.6,115.6v-4.4h3.7l-0.1,4.3L399.6,115.6z"/>
		<path class="st2" d="M399.6,115.6l3.6-0.1l0.2,3.6l-0.2,0.2l-3.6-0.1h0L399.6,115.6L399.6,115.6z"/>
		<path class="st4" d="M188.5,159.2v-3.6h-4.4v-4.4h4.4v-8l0,0h3.7l0,0l0.1,4.3v3.4l3.6,0.4c0,1.4,0,2.9,0,4.3h-3.5
			c-0.1,1.4-0.1,2.5-0.2,3.6L188.5,159.2z"/>
		<path class="st4" d="M219.8,155.5v-4.3h-3.6v-3.7l3.6-0.1l4.5,0.1l0,0c0.1,1.1,0.1,2.3,0.2,3.5l3.5,0.2h-0.1c0,1.5,0,2.9,0.1,4.4
			L219.8,155.5z"/>
		<path class="st4" d="M195.8,131.6c0,3.9,0,7.8,0,11.6h-3.6l0,0c0-1.2-0.1-2.5-0.1-3.7v-4.2c0-1.2,0.1-2.5,0.1-3.7L195.8,131.6
			L195.8,131.6z"/>
		<path class="st1" d="M200.1,127.3l0.1,4.3h-4.3c0-1.4,0.1-2.8,0.1-4.3L200.1,127.3z"/>
		<path class="st1" d="M216.1,135.3v4.2h-4.3v-4.3L216.1,135.3z"/>
		<path class="st4" d="M216.2,155.5h-4.4v-4.4h4.4V155.5z"/>
		<path class="st4" d="M211.8,135.2v4.3h-3.6v-4.4l0,0L211.8,135.2z"/>
		<path class="st1" d="M192.1,143.2h3.6v4.3h-3.5C192.2,146,192.2,144.6,192.1,143.2z"/>
		<path class="st1" d="M219.7,147.5l-3.6,0.1v-4.4l3.6,0.1V147.5z"/>
		<path class="st4" d="M203.8,143.2h-3.2c-1-2.9-0.3-4.1,3-3.4C203.7,140.9,203.8,142.1,203.8,143.2L203.8,143.2z"/>
		<path class="st4" d="M243.7,147.4l-3.6,0.1v-4.1l-4.1-0.6c-0.1-1.1-0.1-2.3-0.2-3.4l0,0l4.4-0.2v-7.8h8c0,1.2,0.1,2.4,0.1,3.6
			c0,1.5-0.1,3-0.1,4.4l0,0h-4.5L243.7,147.4z"/>
		<path class="st4" d="M224.1,143.2h7.8v7.9h-4.1h0.1c-0.1-1.1-0.1-2.3-0.2-3.5l-3.5-0.2l0,0v-4.4V143.2z"/>
		<path class="st1" d="M232.2,135.2l-0.1-3.7c0-1.4,0.1-2.9,0.1-4.3h-0.1l3.7-0.1l4.3,0.1v4.4H236l-0.2,3.6L232.2,135.2z"/>
		<path class="st4" d="M232.2,127.2c0,1.4-0.1,2.9-0.1,4.3l-4.3,0.1l0,0v-4.3L232.2,127.2z"/>
		<path class="st1" d="M224.3,139.5c0-1.4-0.1-2.9-0.1-4.3h3.6v4.3L224.3,139.5z"/>
		<path class="st4" d="M232.2,135.2h3.6v4.4l0,0h-3.6V135.2z"/>
		<path class="st4" d="M227.8,135.2h-3.6l0,0v-3.7v0.1h3.7l0,0L227.8,135.2z"/>
		<path class="st1" d="M280.2,131.5v3.7h-4.4v4.3l0,0l-8.1,0.1l-3.6-0.1v-7.8l-4.4-0.3v11.7h-3.6h0v-11.6h-4.4v-4.4h4.4v-3.6
			l3.7-0.2v-4.2l0,0h4.4v4.2l3.6,0.2v3.6h4.4v4.4h-4.1c-0.9,4.5,1.5,3.7,4.1,3.3v-3.3H280.2z"/>
		<path class="st4" d="M256.2,143.2h3.6c0,1.5,0,2.9,0,4.4h-3.7L256.2,143.2z"/>
		<path class="st1" d="M267.9,147.5l-3.5-0.1c0-1.4-0.1-2.8-0.1-4.3h3.6C267.8,144.6,267.8,146.1,267.9,147.5L267.9,147.5z"/>
		<path class="st4" d="M267.8,143.2h-3.6v-3.6l3.6,0.1C267.8,140.8,267.8,142,267.8,143.2z"/>
		<path class="st4" d="M251.8,143.2h-3.5c-0.1-1.4-0.1-2.5-0.2-3.6l0,0h3.7L251.8,143.2L251.8,143.2z"/>
		<path class="st4" d="M275.8,159.2v-3.6h-3.6c0-1.5,0-3,0-4.4l0,0h11.7h0v4.4h0l-3.5,0.2c-0.1,1.4-0.1,2.4-0.2,3.5h0L275.8,159.2z"
			/>
		<path class="st4" d="M272.2,151.2h-4.2c-0.1-1.4-0.1-2.5-0.2-3.6l0,0h4.4C272.2,148.8,272.2,150,272.2,151.2L272.2,151.2z"/>
		<path class="st4" d="M275.8,171.5h-3.6c0-1.5,0-2.9,0-4.4h3.6h4.3v4.5L275.8,171.5z"/>
		<path class="st4" d="M283.8,159.2v4.2l-3.6,0.2c0-1.5,0-2.9,0-4.4h0L283.8,159.2L283.8,159.2z"/>
		<path class="st3" d="M280.1,167.1h-4.3v-3.6h4.4C280.2,164.7,280.2,165.9,280.1,167.1z"/>
		<path class="st4" d="M235.8,175.2h-3.7v-3.6h3.7V175.2z"/>
		<path class="st2" d="M251.8,143.2v-3.6h-3.7c0-1.5,0.1-3,0.1-4.4h3.6v-3.6l-0.1,0.1h4.4v11.6H251.8z"/>
		<path class="st4" d="M235.8,179.6v-4.4h4.4v4.4H235.8z"/>
		<path class="st1" d="M363.9,127.2h3.7v7.8l-3.7,0.3V127.2z"/>
		<path class="st1" d="M379.9,123.5l3.7,0.2v7.9h-3.6l0,0C379.9,128.9,379.9,126.2,379.9,123.5z"/>
		<path class="st1" d="M375.6,123.5l-0.1-4.3h4.5v4.4L375.6,123.5z"/>
		<path class="st1" d="M359.5,135.2h4.4v4.4l0,0l-4.4,0.1C359.5,138.2,359.5,136.7,359.5,135.2L359.5,135.2z"/>
		<path class="st1" d="M367.5,127.2v-3.7l4.3,0.1v3.6H367.5z"/>
		<path class="st4" d="M311.6,155.6l-3.7-0.1l0,0v-4.4l3.7-0.2v-3.5l4.4,0.1l0,0c0,2.7,0,5.4,0,8.1L311.6,155.6z"/>
		<path class="st1" d="M332,151.3l-8-0.1v-3.6l3.6-0.1l8.1,0.1c0,1.2,0,2.4,0,3.7l0,0L332,151.3z"/>
		<path class="st4" d="M319.5,147.5h-3.6l0,0l-0.1-4.3l0.2-3.6h3.4c0.1,1.5,0.2,2.6,0.3,3.6C319.6,144.7,319.5,146.1,319.5,147.5
			L319.5,147.5z"/>
		<path class="st4" d="M323.9,147.5v3.6h-4.2c-0.1-1.4-0.1-2.5-0.2-3.6l0,0L323.9,147.5L323.9,147.5z"/>
		<path class="st4" d="M332,151.3l3.6-0.1v4.4H332C331.9,154.1,331.9,152.7,332,151.3z"/>
		<path class="st4" d="M315.9,159.2c0-1.2,0-2.4,0-3.6h3.7c0,1.2,0,2.4,0,3.6H315.9z"/>
		<path class="st4" d="M327.5,159.2h-3.7c0-1.2,0-2.4,0-3.6h3.4C327.4,156.9,327.5,158.1,327.5,159.2z"/>
		<path class="st4" d="M379.9,131.5h3.6c0,1.2,0,2.4,0,3.6h-3.6C379.9,134,379.9,132.8,379.9,131.5z"/>
		<path class="st2" d="M351.5,143.3l-8-0.1h0v-3.7h4.4v-4.4h0h3.7c0,1.5,0,2.9,0,4.4C351.5,140.8,351.5,142,351.5,143.3z"/>
		<path class="st4" d="M351.5,143.3c0-1.2,0.1-2.5,0.1-3.7l4.4,0.1h0l0.1,3.6c0,1.5-0.1,3-0.1,4.4l0,0h-4.4
			C351.5,146.1,351.5,144.7,351.5,143.3z"/>
		<path class="st2" d="M343.6,147.6h-3.7h0c0-1.5,0-2.9,0-4.4h3.7h0C343.5,144.6,343.5,146.1,343.6,147.6z"/>
		<path class="st4" d="M363.9,147.5v3.7l-4.5,0.1h-3.6c0-1.2,0-2.5,0-3.7l0,0l3.7-0.1L363.9,147.5z"/>
		<path class="st4" d="M359.6,139.6l4.4-0.1v3.7l-4.4-0.1l0,0.1L359.6,139.6L359.6,139.6z"/>
		<path class="st2" d="M359.6,147.5l-3.7,0.1c0-1.5,0.1-3,0.1-4.4l3.6,0.1l0-0.1L359.6,147.5z"/>
		<path class="st2" d="M335.5,151.2c0-1.2,0-2.4,0-3.7h0h4.4h0c0,1.2,0,2.4,0,3.7H335.5z"/>
		<path class="st1" d="M388,115.6v3.6h-8.1v-3.7L388,115.6z"/>
		<path class="st1" d="M399.5,127.1h-4.1v-3.6h4.3C399.6,124.7,399.5,125.9,399.5,127.1z"/>
		<path class="st1" d="M399.6,119.2l3.6,0.1v4l-3.6,0.2V119.2z"/>
		<path class="st1" d="M399.6,115.5v3.7h-8.1v-3.6L399.6,115.5z"/>
		<path class="st4" d="M299.9,179.6v-4.4h-4.4c0-1.2,0-2.4,0-3.6l4.4-0.3v-4.2h3.3c0.2-1.3,0.4-2.3,0.6-3.6h4.1c0,1.2,0,2.4,0,3.6
			c0,1.4,0,2.9,0.1,4.3c-1.9,0.4-5.4-1.1-4.1,3.5l4,0.5v4.1L299.9,179.6z"/>
		<path class="st4" d="M299.9,163.5c0,1.2,0,2.4,0,3.7h-7.8c-0.1-1.4-0.1-2.5-0.2-3.7h0l3.7-0.1L299.9,163.5z"/>
		<path class="st4" d="M288.3,159.1h-4.4l0,0v-3.7h0h4.4h0L288.3,159.1L288.3,159.1z"/>
		<path class="st4" d="M291.9,163.5h-3.6v-4.4h0l3.6,0.2L291.9,163.5L291.9,163.5z"/>
		<path class="st3" d="M275.8,171.5l4.3,0.1c0,1.2,0.1,2.4,0.1,3.6h-4.4C275.8,174,275.8,172.8,275.8,171.5z"/>
		<path class="st4" d="M291.9,179.5v3.7l-3.5-0.2c-0.1-1.2-0.1-2.4-0.2-3.5H291.9z"/>
		<path class="st4" d="M295.5,179.6h-3.7v-4.4h3.7V179.6z"/>
		<path class="st4" d="M176.1,143.2c0-1.2,0-2.4,0-3.6v-4.4h4.3c0,2.7,0,5.4,0,8L176.1,143.2z"/>
		<path class="st4" d="M188.5,143.2l-4.4,0.1c0-2.7,0-5.4,0-8h4.4l0.1,4.3L188.5,143.2L188.5,143.2z"/>
		<path class="st4" d="M184.1,131.6h-3.6v-4.4h3.6C184.1,128.6,184.1,130.1,184.1,131.6L184.1,131.6z"/>
		<path class="st1" d="M180.5,135.2h-4.3l0,0c0-1.2,0-2.4,0-3.6h4.4C180.5,132.8,180.5,134,180.5,135.2z"/>
		<path class="st1" d="M188.5,135.2h-4.4c0-1.2,0-2.4,0-3.6l0,0l4.3,0.1C188.4,132.8,188.5,134,188.5,135.2L188.5,135.2z"/>
		<path class="st4" d="M168.2,143.3l-0.2-3.6l0.2-0.2l4.3,0.2l-0.1,3.5L168.2,143.3z"/>
		<path class="st3" d="M172.6,139.6l-4.3-0.2c0-1.4-0.1-2.8-0.1-4.3l4.3-0.1l3.8,0.1l0,0v4.4L172.6,139.6z"/>
		<path class="st4" d="M303.5,155.5h-3.6h-4.3c0-1.5,0-3-0.1-4.4l0,0l4.5-0.1h3.5v4.4L303.5,155.5z"/>
		<path class="st1" d="M299.9,163.5l-4.3-0.1c0-1.4,0-2.9,0-4.3h4.3L299.9,163.5z"/>
		<path class="st3" d="M299.9,159.1h-4.3c0-1.2,0-2.4,0.1-3.6h4.3L299.9,159.1z"/>
		<path class="st1" d="M307.9,155.5c0,1.2-0.1,2.4-0.1,3.5h-4.1c-0.1-1.3-0.1-2.4-0.2-3.5H307.9z"/>
		<path class="st1" d="M180.5,111.2h3.7l0,0v4.4h4.4l0,0l0.1,3.7c0,1.4-0.1,2.9-0.1,4.3l-4.3,0.1l-3.7-0.1l0,0v-4.4h-4.4l0,0
			c0-1.2,0-2.4,0-3.7h4.4L180.5,111.2z"/>
		<path class="st2" d="M172.4,135.1l-4.3,0.1c0-1.2,0-2.4,0-3.6l4.3-0.1l0.2,0.2C172.6,132.8,172.5,134,172.4,135.1z"/>
		<path class="st2" d="M180.5,131.6h-4.4l-3.5,0.1l-0.2-0.2c0-1.4,0.1-2.8,0.1-4.3h8L180.5,131.6z"/>
		<path class="st2" d="M176.1,119.2h4.4v4.4h-4.4v0.1C176.1,122.1,176.1,120.7,176.1,119.2z"/>
		<path class="st1" d="M176.1,123.6h4.4l0,0c0,1.2,0,2.4,0,3.7h-4.4C176.1,126,176.1,124.8,176.1,123.6z"/>
		<path class="st1" d="M351.6,135.2h-3.7v-8h8v4.4l0-0.1h-4.3C351.6,133.1,351.6,134.2,351.6,135.2L351.6,135.2z"/>
		<path class="st1" d="M355.9,115.5v3.7h-4.4v-3.7H355.9z"/>
		<path class="st1" d="M355.9,131.6h3.6v3.6h0h-3.7h0L355.9,131.6L355.9,131.6z"/>
		<path class="st1" d="M332,119.2c0,1.4,0,2.9,0,4.3l-0.1,3.7h0h-4.4h0c-0.1-1.1-0.1-2.3-0.2-3.6l-3.5,0.2v3.4h0h-4.5v7.8l-3.5,0.2
			c0-3.9,0-7.8,0-11.7h0l3.7-0.3v-4.2h0h4.2c0.1-1.6,0.1-2.6,0.2-3.7h-0.1h3.7c0,1.1,0.1,2.1,0.2,3.6L332,119.2z"/>
		<path class="st1" d="M331.9,127.2h8v4.3l0,0h-4.3v3.7l-3.7,0.2v4.2h-4.4v-3.9l-3.6-1v-7.5h0h3.7h0v4.4l4.4-0.3L331.9,127.2
			L331.9,127.2z"/>
		<path class="st1" d="M335.5,119.2h4.5v4.4h-4.4L335.5,119.2z"/>
		<path class="st1" d="M347.9,135.2v4.4h-4.4l0,0v-4.4l0,0L347.9,135.2z"/>
		<path class="st1" d="M339.9,131.6h3.6v3.6l0,0h-3.7L339.9,131.6L339.9,131.6z"/>
		<path class="st4" d="M295.5,147.6v-4.1l4.1-0.6c0.1-1.1,0.1-2.3,0.2-3.4l0,0l3.7-0.1l4.3,0.1c0,1.2,0,2.4,0,3.7h-4.4v4.4h-3.6
			L295.5,147.6L295.5,147.6z"/>
		<path class="st4" d="M283.8,147.6h11.7l0,0v3.7l0,0l-3.4,0.2c-0.2,1.5-0.4,2.7-0.5,4.1h-3.3h0v-4.4h-4.4h0L283.8,147.6
			L283.8,147.6z"/>
		<path class="st1" d="M291.8,135.2v-8l3.7,0.2v7.9L291.8,135.2z"/>
		<path class="st1" d="M295.5,135.2h4.4l0,0c0,1.5,0,2.9,0,4.4h-4.4L295.5,135.2z"/>
		<path class="st4" d="M280.2,143.2l3.7-0.1c0,1.5,0,2.9,0,4.4l0,0l-3.6-0.2L280.2,143.2L280.2,143.2z"/>
		<path class="st1" d="M299.9,123.5h8l0,0c0,1.2,0,2.4,0,3.7h-4.4v8l0,0h-3.7l0,0C299.9,131.3,299.9,127.4,299.9,123.5z"/>
		<path class="st4" d="M327.5,115.6h-3.7l0.1-4.4h0h3.6L327.5,115.6z"/>
		<path class="st1" d="M327.5,111.2h-3.6c0-1.2,0-2.5,0-3.7h3.7C327.5,108.8,327.5,110,327.5,111.2z"/>
		<path class="st1" d="M307.9,115.5h3.7v3.7h4.4l0,0v4.4h0h-8.1l0,0C307.9,120.9,307.9,118.2,307.9,115.5z"/>
		<path class="st1" d="M323.9,111.2l-0.1,4.4h0.1h-4.4l0,0v-4.4L323.9,111.2z"/>
		<path class="st1" d="M315.9,119.2c0-1.2,0-2.4,0-3.7h3.7l0,0v3.7h0L315.9,119.2L315.9,119.2z"/>
		<path class="st1" d="M351.6,111.2v4.4h-3.7v-4.4L351.6,111.2z"/>
		<path class="st4" d="M280.1,139.7c0,1.2,0.1,2.4,0.1,3.5v-0.1l-4.4,0.1c0-1.2,0-2.4,0-3.7l0,0L280.1,139.7z"/>
		<path class="st1" d="M351.6,87.9v3.7h-8v-3.7H351.6z"/>
		<path class="st1" d="M355.9,99.5v3.7h-4.4v-3.7H355.9z"/>
		<path class="st2" d="M211.8,135.2h-3.7c0.1-1.1,0.1-2.1,0.2-3.4h7.8v3.5L211.8,135.2z"/>
		<path class="st2" d="M224.2,143.2v4.4l-4.5-0.1v-4.2L224.2,143.2z"/>
		<path class="st2" d="M227.8,131.6h-3.7c0-1.5,0-2.9,0-4.4l3.7,0.1L227.8,131.6z"/>
		<path class="st2" d="M224.2,131.5v3.7h-3.9C219.7,131.6,219.7,131.6,224.2,131.5z"/>
		<path class="st2" d="M200.1,127.3h-4.2l-0.2-0.2c0-1.2,0.1-2.4,0.1-3.5l0,0h4.3L200.1,127.3z"/>
		<path class="st1" d="M208.1,123.6v3.4H204l-0.2-3.3L208.1,123.6L208.1,123.6z"/>
		<path class="st2" d="M192.1,119.2h3.6v4.4l0,0h-3.7L192.1,119.2L192.1,119.2z"/>
		<path class="st2" d="M188.6,119.3l-0.1-3.7h3.7c0,1.2,0,2.4,0,3.7l0,0L188.6,119.3z"/>
		<path class="st2" d="M240.2,111.2H236c-0.1-1.4-0.1-2.5-0.2-3.7h12.1l0.4,3.5l-0.2,0.2l-4.3-0.1H240.2z"/>
		<path class="st2" d="M251.9,111.3l-0.1,4.3h0.1h-3.5l-0.3-4.2l0.2-0.2L251.9,111.3z"/>
		<path class="st2" d="M227.8,123.5c0-1.4,0-2.8,0.1-4.3l4.4,0.1l-0.1,4.3L227.8,123.5z"/>
		<path class="st2" d="M235.8,119.3v-3.7h4.4h-0.1v3.7h0.1L235.8,119.3L235.8,119.3z"/>
		<path class="st4" d="M240.2,111.2h3.6v4.3h-3.6h0.1C240.2,114.1,240.2,112.7,240.2,111.2z"/>
		<path class="st4" d="M232.2,123.6l0.1-4.3h3.6v-0.1v4.4l0,0L232.2,123.6L232.2,123.6z"/>
		<path class="st2" d="M232.2,123.6h3.6l0.1,3.5l-3.7,0.1C232.2,126,232.2,124.8,232.2,123.6z"/>
		<path class="st2" d="M256.2,115.5c0,1.2,0,2.5,0,3.7l0,0h-4.4v-3.6h-0.1L256.2,115.5z"/>
		<path class="st2" d="M259.9,119.2v4.2l-3.7,0.2l0,0v-4.4l0,0L259.9,119.2z"/>
		<path class="st2" d="M188.5,115.6h-4.4v-4.4h4.4V115.6z"/>
		<path class="st2" d="M188.5,143.2c0-1.2,0.1-2.5,0.1-3.7h3.5c0,1.2,0.1,2.5,0.1,3.7H188.5z"/>
		<path class="st2" d="M224.1,147.5l3.5,0.2c0.1,1.2,0.1,2.4,0.2,3.5l-3.5-0.2C224.3,149.8,224.2,148.7,224.1,147.5z"/>
		<path class="st2" d="M195.9,127.3c0,1.4-0.1,2.8-0.1,4.3h-3.7l0,0v-4.4l3.5-0.1L195.9,127.3z"/>
		<path class="st1" d="M192.1,139.5h-3.5l-0.1-4.3v0.1h3.6L192.1,139.5z"/>
		<path class="st2" d="M192.1,135.3h-3.6c0-1.2-0.1-2.4-0.1-3.5l0.2-0.2l3.5,0.1l0,0C192.1,132.8,192.1,134,192.1,135.3z"/>
		<path class="st2" d="M251.8,127.2v4.4l0.1-0.1h-3.7h-8c0-1.4,0-2.9,0-4.4v-3.7c0-1.5,0-2.9,0-4.4h-0.1l3.4,0.2
			c0.2,1.5,0.3,2.7,0.5,4l3.9,0.4c0.2,1.1,0.4,2.2,0.5,3.3L251.8,127.2L251.8,127.2z"/>
		<path class="st2" d="M235.8,139.6v-4.4c0-1,0.1-2.1,0.2-3.6h4.2v7.8L235.8,139.6z"/>
		<path class="st1" d="M248.2,131.6h3.7v3.6h-3.6C248.3,133.9,248.2,132.8,248.2,131.6z"/>
		<path class="st4" d="M240.2,123.5v3.7l-4.3-0.1l-0.1-3.5l0,0L240.2,123.5z"/>
		<path class="st2" d="M275.9,139.5c0,1.2,0,2.4,0,3.7l0-0.1l-3.7,0.3v4.2l0,0h-4.4c0-1.4,0-2.9,0-4.4c0-1.2,0-2.4,0-3.5
			L275.9,139.5z"/>
		<path class="st2" d="M256.2,123.5v3.6h-4.4h0.1c0-1.1,0.1-2.3,0.2-3.6H256.2L256.2,123.5z"/>
		<path class="st2" d="M272.2,131.5v3.3c-2.5,0.4-5,1.3-4.1-3.3L272.2,131.5L272.2,131.5z"/>
		<path class="st2" d="M275.8,143.2l4.4-0.1v4.2l3.6,0.2v3.7h-11.7c0-1.2,0-2.4,0-3.7l0,0l3.7-0.3v-4.2L275.8,143.2z"/>
		<path class="st2" d="M283.8,151.2h4.4v4.4h-4.4V151.2z"/>
		<path class="st2" d="M283.9,155.5v3.7h-3.7c0.1-1,0.1-2.1,0.2-3.5L283.9,155.5z"/>
		<path class="st2" d="M355.9,135.2h3.7c0,1.5,0,3,0,4.4l0-0.1h-3.8h0C355.9,138.1,355.9,136.6,355.9,135.2z"/>
		<path class="st1" d="M315.8,143.3l0.1,4.3l-4.4-0.1l0,0.1l-0.1-4.3L315.8,143.3z"/>
		<path class="st2" d="M307.9,155.6h-4.4v-4.4l0,0h4.5l0,0L307.9,155.6z"/>
		<path class="st2" d="M311.5,147.5v3.5l-3.7,0.2l0,0v-3.7l0,0L311.5,147.5L311.5,147.5z"/>
		<path class="st2" d="M327.5,139.6h4.4h0c0.1,1.1,0.1,2.3,0.2,3.6h3.5c0,1.5,0,2.9,0,4.4h0l-8.1-0.1c0-1.4,0-2.9,0-4.3
			C327.5,142.1,327.5,140.8,327.5,139.6L327.5,139.6z"/>
		<path class="st4" d="M327.5,143.2c0,1.4,0,2.8,0,4.3l-3.6,0.1l0.1,0.1c0-1.5,0-2.9,0-4.4l0,0.1L327.5,143.2z"/>
		<path class="st2" d="M323.9,127.2v7.5l3.6,1v3.9l0,0l-3.7,0.2v3.5l0-0.1l-4.3,0.1c-0.1-1-0.1-2.1-0.3-3.6H316l-0.2-0.2
			c0-1.4,0.1-2.9,0.1-4.3h0l3.5-0.2v-7.9L323.9,127.2z"/>
		<path class="st2" d="M315.8,143.3l-4.3-0.1h-3.7v0.1c0-1.2,0-2.4,0-3.7c0-1.5,0-2.9,0-4.4l0,0h3.7h0v4.3h4.3l0.2,0.2L315.8,143.3z
			"/>
		<path class="st1" d="M319.6,143.3l4.3-0.1c0,1.5,0,2.9,0,4.4h-4.4C319.5,146.1,319.6,144.7,319.6,143.3z"/>
		<path class="st1" d="M355.9,135.2c0,1.5,0,3,0,4.4l-4.4-0.1c0-1.5,0-2.9,0-4.4h0H355.9L355.9,135.2z"/>
		<path class="st1" d="M343.6,143.2h-3.7l0,0.1c0-1.2,0-2.4,0-3.7h3.7l0,0V143.2z"/>
		<path class="st1" d="M355.9,139.6h3.8v3.6l-3.6-0.1C356,141.9,355.9,140.7,355.9,139.6z"/>
		<path class="st1" d="M335.5,147.6c0-1.5,0-2.9,0-4.4l0,0.1h4.4l0-0.1c0,1.5,0,2.9,0,4.4H335.5z"/>
		<path class="st2" d="M288.2,155.5h3.4c0.2-1.4,0.3-2.6,0.5-4.1l3.4-0.2c0,1.5,0,3,0.1,4.4c0,1.2,0,2.4-0.1,3.6c0,1.4,0,2.9,0,4.3
			l-3.7,0.1v-4.2l-3.6-0.2L288.2,155.5z"/>
		<path class="st2" d="M188.4,131.7l-4.3-0.1c0-1.5,0-2.9,0-4.4l0,0h4.4c0,1.4,0.1,2.8,0.1,4.3L188.4,131.7z"/>
		<path class="st2" d="M180.5,127.2c0-1.2,0-2.4,0-3.7l3.7,0.1c0,1.2,0,2.4-0.1,3.6l0,0L180.5,127.2z"/>
		<path class="st4" d="M172.6,131.7l3.5-0.1c0,1.2,0,2.4,0,3.6l-3.8-0.1C172.5,134,172.6,132.8,172.6,131.7z"/>
		<path class="st2" d="M295.5,151.2v-3.7l4.5,0.1v3.5L295.5,151.2z"/>
		<path class="st1" d="M299.9,151.1v-3.5h3.6l0-0.1v3.6l0,0L299.9,151.1z"/>
		<path class="st4" d="M184.1,127.2c0-1.2,0-2.4,0.1-3.6l4.3-0.1l-0.1-0.1c0,1.2,0,2.4,0,3.7l0,0L184.1,127.2z"/>
		<path class="st4" d="M188.6,119.3l3.6-0.1v4.4l0,0h-3.7l0.1,0.1C188.6,122.1,188.6,120.7,188.6,119.3z"/>
		<path class="st2" d="M355.9,135.2h-4.4c0-1.1,0.1-2.1,0.2-3.7h4.3V135.2z"/>
		<path class="st2" d="M307.9,123.5h8.1c0,3.9,0,7.8,0,11.7h0h-4.4h0v-7.9l-3.7-0.2l0,0L307.9,123.5z"/>
		<path class="st2" d="M331.9,127.2v4.2l-4.4,0.3v-4.4H331.9z"/>
		<path class="st2" d="M315.9,119.2h3.7v4.2l-3.7,0.3V119.2z"/>
		<path class="st2" d="M319.5,119.2v-3.7h4.4c0,1-0.1,2.1-0.2,3.7L319.5,119.2z"/>
		<path class="st2" d="M327.5,127.2h-3.7v-3.4l3.5-0.2C327.4,125,327.5,126.1,327.5,127.2z"/>
		<path class="st2" d="M331.9,139.6v-4.2l3.7-0.2l-0.1-0.1v4.4l0-0.1L331.9,139.6L331.9,139.6z"/>
		<path class="st4" d="M339.9,131.5l-0.1,3.6h0.1h-4.4l0.1,0.1v-3.7L339.9,131.5z"/>
		<path class="st2" d="M343.6,139.6h-3.7l0,0.1v-4.4h-0.1h3.7L343.6,139.6z"/>
		<path class="st1" d="M307.9,135.2c0,1.5,0,2.9,0,4.4l-4.3-0.1c0-1.4,0-2.9,0-4.3l0,0H307.9z"/>
		<path class="st2" d="M303.5,147.6v-4.4h4.4v-0.1v4.4l0,0L303.5,147.6L303.5,147.6z"/>
		<path class="st2" d="M303.5,135.2c0,1.4,0,2.9,0,4.3l-3.7,0.1c0-1.5,0-2.9,0-4.4L303.5,135.2z"/>
		<path class="st2" d="M307.9,135.2h-4.4v-8h4.4l0,0V135.2z"/>
		<path class="st4" d="M195.7,127.1l-3.5,0.1l0,0v-3.7l0,0h3.7C195.8,124.7,195.7,125.9,195.7,127.1z"/>
		<path class="st1" d="M256.2,123.6H252c-0.1,1.3-0.1,2.5-0.2,3.6l-3.4-0.2c-0.2-1.1-0.4-2.2-0.5-3.3l-3.9-0.4
			c-0.1-1.3-0.3-2.4-0.5-4l-3.4-0.2v-3.7h3.6v-4.3l4.3,0.1c0.1,1.3,0.2,2.5,0.3,4.2h3.5v3.6h4.4L256.2,123.6z"/>
		<path class="st1" d="M240.2,123.5h-4.4v-4.4h4.4C240.2,120.6,240.2,122.1,240.2,123.5z"/>
		<path class="st4" d="M188.6,131.4c0-1.4-0.1-2.8-0.1-4.3l0,0h3.7l0,0v4.4L188.6,131.4z"/>
		<path class="st4" d="M275.9,143.2v4.2l-3.7,0.3v-4.2L275.9,143.2z"/>
		<path class="st4" d="M307.9,147.6v-4.4h3.7l0.1,4.3L307.9,147.6z"/>
		<path class="st4" d="M303.5,147.6h4.5v3.7h-4.5V147.6z"/>
		<path class="st1" d="M323.9,143.2v-3.5l3.7-0.2c0,1.2,0,2.4,0,3.6L323.9,143.2z"/>
		<path class="st1" d="M331.9,139.5h3.7c0,1.2,0,2.4,0,3.7l0-0.1h-3.5C332,141.8,331.9,140.7,331.9,139.5z"/>
		<path class="st1" d="M311.5,135.2h4.4c0,1.4-0.1,2.9-0.1,4.3h-4.3V135.2z"/>
		<path class="st1" d="M307.9,135.2v-8l3.7,0.2v7.9L307.9,135.2z"/>
		<path class="st2" d="M335.5,143.2c0-1.2,0-2.4,0-3.7l0,0.1h4.4l0-0.1c0,1.2,0,2.4,0,3.7H335.5z"/>
		<path class="st1" d="M192.2,127.2h-3.7c0-1.2,0-2.4,0-3.7h3.7L192.2,127.2z"/>
		<path class="st1" d="M339.9,139.6h-4.4v-4.4h4.4L339.9,139.6z"/>
	</g>
</g>
</svg>
