<svg xmlns="http://www.w3.org/2000/svg" viewBox="0 0 583 275.47"><defs><style>.cls-1{fill:#fefefe;}.cls-2{fill:#dff7ce;}.cls-3{fill:#85bf6c;}.cls-4{fill:#071821;}.cls-5{fill:#306850;}</style></defs><title>mup</title><g id="Layer_2" data-name="Layer 2"><g id="Layer_1-2" data-name="Layer 1"><path class="cls-1" d="M583,83.59V275.47H0V0H264.21c0,1.21,0,2.42,0,3.62l-8.14.08h-7.6c-.27,1.66-.45,2.8-.69,4.31H236.24l-.89,3.68H224.22V16l-4.49.06h-3.5V19.6l-4.11.2c-.27,1.58-.47,2.73-.68,4l-3.36.24h-4.22V27.6l-3.4.25-.67,4-4.08.18H192.1v3.62l.08-.09-3.71.17V40l.06-.07H184.1v3.7l.07-.06h-3.72V48l.09-.08h-4.35v3.6L176.13,56h-3.66v3.58l0,0-4.32.14h-15.9c-.13,1.57-.23,2.74-.37,4.31H140.77l-.72,3.72H128.37l-.64,4.33H112.37l-.61,3.61H100.67l-.46,4.1H76.62l-.43-4.2h-11l-.92-3.82H52.59l-.43-4.12H36.78l-.85-3.82H20.65l-.6-4H1v55.52H12.49V72.15h12l.55,3.5h15.5L41,80H56.37l.93,3.82H68.22l.45,4.12H80.41l.77,3.43H96.53l.68-3.53h11c.22-1.56.41-2.81.63-4.33h11c.22-1.31.39-2.33.6-3.61h15.48c.16-1.54.3-2.8.46-4.33h15.56l.43-3.55h7.79v7.81l-3.54.33v3.4l-.11,4.51h-4.25v7.12l-.11,4.5h-3.54v7.85q-.08,4-.13,8h-4.22v19.5l4.23.24c0,1.44,0,2.88.08,4.32,0,1.2,0,2.4.05,3.6v15.83l3.66.31V175l4.27.33v11.27l3.75.36v7.66l4.27.36v7.58L168,203c.12,1.51.23,2.78.33,4l4.22.37v7.57l3.43.44c.15,1.27.27,2.3.39,3.27l4.2.33v4l3.42.45.38,3.26,4.21.33v3.95l3.41.45c.16,1.27.28,2.3.39,3.24l3.28.38.33,4.2h4c.16,1.26.31,2.39.45,3.42l3.26.38c.13,1.52.24,2.78.36,4.19h7.59l.46,3.76h7.82v4.14h7.7c.19,1.38.34,2.49.52,3.87h7.8v4.14H248c.2,1.38.36,2.49.55,3.87h15.8v3.88h47.31v-4.09h15.65c.22-1.4.39-2.5.59-3.75h12.06v-4.26h7.73c.22-1.4.39-2.51.59-3.76H356v-4.26h7.71c.22-1.39.4-2.5.6-3.74H372v-4.27h3.33l.6-3.72H380v-4.28h3.34l.59-3.72H388v-4.15l3.64-.16v-3.29l3.73-.59v-4.07h4.28V215.4l3.73-.6v-7.71h4.28V203l3.73-.6v-7.72h4.28v-8h3.64V175.08h4.38V159.27l3.64-.2V143.29l4.39-.24v-7.82l3.36-.19v-7.67l-3.37-.27,0-3.42,3.55-.43c-.07-1.44-.12-2.6-.18-3.88l-3.37-.29v-7.66h-4.49v4.11l-3.67,0,.15-20.32H571.13c.17-1.42.28-2.35.42-3.5l3.19-.35c.19-1.23.36-2.25.53-3.33l3.89-.29c.15-1.44.29-2.71.45-4.2ZM431.46,103.38h-4v4h4Z"/><path class="cls-1" d="M311.52,0H583V72l-3.73-.22V64.23l-4.13-.56c-.11-1.37-.21-2.54-.33-3.86H411.18V64l-3.62,0,.08.06c-.07-1.41-.13-2.82-.21-4.42h-4.22l.05,0c-.07-1.14-.15-2.29-.23-3.59h-3.44l-.06-4.49V47.93H395.2l.06.06V43.57h-3.7l.06.06v-3.7h-3.7L388,40V35.65h-4.44V32H380l-4.14-.22-.67-4-3.35-.19V24h-4.22l-3.43-.3c-.24-1.49-.42-2.64-.66-4.13h-4V16.05H356L351.48,16V11.68h-11l-1.26-3.81H327.94L327,3.55H311.7Z"/><path class="cls-2" d="M311.52,0l.18,3.55H327l.9,4.32h11.28l1.26,3.81H348V16h3.49l4.52.08v3.56h7.55c.24,1.49.42,2.64.66,4.13l3.43.3V27.6h4.22l3.35.19.67,4L380,32c0,1.2,0,2.39,0,3.58h-4.43V40h-3.64V35.61H367.5V32.08h-7.93c.1,1.37.17,2.35.25,3.44H364l3.57,0V40H372c0,1.19,0,2.38,0,3.57V48l3.45-.25V43.55c0-1.19,0-2.38,0-3.57L380,40v3.67l3.63-.28V39.91L388,40l-.06-.07v3.7h3.7l-.06-.06V48h3.7l-.06-.06c.06,1.16.12,2.31.19,3.59h4.14l.06,4.49c0,1.21,0,2.41,0,3.61l-4.39,0h0c-.07-1.13-.13-2.27-.21-3.64h-3.43V51.63h-3.68c-.06-1.15-.12-2.3-.17-3.43H380v3.43h-7.83v4.09h7.78V51.58h8L388,56c0,3.86,0,7.72-.05,11.57h-4.42V72h-3.64c.08,1.39.14,2.4.21,3.6l3.38-.23V72h4.42V67.54l3.57.15c.1,1.36.2,2.72.31,4.17h7.66V67.65q0-4,.08-8.07l3.7,0-.05,0V64h4.43l-.08-.06.12,3.61L407.59,72h-4.34v3.6l-3.61.07h-4.41V80h-3.67V75.84H388V80c-1.7,0-3.4.09-5.09,0-2.75-.24-3.42.9-2.54,3.62H388v4.37h3.63v7.27h3.64V99.6l-3.56.15v3.52c0,1.43,0,2.86-.05,4.29l-3.71,0v-8l-4,.21.54.87L380,104.68v2.91l-4.29-.07v-7.9L380,99.4l-.22-4-4.07-.2V67.64l4.24-.21V63.94l3.37-.16c.42-4.37.42-4.37-3.32-3.62V64l-4.29-.08c-.08-1.38-.17-2.77-.25-4.11H356.05c-.12,1.47-.21,2.74-.33,4.27h-12c-.14,1.32-.26,2.35-.39,3.55H327.55c-.07-1.15-.15-2.3-.21-3.26-3.56-1.4-3.34,1.29-3.8,3.06l-3.86.38c-.07,1.47-.14,2.76-.2,4h-3.55l-.21-4H311.6V72c-.08,1.15-.17,2.29-.26,3.51H308L307.78,72V67.88h-4.17V72l-.18,3.52-3.51,0-.24-3.55-4,.2c-.09,1.27-.16,2.31-.23,3.35l-3.48.27c-.1,1.52-.19,2.78-.27,4.09H283.9c-.06-1.27-.12-2.55-.2-4h-3.33c-.07,1.46-.13,2.74-.2,4l-7.89.2H268c-.09,1.36-.16,2.4-.23,3.44h-3.55q0-4-.07-7.91h3.48l.25-3.52,4.24-.29V67.6l3.66-.2c-.07-1.26-.13-2.24-.2-3.42h-3.42v-4.4h3.23l.95-3.6h3.84c.06,1.16.11,2.31.17,3.55h3.47v4.41h4.4c.05,1.14.1,2.28.15,3.37,3.33.76,4-.44,3-3.32h-3.2V59.58h7.16c.07-1.52.12-2.58.17-3.64l0,.05,4.41-.05v3.65l3.6-.24V55.94h4.42c-.1-1.72-.16-2.88-.24-4.31h-4.18V48h4.36V43.59h3.64V40h4.42v8h3.68v3.41h4.27V47.94l3.65,0c.08,1.14.15,2.28.24,3.63l3.89-.19V43.71h-4.17l-3.58,0c-.07-1.15-.14-2.3-.23-3.68h-7.8V35.59h3.64V32h8.05c.05,1.13.1,2.26.16,3.4h4.16V32l3.38-.15c.41-4.37.41-4.37-3.33-3.63V32H327.5V27.65h-8V24h4.19V19.88h-4.14V24h-3.66c.1,1.45.17,2.43.25,3.59h3.41V32h-3.64v3.63h-4.42V32l-3.59.24v3.41h-4.37V40h-8.06V35.58h4.39L299.61,32h-4.14v-7.8h-7.22v3.43h-4.37V32l-3.55-.12c-.11-1.3-.21-2.6-.32-4h-7.8c.07,1.45.12,2.62.18,3.92l3.45.19c0,1.2,0,2.4,0,3.61l0-.06-3.64.27V40h-8v3.67h-4.37V48l-3.56.19V56c0,1.18,0,2.37,0,3.56l-4.32-.1V51.85h-3.85v7.64l-4.29.14c-.05-1.15-.1-2.29-.15-3.38-3.33-.76-4,.44-3,3.33h3.2c0,1.42-.09,2.85-.13,4.27l-3.34.31c-.11,1.21-.21,2.27-.3,3.33h-3.92c-.27-1.29-.47-2.31-.63-3.11-3.71-1.69-3.08,1.5-3.74,3l-3.95.49V72c-1.7,0-3.4.1-5.09,0-2.75-.23-3.42.91-2.53,3.64h7.62v4.36h4.36L232,83.4l-3.76.39c-.69,4.17-.69,4.17-3.77,3.7-.21-1.23-.42-2.48-.66-3.91l-4,.21v4.15l-3.56-.08V59.69H200.35v4.07l3.34.25V79.9l-3.55.07V72h-4.38v-4.1c-4.52-.89-3.7,1.54-3.27,4.05h3.32v8h-7.32V75.62h-4.37l0-3.72h4.13V67.65h-4.14c0-1.23,0-2.46,0-3.69h4.41c-.11-1.78-.19-2.94-.27-4.27h-7.76V64h-4.38c.07,1.4.12,2.41.17,3.51h4.12l3.75.1c0,1.45,0,2.9,0,4.35l-3.66.2.21,3.42h3.42v4.36h4.37c0,1.22,0,2.45,0,3.68h-4.16v8h4.15v3.66h-4.37v4.36h-3.66V95.23h-4.37V91.56h4.12c.83-4.46-1.55-3.73-4.08-3.27V91.6l-3.56-.07q0-16-.1-32l0,0,3.66-.17V56l.06-4.49h4.35v-3.6l-.09.08h3.72V43.57l-.07.06h4.43v-3.7l-.06.07h3.71V35.56l-.08.09h3.61V32l4.08-.18.67-4,3.4-.25h4.22V24l3.36-.24c.21-1.27.41-2.42.68-4l4.11-.2h3.5V16l4.49-.06,3.51-.18V11.69h7.62L236.24,8h11.58c.24-1.51.42-2.65.69-4.31h3.41V8l4.19-.23V3.7l8.14-.08h8V0h31.3c.07,1.15.13,2.3.21,3.65l4-.21c.06-1.31.11-2.37.16-3.44Zm24,59.57h4.13c.83-4.44-1.55-3.72-4.08-3.26v3.31l-3.38.16c-.41,4.37-.41,4.37,3.33,3.63ZM219.83,48l.16,3.37c4.38.41,4.38.41,3.63-3.33h-3.84V43.9c-4.52-.9-3.7,1.53-3.27,4.05Zm144.11-4.37v4.13c4.46.82,3.73-1.55,3.27-4.08h-3.32c-.05-1.14-.1-2.28-.15-3.37-4.38-.41-4.38-.41-3.63,3.32Zm-112.11-8h4.32V32l3.66-.21V27.59h4.13c.83-4.44-1.54-3.72-4.08-3.26v3.31l-3.66.17V32h-4.37V23.94h-7.71c-.22-1.56-.4-2.81-.62-4.33L240,20v7.67H235.8V24l-3.6.25v3.4h-4.36v8l-3.44.18v7.77h3.44v4.15h8V43.59h12.37V40l3.66-.17ZM331.92,19.6v4.1c4.52.89,3.7-1.54,3.27-4.05h-3.32c-.05-1.14-.11-2.29-.16-3.37-4.38-.42-4.38-.42-3.63,3.32Zm-51.68,0v4.1c4.53.89,3.71-1.54,3.28-4.05h-3.33c-.05-1.13-.1-2.25-.15-3.39h-4.16v3.39l-3.38.16c-.42,4.37-.42,4.37,3.33,3.62V19.6ZM188.45,51.7h-4.09v4.17h7.51V51.7Zm163-24.08V24l-3.6.21c.08,1.27.15,2.28.22,3.38h3.43v4.21h4.11V27.62Zm-32,32h8.13l-.39-3.39h-7.69v3.44h-3.41V64l3.36-.24ZM220,63.75h3.91V56.18H220Zm68.23-47.94-.19-3.9h-4.18c.07,1.44.12,2.59.19,3.9Zm27.47-4.22-4.16.26c.06,1.51.12,2.75.18,4.18l4-.26ZM212.12,35.74V40l3.77-.17V35.74Zm127.79,12c-.07-1.54-.13-2.68-.19-3.89h-4.19c.07,1.43.13,2.58.19,3.89ZM315.6,55.84V51.61l-3.8.17v4.06ZM288.42,7.79h3.18V3.84h-3.18Zm14.92,4.1c-4.18-.9-3.59,1.42-3.22,3.85h3.22Zm8.21,11.91c-.09-1.59-.16-2.74-.25-4.17l-3.45.29.23,3.88Zm39.89,11.84-3.55.25c.08,1.48.14,2.63.22,4.06l3.33-.24ZM207.89,43.41V40.17h-3.83v3.24Zm-7.46,8.38v4.13l3.09-.15V51.65Zm7.72,0,.2,4.12,3.46-.2-.19-3.92ZM364,55.94l3.55-.25c-.08-1.47-.15-2.62-.23-4.06l-3.32.24Zm-171.77,8,3.55-.26c-.08-1.47-.15-2.62-.23-4l-3.32.24Zm195.5,27.63-4.13.2c.07,1.25.13,2.24.2,3.45l3.93-.19ZM176.4,80.13c-.9,4.16,1.43,3.57,3.86,3.21V80.13Zm107.5-8.37-.27-4.18-3.45.33.26,3.85ZM256.52,16.3c-.86,2.94.18,3.81,3,3C260.37,16.37,259.34,15.5,256.52,16.3Zm11,3.15c.92-3.14-.24-4-3.17-3.2v3.2Zm26.76.63,1.55-1.32L293.91,16l-2,1.75Zm45.9,7.22c3,.85,3.82-.18,3-3C340.28,23.45,339.41,24.48,340.21,27.3Zm3,4.89c-3.34-.67-3.8.69-2.9,3.19C343.22,36.09,344,35,343.2,32.19Z"/><path class="cls-3" d="M407.59,72l.09-4.49h3.5V59.81H574.81c.12,1.32.22,2.49.33,3.86l4.13.56v7.51L583,72V83.59h-3.39c-.16,1.49-.3,2.76-.45,4.2l-3.89.29c-.17,1.08-.34,2.1-.53,3.33l-3.19.35c-.14,1.15-.25,2.08-.42,3.5H423.71V87.9H566.77c.17-1.54.3-2.8.43-4.06l3.95-.58V67.76l-3.82-.31-.73-3.25H423.5V80l-4.12-.21c-.12-1.55-.21-2.71-.31-4l-3.25-.33c-.17-1.23-.31-2.25-.48-3.44h-4.09l-3.71,0Z"/><path class="cls-3" d="M272.21,0V3.62h-8c0-1.2,0-2.41,0-3.62Z"/><path class="cls-3" d="M307.88,0c-.05,1.07-.1,2.13-.16,3.44l-4,.21c-.08-1.35-.14-2.5-.21-3.65Z"/><path class="cls-4" d="M431.71,135.23v7.82l-4.39.24v15.78l-3.64.2v15.81H419.3v11.64h-3.64v8h-4.28v7.72l-3.73.6v4.05h-4.28v7.71l-3.73.6v3.33h-4.28v4.07l-3.73.59v3.29l-3.64.16V231h-4.08l-.59,3.72H380V239h-4.07l-.6,3.72H372V247h-7.72c-.2,1.24-.38,2.35-.6,3.74H356V255h-7.71c-.2,1.25-.37,2.36-.59,3.76h-7.73V263H327.86c-.2,1.25-.37,2.35-.59,3.75H311.62v4.09H264.31V267h-15.8c-.19-1.38-.35-2.49-.55-3.87H235.91V259h-7.8c-.18-1.38-.33-2.49-.52-3.87h-7.7v-4.14h-7.82l-.46-3.76H204c-.12-1.41-.23-2.67-.36-4.19l-3.26-.38c-.14-1-.29-2.16-.45-3.42h-4l-.33-4.2-3.28-.38c-.11-.94-.23-2-.39-3.24l-3.41-.45V227l-4.21-.33-.38-3.26-3.42-.45v-4l-4.2-.33c-.12-1-.24-2-.39-3.27l-3.43-.44v-7.57l-4.22-.37c-.1-1.21-.21-2.48-.33-4l-3.46-.42V195l-4.27-.36V187l-3.75-.36V175.36l-4.27-.33V159.37l-3.66-.31V147.58l3.45-.29v-4.18l0-3.6.09.06,4.34,0,.06,3.56v10.8l5.07,5.1h2.52l.65-3.29,3.35-.2v7.73l4,.56-.51.74,2.89,2.59a19.16,19.16,0,0,0,1.54-3.68,22.85,22.85,0,0,0,0-4.3l4.49.22v7.77h3.55v4.4l4.34-.24v-4.15h3.66v4c4.84,1.08,3.33-2.13,3.61-4h4.08l.62,4.21,3.35.19,0,0v8l4.15-.24c.18-1.44.32-2.6.47-3.78l3.52-.83v-7.51h4.28l0,0v7.49l3.79,1.17v7H224c.12-2.65.23-5,.35-7.52l3.47-.18v8h8v8l4.33-.26v-7.78l3.34.19c.22,1.14.41,2.15.66,3.44h4a8.45,8.45,0,0,0,.09,2.81,2.72,2.72,0,0,0,1.82,1.45c.48.08,1.44-.71,1.6-1.27a9.93,9.93,0,0,0-.17-2.94h-3.38a44.17,44.17,0,0,1,.11-5.4,2.45,2.45,0,0,1,1.55-1.74c.6-.07,1.45.74,1.93,1.36a6.46,6.46,0,0,1,.58,2.15l3.63-.29v-7.37l-3.83-.73c-.72-2.37-.08-3.44,2.31-3.29,1.79.11,3.6,0,5.41,0v7.68l4.05.67.67,3.28h3.28c0,1.23,0,2.45,0,3.68l-3.34.17c-.15.7-.39,1.12-.27,1.36.5,1,1.11,1.86,1.68,2.78a21.37,21.37,0,0,0,1.86-2.61c.24-.46,0-1.16,0-1.75h4.41v4.05c4.81,1.06,3.32-2.14,3.6-4.05h4.41v4.13h11.61v-4.13h8v4.05c4.81,1.06,3.32-2.14,3.6-4.05h4.37v-3.64l3.64-.18v-3.45h4.13c.2-1.67.33-2.81.48-4l3.39-.72v-3.26l4.41,0,0,0c0,2.68,0,5.36,0,8h-4.37v3.63l-3.38.17c-.69,3.27.47,4,3.34,3v-3.19h4.37V179.5l3.41-.18c.21-1.53.36-2.67.56-4.11l4.18.2v7.73h3.53c.07,1.15.13,2.29.21,3.67l4.12-.23v-3.44h7.86c.08,1.57.14,2.62.19,3.68h-4.11v8l4.07-.19v-7.81l3.64-.21V175.15h4.37v-3.64l3.68.28c0,2.8,0,5.28,0,7.76l-3.37.2c-.73,7-.63,7.15,3.33,6.51V179.5h7.8c.14-1.68.24-2.95.34-4.21h15.82v-3.82l.06-4.32,4.31,0H390l5.17-5.18c0-.14-.08-1.28-.18-2.72h-7.05v-8h3.68v4.05c4.82,1.08,3.32-2.13,3.6-4.05l4.1.18.63,4.18h7.68l0,3.67-4.28.07h-3.71c.07,1.64.12,2.79.18,4.11l3.46.16h0c0,1.22,0,2.44,0,3.66l-3.34.18c-.15.69-.39,1.12-.27,1.35.5,1,1.11,1.86,1.67,2.79a21.15,21.15,0,0,0,1.87-2.61c.24-.46,0-1.16,0-1.75h4.39v-3.62h0l3.39-.21c.22-1.53.38-2.67.56-3.91l3.68-.45c.75-2.29.43-3.59-2.25-3.44-1.8.11-3.6,0-5.39,0v-4.4h8v-3.63l3.36-.2c.26-1.57.45-2.73.64-3.91l4-.54v-3.35l3.67-.2c-.08-1.54-.14-2.68-.22-4.12h-3.45c.09-1.13.17-2.25.27-3.59h7.66C431.58,132.82,431.65,134,431.71,135.23ZM248,194.76l-4.13.26.19,4.16,3.94-.26ZM396.24,177.3c-1.4-1-2.16-2-2.94-2-.56,0-1.67,1.33-1.58,1.92a3.32,3.32,0,0,0,1.83,2.13C393.93,179.54,394.87,178.4,396.24,177.3Z"/><path class="cls-3" d="M160.13,72h-7.79l-.43,3.55H136.35c-.16,1.53-.3,2.79-.46,4.33H120.41c-.21,1.28-.38,2.3-.6,3.61h-11c-.22,1.52-.41,2.77-.63,4.33h-11l-.68,3.53H81.18l-.77-3.43H68.67l-.45-4.12H57.3L56.37,80H41l-.44-4.33H25.05l-.55-3.5h-12v43.2H1V59.83h19l.6,4H35.93l.85,3.82H52.16l.43,4.12H64.26l.92,3.82h11l.43,4.2h23.59l.46-4.1h11.09l.61-3.61h15.36l.64-4.33h11.68l.72-3.72h11.14c.14-1.57.24-2.74.37-4.31h15.9v3.89l-3.85.83V72Z"/><path class="cls-4" d="M160.13,72h4.2V64.42l3.85-.83V59.7l4.32-.14q0,16,.1,32c0,1.24,0,2.49,0,3.73,0,1.42,0,2.84,0,4.26v11.74l-.09,4.32-4.29,0H164.4l-4.29,0L160,88V83.72l-3.43-.18v-3.4l3.54-.33Z"/><path class="cls-4" d="M423.71,87.9v7.36q-.07,10.15-.16,20.32l.06-.07-4.29.12-3.8,0-4.19-.18-.21-4.31,0-11.5V79.87l.09-7.89h4.09c.17,1.19.31,2.21.48,3.44l3.25.33c.1,1.33.19,2.49.31,4l4.12.21Z"/><path class="cls-5" d="M156.5,139.55l-4.34,0c-.07-1.41-.13-2.81-.2-4.26h-3.5l-4.23-.24v-3.55h4.1c.09-1.86.15-3.13.22-4.41h3.62v-3.55l0,0,4.3-.21v-4.18l3.77-.11,4.32.11,0,0,0,4.39h-4.23c-.08,1.53-.12,2.58-.17,3.62h-3.53V135l3.61.29-.07,4.27Z"/><path class="cls-4" d="M148.55,127.11c-.07,1.28-.13,2.55-.22,4.41h-4.1v-16h4.22q.06,4,.14,8Z"/><path class="cls-3" d="M148.59,123.61q-.08-4-.14-8t.13-8H152q.06,4,.1,8c0,1.21,0,2.43,0,3.65l0,4.4,0,0Z"/><path class="cls-3" d="M431.72,123.68l0,3.42-.22.22H423.6V119.2h3.66l-.05,0v4.28h4.29Z"/><path class="cls-3" d="M427.23,115.53v-4.11h4.49v7.66l-.22.23-4.29-.14.05,0Z"/><path class="cls-3" d="M431.71,135.23c-.06-1.2-.13-2.41-.2-3.61l0-4.3.22-.22,3.37.27V135Z"/><path class="cls-4" d="M152,107.51h-3.45V99.67h3.54l-.06-.08Z"/><path class="cls-3" d="M256.11,3.7V7.79L251.92,8V3.7Z"/><path class="cls-3" d="M152.12,99.67c0-1.5.07-3,.11-4.5h4.16v4.43h-4.33Z"/><path class="cls-3" d="M431.46,103.38v4h-4v-4Z"/><path class="cls-3" d="M227.73,11.69V15.8l-3.51.18V11.69Z"/><path class="cls-5" d="M208.08,24V27.6h-4.22V24Z"/><path class="cls-2" d="M148.46,135.31H152c.07,1.45.13,2.85.2,4.26l-.09-.06-3.53.12C148.51,138.19,148.48,136.75,148.46,135.31Z"/><path class="cls-4" d="M192.18,35.56V40h-3.71V35.73Z"/><path class="cls-5" d="M188.53,39.93v3.7H184.1v-3.7Z"/><path class="cls-4" d="M184.17,43.57V48h-3.72V43.57Z"/><path class="cls-4" d="M180.54,47.92v3.6h-4.35v-3.6Z"/><path class="cls-5" d="M152,143.11v4.18l-3.45.29v-4.35Z"/><path class="cls-5" d="M156.39,95.16h-4.16V91.55h4.14C156.38,92.75,156.38,94,156.39,95.16Z"/><path class="cls-4" d="M156.37,91.54h-4.14v-3.5h4.25l0-.09Z"/><path class="cls-3" d="M156.59,83.54l3.43.18V88l-3.59,0,0,.09C156.52,86.55,156.55,85,156.59,83.54Z"/><path class="cls-3" d="M431.72,119.08l3.37.29c.06,1.28.11,2.44.18,3.88l-3.55.43-.22-.23v-4.14Z"/><path class="cls-5" d="M427.23,115.53l0,3.68H423.6l0,0c0-1.23,0-2.47,0-3.71l-.06.07Z"/><path class="cls-3" d="M152,143.11l-3.45.12c0-1.2,0-2.4-.05-3.6l3.53-.12Z"/><path class="cls-5" d="M219.73,16V19.6h-3.5V16Z"/><path class="cls-4" d="M195.71,32v3.62H192.1V32Z"/><path class="cls-3" d="M176.13,56v3.41l-3.66.17V56Z"/><path class="cls-5" d="M407.64,64h-4.43V59.56h4.22C407.51,61.16,407.57,62.57,407.64,64Z"/><path class="cls-5" d="M388,40l-4.4-.09,0,.06c0-1.46,0-2.92,0-4.39l-.06.07H388Z"/><path class="cls-5" d="M351.48,16H348V11.68h3.49Z"/><path class="cls-5" d="M371.86,27.6h-4.22V24h4.22Z"/><path class="cls-5" d="M395.26,48h-3.7V43.57h3.7Z"/><path class="cls-5" d="M399.53,51.52h-4.14c-.07-1.28-.13-2.43-.19-3.59h4.33Z"/><path class="cls-3" d="M359.51,19.61H356V16.05h3.51Z"/><path class="cls-5" d="M380,35.61c0-1.19,0-2.38,0-3.58h3.52v3.62l.06-.07-3.67,0Z"/><path class="cls-5" d="M391.62,43.63h-3.7v-3.7h3.7Z"/><path class="cls-3" d="M403.26,59.6l-3.7,0,.05,0c0-1.2,0-2.4,0-3.61H403C403.11,57.31,403.19,58.46,403.26,59.6Z"/><path class="cls-4" d="M411.18,64v3.57h-3.5l-.12-3.61Z"/><path class="cls-4" d="M264.25,83.48h7.83c.08-1.34.14-2.39.2-3.44l7.89-.2h11.54c.08-1.31.17-2.57.27-4.09l3.48-.27h4.46l3.5,0h7.92c.09-1.22.18-2.36.26-3.51l4.33-.17h11.62V67.62h15.77c.13-1.2.25-2.23.39-3.55h12c.12-1.53.21-2.8.33-4.27h19.37c.08,1.34.17,2.73.25,4.11v47.34l-.09,4.33-7.94,0-3.61-.1c-.07-1.43-.14-2.85-.22-4.28V72.06H348c-.08,1.34-.14,2.39-.2,3.44l-4.25.2h-7.93l-.3,4.36H316l-.25,3.43-7.95.2h-8.05v4.19l-11.6.17-4.24,0h-3.52l-.23,3.4-7.9.25-4.53,0-3.5,0h-4.39v3.56l-3.72.07h-4.27l-3.61,0h-7.88c-.1,1.62-.18,2.9-.27,4.18l-4.35.2h-7.71c-.19,1.32-.35,2.34-.49,3.28l-3.29.56v7.64l-.31,4.31H203.86l-.13-8,0-4.23,0-3.61c0-1.51,0-3,0-4.52,0-2.38,0-4.76,0-7.14V64c.06-1.44.11-2.88.17-4.32h12.37V91.5h19.32c.22-1.36.39-2.38.57-3.44l4.11-.22,3.51,0,4.53,0h3.55V83.52l4.33,0Z"/><path class="cls-3" d="M280.21,56h-3.84l-.95,3.6h-3.23l.05,0c-.08-1.15-.16-2.31-.24-3.43l-4.18-.51v-4.1c1.78,0,3.56-.07,5.34,0,2.92.19,3.09-1.24,2.27-3.5l-3.27-.25V43.63h-4.32l-3.66,0,.05,0V40h8l3.53-.1.23.22v3.55h4.28l-.05,0V48h3.67c.07,1.15.13,2.3.21,3.66l4.15-.22V48l3.64-.2V40c0-1.46,0-2.91,0-4.37l3.67,0,0-.05V40h8.06l0,0v3.68l0,0-3.39.23V48h3.39l0,0v3.68l0-.05-3.68.24V56l0-.05-4.41.05v-4.1c-4.52-.89-3.7,1.54-3.28,4h3.33c0,1.06-.1,2.12-.17,3.64H288.2l.05,0c-.08-1.13-.15-2.27-.24-3.64h-7.8Z"/><path class="cls-3" d="M264.25,83.48h-8.1V80h-8V72h-4.37l0-4.39,0,.05,4.4,0,3.61-.16V64l-.09-4.25.22-.23,4.32.1-.06,0v4.39h3.66v8c.05,1.14.11,2.27.17,3.65h4.2l-.05,0Q264.22,79.52,264.25,83.48Z"/><path class="cls-3" d="M235.8,27.64H240V20l3.46-.36c.22,1.52.4,2.77.62,4.33h7.71v8.11l0-.07-3.7,0V27.82h-4.1V32h4.13l0,3.67,0,0h-4.43L244,40h4.18l-.05,0v3.64H235.8l0,0V40l0,0H240V32H235.8l0,0V27.59Z"/><path class="cls-3" d="M240.23,87.84l-4.11.22c-.18,1.06-.35,2.08-.57,3.44H219.88l-.09-3.56V83.79l4-.21c.24,1.43.45,2.68.66,3.91,3.08.47,3.08.47,3.77-3.7L232,83.4l.23-3.47,0,0,8,0v3.64C240.21,85,240.22,86.42,240.23,87.84Z"/><path class="cls-5" d="M259.86,72V67.59h4.25V64c0-1.48.08-3,.11-4.44l3.57.11.15,4.33v3.62h4.27l-.06-.05v4.16l-4.24.29h-3.77Z"/><path class="cls-3" d="M280.33,31.87l3.55.13-.05,0c.08,1.14.15,2.28.24,3.62h4.19l0,4.44,0,0h-4.42v3.63l-3.67,0,.05,0c-.07-1.12-.14-2.25-.23-3.55H276l-.23-.22c0-1.44.08-2.87.11-4.31l0,.06h4.31V32.1Z"/><path class="cls-5" d="M391.51,67.69l-3.57-.15.05,0c0-3.85,0-7.71.05-11.57l3.55-.05h0c.06,1.13.12,2.26.2,3.64h3.44c0,2.68,0,5.35,0,8l0-.05Z"/><path class="cls-3" d="M227.84,72v-4.1l3.95-.49c.66-1.51,0-4.7,3.74-3,.16.8.36,1.82.63,3.11h3.92l.22.22L240.2,72h-4.39l-8,0Z"/><path class="cls-3" d="M227.84,35.64v-8h4.36l0-.05v4.24l3.68.17,0,0v8l0,0-3.43-.16c-.19-1.55-.34-2.72-.52-4.2h-4.1Z"/><path class="cls-3" d="M188.53,83.61c0-1.23,0-2.46,0-3.68l0,0h7.32l-.05,0q0,5.82,0,11.66l-3.67,0,0,0V83.73l-3.68-.17Z"/><path class="cls-3" d="M380,107.59v-2.91l4.46-4.05-.54-.87,4-.21v8l0,0h-8Z"/><path class="cls-3" d="M327.55,67.62v4.23h-8.07c.06-1.29.13-2.58.2-4l3.86-.38c.46-1.77.24-4.46,3.8-3.06C327.4,65.32,327.48,66.47,327.55,67.62Z"/><path class="cls-3" d="M315.86,40h7.8c.09,1.38.16,2.53.24,3.68l0-.07h-4.42V48l.07-.05h-3.68V40Z"/><path class="cls-3" d="M288.25,27.64V24.21h7.22V32l0,0-3.69,0V27.77l-3.63-.18Z"/><path class="cls-3" d="M220,63.75V56.18h3.91v7.57Z"/><path class="cls-3" d="M395.2,67.62c0-2.68,0-5.35,0-8l4.39,0-.05,0c0,2.69-.05,5.38-.07,8.07Z"/><path class="cls-3" d="M275.84,32l-3.45-.19c-.06-1.3-.11-2.47-.18-3.92H280c.11,1.39.21,2.69.32,4l-.23.22Z"/><path class="cls-3" d="M327.55,32H319.5l.05,0V27.6l-.05,0h8V32Z"/><path class="cls-3" d="M195.76,72h4.38v8l0,0h-4.42l.05,0v-8Z"/><path class="cls-3" d="M235.8,43.59v4.15h-8V43.59l-.05,0h8.05Z"/><path class="cls-3" d="M327.47,43.71h4.17v7.71l-3.89.19c-.09-1.35-.16-2.49-.24-3.63C327.5,46.55,327.48,45.13,327.47,43.71Z"/><path class="cls-3" d="M188.52,91.57h-4.15v-8h4.16l0,0v8Z"/><path class="cls-3" d="M379.91,51.58v4.14h-7.78V51.63H380Z"/><path class="cls-3" d="M256.3,56V48.18l3.56-.19-.05,0q0,4,0,8Z"/><path class="cls-3" d="M380,51.63V48.2h7.78c.05,1.13.11,2.28.17,3.43l0-.05h-8Z"/><path class="cls-3" d="M248.09,59.49V51.85h3.85v7.64l-.22.23h-3.41Z"/><path class="cls-3" d="M319.52,59.65V56.21h7.69l.39,3.39h-8.13Z"/><path class="cls-3" d="M227.84,75.57h-7.62c-.89-2.73-.22-3.87,2.53-3.64,1.69.15,3.39,0,5.09,0l-.05,0v3.68Z"/><path class="cls-3" d="M388,83.55h-7.63c-.88-2.72-.21-3.86,2.54-3.62,1.69.14,3.39,0,5.09,0l-.05,0V83.6Z"/><path class="cls-3" d="M227.84,43.59H224.4V35.82l3.44-.18-.05,0v8Z"/><path class="cls-3" d="M203.69,79.9V88l-3.51-.3V79.93l0,0Z"/><path class="cls-3" d="M395.24,95.19H391.6V87.92l-.05,0,3.64.18v7.09Z"/><path class="cls-3" d="M288.23,15.81h-4.18c-.07-1.31-.12-2.46-.19-3.9H288Z"/><path class="cls-3" d="M315.7,11.59v4.18l-4,.26c-.06-1.43-.12-2.67-.18-4.18Z"/><path class="cls-5" d="M184.2,72c0-1.45,0-2.9,0-4.35l-.05.05h4.14V71.9h-4.13Z"/><path class="cls-3" d="M303.61,72V67.88h4.17V72Z"/><path class="cls-3" d="M315.93,71.85,311.6,72V67.86h4.12Z"/><path class="cls-3" d="M387.94,67.54V72h-4.42l.05.05V67.59H388Z"/><path class="cls-3" d="M319.55,24V19.88h4.14V24H319.5Z"/><path class="cls-5" d="M395.2,67.62l4.29,0c0,1.29,0,2.58,0,4.21h-4.2c0-1.43,0-2.86,0-4.29Z"/><path class="cls-3" d="M188.54,79.93h-4.37V75.57l0,.05h4.37V80Z"/><path class="cls-3" d="M232.2,79.93h-4.36V75.57l-.05,0h4.37V80Z"/><path class="cls-3" d="M395.23,80V75.69h4.41v4.16l-4.45.08Z"/><path class="cls-3" d="M176.12,95.23h4.37v4.36l0,0h-4.42l0,0v-4.4Z"/><path class="cls-3" d="M184.15,99.59V95.23h4.37l0,0c0,1.47,0,2.94,0,4.41l-4.41,0Z"/><path class="cls-3" d="M283.88,32V27.64h4.37l-.05,0c0,1.47,0,2.94.05,4.41l-4.42,0Z"/><path class="cls-3" d="M351.49,27.62h4.16v4.16h-4.11V27.57Z"/><path class="cls-3" d="M375.67,99.62V95.17l4.07.2.22,4Z"/><path class="cls-3" d="M395.24,99.6V95.19l-.05,0h4.42l-.05,0c0,1.47,0,2.94.05,4.41l-4.42,0Z"/><path class="cls-3" d="M212.12,35.74h3.77V39.8l-3.77.17Z"/><path class="cls-3" d="M303.53,40V35.64h4.37l0,0V40l0,0h-4.41Z"/><path class="cls-3" d="M311.49,35.64h4.42l-.05,0V40l.05,0h-4.42l.05,0V35.59Z"/><path class="cls-3" d="M372,40h-4.43V35.56l-.05,0h4.43V40Z"/><path class="cls-3" d="M375.57,40V35.61H380l-.07,0,0,4.44,0,0-4.44,0Z"/><path class="cls-3" d="M259.86,48V43.63h4.37l-.05,0c0,1.46,0,2.93.05,4.4l-4.42,0Z"/><path class="cls-3" d="M307.85,43.59V48h-4.36l0,0V43.59l0,0h4.41Z"/><path class="cls-3" d="M339.91,47.79h-4.19c-.06-1.31-.12-2.46-.19-3.89h4.19C339.78,45.11,339.84,46.25,339.91,47.79Z"/><path class="cls-5" d="M188.45,55.87h-4.09V51.7h4.09Z"/><path class="cls-3" d="M303.49,51.63h4.18c.08,1.43.14,2.59.24,4.31h-4.42l0,.05V51.58Z"/><path class="cls-3" d="M315.6,55.84h-3.8V51.78l3.8-.17Z"/><path class="cls-3" d="M184.09,59.7h4.2c.08,1.33.16,2.49.27,4.27h-4.42C184.12,62.55,184.1,61.12,184.09,59.7Z"/><path class="cls-3" d="M243.8,59.63l4.29-.14.22.23c0,1.41-.07,2.83-.11,4.24l-4.26.12-.22-.23.13-4.27Z"/><path class="cls-3" d="M267.94,64l-.15-4.33,4.45-.08-.05,0V64l.05,0Z"/><path class="cls-3" d="M288.25,63.94h-4.4V59.53l-.05.07,4.45,0-.05,0V64Z"/><path class="cls-3" d="M288.42,7.79V3.84h3.18v4Z"/><path class="cls-3" d="M303.34,11.89v3.85h-3.22C299.75,13.31,299.16,11,303.34,11.89Z"/><path class="cls-3" d="M275.88,19.65V16.26H280c0,1.14.1,2.26.15,3.39l.05,0h-4.41Z"/><path class="cls-3" d="M331.92,19.6h-3.84c-.75-3.74-.75-3.74,3.63-3.32.05,1.08.11,2.23.16,3.37Z"/><path class="cls-3" d="M275.83,19.6v3.83c-3.75.75-3.75.75-3.33-3.62l3.38-.16Z"/><path class="cls-3" d="M280.19,19.65h3.33c.43,2.51,1.25,4.94-3.28,4.05V19.6Z"/><path class="cls-3" d="M311.55,23.8h-3.47l-.23-3.88,3.45-.29C311.39,21.06,311.46,22.21,311.55,23.8Z"/><path class="cls-3" d="M331.87,19.65h3.32c.43,2.51,1.25,4.94-3.27,4.05V19.6Z"/><path class="cls-3" d="M259.86,27.64V24.33c2.54-.46,4.91-1.18,4.08,3.26h-4.13Z"/><path class="cls-3" d="M259.81,27.59v4.19l-3.66.21.05.05V27.81l3.66-.17Z"/><path class="cls-3" d="M331.92,32V28.17c3.74-.74,3.74-.74,3.33,3.63l-3.38.15Z"/><path class="cls-5" d="M251.83,32.05h4.37l-.05-.05v3.56h-4.32l0,.06V32Z"/><path class="cls-5" d="M275.84,32l4.26.1v3.51h-4.31Z"/><path class="cls-3" d="M295.47,32h4.14l.25,3.57h-4.39l0,.05V32Z"/><path class="cls-3" d="M331.87,32v3.4h-4.16c-.06-1.14-.11-2.27-.16-3.4l-.05.05h4.42Z"/><path class="cls-3" d="M364,35.52h-4.16c-.08-1.09-.15-2.07-.25-3.44H364Z"/><path class="cls-3" d="M251.83,35.55v4.23l-3.66.17.05,0V35.59l0,0,3.7,0Z"/><path class="cls-5" d="M275.84,35.55c0,1.44-.07,2.87-.11,4.31l-3.53.1V35.82Z"/><path class="cls-3" d="M351.44,35.64v4.07l-3.33.24c-.08-1.43-.14-2.58-.22-4.06Z"/><path class="cls-3" d="M207.89,43.41h-3.83V40.17h3.83Z"/><path class="cls-5" d="M391.63,107.56c0-1.43,0-2.86.05-4.29l3.55-.06h0l-.06,4.27-3.58,0Z"/><path class="cls-3" d="M363.94,43.58h-3.83c-.75-3.73-.75-3.73,3.63-3.32.05,1.09.1,2.23.15,3.37Z"/><path class="cls-3" d="M219.83,48h-3.32c-.43-2.52-1.25-5,3.27-4.05V48Z"/><path class="cls-5" d="M327.47,43.71c0,1.42,0,2.84,0,4.27l-3.65,0,.06.06c0-1.46,0-2.93,0-4.39l0,.07Z"/><path class="cls-3" d="M363.89,43.63h3.32c.46,2.53,1.19,4.9-3.27,4.08V43.58Z"/><path class="cls-3" d="M375.47,43.55v4.16L372,48V43.55Z"/><path class="cls-3" d="M219.78,48h3.84c.75,3.74.75,3.74-3.63,3.33-.05-1.09-.1-2.23-.16-3.37Z"/><path class="cls-5" d="M323.86,47.94v3.44h-4.27V48l-.07.05,4.4,0Z"/><path class="cls-3" d="M188.45,55.87V51.7h3.42v4.17Z"/><path class="cls-3" d="M200.43,51.79l3.09-.14v4.12l-3.09.15Z"/><path class="cls-3" d="M208.15,51.79h3.47l.19,3.92-3.46.2Z"/><path class="cls-3" d="M364,55.94V51.87l3.32-.24c.08,1.44.15,2.59.23,4.06Z"/><path class="cls-3" d="M391.59,56,388,56c0-1.48-.05-3-.08-4.44l0,.05h3.68Z"/><path class="cls-3" d="M335.56,59.62V56.31c2.53-.46,4.91-1.18,4.08,3.26h-4.13Z"/><path class="cls-5" d="M184.09,59.7c0,1.42,0,2.85,0,4.27h-3.65l0,0V59.7Z"/><path class="cls-3" d="M192.26,63.94V59.87l3.32-.24c.08,1.43.15,2.58.23,4Z"/><path class="cls-3" d="M203.86,59.69c-.06,1.44-.11,2.88-.17,4.32l-3.34-.25V59.69Z"/><path class="cls-5" d="M319.47,59.6v4.14l-3.36.24V59.65h3.41Z"/><path class="cls-3" d="M335.51,59.57v3.84c-3.74.74-3.74.74-3.33-3.63l3.38-.16Z"/><path class="cls-3" d="M380,64V60.16c3.74-.75,3.74-.75,3.32,3.62l-3.37.16Z"/><path class="cls-5" d="M180.44,67.5h-4.12c0-1.1-.1-2.11-.17-3.51h4.38l0,0Z"/><path class="cls-3" d="M375.67,111.25v-3.73l4.29.07,0,0c0,1.22,0,2.45,0,3.67Z"/><path class="cls-3" d="M387.76,91.57V95l-3.93.19c-.07-1.21-.13-2.2-.2-3.45Z"/><path class="cls-3" d="M176.16,91.6V88.29c2.53-.46,4.91-1.19,4.08,3.27h-4.12Z"/><path class="cls-3" d="M391.6,87.92H388V83.55l-.05,0h3.67l0,0V88Z"/><path class="cls-3" d="M272.28,80c-.06,1-.12,2.1-.2,3.44H267.8c.07-1,.14-2.08.23-3.44Z"/><path class="cls-3" d="M176.4,80.13h3.86v3.21C177.83,83.7,175.5,84.29,176.4,80.13Z"/><path class="cls-5" d="M399.64,79.85V75.69l3.61-.07-.06-.06v4.29Z"/><path class="cls-3" d="M388,80V75.84h3.59V80l0,0h-3.67Z"/><path class="cls-3" d="M283.9,79.84h-3.73c.07-1.28.13-2.56.2-4h3.33C283.78,77.29,283.84,78.57,283.9,79.84Z"/><path class="cls-5" d="M403.25,75.62V72h4.34l0-.06v3.6h-4.35Z"/><path class="cls-5" d="M303.61,72h4.17l.18,3.52h-4.54C303.49,74.36,303.55,73.18,303.61,72Z"/><path class="cls-3" d="M299.92,75.48h-4.46c.07-1,.14-2.08.23-3.35l4-.2Z"/><path class="cls-3" d="M395.24,67.57c0,1.43,0,2.86,0,4.29h-3.46c-.11-1.45-.21-2.81-.31-4.17Z"/><path class="cls-3" d="M283.9,71.76h-3.46l-.26-3.85,3.45-.33Z"/><path class="cls-3" d="M195.81,71.93h-3.32c-.43-2.51-1.25-4.94,3.27-4.05V72Z"/><path class="cls-3" d="M375.67,67.64V63.91L380,64l0-.05v3.49Z"/><path class="cls-5" d="M219.79,87.94l.09,3.56h-3.65V87.86Z"/><path class="cls-3" d="M387.92,107.59l3.71,0-.05,0c0,1.23,0,2.46,0,3.7-1.22,0-2.44,0-3.66,0l0-3.67Z"/><path class="cls-3" d="M391.56,80h3.67l0,0v3.63h-3.64l0,0V79.94Z"/><path class="cls-3" d="M395.23,103.21l-3.55.06V99.75l3.56-.15-.05,0C395.2,100.77,395.22,102,395.23,103.21Z"/><path class="cls-3" d="M180.49,99.59h3.66l0,0,0,3.67h-3.66c0-1.22,0-2.45,0-3.67Z"/><path class="cls-3" d="M311.49,40v3.64h-3.64l0,0V40l0,0h3.69Z"/><path class="cls-3" d="M256.52,16.3c2.82-.8,3.85.07,3,3C256.7,20.11,255.66,19.24,256.52,16.3Z"/><path class="cls-5" d="M267.55,19.45h-3.17v-3.2C267.31,15.48,268.47,16.31,267.55,19.45Z"/><path class="cls-5" d="M383.52,72v3.42l-3.38.23c-.07-1.2-.13-2.21-.21-3.6h3.64Z"/><path class="cls-3" d="M294.31,20.08l-2.43-2.32,2-1.75,1.95,2.75Z"/><path class="cls-3" d="M232.2,27.64v-3.4l3.6-.25v3.65l0-.05h-3.68Z"/><path class="cls-3" d="M319.5,24v3.69l.05,0h-3.41c-.08-1.16-.15-2.14-.25-3.59h3.66Z"/><path class="cls-3" d="M340.21,27.3c-.8-2.82.07-3.85,3-3C344,27.12,343.16,28.15,340.21,27.3Z"/><path class="cls-5" d="M351.54,27.57h-3.43c-.07-1.1-.14-2.11-.22-3.38l3.6-.21v3.64Z"/><path class="cls-3" d="M264.14,72.05h3.77c-.07,1-.15,2.06-.25,3.52h-3.48l.05,0Z"/><path class="cls-3" d="M307.9,35.64V32.23l3.59-.24v3.65l.05,0h-3.69Z"/><path class="cls-3" d="M315.91,35.64V32h3.64l-.05,0v3.63h-3.64Z"/><path class="cls-3" d="M343.2,32.19c.84,2.82,0,3.9-2.9,3.19C339.4,32.88,339.86,31.52,343.2,32.19Z"/><path class="cls-5" d="M364,35.52V32.08h3.52v3.53l.05,0Z"/><path class="cls-3" d="M188.52,95.23V91.57l0,0h3.68l0,0c0,1.22,0,2.44,0,3.67l-3.68,0Z"/><path class="cls-5" d="M375.47,43.55H372c0-1.19,0-2.38,0-3.57l-.05,0h3.64l-.05-.05C375.5,41.17,375.49,42.36,375.47,43.55Z"/><path class="cls-3" d="M383.58,39.91v3.43l-3.63.28V40l0,0,3.71,0Z"/><path class="cls-3" d="M172.61,95.26c0-1.24,0-2.49,0-3.73l3.56.07,0,0v3.67l0,0Z"/><path class="cls-3" d="M184.15,71.9l0,3.72,0-.05h-3.42l-.21-3.42,3.66-.2Z"/><path class="cls-3" d="M243.85,59.58h-3.2c-1-2.89-.33-4.09,3-3.33,0,1.09.1,2.23.15,3.38Z"/><path class="cls-5" d="M256.3,56l3.55-.06h0c0,1.21,0,2.43,0,3.65l-3.62-.06.06,0C256.27,58.4,256.28,57.21,256.3,56Z"/><path class="cls-5" d="M280.21,56h3.66c0,1.21-.05,2.41-.07,3.62l.05-.07h-3.47C280.32,58.29,280.27,57.14,280.21,56Z"/><path class="cls-3" d="M303.49,55.94v3.41l-3.6.24V55.94l0,.05h3.68Z"/><path class="cls-3" d="M395.23,59.6h-3.45c-.08-1.38-.14-2.51-.2-3.64H395C395.1,57.33,395.16,58.47,395.23,59.6Z"/><path class="cls-3" d="M180.44,67.5l.05-3.55h3.66c0,1.23,0,2.46,0,3.69l.05-.05Z"/><path class="cls-3" d="M240.08,67.49c.09-1.06.19-2.12.3-3.33l3.34-.31.22.23c0,1.18-.09,2.36-.14,3.54l0-.05-3.55.14Z"/><path class="cls-3" d="M272.19,64h3.42c.07,1.18.13,2.16.2,3.42l-3.66.2.06.05,0-3.71Z"/><path class="cls-3" d="M288.2,64h3.2c1,2.88.33,4.08-3,3.32,0-1.09-.1-2.23-.15-3.37Z"/><path class="cls-1" d="M423.71,87.9,423.5,80V64.2H566.6l.73,3.25,3.82.31v15.5l-3.95.58c-.13,1.26-.26,2.52-.43,4.06Z"/><path class="cls-2" d="M391.55,83.56h3.64V79.93l4.45-.08h3.55V75.56h4.35V72l3.71,0-.09,7.89-3.36.27-.45,3.34-4.07.2h-3.42v4.17h3.42l4.1.28c.17,1.27.31,2.28.45,3.34l3.33.19v3.47l-3.36.26v4.07l3.36.2q0,5.75,0,11.5l-3.59.14-4.3,0,.06-3.6,4.08-.27v-4.07l-4.08-.2c-.1-1.12-.19-2.24-.31-3.57h-3.42l.05,0-.05-4.41L403,95c.69-3.29-.46-4-3.36-3v3.19h-4.42V88.15L391.55,88Z"/><path class="cls-5" d="M248.21,186.77h-4c-.25-1.29-.44-2.3-.66-3.44l-3.34-.19,0,0c0-1.22,0-2.45,0-3.67l3.67-.21c-.09-1.53-.15-2.68-.23-4.12h-3.44c-.06-1.13-.12-2.26-.19-3.62h-4.19v-8h-7.95c.08,1.48.13,2.38.19,3.56h4.07c0,1.48.07,3,.11,4.46H228c-.08,1.53-.13,2.58-.19,3.63l0,0-3.47.18c-.12,2.51-.23,4.87-.35,7.52h-4.07v-7l-3.79-1.17v-7.49h3.68v4.43l4.1-.28v-4.11h-4.14c-.06-1.15-.11-2.29-.16-3.3-3.88-1.15-3.5,1.22-3.44,3.3h-4.28v7.51l-3.52.83c-.15,1.18-.29,2.34-.47,3.78l-4.15.24v-8h4.44c-.12-1.77-.2-2.92-.28-4.09h-4.11v4.13l-3.35-.19-.62-4.21h-4.08l0,0c-.07-1.13-.15-2.26-.23-3.5l-3.45-.18,0,.05c0-1.47,0-2.94,0-4.4l3.64-.18v-3.46h4.38v-4.35l.21-3.46,3.5-.26h4.29V143.2l3.67.21v7.79h-8c.1,1.72.17,2.87.26,4.32h7.79c0,1.23,0,2.45,0,3.68l-3.36.16c-.45,4.38-.45,4.38,3.31,3.6v-3.81h4.4v-3.69l3.6,0c.09,1.15.17,2.3.26,3.46h7.75v-3.43h3.82c1,3.85,1,3.85,4.34,2.92V147.52h4.26v8h3.64l.17,3.42,4.18.53v4.06l-4.1.19v7.79l4.1-.19v-7.79l3.7.1.16,3.58,4.13-.27v-3.42c0-1.45,0-2.91,0-4.37l3.38-.15c.72-3.3-.45-4-3.34-3v3.19h-3.89c-.41-1.42-.73-2.5-1.06-3.63H243.8c0-1.47,0-2.93,0-4.4l4.28-.08h3.55l.17-3.55,4.34-.07c.06,1.13.13,2.26.21,3.66l3.42-.2v-3.41l4.27.14v7.9h8.19c0,1.19,0,2.37,0,3.55,0,2.69,0,5.39-.07,8.08l-4.41,0,.05,0v-8.1l-3.54.43c-.05,1.08-.12,1.8-.12,2.51,0,1.68.07,3.36.1,5l-.22.23h-4.27v4.26l0,0c-1.81,0-3.62.11-5.41,0-2.39-.15-3,.92-2.31,3.29l3.83.73v7.37l-3.63.29a6.46,6.46,0,0,0-.58-2.15c-.48-.62-1.33-1.43-1.93-1.36a2.45,2.45,0,0,0-1.55,1.74,44.17,44.17,0,0,0-.11,5.4Zm-43.38-25.55c-1.43-1-2.43-2.09-2.8-1.91a3.4,3.4,0,0,0-1.73,2.24c-.07.58,1.13,1.88,1.66,1.83C202.76,163.3,203.47,162.32,204.83,161.22Z"/><path class="cls-5" d="M367.67,175.29c-.1,1.26-.2,2.53-.34,4.21h-7.8l.05.05v-7.76l-3.68-.28,0,0V167h7.73v-7.35c-.46-.2-.67-.38-.89-.38l-11.25-.1-3.42.22v7.7h3.35l.07,4.45,0,0-3.64.24v3.44H343.5c.12,1.77.2,2.91.28,4.09h4.11v-4.14l3.68.05,0,0v11.41l-3.64.21,0,0c-.05-1.06-.11-2.11-.19-3.68h-7.86l0,0c-.08-1.14-.16-2.29-.26-3.66l-4,.21c-.08,1.33-.14,2.39-.2,3.45l0,0H332v-7.73l-4.18-.2c-.2,1.44-.35,2.58-.56,4.11l-3.41.18,0,.05c0-2.68,0-5.36,0-8l3.34-.17c.15-.7.39-1.13.26-1.36-.49-1-1.1-1.86-1.67-2.79a23.13,23.13,0,0,0-1.87,2.61c-.24.46,0,1.16,0,1.75l-4.41,0,0,0c0-1.46,0-2.93,0-4.39,0-1.23-.06-2.46-.08-3.69,0-1.44,0-2.88.05-4.33l4.39,0c0,4.67,0,4.67,3.63,3.83v-3.78l4.45-.07h3.55v-3.57l4.38,0c0,1.8.07,3.6,0,5.39-.12,3,1.3,3.1,3.4,2.19v-7.53h-3.45l0-4.38h3.64v-3.64l4.34.13c.11,1.13.21,2.25.34,3.55H356v4.26h7.91v-4.29l3.65-.17-.28-3.46h-3.43c0-1.46,0-2.92.05-4.37h3.66v-3.59H372c0-1.83,0-3.11,0-4.39l3.57.11c.07,1.28.15,2.55.25,4.28h7.84l-.05,0v3.68l.05-.05-3.46.24v4h3.33l.22.22v3.54H388l0,0v8l0,0-4.4,0c-.06-1.13-.12-2.27-.18-3.35-3.3-.73-4,.45-3,3.35h3.17c0,1.47,0,3,0,4.43l.05,0h-7.95v3.5l-.22.23-3.59-.11.05.05v-3.67l-.06-4.28,3.7-.37v-3.35c0-4.41,0-4.41-3.57-3.88v3.77l-4.42.35v11.37c0,1.42.07,2.84.11,4.25l-.23.23h-3.19c-1.06,3.78,1,3.71,3.19,3.42Zm-27.83-3.66,3.7-.39c-.08-1.44-.14-2.59-.22-4.05h-7.81c-.05-1.13-.1-2.27-.15-3.37-3.31-.73-4,.44-3,3.33h3.2c0,1.45,0,2.91,0,4.37.07,1.13.13,2.27.2,3.43h4.1Z"/><path class="cls-5" d="M431.48,127.32l0,4.3h-7.66c-.1,1.34-.18,2.46-.27,3.59l0,0-8.1-.07v-3.59l-4.28.26v3.41c.06,1.37.12,2.74.19,4.39h12.19l0,0v3.35l-4,.54c-.19,1.18-.38,2.34-.64,3.91l-3.36.2,0,0c-.07-1.38-.14-2.77-.2-4.14h-7.85v4.14l0,0-4.41,0a8.2,8.2,0,0,0-.08-2.81,2.72,2.72,0,0,0-1.82-1.45c-.48-.08-1.44.71-1.6,1.27a9.3,9.3,0,0,0,.17,2.94h3.38c.05,1.13.11,2.26.18,3.68h4.18l0,0v4.4l0,0h-7.68l-.63-4.18-4.1-.18,0,0c.05-2.27.18-4.62-3.5-3.19l-.18,3.19,0,0h-3.68l0,0c-.07-1.12-.15-2.23-.24-3.54h-4l-.22-.22c0-1.43.08-2.85.13-4.28l-.05.05,4.45-.12h3.59c-.08-1.37-.14-2.38-.2-3.45H388l-4.45-.11.05,0-.06-4.41,4.46-.06h3.61c-.1-1.39-.17-2.39-.24-3.54H388c0-1.46,0-2.91,0-4.37l3.56-.09,3.59.21.21,4.31V135h4.18v-3.36l.21-4.31h3.38c.09,1.76.16,3,.23,4.31V135h4.19V124l3.6-.87.25-3.8,4.17-.32v-3.34l3.8,0v3.59h4.31l0,0v8.12Zm-11.18-1.9c-1.52-.93-2.26-1.74-3-1.72-.58,0-1.7,1.24-1.58,1.57a3.16,3.16,0,0,0,1.83,1.79C418.06,127.2,418.85,126.33,420.3,125.42Z"/><path class="cls-5" d="M280.24,186.78h-4.41l0,0c-.07-1.14-.15-2.27-.23-3.51l-3.45-.17,0,0c-.08-1.14-.16-2.29-.26-3.66l-4,.21c-.08,1.33-.14,2.39-.2,3.45l0,0h-3.28l-.67-3.28-4.05-.67v-7.68l0,0h4.27v-4.26l.22-.23,3.56.13-.05,0,0,4.37c.07,1.13.13,2.25.21,3.64h7.79v4.39l4.37-.24v-4.15l3.46-.19c.11-1.39.19-2.45.28-3.5l4.28.05,3.68.1,0,3.56-3.64.19v4.17h-4c-.26,1.24-.47,2.24-.7,3.32l-3.18.66c-.07,1.2-.12,2.25-.17,3.3Z"/><path class="cls-5" d="M184.16,167.15h-3.55v-7.77l-4.49-.22,0,0c-.08-1.14-.15-2.27-.23-3.51l-3.45-.17,0,0v-4.4h-4.41l0,0c0-1.22,0-2.44,0-3.66h4.37v-4.36h3.65v4.4l4.33-.25v-4.17h3.68q0,4,0,8l-3.66.23c.09,1.53.15,2.67.23,4.11h3.44c.06,1.13.12,2.26.19,3.64h4.18c0,1.46,0,2.93,0,4.4l0-.05h-4.22c-.08,1.59-.14,2.64-.19,3.68Z"/><path class="cls-5" d="M319.5,171.51v3.26l-3.39.72c-.15,1.21-.28,2.35-.48,4H311.5l0,0c0-2.67,0-5.35,0-8v-4.34l-.2-3.65h-3.44l.12-4.24,3.59-.2,4.33.06.06,4.32c0,1.23-.06,2.46-.08,3.69v4.21l3.65.18Z"/><path class="cls-5" d="M168.15,155.52l-3.35.2-.65,3.29h-2.52l-5.07-5.1v-10.8l3.58,0c0,1.46,0,2.92,0,4.37.07,1.13.15,2.27.24,3.67h7.78l0,0v4.4Z"/><path class="cls-5" d="M383.49,171.46v3.82H367.67l-.22-.23v-3.42l.23-.23,4.26.11,3.52-.18v-4.06l.22-.23,4.33.21v4.2Z"/><path class="cls-5" d="M176.12,159.16a22.85,22.85,0,0,1,0,4.3,19.16,19.16,0,0,1-1.54,3.68l-2.89-2.59.51-.74-4-.56v-7.73l0,0h4.41l0,0c.07,1.13.15,2.26.23,3.5l3.45.18Z"/><path class="cls-5" d="M291.85,186.78v4.13H280.24v-4.13l0,0h11.69Z"/><path class="cls-5" d="M235.84,183.14h-8v-8l0,0,4.42-.05v4.37h3.63c0,1.22,0,2.45,0,3.67Z"/><path class="cls-5" d="M299.89,186.78h-8l0,0c0-1.23,0-2.45,0-3.68l3.63-.18v-3.45h4.41l0,7.31Z"/><path class="cls-5" d="M387.92,159.19H395c.1,1.44.17,2.58.18,2.72L390,167.09h-2.12c0-1.18.05-2.36.07-3.54l0-4.4Z"/><path class="cls-5" d="M407.57,155.56c1.79,0,3.59.07,5.39,0,2.68-.15,3,1.15,2.25,3.44l-3.68.45c-.18,1.24-.34,2.38-.56,3.91l-3.39.21v-4.34l0-3.67Z"/><path class="cls-5" d="M347.89,186.77v7.81l-4.07.19v-8h4.11Z"/><path class="cls-5" d="M240.17,183.14v7.78l-4.33.26v-8l0,0h4.41Z"/><path class="cls-5" d="M415.58,147.53v3.63h-8l0,0v-3.68l0,0h8.05Z"/><path class="cls-5" d="M359.53,179.5v6.76c-4,.64-4.06.45-3.33-6.51l3.37-.2Z"/><path class="cls-5" d="M248,194.76v4.16l-3.94.26-.19-4.16Z"/><path class="cls-3" d="M407.58,159.19v4.34h-4.35c0-1.42,0-2.85.07-4.27Z"/><path class="cls-5" d="M188.5,167.16v4.15l-4.34.24v-4.4l0,0h4.41Z"/><path class="cls-5" d="M423.58,135.21H427c.08,1.44.14,2.58.22,4.12l-3.67.2,0,0v-4.4Z"/><path class="cls-5" d="M395.2,151.16c-.28,1.92,1.22,5.13-3.6,4.05v-4.05l0,0h3.68Z"/><path class="cls-5" d="M403.3,159.26c0,1.42-.05,2.85-.07,4.27l-3.46-.16c-.06-1.32-.11-2.47-.18-4.11Z"/><path class="cls-3" d="M387.93,163.55c0,1.18,0,2.36-.07,3.54l-4.31,0,.05.06,0-3.65-.05,0Z"/><path class="cls-5" d="M403.23,163.53h4.36v3.62H403.2l.05,0Z"/><path class="cls-5" d="M195.77,167.15c-.28,1.92,1.23,5.13-3.61,4v-4l0,0h3.68Z"/><path class="cls-3" d="M383.49,171.46H380v-4.2l3.59-.06-.05-.06Z"/><path class="cls-5" d="M403.2,167.15c0,.59.22,1.29,0,1.75a21.15,21.15,0,0,1-1.87,2.61c-.56-.93-1.17-1.83-1.67-2.79-.12-.23.12-.66.27-1.35l3.34-.18Z"/><path class="cls-5" d="M355.9,171.51v3.64h-4.37l0,0v-3.68l0,0h4.41Z"/><path class="cls-5" d="M396.24,177.3c-1.37,1.1-2.31,2.24-2.69,2.08a3.32,3.32,0,0,1-1.83-2.13c-.09-.59,1-1.93,1.58-1.92C394.08,175.34,394.84,176.3,396.24,177.3Z"/><path class="cls-5" d="M319.54,183.18v-3.63h4.37l0-.05v3.64H319.5Z"/><path class="cls-5" d="M272.23,186.78h-4.41l.05,0c0-1.23,0-2.45,0-3.68l0,0h4.41l0,0v3.68Z"/><path class="cls-5" d="M307.86,183.14v3.64h-4.37l0,0c.06-1.13.11-2.26.18-3.64h4.19Z"/><path class="cls-5" d="M339.88,183.14v3.44l-4.12.23c-.08-1.38-.14-2.52-.21-3.67l0,0h4.41Z"/><path class="cls-5" d="M248.17,186.82h3.38a9.93,9.93,0,0,1,.17,2.94c-.16.56-1.12,1.35-1.6,1.27a2.72,2.72,0,0,1-1.82-1.45,8.45,8.45,0,0,1-.09-2.81Z"/><path class="cls-5" d="M267.82,186.77c0,.59.22,1.29,0,1.75a21.37,21.37,0,0,1-1.86,2.61c-.57-.92-1.18-1.82-1.68-2.78-.12-.24.12-.66.27-1.36l3.34-.17Z"/><path class="cls-5" d="M275.83,186.78c-.28,1.91,1.21,5.11-3.6,4.05v-4.05l0,0h3.68Z"/><path class="cls-5" d="M303.49,186.78c-.28,1.91,1.21,5.11-3.6,4.05v-4.05l0,0h3.68Z"/><path class="cls-3" d="M160.14,143.16l-3.58,0-.06-3.56h3.62c0,1.21,0,2.43,0,3.65Z"/><path class="cls-5" d="M192.16,167.16H188.5l0,0v-3.68l0,.05h3.68l0-.05v3.68Z"/><path class="cls-5" d="M311.5,179.51V183l-3.64.18,0,0c0-1.22,0-2.45,0-3.67l3.67,0Z"/><path class="cls-5" d="M319.5,183.14v3.19c-2.87,1-4,.29-3.34-3l3.38-.17Z"/><path class="cls-2" d="M156.43,88,160,88l.09,27.59,0,0-3.71.1-4.29-.1c0-2.69-.07-5.37-.11-8l0-7.92h4.33V95.16c0-1.21,0-2.41,0-3.62Z"/><path class="cls-2" d="M172.6,107.52v-4.26l3.56,0,0,0c0,1.46,0,2.93,0,4.4Z"/><path class="cls-2" d="M172.51,115.58l.09-4.32,3.56-.08c0,1.47,0,2.93,0,4.4l-3.66,0Z"/><path class="cls-2" d="M168.22,115.63l4.29,0,0,0c0,1.22,0,2.43,0,3.65l-4.37,0Z"/><path class="cls-2" d="M172.61,95.26l3.55-.07v4.4l-3.56-.07C172.6,98.1,172.6,96.68,172.61,95.26Z"/><path class="cls-2" d="M164.51,119.22l-4.32-.11c0-1.18,0-2.37-.05-3.55l0,0,4.29,0C164.44,116.82,164.47,118,164.51,119.22Z"/><path class="cls-3" d="M176.16,111.18l-3.56.08v-3.74l3.56.07,0,0v3.68Z"/><path class="cls-3" d="M172.6,99.52l3.56.07,0,0c0,1.23,0,2.45,0,3.68l-3.56,0Z"/><path class="cls-5" d="M164.51,119.22c0-1.2-.07-2.4-.11-3.59h3.82c0,1.18-.05,2.37-.08,3.55h-3.66Z"/><path class="cls-5" d="M411.16,91.66l-3.33-.19c-.14-1.06-.28-2.07-.45-3.34l-4.1-.28V83.68l4.07-.2.45-3.34,3.36-.27Z"/><path class="cls-2" d="M423.63,119.22h-4.31v-3.59l4.29-.12C423.62,116.75,423.62,118,423.63,119.22Z"/><path class="cls-5" d="M411.16,99.66l-3.36-.2V95.39l3.36-.26Z"/><path class="cls-3" d="M415.52,115.65V119l-4.17.32-.22-.21,0-3.4.23-.23Z"/><path class="cls-3" d="M407.53,111.3l3.59-.14.21,4.31-.23.22-3.42-.06Z"/><path class="cls-3" d="M160.11,127.2c0-1,.09-2.09.17-3.62h4.23l0,0,.21,3.54H168l.23.22-.1,4.26-3.65.19v3.43l-4.3.11-3.61-.29v-3.51h3.53Z"/><path class="cls-3" d="M164.48,119.19h3.66l4.37,0,0,0,0,4.37v3.65l-4.26.1-.23-.22v-3.54h-3.54l0,0Z"/><path class="cls-2" d="M152.12,123.61c0-1.47,0-2.93,0-4.4l4.35.05-.06,0v4.18Z"/><path class="cls-4" d="M160.19,135.29l4.3-.11c0,1.46,0,2.92,0,4.38h-4.38C160.14,138.14,160.16,136.71,160.19,135.29Z"/><path class="cls-2" d="M160.11,127.2v4.29h-3.53V127.2Z"/><path class="cls-3" d="M160.14,115.56c0,1.18,0,2.37.05,3.55l-3.77.11.06,0c0-1.2,0-2.4,0-3.6Z"/><path class="cls-2" d="M148.59,123.61l3.58,0v3.55h-3.62C148.56,125.94,148.57,124.77,148.59,123.61Z"/><path class="cls-5" d="M156.43,115.66c0,1.2,0,2.4,0,3.6l-4.35-.05v-3.65Z"/><path class="cls-4" d="M431.5,119.31v4.14h-4.29v-4.28Z"/><path class="cls-2" d="M383.62,40l-3.71,0,0-4.44,3.67,0C383.61,37.05,383.62,38.51,383.62,40Z"/><path class="cls-2" d="M299.78,87.88V83.69h8.05c0,1.43.05,2.85.07,4.28h-4.1c-.9,4.52,1.54,3.7,4.05,3.27V87.92h8v3.65l3.6-.24V87.92h4.41V83.56l0,0h3.68l-.05,0v8h4.42l-.05,0c.07,1.14.14,2.28.22,3.52l3.47.16-.05,0V99.6h4.42l-.05,0v3.68l.05,0H335.5c.1,1.77.16,2.92.25,4.4h4.18l-.05,0c.07,1.14.14,2.28.22,3.52l3.47.16-.05,0v4.36h4.41v3.64h3.64v4l-3.64.76v3.27h-4.5v-8h-3.55c-.05-1.13-.11-2.26-.16-3.38h-4.19v3.42h-3.62V107.6H327.5v-4.38l-3.58.25v4.13h-8v8h-4.42v-4.38l-3.59.26v4.12h-4.06c-.22,1.23-.4,2.24-.6,3.34l-3.35.61v4h-8v3.64l-3.44.18v7.77h3.44c0,1.46,0,2.91,0,4.37l-7.93.11-3.6-.21-.12-4.27h3.65l-.24-3.59H280.2c0-1.47,0-2.94,0-4.41h3.64v-3.63h4.37v-4.36l3.38-.15c.76-3.33-.44-4-3.33-3v3.2h-4.42v-3.63h-3.64v-4.18h-4.08v4.13h4.13v3.64h3.64v4.41h-3.64v3.63h-8.05v-3.68l3.37-.16c.42-4.37.42-4.37-3.32-3.63v3.84h-4.42v-4.36h-3.64c-.05-1.14-.1-2.28-.16-3.62h-4.21q0-4,.05-8h4.33c.07,1.13.14,2.27.22,3.6h3.46v4.18H272v-4.13h-4.13c.08-1.14.16-2.28.24-3.47l3.9-.4V103.2h-4.11V99.58h4.37V95.21h0l8,0v3.92l.75-.46,4.48,4.5,2.77-.17V95.64l.82.47,4.6-4.68h6.12Zm.11,23.35h-4.18v4.08h4.13v-4.13l3.39-.15c.75-3.33-.45-4-3.34-3ZM319.5,99.55h4.19V95.47h-4.14V99.6l-3.39.15c-.75,3.33.45,4,3.34,3Zm-8.17,8v-4.06h-3.27v3.9Zm-20.56,4.1c1.53-4.16.16-4.59-3.62-3.12Zm4.42-11.73c-2.95-.86-3.82.18-3,3C295.12,103.74,296,102.71,295.19,99.9Z"/><path class="cls-2" d="M327.58,80.06h7.78l.3-4.36h4.2c0,2.55,0,5.11,0,7.91h3.72l-.05,0c0,1.47,0,2.94,0,4.41h-3.65c.1,1.45.17,2.43.24,3.59h3.41c.06,1.14.12,2.27.19,3.68h7.82l-.05,0c0,1.47,0,2.94.05,4.41h-3.65l.24,3.59h3.41v4.4h-3.64v3.64l-4.41,0,.05,0c-.08-1.14-.15-2.28-.23-3.52l-3.46-.16.05,0v-4.4l-.05,0,3.64-.23c-.09-1.27-.15-2.24-.24-3.45h-3.4l.05,0V95.19h-4.42l.05,0c-.07-1.14-.15-2.28-.22-3.52l-3.47-.16.05,0v-8H327.5l.05,0Z"/><path class="cls-3" d="M203.86,115.47H224l.31-4.31h3.32v-3.54h-3.32v-4.1l3.29-.56c.14-.94.3-2,.49-3.28h4.17v3.42h3.48l.23.23-.12,4.25-3.7.22v7.48l-4.3.6v3.32l-3.63.21v4.16c0,1.21,0,2.41,0,3.62h-3.89l.44-.77-4.5-4.47c0-.15-.18-1.3-.38-2.72l-3.79.17c-.23,1.6-.4,2.76-.59,4l-3.37.15.05.06V119.1h-7.83c-.07-1.42-.13-2.49-.18-3.56Z"/><path class="cls-3" d="M299.78,87.88v3.55h-6.12l-4.6,4.68-.82-.47V103l-2.77.17L281,98.65l-.75.46V95.19l-.05,0,3.67-.24V91.53l-.07,0h4.39V88.05Z"/><path class="cls-2" d="M363.81,111.25l.22,4.28v3.7h3.56l0,0c0,1.47,0,2.94,0,4.4h-3.64v3.64h-4c-.23-1.27-.41-2.29-.61-3.39l-3.4-.61v-4h3.65l-.24-3.59h-3.41v-4.41Z"/><path class="cls-2" d="M363.81,95.26v12.26l-7.92.07v-4.4h3.65l-.24-3.59h-3.41V95.19h-4.37l.05,0c0-1.23,0-2.46-.05-3.68l8.06,0-.05,0c.07,1.12.14,2.25.22,3.51Z"/><path class="cls-2" d="M351.59,72.06h7.92c0,1.19,0,2.37,0,3.55l.05,0-3.69.24V80l.05,0h-4.25c-.07,1.57-.12,2.63-.17,3.68l.05,0h-8.05l0,0,0-7.91,4.25-.2h3.53Z"/><path class="cls-3" d="M259.86,107.58q0,4-.05,8l0,0-3.66,0c0-1.46,0-2.91,0-4.37v-7.94h-4.26c-.07-1.19-.14-2.38-.2-3.58l.22-.22h4.21V95.32l3.72-.07-.05,0v4.4h4.41l0,0v3.66l0,0h-4.37Z"/><path class="cls-2" d="M363.81,83.63v7.9l-4.28,0,.05,0c-.09-1.14-.17-2.28-.27-3.63h-7.79l.05-4.41-.05,0h4.25c.07-1.57.12-2.63.17-3.68l-.05,0h3.69l-.05,0c.07,1.12.14,2.25.22,3.51Z"/><path class="cls-2" d="M200.18,79.93v7.76l3.51.3c0,2.38,0,4.76,0,7.14l-3.56.08c-.07-1.14-.14-2.27-.23-3.65h-4.18l0,0q0-5.84,0-11.66Z"/><path class="cls-3" d="M235.77,99.68l4.35-.2,8.09.12,0,0c-.06,1.13-.12,2.27-.21,3.78h-12l-.23-.23Z"/><path class="cls-5" d="M203.86,115.47l-3.72.07,0,0v-4.4h-4.4c0-1.19.07-2.38.11-3.56l4.33-.15h3.51Z"/><path class="cls-5" d="M248.21,99.6l-8.09-.12c.09-1.28.17-2.56.27-4.18h7.88Z"/><path class="cls-3" d="M307.9,88c0-1.43,0-2.85-.07-4.28l7.95-.2.24.23c-.06,1.42-.11,2.83-.16,4.25l.05,0h-8.06Z"/><path class="cls-2" d="M367.64,115.63l7.94,0,0,0v3.7l-3.57,0-4.45-.12,0,0C367.61,118,367.62,116.83,367.64,115.63Z"/><path class="cls-3" d="M280.24,95.19l-8,0c0-1.18.05-2.37.08-3.56l7.9-.25.05.33-.05,3.5Z"/><path class="cls-3" d="M343.59,75.7l0,7.91h-3.71c0-2.8,0-5.36,0-7.91Z"/><path class="cls-3" d="M355.89,107.59l7.92-.07v3.73l-7.92-.07.05,0v-3.68Z"/><path class="cls-2" d="M363.81,75.64V79.9l-4.28,0,.05,0V75.57l-.05,0Z"/><path class="cls-5" d="M248.27,87.86l-4.53,0c0-1.44.08-2.88.11-4.32l0,0h4.42l0,0C248.21,85,248.24,86.43,248.27,87.86Z"/><path class="cls-2" d="M256.15,95.32v4.15h-4.21l-.06-4.15Z"/><path class="cls-2" d="M375.67,111.25l4.28,0,0,0c0,1.47,0,2.94,0,4.41l-4.39,0,0,0Z"/><path class="cls-5" d="M200.17,95.21l3.56-.08c0,1.51,0,3,0,4.52l-3.44-.19C200.24,98,200.21,96.63,200.17,95.21Z"/><path class="cls-2" d="M203.73,107.49h-3.51l-.09-4.29,3.56.07Z"/><path class="cls-3" d="M251.88,95.32l.06,4.15-.22.22-3.55-.14,0,0,.06-4.3Z"/><path class="cls-3" d="M359.53,91.56l4.28,0v3.73l-4.06-.19C359.67,93.81,359.6,92.68,359.53,91.56Z"/><path class="cls-5" d="M272.29,91.66c0,1.19-.05,2.38-.08,3.56h-4.37c0-1.19,0-2.37-.08-3.56Z"/><path class="cls-3" d="M259.87,95.25V91.69h4.39c0,1.13,0,2.27.05,3.41l-.22.23-4.27-.13Z"/><path class="cls-2" d="M288.18,88.05v3.53h-4.39l.15-3.57Z"/><path class="cls-3" d="M248.27,87.86c0-1.43-.06-2.85-.08-4.28h3.69l-.06,0v4.34Z"/><path class="cls-2" d="M243.85,83.56c0,1.44-.07,2.88-.11,4.32l-3.51,0c0-1.42,0-2.83,0-4.25Z"/><path class="cls-3" d="M359.53,79.93l4.28,0v3.73l-4.06-.19C359.67,82.18,359.6,81.05,359.53,79.93Z"/><path class="cls-2" d="M319.57,80.06h4.27l0,3.55,0,0-4.41,0Z"/><path class="cls-2" d="M251.84,80h4.31v3.52l-4.33,0,.06,0C251.87,82.37,251.85,81.16,251.84,80Z"/><path class="cls-3" d="M363.81,75.64l-4.28,0c0-1.18,0-2.36,0-3.55h4.3Z"/><path class="cls-5" d="M367.64,115.63c0,1.2,0,2.4-.05,3.6H364v-3.7Z"/><path class="cls-2" d="M224.28,107.62h3.32v3.54h-3.32Z"/><path class="cls-3" d="M323.87,83.61l0-3.55h3.74l0,3.55Z"/><path class="cls-3" d="M319.57,80.06l-.07,3.55.05,0-3.53.16-.24-.23.25-3.43Z"/><path class="cls-2" d="M235.77,99.68l-.06,3.42h-3.48V99.68Z"/><path class="cls-3" d="M203.69,103.26l-3.56-.07.05,0c0-1.18-.09-2.36-.13-3.55l.23-.22,3.44.19Z"/><path class="cls-3" d="M351.59,72.06l-.22,3.44h-3.53c.06-1,.12-2.1.2-3.44Z"/><path class="cls-2" d="M264.31,95.1c0-1.14,0-2.28-.05-3.41l3.5,0c0,1.19.05,2.37.08,3.56Z"/><path class="cls-5" d="M283.94,88l-.15,3.57.07,0-3.62.21-.05-.33c.07-1,.14-2,.23-3.4Z"/><path class="cls-2" d="M272.24,59.62l-4.45.08-3.57-.11c-.07-1.13-.14-2.26-.23-3.63h-4.14q0-4,0-8l4.42,0-.05,0c.07,1.14.15,2.28.22,3.52l3.47.16-.05-.05v4.1l4.18.51C272.08,57.31,272.16,58.47,272.24,59.62Z"/><path class="cls-2" d="M272.16,47.87l3.27.25c.82,2.26.65,3.69-2.27,3.5-1.78-.11-3.56,0-5.34,0l.05.05c0-1.23,0-2.45,0-3.68l-.05,0Z"/><path class="cls-5" d="M272.16,47.87l-4.35.13,0-4.37h4.32Z"/><path class="cls-2" d="M288.24,40c0-1.48,0-3,0-4.44l-.05.05h3.67l0,0c0,1.46,0,2.91,0,4.37Z"/><path class="cls-2" d="M276,40.08H280c.09,1.3.16,2.43.23,3.55H276Z"/><path class="cls-2" d="M307.9,40v3.68h-4.41V40Z"/><path class="cls-2" d="M267.84,43.63l0,4.37.05,0h-3.68l.05,0c0-1.47,0-2.94-.05-4.4Z"/><path class="cls-2" d="M280.19,43.59l3.67,0,0,0V48l0,0h-3.67Z"/><path class="cls-2" d="M291.86,43.62v4.15l-3.64.2,0,0V43.58l-.05.06Z"/><path class="cls-2" d="M303.53,43.59V48h-3.39V43.82Z"/><path class="cls-2" d="M288.22,48v3.44l-4.15.22c-.08-1.36-.14-2.51-.21-3.66l0,0h4.42Z"/><path class="cls-2" d="M295.53,55.94H292.2c-.42-2.51-1.24-4.94,3.28-4V56Z"/><path class="cls-2" d="M303.53,56h-3.68V51.82l3.68-.24Z"/><path class="cls-2" d="M283.8,59.6c0-1.21.05-2.41.07-3.62H288c.09,1.37.16,2.51.24,3.64Z"/><path class="cls-2" d="M295.52,32v3.67l-3.67,0,0,0V32l-.05,0Z"/><path class="cls-5" d="M291.86,43.62l-3.66,0c0-1.22.05-2.44.08-3.66l0,0,3.62-.05Z"/><path class="cls-5" d="M243.82,72h4.37v8l0,0H243.8l0,0-.1-4.44.11-3.58Z"/><path class="cls-5" d="M248.2,64c0-1.41.07-2.83.11-4.24h3.41l.09,4.25-3.64,0Z"/><path class="cls-2" d="M256.2,59.55l3.62.06c0,1.46,0,2.92,0,4.38l.05-.05H256.2Z"/><path class="cls-5" d="M243.8,67.62c0-1.18.1-2.36.14-3.54L248.2,64l0,0,0,3.64Z"/><path class="cls-2" d="M264.11,64v3.56h-4.25V63.94l-.05.05Z"/><path class="cls-2" d="M264.14,72.05l.09,3.56H260c-.06-1.38-.12-2.51-.17-3.65Z"/><path class="cls-5" d="M240.3,67.71l3.55-.14,0,4.39,0,0h-3.68l0,0Z"/><path class="cls-5" d="M251.84,80c0,1.2,0,2.41,0,3.61h-3.69l0,0V79.93l0,0Z"/><path class="cls-2" d="M248.2,67.58l0-3.64,3.64,0v3.45Z"/><path class="cls-2" d="M227.79,43.63v-8h4.1c.18,1.48.33,2.65.52,4.2l3.43.16v3.68Z"/><path class="cls-2" d="M235.8,40V32H240v8Z"/><path class="cls-2" d="M248.21,32h-4.13V27.82h4.1V32Z"/><path class="cls-2" d="M248.22,35.59V40H244l-.25-4.41Z"/><path class="cls-2" d="M232.16,27.59h3.68V32l-3.68-.17Z"/><path class="cls-2" d="M251.88,35.61l-3.7,0,0-3.67,0,0,3.7,0Z"/><path class="cls-2" d="M232.16,80V75.61h-4.37V71.93l8,0,.19,3.56h4.18V80h0Z"/><path class="cls-5" d="M243.85,83.56l-3.66,0V80h3.65l0,0v3.68Z"/><path class="cls-3" d="M264.11,64l-4.3,0c0-1.46,0-2.92,0-4.38,0-1.22,0-2.44,0-3.65H264c.09,1.37.16,2.5.23,3.63C264.19,61.07,264.15,62.55,264.11,64Z"/><path class="cls-2" d="M272.24,63.94l0,3.71h-4.27V64Z"/><path class="cls-2" d="M283.83,32l4.42,0,0,0v3.67l.05-.05h-4.19C284,34.24,283.91,33.1,283.83,32Z"/><path class="cls-2" d="M288.28,40c0,1.22-.06,2.44-.08,3.66l.05-.06h-4.42l0,0V40Z"/><path class="cls-5" d="M240.18,75.53H236L235.81,72h4.39l0,0c0,1.21,0,2.43,0,3.65Z"/><path class="cls-2" d="M192.17,91.6h-3.68v-8l3.68.17Z"/><path class="cls-2" d="M192.17,95.24c0-1.23,0-2.45,0-3.67l3.67,0,0,0v3.63h-3.63Z"/><path class="cls-2" d="M388,107.55l0,3.67,0,0h-8l0,0c0-1.22,0-2.45,0-3.67Z"/><path class="cls-2" d="M323.92,48l-4.4,0V43.61h4.42C323.93,45.07,323.93,46.54,323.92,48Z"/><path class="cls-2" d="M288.25,32c0-1.47,0-2.94-.05-4.41l3.63.17V32l.05,0h-3.67Z"/><path class="cls-2" d="M391.59,79.94V83.6h-3.67V79.94Z"/><path class="cls-2" d="M176.16,103.23c0-1.23,0-2.45,0-3.68h4.42c0,1.22,0,2.45,0,3.67l0,0h-4.42Z"/><path class="cls-2" d="M184.15,103.22l0-3.67,4.41,0,0,0c-.05,1.14-.11,2.28-.17,3.64h-4.2Z"/><path class="cls-2" d="M188.49,95.19l3.68,0,0,0v4.36h-3.64l0,0C188.52,98.13,188.5,96.66,188.49,95.19Z"/><path class="cls-2" d="M395.23,103.21c0-1.22,0-2.44,0-3.66l4.42,0-.05,0c0,1.22,0,2.44,0,3.66h-4.34Z"/><path class="cls-2" d="M307.85,35.59h3.69V40h-3.69Z"/><path class="cls-2" d="M391.59,111.22c0-1.24,0-2.47,0-3.7l3.58,0,4.43.11h0l0,3.66-8.06,0Z"/><path class="cls-3" d="M399.59,107.58l-4.43-.11.06-4.27h4.37Z"/><path class="cls-2" d="M387.93,111.22c1.22,0,2.44,0,3.66,0l0,0c0,1.48,0,2.95,0,4.43H388v-4.43Z"/><path class="cls-2" d="M180.49,103.22h3.66l0,0c0,1.47,0,2.94,0,4.41l0,0h-3.67l0,0v-4.41Z"/><path class="cls-5" d="M399.59,107.58V103.2h0l3.72-.09,4.08.2v4.07l-4.08.27-3.71-.09Z"/><path class="cls-5" d="M407.53,111.3l.15,4.33c0,1.19-.05,2.37-.08,3.56l-4.26-.1-.21-3.59.15-4.29,0,.05Z"/><path class="cls-3" d="M403.28,83.68v4.17h-3.42V83.68Z"/><path class="cls-3" d="M399.58,107.57l3.71.09-.06,3.6,0-.05-3.72,0,.05,0Z"/><path class="cls-3" d="M403.29,103.12l-3.72.09c0-1.22,0-2.44,0-3.66H403C403.1,100.88,403.19,102,403.29,103.12Z"/><path class="cls-3" d="M399.61,95.24V92.05c2.9-1,4.05-.3,3.36,3l-3.41.15Z"/><path class="cls-3" d="M211.82,151.2v-7.79l-3.67-.21h-4.36c-.06-1.14-.12-2.28-.18-3.37-3.3-.73-4,.45-3,3.35h3.18c0,1.43,0,2.85.05,4.27l-3.5.26c-.07,1.19-.14,2.32-.21,3.46l-4.3.11-3.61-.38v-3.42h3.53v-4.29c0-3.88,0-7.76,0-11.64h4.36l3.36.18c.19,1.14.37,2.16.6,3.45h4.07v4.36h3.63l4.27,0c0,1.23.07,2.47.1,3.7v8.05l0-.05-4.45,0Z"/><path class="cls-3" d="M240.21,147.52H236v10.92c-3.34.93-3.34.93-4.34-2.92h-3.82l.05,0c0-1.46,0-2.93-.05-4.4h4.14v-7.95h-7.78l.12-3.72h3.54v-7.94l4.27-.05.12,3.68v4.35h3.64c.06,1.15.12,2.3.18,3.41l4.14.55v4.08Z"/><path class="cls-3" d="M264.09,147.66l-4.27-.14,0,0c0-1.46,0-2.93,0-4.39V131.52l4.39.26v11.41c0,1.42.07,2.83.1,4.25Z"/><path class="cls-3" d="M251.85,147.54l-.17,3.55h-3.55v-3.44h-4.2l-.22-.22v-7.9h4.5c0,1.13.11,2.27.17,3.65h3.46C251.85,144.64,251.85,146.09,251.85,147.54Z"/><path class="cls-3" d="M248.2,163.53v-4.06l-4.18-.53-.17-3.42,0,0h7.47c.33,1.13.65,2.21,1.06,3.63h3.89l0,0c0,1.46,0,2.92,0,4.37l-4.29.11-3.7-.1Z"/><path class="cls-3" d="M272.28,155.56h-8.19v-7.9l.22-.22,3.54.1c.06,1.13.13,2.26.2,3.62h4.18c0,1.48,0,3,0,4.44Z"/><path class="cls-3" d="M272.23,167.19c0-2.69,0-5.39.07-8.08l3.54,0h4.4c0,1.47,0,2.94,0,4.4l.05,0h-4.41v3.65h-3.65Z"/><path class="cls-3" d="M211.82,155.52H204c-.09-1.45-.16-2.6-.26-4.32h8l0,0v4.4Z"/><path class="cls-4" d="M248.2,163.53v7.79l-4.1.19v-7.79l4.1-.19Z"/><path class="cls-3" d="M227.79,155.52V159H220c-.09-1.16-.17-2.31-.26-3.46l0,0,8.09,0Z"/><path class="cls-4" d="M232.21,171.56c0-1.49-.08-3-.11-4.46,0-1.19,0-2.37.07-3.56h3.62v8l0,0h-3.66Z"/><path class="cls-3" d="M243.85,155.52h-3.64v-8l-.05,0,3.55-.14.22.22c0,1.18-.05,2.35-.08,3.52,0,1.47,0,2.93,0,4.4Z"/><path class="cls-3" d="M267.87,167.19l-3.56-.13c0-1.67-.08-3.35-.1-5,0-.71.07-1.43.12-2.51l3.54-.43Z"/><path class="cls-4" d="M203.82,171.55v-4.13h4.11c.08,1.17.16,2.32.28,4.09h-4.44Z"/><path class="cls-4" d="M219.79,167.19h4.14v4.11l-4.1.28v-4.43Z"/><path class="cls-4" d="M264.09,167.29v4.26h-4.27v-4.26Z"/><path class="cls-3" d="M267.85,171.52l0-4.37,4.41,0,0,0c0,1.46,0,2.93,0,4.4l0,0Z"/><path class="cls-2" d="M203.79,143.2h4.36v4.25h-4.29c0-1.42,0-2.84-.05-4.27Z"/><path class="cls-2" d="M251.85,147.54c0-1.45,0-2.9,0-4.36v0h4.39l-.05,0,0,4.38.05-.07Z"/><path class="cls-4" d="M195.85,151.28l4.3-.11v4.35h-4.38l0,0C195.82,154.13,195.84,152.71,195.85,151.28Z"/><path class="cls-2" d="M243.85,151.17c0-1.17.05-2.34.08-3.52h4.2v3.44Z"/><path class="cls-2" d="M219.78,155.49l-3.6,0,0,.07v-4.34l0,.05h3.57v4.29Z"/><path class="cls-3" d="M211.83,159.2c0-1.23,0-2.45,0-3.68l0,0,4.45,0,0-.07v3.69h-4.4Z"/><path class="cls-4" d="M192.17,163.56h-3.68c0-1.47,0-2.94,0-4.4l0,0h3.68l0,0C192.14,160.62,192.16,162.09,192.17,163.56Z"/><path class="cls-4" d="M204.83,161.22c-1.36,1.1-2.07,2.08-2.87,2.16-.53.05-1.73-1.25-1.66-1.83a3.4,3.4,0,0,1,1.73-2.24C202.4,159.13,203.4,160.21,204.83,161.22Z"/><path class="cls-3" d="M232.17,163.54c0,1.19,0,2.37-.07,3.56H228c-.06-1.18-.11-2.08-.19-3.56Z"/><path class="cls-4" d="M251.9,163.63l4.29-.11v3.42l-4.13.27Z"/><path class="cls-4" d="M232.21,175.14l-4.42.05c.06-1.05.11-2.1.19-3.63h4.23l0,0v3.65Z"/><path class="cls-4" d="M235.79,171.56H240c.07,1.36.13,2.49.19,3.62l0,0H235.8l0,0v-3.65Z"/><path class="cls-4" d="M240.17,175.18h3.44c.08,1.44.14,2.59.23,4.12l-3.67.21,0,0v-4.41Z"/><path class="cls-4" d="M240.21,183.18H235.8c0-1.22,0-2.45,0-3.67l0,0h4.41l0,0C240.18,180.73,240.2,182,240.21,183.18Z"/><path class="cls-3" d="M211.78,159.15V163c-3.76.78-3.76.78-3.31-3.6l3.36-.16Z"/><path class="cls-4" d="M195.77,155.52V159l-3.64.18,0,0c.05-1.13.11-2.26.17-3.64h3.47Z"/><path class="cls-3" d="M256.22,159.2V156c2.89-1,4.06-.31,3.34,3l-3.38.15Z"/><path class="cls-2" d="M275.84,159.16l-3.54,0c0-1.18,0-2.36,0-3.55l-.06,0h3.62Z"/><path class="cls-4" d="M192.13,167.19v-3.68l3.45.18c.08,1.24.16,2.37.23,3.5Z"/><path class="cls-4" d="M219.83,167.15h-3.68l0,0c-.06-2.08-.44-4.45,3.44-3.3.05,1,.1,2.15.16,3.3Z"/><path class="cls-3" d="M259.82,147.52v3.41l-3.42.2c-.08-1.4-.15-2.53-.21-3.66l-.05.07,3.72,0Z"/><path class="cls-3" d="M372,135.18v4.39h-8l0-4.39,0,0,3.68-.27v-7.77l-.05,0h4.29v-3.55l.22-.22,3.53.09,4.39,0,0,0c0,2.68,0,5.35,0,8h-8Z"/><path class="cls-4" d="M355.94,171.55h-4.41c0-1.48,0-3-.07-4.45q0-4,.07-7.92l11.25.1c.22,0,.43.18.89.38V167h-7.73Z"/><path class="cls-3" d="M332,159.08l-4.45.07,0,0c-.07-1.14-.14-2.27-.23-3.64H315.83l0,0c0-2.69,0-5.37,0-8.06h3.65c.06,1.13.12,2.26.2,3.62h4.17l8.05.12c0,1.42,0,2.85,0,4.27C331.93,156.73,331.94,157.91,332,159.08Z"/><path class="cls-3" d="M335.54,171.52c0-1.46,0-2.92,0-4.37l-.05,0h7.81c.08,1.46.14,2.61.22,4.05l-3.7.39Z"/><path class="cls-3" d="M383.54,135.16l.06,4.41h-7.84c-.1-1.73-.18-3-.25-4.28l4.42-.1h3.65Z"/><path class="cls-2" d="M347.85,147.64l-4.34-.13.05.05-.05-4.4,7.95.09c0,1.43.05,2.85.08,4.28Z"/><path class="cls-2" d="M379.93,135.19l-4.42.1-3.57-.11c0-1.05,0-2.11,0-3.61h8l0,0C379.92,132.75,379.92,134,379.93,135.19Z"/><path class="cls-3" d="M367.57,159.16v-3.37l4.42-.35,3.57.11v3.35l-3.7.37Z"/><path class="cls-3" d="M339.84,155.53h3.45v7.53c-2.1.91-3.52.78-3.4-2.19.07-1.79,0-3.59,0-5.39Z"/><path class="cls-4" d="M383.6,167.2l-3.59.06-4.33-.21v-3.5h7.95Z"/><path class="cls-3" d="M347.85,147.64l3.69-.11h4.39c0,1.23,0,2.47,0,3.71l.07-.05h-7.8C348.06,149.89,348,148.77,347.85,147.64Z"/><path class="cls-3" d="M351.53,159.18q0,4-.07,7.92h-3.35v-7.7Z"/><path class="cls-4" d="M371.94,171.52l-4.26-.11c0-1.41-.08-2.83-.11-4.25l4.35.06-.05-.05Z"/><path class="cls-4" d="M347.89,175.14v4.14h-4.11c-.08-1.18-.16-2.32-.28-4.09h4.43Z"/><path class="cls-2" d="M363.89,143.16c0,1.45,0,2.91-.05,4.37l.07,0-4.29,0-.06-4.34,4.39.09Z"/><path class="cls-2" d="M339.89,155.48l-4.38,0,.05.06v-4.42l0,0h4.4l-.05,0,0,4.38Z"/><path class="cls-3" d="M363.9,151.16v4.29h-4.41v-4.18l4.45-.07Z"/><path class="cls-4" d="M367.57,159.16l4.29.11.06,4.28h-4.35Z"/><path class="cls-4" d="M387.93,163.55l-4.35,0c0-1.48,0-3,0-4.43h0l4.4,0Z"/><path class="cls-4" d="M319.54,171.55l-3.65-.18v-4.21h3.63C319.53,168.62,319.53,170.09,319.54,171.55Z"/><path class="cls-3" d="M388,143.09l-4.45.12v-3.68l4.45.11Z"/><path class="cls-3" d="M383.6,143.16c-.05,1.43-.09,2.85-.13,4.28h-3.33v-4Z"/><path class="cls-4" d="M383.69,147.66h4c.09,1.31.17,2.42.24,3.54h-4.27Z"/><path class="cls-2" d="M359.49,151.27v4.18H356v-4.26l-.07.05Z"/><path class="cls-4" d="M375.56,155.55l-3.57-.11v-3.77C375.55,151.14,375.55,151.14,375.56,155.55Z"/><path class="cls-2" d="M319.53,155.55h4.35c0,1.2,0,2.4-.05,3.61l.05-.07-4.39,0,.06.06C319.54,158,319.54,156.77,319.53,155.55Z"/><path class="cls-2" d="M316,163.47l-.06-4.32-.06,0h3.7l-.06-.06c0,1.45,0,2.89-.05,4.33Z"/><path class="cls-3" d="M327.51,159.15v3.78c-3.59.84-3.59.84-3.63-3.83l-.05.07,3.72,0Z"/><path class="cls-3" d="M367.57,163.55h4.35v3.67l-4.35-.06Z"/><path class="cls-4" d="M323.91,171.55c0-.59-.22-1.29,0-1.75a23.13,23.13,0,0,1,1.87-2.61c.57.93,1.18,1.83,1.67,2.79.13.23-.11.66-.26,1.36l-3.34.17Z"/><path class="cls-3" d="M371.94,171.52l-.07-4.35,3.59.11v4.06Z"/><path class="cls-4" d="M335.54,171.52l4.3.11V175h-4.1C335.67,173.79,335.61,172.65,335.54,171.52Z"/><path class="cls-4" d="M339.92,183.18h-4.41c.06-1.06.12-2.12.2-3.45l4-.21C339.76,180.89,339.84,182,339.92,183.18Z"/><path class="cls-2" d="M343.51,147.51v3.64h-3.64l.05,0c0-1.23,0-2.45,0-3.68l3.68,0Z"/><path class="cls-3" d="M363.84,147.53h3.43l.28,3.46-3.65.17,0,0,0-3.71Z"/><path class="cls-2" d="M332,159.08c0-1.17,0-2.35,0-3.53l3.65,0-.05-.06v3.57Z"/><path class="cls-3" d="M383.57,159.17H380.4c-1-2.9-.32-4.08,3-3.35.06,1.08.12,2.22.18,3.35Z"/><path class="cls-3" d="M316,163.47h3.47c0,1.23.05,2.46.08,3.69h-3.63C315.91,165.93,315.94,164.7,316,163.47Z"/><path class="cls-3" d="M335.56,167.15h-3.2c-1-2.89-.31-4.06,3-3.33.05,1.1.1,2.24.15,3.37Z"/><path class="cls-2" d="M363.91,139.56h3.64v3.59h-3.66l.06.05v-3.69Z"/><path class="cls-4" d="M351.57,171.51v3.68l-3.68-.05,0,.05v-3.44Z"/><path class="cls-3" d="M367.45,171.64v3.42c-2.22.29-4.25.36-3.19-3.42Z"/><path class="cls-3" d="M388,135.1l-4.46.06,0,0c0-1.22,0-2.43,0-3.65V123.7l-3.66-.16,0,0v-4.4l0,0,8.08,0,0,0v8c0,1.46,0,2.91,0,4.37C388,132.74,388,133.92,388,135.1Z"/><path class="cls-3" d="M403.34,119.09l4.26.1,3.53-.09.22.21c-.08,1.2-.16,2.39-.25,3.8l-3.6.87v7.64h-4.19c-.07-1.28-.14-2.55-.23-4.31H399.7l-.22-.22c0-1.19.08-2.37.13-3.55l-.05,0,3.56-.23v-4Z"/><path class="cls-4" d="M423.62,135.17v4.4H411.43c-.07-1.65-.13-3-.19-4.39l4.28-.08Z"/><path class="cls-3" d="M395.1,127.31l-3.59-.21q0-4,.05-7.95l0,0,8.08,0-.05,0v4.41l.05,0h-4.28v3.55Z"/><path class="cls-4" d="M415.62,147.57h-8.05v-4.14h7.85C415.48,144.8,415.55,146.19,415.62,147.57Z"/><path class="cls-2" d="M391.56,119.15q0,4-.05,7.95l-3.56.09v-8Z"/><path class="cls-3" d="M399.7,127.31l-.21,4.31h-4.18l-.21-4.31.23-.22h4.15Z"/><path class="cls-2" d="M395.31,131.62h4.18V135h-4.18Z"/><path class="cls-2" d="M403.31,131.62h4.19V135h-4.19Z"/><path class="cls-3" d="M415.52,135.1l-4.28.08v-3.41l4.28-.26Z"/><path class="cls-4" d="M403.25,147.52h-3.38a9.3,9.3,0,0,1-.17-2.94c.16-.56,1.12-1.35,1.6-1.27a2.72,2.72,0,0,1,1.82,1.45,8.2,8.2,0,0,1,.08,2.81Z"/><path class="cls-4" d="M407.61,147.52v3.68h-4.18c-.07-1.42-.13-2.55-.18-3.68l-.05,0Z"/><path class="cls-4" d="M420.3,125.42c-1.45.91-2.24,1.78-2.74,1.64a3.16,3.16,0,0,1-1.83-1.79c-.12-.33,1-1.56,1.58-1.57C418,123.68,418.78,124.49,420.3,125.42Z"/><path class="cls-4" d="M395.24,151.2h-3.68l.18-3.19C395.42,146.58,395.29,148.93,395.24,151.2Z"/><path class="cls-2" d="M388,135.1c0-1.18,0-2.36,0-3.54h3.41c.07,1.15.14,2.15.24,3.54Z"/><path class="cls-2" d="M388,143.09v-3.45h3.39c.06,1.07.12,2.08.2,3.45Z"/><path class="cls-3" d="M284,171.47c-.09,1.05-.17,2.11-.28,3.5l-3.46.19,0,0c0-1.2-.09-2.4-.13-3.6v-4.48c0-1.2.09-2.4.13-3.6l-.05,0,3.64-.23v-4.16h4.41v4.37h3.64c.06,1.13.12,2.27.2,3.67h7.8l0,0v4.2l-4.41.28h-3.52l-3.68-.1V167.4H284Z"/><path class="cls-4" d="M291.85,183.14c0,1.23,0,2.45,0,3.68H280.2c.05-1,.1-2.1.17-3.3l3.18-.66c.23-1.08.44-2.08.7-3.32h4l0,0c.08,1.14.15,2.27.23,3.51l3.46.17Z"/><path class="cls-4" d="M284,171.47V167.4h4.28v4.12Z"/><path class="cls-3" d="M280.22,175.16v4.15l-4.37.24v-4.39l0,0h4.43Z"/><path class="cls-4" d="M267.85,171.52h4.38c0,1.21,0,2.43,0,3.64h-4.16C268,173.77,267.92,172.65,267.85,171.52Z"/><path class="cls-4" d="M288.24,179.54v-4.17l3.64-.19,0,0v4.41l.05-.05H288.2Z"/><path class="cls-4" d="M272.23,183.18h-4.41c.06-1.06.12-2.12.2-3.45l4-.21C272.07,180.89,272.15,182,272.23,183.18Z"/><path class="cls-3" d="M272.22,175.16c0-1.21,0-2.43,0-3.64l0,0h3.64l0,3.65,0,0Z"/><path class="cls-4" d="M291.92,171.62h3.52c0,1.18,0,2.37,0,3.56l0-.05h-3.68l0,0C291.89,174,291.91,172.81,291.92,171.62Z"/><path class="cls-4" d="M275.87,186.82h-3.68v-3.68l3.45.17C275.72,184.55,275.8,185.68,275.87,186.82Z"/><path class="cls-3" d="M184.16,143.17h-3.68l.05.05c0-2.68,0-5.35,0-8v-3.62h3.65c0,1.2,0,2.41,0,3.62,0,2.68,0,5.35,0,8Z"/><path class="cls-3" d="M184.15,151.18q0-4,0-8l0,0,4.41-.05v8h-4.38Z"/><path class="cls-4" d="M168.15,151.2h-7.78c-.09-1.4-.17-2.54-.24-3.67l8,0,0,0C168.14,148.76,168.14,150,168.15,151.2Z"/><path class="cls-4" d="M172.5,143.18v4.36h-4.37l0,0c0-1.44,0-2.88.08-4.32l4.28-.07Z"/><path class="cls-3" d="M180.48,143.16v4.17l-4.33.25v-4.4l0,0h4.42Z"/><path class="cls-4" d="M172.52,155.56h-4.41v-4.4h4.41Z"/><path class="cls-4" d="M184.16,155.52h-3.44c-.08-1.44-.14-2.58-.23-4.11l3.66-.23h0l0,4.39Z"/><path class="cls-4" d="M188.53,159.16h-4.18c-.07-1.38-.13-2.51-.19-3.64l0,0h4.37v3.64Z"/><path class="cls-4" d="M188.53,163.51v3.68h-4.41c0-1,.11-2.09.19-3.68Z"/><path class="cls-4" d="M176.16,159.2l-3.45-.18c-.08-1.24-.16-2.37-.23-3.5l3.45.17C176,156.93,176.08,158.06,176.16,159.2Z"/><path class="cls-3" d="M176.15,143.18h-3.64l.06-3.54,3.56-.08,0,3.65Z"/><path class="cls-3" d="M308,159.29l-.12,4.24h-4.06c-.23,1.33-.4,2.34-.62,3.62h-3.34l0,0c0-1.22,0-2.44,0-3.66v-4.38l0-3.6h3.64c.05,1.12.11,2.24.17,3.53h4.08Z"/><path class="cls-4" d="M311.53,179.54l-3.67,0,0,0v-4.13l-4-.48c-1.29-4.6,2.21-3,4.08-3.49l3.56.07C311.52,174.19,311.53,176.87,311.53,179.54Z"/><path class="cls-2" d="M315.91,159.15l-4.33-.06v-3.46l4.29,0,0,0c0,1.22,0,2.44,0,3.65Z"/><path class="cls-3" d="M311.51,171.52l-3.56-.07c0-1.42,0-2.85-.07-4.27h3.63Z"/><path class="cls-3" d="M311.58,155.63v3.46l-3.59.2-.22-.22c0-1.18.06-2.35.1-3.53Z"/><path class="cls-4" d="M311.51,167.18h-3.63c0-1.22,0-2.43,0-3.65h3.44Z"/><path class="cls-3" d="M168.23,143.25c0,1.44,0,2.88-.08,4.32l-8,0c0-1.45,0-2.91,0-4.37l0,.05h4.4v-3.65h0l3.52.09Z"/><path class="cls-4" d="M235.84,179.51h-3.63v-4.37l0,0h3.66l0,0v4.41Z"/><path class="cls-4" d="M307.86,179.51c0,1.22,0,2.45,0,3.67h-4.19c-.07,1.38-.12,2.51-.18,3.64h-3.68q0-3.66,0-7.31l0,0h8Z"/><path class="cls-4" d="M299.89,179.51h-4.41l0,0v-4.41l0,.05h4.37v4.36Z"/><path class="cls-4" d="M295.48,179.51V183l-3.63.18,0,0V179.5l-.05.05h3.68Z"/><path class="cls-5" d="M164.5,139.56v3.65h-4.4c0-1.22,0-2.44,0-3.65Z"/><path class="cls-3" d="M180.53,103.19v4.41l-4.42,0,0,0c0-1.47,0-2.94,0-4.4Z"/><path class="cls-3" d="M176.15,115.58c0-1.47,0-2.93,0-4.4l0,0h4.4l0,0v4.36h-4.37Z"/><path class="cls-3" d="M172.51,119.21c0-1.22,0-2.43,0-3.65l3.66,0,0,0c0,1.23,0,2.46,0,3.68l-3.69,0Z"/><path class="cls-2" d="M180.52,111.22h-4.41v-3.68l4.42,0,0,0Z"/><path class="cls-2" d="M411.13,119.1l-3.53.09c0-1.19,0-2.37.08-3.56l3.42.06Z"/><path class="cls-5" d="M168,139.65l-3.52-.09c0-1.46,0-2.92,0-4.38v-3.43l3.65-.19h0c0,1.21,0,2.42,0,3.63,0,1.42.07,2.83.11,4.25Z"/><path class="cls-2" d="M168.24,127.3l4.26-.1h0c0,1.42-.07,2.84-.1,4.26l-4.26.1h0C168.17,130.14,168.21,128.72,168.24,127.3Z"/><path class="cls-5" d="M164.47,123.54H168v3.54h-3.33Z"/><path class="cls-2" d="M172.47,119.18l3.69,0,0,0c0,1.48,0,3,0,4.45l-3.63-.08Z"/><path class="cls-5" d="M172.5,123.55l3.63.08,0-.07.07,3.62H172.5Z"/><path class="cls-3" d="M355.89,119.18v4l3.4.61c.2,1.1.38,2.12.61,3.39h4l0,0v8l0,0-4.41,0v-3.63h-3.64v-4.41h-8l.05,0V124l3.64-.76v-4l-.05,0h4.42Z"/><path class="cls-3" d="M339.88,119.22h3.55v8h4.5l-.05,0v8l.05,0-4.41,0v-3.65H339.9v-4.34h-8l.12-3.71,3.55,0h4.39v-4.36Z"/><path class="cls-3" d="M291.85,139.54c0-1.46,0-2.91,0-4.37l-.05,0h3.69l0,0v4.37h4.39c-.07,1.15-.14,2.3-.21,3.4l-4.14.55v4.08H283.84c0-1.47,0-2.94,0-4.41l0,0h8Z"/><path class="cls-3" d="M291.89,127.22v-3.64h8l0,0c0,3.89,0,7.78,0,11.67l-4.41,0,0,0v-7.87l-3.69-.17Z"/><path class="cls-3" d="M327.5,107.6h4.41v11.66l0-.06h-4.27c-.07-1.52-.12-2.57-.17-3.63,0-1.46,0-2.91,0-4.37,0-1.22,0-2.43,0-3.65Z"/><path class="cls-3" d="M299.89,123.58v-4l3.35-.61c.2-1.1.38-2.11.6-3.34h4.06l0,0c0,2.68,0,5.36,0,8l-8,0Z"/><path class="cls-3" d="M267.85,103.2H272v4.16l-3.9.4c-.08,1.19-.16,2.33-.24,3.47l.05,0h-3.46c-.08-1.33-.15-2.47-.22-3.6,0-1.47,0-2.93,0-4.39l0,0Z"/><path class="cls-3" d="M315.91,115.6v-8h8l-.05,0c0,1.23,0,2.46,0,3.69l.05,0h-4.41v4.37l-3.66,0Z"/><path class="cls-3" d="M264.31,95.1l3.53.1h4.38v4.37h-4.37l-3.66,0,0,0c-.05-1.42-.09-2.85-.14-4.27Z"/><path class="cls-3" d="M327.5,83.56h4.42v8H327.5Z"/><path class="cls-3" d="M280.19,127.17c0,1.47,0,2.94,0,4.41l0-.05h-8.05l.05.05v-4.41l-.05,0h8.05Z"/><path class="cls-3" d="M291.89,135.17h-3.44V127.4l3.44-.18-.05,0v8Z"/><path class="cls-5" d="M291.85,139.54v3.66h-8c0-1.18.05-2.37.08-3.55Z"/><path class="cls-3" d="M319.5,83.61l4.41,0v4.36H319.5l.05,0V83.56Z"/><path class="cls-3" d="M319.55,99.6V95.47h4.14v4.08H319.5Z"/><path class="cls-3" d="M335.51,95.19h4.42V99.6h-4.42Z"/><path class="cls-5" d="M264.23,103.19c0,1.46,0,2.92,0,4.39h-4.33v-4.39Z"/><path class="cls-3" d="M339.93,103.19v4.4h-4.18c-.09-1.48-.15-2.63-.25-4.4Z"/><path class="cls-3" d="M267.82,111.23H272v4.13h-4.08v-4.18Z"/><path class="cls-3" d="M280.24,115.54h-4.13v-4.13h4.08v4.18Z"/><path class="cls-3" d="M299.84,111.18v4.13h-4.13v-4.08h4.18Z"/><path class="cls-3" d="M343.52,111.18l4.41,0-.05,0v4.41l.05,0h-4.41Z"/><path class="cls-3" d="M283.83,119.23h4.42l-.05,0v4.36h-4.37l.05,0v-4.41Z"/><path class="cls-3" d="M280.2,135.17l.12,4.27-.22.23-4.26-.12v-4.34h4.4Z"/><path class="cls-3" d="M323.92,107.6v-4.13l3.58-.25v4.38l0,0h-3.67Z"/><path class="cls-3" d="M311.33,107.53l-3.27-.16v-3.9h3.27Z"/><path class="cls-3" d="M267.82,123.58h4.42l-.05,0v3.68l.05,0h-4.37v-3.63Z"/><path class="cls-3" d="M259.81,115.6H264c.06,1.34.11,2.48.16,3.62l.05,0-4.41,0,0-3.67Z"/><path class="cls-3" d="M311.49,115.59h4.42l0,0c0,1.22,0,2.44,0,3.66h-4.35v-3.67Z"/><path class="cls-3" d="M307.85,87.92v3.32c-2.51.43-5,1.25-4.05-3.27h4.1Z"/><path class="cls-3" d="M264.18,119.22h3.64v4.36l.05,0-3.64-.17v-4.19Z"/><path class="cls-3" d="M272.24,123.59v-3.84c3.74-.74,3.74-.74,3.32,3.63l-3.37.16Z"/><path class="cls-5" d="M335.54,123.54l-3.55,0c0-1.44,0-2.87,0-4.31l0,.06h3.62l0-.06Z"/><path class="cls-3" d="M335.53,119.26v-3.42h4.19c0,1.12.11,2.25.16,3.38l.05,0-4.45,0Z"/><path class="cls-3" d="M307.9,115.59v-4.12l3.59-.26v4.38l.05,0h-3.69Z"/><path class="cls-3" d="M280.24,127.22v-3.63h3.64l-.05,0v3.63h-3.64Z"/><path class="cls-3" d="M339.88,107.55l3.46.16c.08,1.24.15,2.38.23,3.52l-3.47-.16C340,109.83,340,108.69,339.88,107.55Z"/><path class="cls-3" d="M299.89,111.23V108c2.89-1,4.09-.34,3.34,3l-3.39.15Z"/><path class="cls-3" d="M290.77,111.63l-3.62-3.12C290.93,107,292.3,107.47,290.77,111.63Z"/><path class="cls-3" d="M283.88,119.18h-3.64v-3.64l-.05,0h3.64v3.63Z"/><path class="cls-3" d="M339.88,99.55h3.4c.09,1.21.15,2.18.24,3.45l-3.64.23Z"/><path class="cls-3" d="M319.5,99.55v3.19c-2.89,1-4.09.34-3.34-3l3.39-.15Z"/><path class="cls-3" d="M280.2,131.58h3.41l.24,3.59H280.2l0,0v-3.68Z"/><path class="cls-3" d="M295.19,99.9c.8,2.81-.07,3.84-3,3C291.37,100.08,292.24,99,295.19,99.9Z"/><path class="cls-5" d="M264.19,99.56l3.66,0v3.63h-3.66Z"/><path class="cls-3" d="M288.25,119.23V116c2.89-1,4.09-.33,3.33,3l-3.38.15Z"/><path class="cls-3" d="M283.92,139.65c0,1.18-.05,2.37-.08,3.55l0,0-3.68.05c0-1.18-.07-2.36-.1-3.54l.22-.23Z"/><path class="cls-3" d="M331.87,91.56l3.47.16c.07,1.24.15,2.38.22,3.52l-3.47-.16C332,93.84,331.94,92.7,331.87,91.56Z"/><path class="cls-3" d="M351.57,119.18h-3.64v-3.64l-.05,0h3.69l-.05,0v3.68Z"/><path class="cls-3" d="M319.5,87.92v3.41l-3.6.24V87.92l0,0h3.69Z"/><path class="cls-3" d="M351.57,83.56,351.52,88l.05,0h-8.05l0,0c0-1.47,0-2.94,0-4.41Z"/><path class="cls-3" d="M351.52,91.56c0,1.22,0,2.45.05,3.68h-7.82c-.07-1.41-.13-2.54-.19-3.68l0,0h8.05Z"/><path class="cls-3" d="M351.52,95.19h4.37V99.6l.05,0h-4.42l.05,0C351.55,98.13,351.54,96.66,351.52,95.19Z"/><path class="cls-3" d="M355.89,103.19v4.4l.05,0h-4.42l.05,0v-4.4l-.05,0h4.42Z"/><path class="cls-3" d="M347.93,111.23v-3.64h3.64l-.05,0v3.68l.05,0h-3.69Z"/><path class="cls-3" d="M351.57,103.19h-3.41l-.24-3.59h3.65l-.05,0v3.68Z"/><path class="cls-3" d="M343.56,91.56h-3.41c-.07-1.16-.14-2.14-.24-3.59h3.65l0,0V91.6Z"/><path class="cls-5" d="M224.27,139.49l-.12,3.72,0-.05-4.46.12-3.56-.09c0-1.23-.07-2.47-.1-3.7v-7.71h-7.76c-.07,1.29-.12,2.36-.18,3.43l0,0h-4.07c-.23-1.29-.41-2.31-.6-3.45l-3.36-.18-.09-4.28v-3.68h-4.29v-4.37h-3.63c0-1.22,0-2.43,0-3.65h0l8,0,0,0c.05,1.07.11,2.14.18,3.56h7.83v4.53h-4.36L204,127h4.11v-3.41l3.37-.15c.19-1.26.36-2.42.59-4l3.79-.17c.2,1.42.36,2.57.38,2.72l4.5,4.47-.44.77h3.88c0,1.46,0,2.92,0,4.39l0-.05c-4.47.07-4.47.07-3.86,3.67h3.85l0,0Z"/><path class="cls-5" d="M248.17,99.55l3.55.14c.06,1.2.13,2.39.2,3.58v4.29h4.26v3.65l-4.28.08-3.59-.2-.37-3.52H235.82l.12-4.25h12C248.05,101.82,248.11,100.68,248.17,99.55Z"/><path class="cls-2" d="M227.82,119.2v-3.32l4.3-.6V107.8l3.7-.22h0c.07,1.13.14,2.26.22,3.65h4.15c0,1.45,0,2.89.07,4.34h-4.44v3.7l-3.57,0-4.43-.11Z"/><path class="cls-2" d="M224.18,127.19c0-1.21,0-2.41,0-3.62l3.57-.11,4.42.11h0c0,1.22,0,2.44,0,3.65l.05,0-4.34.12-3.7-.1Z"/><path class="cls-5" d="M227.76,123.46l-3.57.11v-4.16l3.63-.21h0C227.79,120.61,227.77,122,227.76,123.46Z"/><path class="cls-2" d="M280.24,91.74l3.62-.21V95l-3.67.24C280.21,94.07,280.22,92.91,280.24,91.74Z"/><path class="cls-3" d="M355.89,111.18v4.41l.05,0h-4.42l.05,0v-4.41l-.05,0h4.42Z"/><path class="cls-3" d="M367.54,119.18l4.45.12c0,1.38,0,2.76.05,4.15l-.22.22-4.29-.13.05,0C367.57,122.12,367.56,120.65,367.54,119.18Z"/><path class="cls-3" d="M363.94,127.22v-3.64h3.64l-.05,0v3.68l.05,0H363.9Z"/><path class="cls-3" d="M355.89,115.59h3.41l.24,3.59h-3.65l.05,0v-3.68Z"/><path class="cls-3" d="M351.52,88h7.79c.1,1.35.18,2.49.27,3.63l-8.06,0,.05,0V87.92Z"/><path class="cls-3" d="M355.89,99.6h3.41l.24,3.59h-3.65l.05,0V99.55Z"/><path class="cls-3" d="M355.94,79.93c-.05,1-.1,2.11-.17,3.68h-4.25c.05-1,.1-2.11.17-3.68Z"/><path class="cls-3" d="M359.58,75.57V80h-3.69V75.81Z"/><path class="cls-5" d="M264.09,95.33c.05,1.42.09,2.85.14,4.27h-4.41V95.2Z"/><path class="cls-2" d="M256.18,107.56h-4.26v-4.29h4.26Z"/><path class="cls-2" d="M251.9,111.29l4.28-.08c0,1.46,0,2.91,0,4.37l0,0-4.41,0Z"/><path class="cls-2" d="M259.85,115.55l0,3.67,0,0-3.68,0c0-1.22,0-2.45,0-3.68l0,0Z"/><path class="cls-3" d="M184.11,107.6c0-1.47,0-2.94,0-4.41h4.2c.06-1.36.12-2.5.17-3.64h3.64V95.19h3.63V91.56h4.18c.09,1.38.16,2.51.23,3.65,0,1.42.07,2.83.11,4.25l-.23.22h-4.29v3.55l.05,0-3.43.23c-.2,1.53-.34,2.69-.53,4.18Z"/><path class="cls-2" d="M184.11,107.6h7.74c.19-1.49.33-2.65.53-4.18l3.43-.23c0,1.48.05,3,.08,4.44,0,1.18-.07,2.37-.11,3.56l-3.64.23v4.15h-3.65l0,0v-4.41h-4.42l0,0c0-1.23,0-2.45,0-3.68Z"/><path class="cls-3" d="M192.14,115.57v-4.15l3.64-.23h4.4v4.4Z"/><path class="cls-3" d="M195.89,107.63c0-1.48,0-3-.08-4.44l-.05,0h4.42l-.05,0,.09,4.29Z"/><path class="cls-2" d="M319.55,88h-3.69c.05-1.42.1-2.83.16-4.25l3.53-.16Z"/><path class="cls-3" d="M375.56,115.56l4.39,0,0,0v3.68l0,0-4.45,0,.05.06Z"/><path class="cls-5" d="M372,123.45c0-1.39,0-2.77-.05-4.15l3.57,0-.05-.06.06,4.34Z"/><path class="cls-2" d="M355.94,111.23h-4.42v-3.68h4.42Z"/><path class="cls-2" d="M243.8,83.61V79.93h4.42v3.68Z"/><path class="cls-3" d="M388,111.18v4.43l0,0-8.08,0,0,0c0-1.47,0-2.94,0-4.41Z"/><path class="cls-2" d="M200.18,103.23h-4.42V99.68h4.29C200.09,100.87,200.14,102.05,200.18,103.23Z"/><path class="cls-3" d="M264.18,48h3.68c0,1.23,0,2.45,0,3.68l-3.47-.16C264.33,50.23,264.25,49.09,264.18,48Z"/><path class="cls-3" d="M288.21,32h3.67v3.66h-3.67Z"/><path class="cls-5" d="M283.83,43.58h4.42V48h-4.42Z"/><path class="cls-3" d="M243.84,80h-3.66V75.53l-.05.06,3.61-.07Z"/><path class="cls-2" d="M243.74,75.52l-3.61.07c0-1.22,0-2.44,0-3.65h3.68C243.81,73.13,243.77,74.33,243.74,75.52Z"/><path class="cls-3" d="M391.56,115.61c0-1.48,0-3,0-4.43l8.06,0-.05,0v4.41l.05,0-8.08,0Z"/><path class="cls-5" d="M391.56,119.15H388l0,0v-3.63l0,0h3.6l0,0v3.63Z"/><path class="cls-3" d="M184.16,107.55c0,1.23,0,2.45,0,3.68l-3.69,0,0,0c0-1.22,0-2.44,0-3.66Z"/><path class="cls-2" d="M399.56,115.59v-4.41l3.72,0-.15,4.29Z"/><path class="cls-3" d="M399.56,115.59l3.57-.09.21,3.59-.22.22-3.56-.13.05,0v-3.68Z"/><path class="cls-5" d="M188.49,159.2v-3.64h-4.37l0-4.39h4.38v-8l0,0h3.67l0,0,.11,4.32v3.42l3.61.38c0,1.43,0,2.85,0,4.28h-3.47c-.06,1.38-.12,2.51-.17,3.64Z"/><path class="cls-5" d="M219.75,155.53v-4.29h-3.57v-3.7l3.56-.08,4.46.11,0,0c.07,1.14.15,2.28.23,3.51l3.46.17-.05,0c0,1.47,0,2.94.05,4.4Z"/><path class="cls-5" d="M195.79,131.55c0,3.88,0,7.76,0,11.64l-3.64,0,0,0c0-1.24-.07-2.48-.1-3.71v-4.23c0-1.24.05-2.48.07-3.72l3.67,0Z"/><path class="cls-2" d="M200.06,127.26l.09,4.28H195.8c0-1.42.07-2.84.1-4.26Z"/><path class="cls-2" d="M216.08,135.26v4.23l-4.27,0v-4.32Z"/><path class="cls-5" d="M216.23,155.53l-4.45,0v-4.4l4.45,0Z"/><path class="cls-5" d="M211.81,135.21v4.32h-3.63v-4.36l0,0Z"/><path class="cls-2" d="M192.13,143.16l3.64,0v4.29h-3.53C192.2,146,192.16,144.6,192.13,143.16Z"/><path class="cls-2" d="M219.74,147.46l-3.56.08v-4.35l3.56.09Z"/><path class="cls-5" d="M203.81,143.18h-3.18c-1-2.9-.32-4.08,3-3.35.06,1.09.12,2.23.18,3.37Z"/><path class="cls-5" d="M243.71,147.43l-3.55.14v-4.08l-4.14-.55c-.06-1.11-.12-2.26-.18-3.41l0,0,4.39-.19v-7.83h8c0,1.19.06,2.37.08,3.56,0,1.48-.07,3-.11,4.44l0,0h-4.5Z"/><path class="cls-5" d="M224.15,143.21h7.78v7.95h-4.14l.05,0c-.08-1.13-.15-2.27-.23-3.51l-3.46-.17,0,0v-4.41Z"/><path class="cls-2" d="M232.2,135.18l-.12-3.68c0-1.45.09-2.89.13-4.33l-.05,0,3.72-.11,4.29.1v4.36H236l-.17,3.63Z"/><path class="cls-5" d="M232.21,127.17c0,1.44-.09,2.88-.13,4.33l-4.27.05,0,0,0-4.29Z"/><path class="cls-2" d="M224.27,139.49c0-1.44-.07-2.87-.11-4.31l3.65,0v4.29Z"/><path class="cls-5" d="M232.2,135.18h3.6v4.39l0,0H232.2Z"/><path class="cls-5" d="M227.81,135.2l-3.65,0,0,0v-3.67l0,.05h3.69l0,0Z"/><path class="cls-2" d="M280.24,131.53v3.68h-4.4v4.34h0l-8.06.11-3.58-.11v-7.76l-4.39-.26v11.66l-3.65,0,.05,0V131.58h-4.41v-4.41h4.37v-3.63l3.68-.17v-4.19l0,0,4.41,0v4.19l3.64.17v3.63h4.37v4.41h-4.11c-.89,4.52,1.54,3.7,4.06,3.27v-3.32Z"/><path class="cls-5" d="M256.17,143.16l3.65,0c0,1.46,0,2.93,0,4.39l-3.72,0Z"/><path class="cls-2" d="M267.85,147.54l-3.54-.1c0-1.42-.06-2.83-.1-4.25h3.62c0,1.45,0,2.91,0,4.36Z"/><path class="cls-5" d="M267.83,143.19h-3.62v-3.65l3.57.11C267.8,140.83,267.81,142,267.83,143.19Z"/><path class="cls-5" d="M251.84,143.18h-3.46c-.06-1.38-.12-2.52-.17-3.65l0,0h3.66v3.61Z"/><path class="cls-5" d="M275.84,159.16V155.6h-3.62c0-1.48,0-3,0-4.44l0,0h11.69l-.05,0v4.4l.05,0-3.52.22c-.06,1.36-.11,2.41-.17,3.46l.05,0Z"/><path class="cls-5" d="M272.23,151.16h-4.18c-.07-1.36-.14-2.49-.2-3.62h0l4.39,0c0,1.23,0,2.46,0,3.68Z"/><path class="cls-5" d="M275.84,171.54H272.2c0-1.47,0-2.94,0-4.4h3.65l4.28,0v4.48Z"/><path class="cls-5" d="M283.84,159.16v4.16l-3.64.23c0-1.46,0-2.93,0-4.4l-.05,0h3.69Z"/><path class="cls-4" d="M280.12,167.11l-4.28,0v-3.65h4.41C280.21,164.71,280.16,165.91,280.12,167.11Z"/><path class="cls-5" d="M235.83,175.17h-3.66v-3.65h3.66Z"/><path class="cls-3" d="M251.83,143.2v-3.63h-3.66c0-1.48.08-3,.11-4.44h3.58v-3.6l-.05.05h4.41V143.2Z"/><path class="cls-5" d="M235.8,179.55v-4.41h4.41v4.41Z"/><path class="cls-2" d="M363.9,127.17h3.68v7.77l-3.68.27Z"/><path class="cls-2" d="M379.91,123.54l3.66.16v7.85h-3.65l0,0C379.94,128.89,379.92,126.22,379.91,123.54Z"/><path class="cls-2" d="M375.57,123.54l-.06-4.34,4.45,0v4.4Z"/><path class="cls-2" d="M359.53,135.21l4.41,0,0,4.39,0,0-4.39.09c0-1.48,0-3,0-4.44Z"/><path class="cls-2" d="M367.53,127.22v-3.68l4.29.13v3.55Z"/><path class="cls-5" d="M311.58,155.63l-3.71-.09h0l0-4.39,3.68-.17v-3.52l4.38.1,0,0c0,2.69,0,5.37,0,8.06Z"/><path class="cls-2" d="M332,151.28l-8.05-.12,0-3.64,3.61-.07,8.09.07c0,1.23,0,2.45,0,3.68l0,0Z"/><path class="cls-5" d="M319.53,147.54h-3.65l0,0-.12-4.32.21-3.59h3.36c.11,1.51.18,2.55.25,3.59,0,1.44-.07,2.88-.11,4.32Z"/><path class="cls-5" d="M323.86,147.52l0,3.64h-4.17c-.08-1.36-.14-2.49-.2-3.62l0,0h4.42Z"/><path class="cls-5" d="M332,151.28l3.61-.13v4.42l-3.65,0C331.93,154.13,331.94,152.7,332,151.28Z"/><path class="cls-5" d="M315.85,159.2c0-1.21,0-2.43,0-3.65h3.7c0,1.22,0,2.44,0,3.65Z"/><path class="cls-5" d="M327.55,159.2l-3.72,0c0-1.21,0-2.41.05-3.61h3.44C327.41,156.93,327.48,158.06,327.55,159.2Z"/><path class="cls-5" d="M379.92,131.54h3.65c0,1.22,0,2.43,0,3.65h-3.65C379.92,134,379.92,132.75,379.92,131.54Z"/><path class="cls-3" d="M351.46,143.25l-7.95-.09.05,0,0-3.66h4.4v-4.37l-.05,0,3.69,0c0,1.46,0,2.91,0,4.37C351.53,140.78,351.49,142,351.46,143.25Z"/><path class="cls-5" d="M351.46,143.25c0-1.24.07-2.47.1-3.71l4.35.06-.05,0,.14,3.57c0,1.48-.07,3-.11,4.45l0,0h-4.39C351.51,146.1,351.48,144.68,351.46,143.25Z"/><path class="cls-3" d="M343.56,147.56l-3.68,0,.05,0c0-1.47,0-2.94-.05-4.41l3.68,0-.05,0C343.53,144.62,343.54,146.09,343.56,147.56Z"/><path class="cls-5" d="M363.91,147.49l0,3.71-4.45.07-3.57,0c0-1.24,0-2.48,0-3.71l0,0,3.73-.11Z"/><path class="cls-5" d="M359.56,139.61l4.39-.09v3.69l-4.39-.09.05.06v-3.63Z"/><path class="cls-3" d="M359.62,147.46l-3.73.11c0-1.48.07-3,.11-4.45l3.61.06-.05-.06Z"/><path class="cls-3" d="M335.52,151.2c0-1.23,0-2.45,0-3.68l-.05,0h4.42l-.05,0c0,1.23,0,2.45,0,3.68Z"/><path class="cls-2" d="M388,115.57v3.63l-8.08,0v-3.68Z"/><path class="cls-2" d="M399.48,127.09h-4.15v-3.55h4.28C399.56,124.72,399.52,125.9,399.48,127.09Z"/><path class="cls-2" d="M399.56,119.18l3.56.13v4l-3.56.23Z"/><path class="cls-2" d="M399.61,115.54v3.68l-8.08,0v-3.63Z"/><path class="cls-5" d="M299.85,179.55v-4.36h-4.37c0-1.19,0-2.38,0-3.56l4.41-.28v-4.2h3.34c.22-1.28.39-2.29.62-3.62h4.06c0,1.22,0,2.43,0,3.65,0,1.42.05,2.85.07,4.27-1.87.45-5.37-1.11-4.08,3.49l4,.48v4.13Z"/><path class="cls-5" d="M299.85,163.53c0,1.22,0,2.44,0,3.66h-7.8c-.08-1.4-.14-2.54-.2-3.67l-.05,0,3.73-.11Z"/><path class="cls-5" d="M288.25,159.15h-4.41l0,0v-3.68l-.05,0h4.42l-.05,0v3.68Z"/><path class="cls-5" d="M291.89,163.52h-3.64v-4.37l-.05,0,3.64.17v4.19Z"/><path class="cls-4" d="M275.84,171.54l4.28.05c0,1.2.09,2.4.13,3.6h-4.43C275.83,174,275.83,172.76,275.84,171.54Z"/><path class="cls-5" d="M291.89,179.5v3.68l-3.46-.17c-.08-1.24-.15-2.37-.23-3.51Z"/><path class="cls-5" d="M295.52,179.55h-3.68v-4.41h3.68Z"/><path class="cls-5" d="M176.11,143.21c0-1.22,0-2.43,0-3.65l0-4.4,4.33,0c0,2.68,0,5.35,0,8Z"/><path class="cls-5" d="M188.53,143.16l-4.41.05c0-2.68,0-5.35,0-8l4.38,0,.06,4.33-.11,3.71Z"/><path class="cls-5" d="M184.15,131.56h-3.64v-4.38h3.64c0,1.46,0,2.93,0,4.39Z"/><path class="cls-2" d="M180.49,135.18l-4.33,0h0c0-1.2,0-2.4,0-3.6h4.35C180.49,132.76,180.49,134,180.49,135.18Z"/><path class="cls-2" d="M188.54,135.16l-4.38,0c0-1.21,0-2.42,0-3.62h0l4.27.1c0,1.18.05,2.36.08,3.54Z"/><path class="cls-5" d="M168.23,143.25l-.21-3.6.23-.22,4.32.21-.06,3.54Z"/><path class="cls-4" d="M172.57,139.64l-4.32-.21c0-1.42-.08-2.83-.11-4.25l4.28-.07,3.75.06h0l0,4.4Z"/><path class="cls-5" d="M303.52,155.54h-3.64l-4.28,0c0-1.48-.05-3-.07-4.44l0,0,4.46-.1h3.54l0,4.44Z"/><path class="cls-2" d="M299.85,163.53l-4.28-.08c0-1.43,0-2.87,0-4.3h4.32Z"/><path class="cls-4" d="M299.85,159.15h-4.32c0-1.18.05-2.36.07-3.55l4.28,0Z"/><path class="cls-2" d="M307.87,155.54c0,1.18-.07,2.35-.1,3.53h-4.08c-.06-1.29-.12-2.41-.17-3.53h4.35Z"/><path class="cls-2" d="M180.48,111.18l3.69,0,0,0v4.41h4.42l0,0,.12,3.71c0,1.44-.05,2.89-.07,4.33l-4.34.07-3.71-.12,0,0v-4.41h-4.42l0,0c0-1.22,0-2.45,0-3.68h4.37Z"/><path class="cls-3" d="M172.42,135.11l-4.28.07c0-1.21,0-2.42,0-3.63l4.26-.1.22.22C172.55,132.81,172.48,134,172.42,135.11Z"/><path class="cls-3" d="M180.51,131.57h-4.36l-3.54.1-.22-.22c0-1.42.06-2.84.1-4.26h8Z"/><path class="cls-3" d="M176.11,119.18h4.42v4.41l-4.45,0,0,.07C176.13,122.14,176.12,120.66,176.11,119.18Z"/><path class="cls-2" d="M176.08,123.56l4.45,0,0,0c0,1.22,0,2.44,0,3.65h-4.35C176.12,126,176.1,124.77,176.08,123.56Z"/><path class="cls-2" d="M351.57,135.17l-3.69,0v-8h8v4.41l.05-.05h-4.25c-.07,1.58-.12,2.63-.17,3.68Z"/><path class="cls-2" d="M355.94,115.54v3.68h-4.42v-3.68Z"/><path class="cls-2" d="M355.89,131.58h3.64v3.63l.05,0h-3.69l.05,0v-3.68Z"/><path class="cls-2" d="M332,119.2c0,1.44,0,2.87,0,4.31l-.12,3.71.05,0H327.5l.05,0c-.07-1.13-.14-2.26-.23-3.64l-3.46.24v3.4l.05,0h-4.5V135l-3.55.17c0-3.89,0-7.78.05-11.67l-.05,0,3.69-.25v-4.16l-.05,0h4.24c.07-1.57.12-2.62.17-3.67l-.06,0,3.66,0c.05,1.06.1,2.11.17,3.63Z"/><path class="cls-2" d="M331.87,127.22h8v4.34l0,0H335.6v3.66l-3.68.2v4.18h-4.41v-3.93l-3.6-1v-7.49l-.05,0h3.69l-.05,0v4.42l4.42-.25v-4.17Z"/><path class="cls-2" d="M335.48,119.2l4.45,0v4.36h-4.39Z"/><path class="cls-2" d="M347.93,135.17v4.37h-4.4l0,0v-4.4l0,0Z"/><path class="cls-2" d="M339.9,131.56h3.62v3.65l0,0h-3.72l.09-3.65Z"/><path class="cls-5" d="M295.52,147.57v-4.08l4.14-.55c.07-1.1.14-2.25.21-3.4h0l3.72-.09,4.28.08c0,1.22,0,2.45,0,3.67h-4.4v4.41h-3.56l-4.46-.11Z"/><path class="cls-5" d="M283.84,147.57h11.68l0,0v3.68l0,0-3.43.23c-.2,1.54-.35,2.7-.54,4.13H288.2l.05,0v-4.4h-4.42l.05,0v-3.68Z"/><path class="cls-2" d="M291.84,135.21v-8l3.69.17v7.87Z"/><path class="cls-2" d="M295.48,135.17l4.41,0,0,0c0,1.46,0,2.92,0,4.38h-4.38Z"/><path class="cls-5" d="M280.2,143.21l3.68-.05c0,1.47,0,2.94,0,4.41l0,0-3.64-.17v-4.19Z"/><path class="cls-2" d="M299.85,123.54l8,0,0,0c0,1.22,0,2.45,0,3.68h-4.42v8l0,0h-3.68l0,0C299.88,131.32,299.86,127.43,299.85,123.54Z"/><path class="cls-5" d="M327.51,115.57l-3.66,0,.09-4.39-.05,0,3.63,0Z"/><path class="cls-2" d="M327.52,111.2l-3.63,0c0-1.23,0-2.46,0-3.69h3.67C327.54,108.77,327.53,110,327.52,111.2Z"/><path class="cls-2" d="M307.85,115.54h3.69v3.67h4.35l0,0v4.41l.05,0h-8.06l0,0C307.88,120.9,307.87,118.22,307.85,115.54Z"/><path class="cls-2" d="M323.94,111.21l-.09,4.39.06,0H319.5l0,0v-4.37Z"/><path class="cls-2" d="M315.89,119.21c0-1.22,0-2.44,0-3.66l3.66,0,0,0v3.68l.05,0h-3.69Z"/><path class="cls-2" d="M351.57,111.18v4.41h-3.69v-4.41Z"/><path class="cls-5" d="M280.1,139.67c0,1.18.07,2.36.1,3.54l0-.05-4.41.05c0-1.23,0-2.45,0-3.67h0Z"/><path class="cls-2" d="M351.57,87.92V91.6h-8.05V87.92Z"/><path class="cls-2" d="M355.94,99.55v3.68h-4.42V99.55Z"/><path class="cls-3" d="M211.81,135.21h-3.67c.06-1.07.11-2.14.18-3.43h7.76v3.48Z"/><path class="cls-3" d="M224.2,143.16v4.41l-4.46-.11v-4.18Z"/><path class="cls-3" d="M227.84,131.58h-3.69c0-1.47,0-2.93,0-4.39l3.7.1Z"/><path class="cls-3" d="M224.2,131.53v3.67h-3.85C219.73,131.6,219.73,131.6,224.2,131.53Z"/><path class="cls-3" d="M200.06,127.26l-4.16,0-.22-.22c0-1.18.09-2.36.13-3.54l0,0h4.29Z"/><path class="cls-2" d="M208.1,123.57V127H204l-.2-3.35h4.36Z"/><path class="cls-3" d="M192.14,119.21h3.63v4.37l0,0-3.67,0,0-4.39Z"/><path class="cls-3" d="M188.61,119.26l-.12-3.71h3.66c0,1.22,0,2.43,0,3.65l0,0Z"/><path class="cls-3" d="M240.18,111.22H236c-.08-1.39-.15-2.52-.22-3.65h12.13l.37,3.52-.22.22-4.26-.09Z"/><path class="cls-3" d="M251.9,111.29l-.09,4.3.05,0h-3.48l-.29-4.23.22-.22Z"/><path class="cls-3" d="M227.76,123.46c0-1.42,0-2.85.05-4.27l4.43.11-.06,4.27Z"/><path class="cls-3" d="M235.81,119.26v-3.7h4.44l-.06,0,0,3.71.05,0-4.44,0Z"/><path class="cls-5" d="M240.18,111.22h3.65v4.29h-3.64l.06,0C240.23,114.11,240.2,112.67,240.18,111.22Z"/><path class="cls-5" d="M232.18,123.57l.06-4.27,3.57,0,0-.06,0,4.38,0,0h-3.64Z"/><path class="cls-3" d="M232.18,123.56h3.64l.06,3.54-3.72.11C232.17,126,232.17,124.78,232.18,123.56Z"/><path class="cls-3" d="M256.22,115.54c0,1.23,0,2.46,0,3.68l0,0h-4.36v-3.64l-.05,0Z"/><path class="cls-3" d="M259.86,119.18v4.19l-3.68.17,0,0v-4.41l0,0Z"/><path class="cls-3" d="M188.54,115.59h-4.42v-4.41h4.42Z"/><path class="cls-3" d="M188.49,143.2c0-1.24.08-2.48.11-3.71h3.46c0,1.23.07,2.47.1,3.71Z"/><path class="cls-3" d="M224.15,147.52l3.46.17c.08,1.24.15,2.38.23,3.51l-3.46-.17C224.3,149.8,224.22,148.66,224.15,147.52Z"/><path class="cls-3" d="M195.9,127.3c0,1.42-.07,2.84-.1,4.26l-3.67,0,0,0,0-4.4,3.54-.1Z"/><path class="cls-2" d="M192.06,139.49H188.6l-.06-4.33,0,.05,3.57,0Z"/><path class="cls-3" d="M192.06,135.26l-3.57,0c0-1.18-.06-2.36-.08-3.54l.22-.23,3.54.14,0,0C192.11,132.78,192.09,134,192.06,135.26Z"/><path class="cls-3" d="M251.81,127.17v4.41l.05-.05-3.66,0h-8c0-1.45,0-2.91,0-4.36v-3.65c0-1.46,0-2.92,0-4.37l-.05,0,3.45.17c.18,1.54.32,2.7.47,4l3.86.39c.19,1.14.36,2.16.54,3.29l3.38.18Z"/><path class="cls-3" d="M235.8,139.57v-4.39c0-1,.1-2.09.17-3.63h4.22v7.83Z"/><path class="cls-2" d="M248.2,131.57l3.66,0v3.6h-3.58C248.26,133.94,248.23,132.76,248.2,131.57Z"/><path class="cls-5" d="M240.17,123.55v3.65l-4.29-.1-.06-3.54,0,0Z"/><path class="cls-3" d="M275.85,139.54c0,1.22,0,2.44,0,3.67l.05-.05-3.69.25v4.16l0,0-4.39,0c0-1.45,0-2.91,0-4.36,0-1.18,0-2.36-.05-3.54Z"/><path class="cls-3" d="M256.18,123.54v3.63h-4.37l.05,0c0-1.14.1-2.28.16-3.63h4.2Z"/><path class="cls-3" d="M272.19,131.53v3.32c-2.52.43-4.95,1.25-4.06-3.27h4.11Z"/><path class="cls-3" d="M275.83,143.21l4.41-.05v4.19l3.64.17v3.68H272.19c0-1.22,0-2.45,0-3.68l0,0,3.69-.25v-4.16Z"/><path class="cls-3" d="M283.83,151.16h4.42v4.4h-4.42Z"/><path class="cls-3" d="M283.88,155.52v3.68h-3.69c.06-1,.11-2.1.17-3.46Z"/><path class="cls-3" d="M355.89,135.17h3.69c0,1.48,0,3,0,4.44l.05-.06h-3.75l.05,0C355.91,138.13,355.9,136.65,355.89,135.17Z"/><path class="cls-2" d="M315.79,143.25l.12,4.32-4.38-.1.05.07-.06-4.34Z"/><path class="cls-3" d="M307.88,155.55h-4.37l0-4.43,0,0,4.45,0,0,0Z"/><path class="cls-3" d="M311.53,147.47V151l-3.68.17,0,0v-3.68l0,0,3.73,0Z"/><path class="cls-3" d="M327.51,139.57h4.41l-.05,0c.07,1.14.14,2.28.23,3.63h3.46c0,1.47,0,2.94-.05,4.41l.05,0-8.09-.07c0-1.43,0-2.85,0-4.27,0-1.22,0-2.44,0-3.65Z"/><path class="cls-5" d="M327.51,143.18c0,1.42,0,2.84,0,4.27l-3.61.07.06.06c0-1.47,0-2.93,0-4.39l-.05.05Z"/><path class="cls-3" d="M323.91,127.17v7.49l3.6,1v3.93l0,0-3.66.23v3.48l.05-.05-4.33.06c-.07-1-.14-2.08-.25-3.59H316l-.23-.22c.05-1.42.09-2.85.14-4.27l-.05,0,3.55-.17v-7.87Z"/><path class="cls-3" d="M315.79,143.25l-4.27-.05-3.67,0,0,.05c0-1.22,0-2.45,0-3.67,0-1.46,0-2.91,0-4.37l0,0h3.69l-.05,0v4.27h4.28l.23.22Z"/><path class="cls-2" d="M319.61,143.25l4.33-.06c0,1.46,0,2.92,0,4.39H319.5C319.54,146.13,319.57,144.69,319.61,143.25Z"/><path class="cls-2" d="M355.89,135.17c0,1.48,0,3,0,4.43l-4.35-.06c0-1.46,0-2.91,0-4.37l-.05,0h4.42Z"/><path class="cls-2" d="M343.56,143.2l-3.68,0,.05.05c0-1.23,0-2.45-.05-3.68l3.68,0,0,0Z"/><path class="cls-2" d="M355.86,139.55h3.75v3.63l-3.61-.06C356,141.93,355.91,140.74,355.86,139.55Z"/><path class="cls-2" d="M335.51,147.57c0-1.47,0-2.94.05-4.41l-.05.05h4.42l-.05-.05c0,1.47,0,2.94.05,4.41Z"/><path class="cls-3" d="M288.2,155.52h3.36c.19-1.43.34-2.59.54-4.13l3.43-.23c0,1.48.05,3,.07,4.44,0,1.19-.05,2.37-.07,3.55,0,1.43,0,2.87,0,4.3l-3.73.11v-4.19l-3.64-.17Z"/><path class="cls-3" d="M188.41,131.67l-4.27-.1c0-1.46,0-2.93,0-4.39l0,0,4.4,0c0,1.42.07,2.84.11,4.26Z"/><path class="cls-3" d="M180.5,127.19c0-1.21,0-2.43,0-3.65l3.71.12c0,1.19,0,2.37-.08,3.56l0,0Z"/><path class="cls-5" d="M172.61,131.67l3.54-.1c0,1.2,0,2.4,0,3.6l-3.75-.06C172.48,134,172.55,132.81,172.61,131.67Z"/><path class="cls-3" d="M295.48,151.2v-3.68l4.46.11v3.47Z"/><path class="cls-2" d="M299.94,151.1v-3.47h3.56l-.05-.07v3.62l0,0Z"/><path class="cls-5" d="M184.12,127.22c0-1.19,0-2.37.08-3.56l4.34-.07-.06-.06c0,1.23,0,2.45,0,3.68l0,0Z"/><path class="cls-5" d="M188.61,119.26l3.56-.08,0,4.39,0,0-3.68,0,.06.06C188.56,122.15,188.59,120.7,188.61,119.26Z"/><path class="cls-3" d="M355.94,135.21h-4.42c.05-1.05.1-2.1.17-3.68h4.25Z"/><path class="cls-3" d="M307.85,123.54h8.06c0,3.89,0,7.78-.05,11.67l.05,0h-4.42l.05,0v-7.87l-3.69-.17,0,0Z"/><path class="cls-3" d="M331.92,127.17v4.17l-4.42.25v-4.42Z"/><path class="cls-3" d="M315.86,119.18h3.69v4.16l-3.69.25Z"/><path class="cls-3" d="M319.5,119.22v-3.68h4.41c-.05,1-.1,2.1-.17,3.67Z"/><path class="cls-3" d="M327.55,127.22h-3.69v-3.4l3.46-.24C327.41,125,327.48,126.09,327.55,127.22Z"/><path class="cls-3" d="M331.92,139.57v-4.18l3.68-.2-.06-.05,0,4.44.05-.05h-3.69Z"/><path class="cls-5" d="M339.93,131.53l-.09,3.65.06,0h-4.36l.06.05v-3.66Z"/><path class="cls-3" d="M343.56,139.57l-3.68,0,.05.05,0-4.44-.06,0h3.72Z"/><path class="cls-2" d="M307.9,135.17c0,1.46,0,2.91,0,4.37l-4.28-.08c0-1.43,0-2.86-.05-4.29l0,0Z"/><path class="cls-3" d="M303.5,147.62v-4.41h4.4l0-.05v4.41l0,0-4.45,0Z"/><path class="cls-3" d="M303.53,135.17c0,1.43,0,2.86.05,4.29l-3.72.09c0-1.46,0-2.92,0-4.38Z"/><path class="cls-3" d="M307.9,135.17l-4.42,0v-8h4.42l0,0v8Z"/><path class="cls-5" d="M195.68,127.08l-3.54.1,0,0v-3.66l0,0,3.67,0C195.77,124.72,195.72,125.9,195.68,127.08Z"/><path class="cls-2" d="M256.22,123.59H252c-.06,1.35-.11,2.49-.16,3.63l-3.38-.18c-.18-1.13-.35-2.15-.54-3.29l-3.86-.39c-.15-1.27-.29-2.43-.47-4l-3.45-.17,0-3.71h3.64v-4.29l4.26.09c.08,1.27.17,2.53.29,4.23h3.48v3.64h4.36Z"/><path class="cls-2" d="M240.17,123.55l-4.37,0,0-4.38,4.44,0C240.2,120.63,240.18,122.09,240.17,123.55Z"/><path class="cls-5" d="M188.63,131.44c0-1.42-.07-2.84-.11-4.26l0,0h3.66l0,0,0,4.4Z"/><path class="cls-5" d="M275.88,143.16v4.16l-3.69.25v-4.16Z"/><path class="cls-5" d="M307.85,147.57v-4.41l3.67,0,.06,4.34Z"/><path class="cls-5" d="M303.45,147.55l4.45,0v3.68l-4.45,0Z"/><path class="cls-2" d="M323.89,143.24v-3.48l3.66-.23c0,1.21,0,2.43,0,3.65Z"/><path class="cls-2" d="M331.87,139.53h3.69c0,1.23,0,2.45-.05,3.68l.05-.05H332.1C332,141.81,331.94,140.67,331.87,139.53Z"/><path class="cls-2" d="M311.49,135.17h4.42c-.05,1.42-.09,2.85-.14,4.27h-4.28Z"/><path class="cls-2" d="M307.85,135.21v-8l3.69.17v7.87Z"/><path class="cls-3" d="M335.51,143.21c0-1.23,0-2.45.05-3.68l-.05.05h4.42l-.05-.05c0,1.23,0,2.45.05,3.68Z"/><path class="cls-2" d="M192.16,127.21H188.5c0-1.23,0-2.45,0-3.68l3.68,0Z"/><path class="cls-2" d="M339.93,139.58h-4.42l0-4.44h4.36Z"/></g></g></svg>